<svg width="274" height="210" viewBox="0 0 274 210" fill="none" xmlns="http://www.w3.org/2000/svg">
<g style="mix-blend-mode:multiply" opacity="0.41">
<path d="M143.433 210C215.216 210 273.407 206.739 273.407 202.716C273.407 198.694 215.216 195.433 143.433 195.433C71.6503 195.433 13.459 198.694 13.459 202.716C13.459 206.739 71.6503 210 143.433 210Z" fill="#CFCFCF"/>
</g>
<path d="M43.4016 72.5085C53.483 65.5642 56.0262 51.7622 49.0818 41.6808C42.1375 31.5994 28.3354 29.0562 18.254 36.0005C8.1726 42.9449 5.62949 56.7469 12.5738 66.8283C19.5181 76.9097 33.3202 79.4529 43.4016 72.5085Z" fill="#FFB347"/>
<path d="M41.7754 70.5392C50.7673 64.4946 53.1566 52.3051 47.112 43.3131C41.0673 34.3212 28.8778 31.9319 19.8859 37.9765C10.8939 44.0211 8.50462 56.2107 14.5492 65.2026C20.5939 74.1946 32.7834 76.5838 41.7754 70.5392Z" fill="#F9DEBB"/>
<path d="M40.2803 68.8521C48.4358 63.7669 50.9247 53.0333 45.8396 44.8779C40.7544 36.7224 30.0208 34.2335 21.8654 39.3186C13.7099 44.4038 11.221 55.1374 16.3061 63.2928C21.3913 71.4483 32.1249 73.9372 40.2803 68.8521Z" fill="#FFB347"/>
<path d="M28.848 64.1569L28.3952 67.3018L28.9172 67.3773L29.3638 64.2764L30.0368 64.4022C30.4079 64.4525 30.7287 64.4714 31.0432 64.4902L30.5903 67.6352L31.1124 67.7106L31.5778 64.5028C32.3341 64.4558 33.0756 64.2726 33.7667 63.9619C34.0471 63.7927 34.3702 63.7075 34.6976 63.7166C35.0436 63.7669 35.1127 64.182 35.1065 64.9745L35.7354 65.0626C35.8109 63.9807 36.0059 62.4649 36.5343 58.7727L35.9053 58.6847C35.3329 61.3642 34.0938 63.6474 31.6533 63.9619L32.8735 55.4706C35.27 54.4201 37.2765 53.2628 37.6601 50.5833C38.0438 47.9038 36.4651 46.1804 34.3139 45.5514L34.7731 42.331L34.251 42.2555L33.7982 45.4005L33.4019 45.325C32.9733 45.2598 32.5391 45.2388 32.1062 45.2621L32.5779 41.9914L32.0559 41.9159L31.5653 45.3124C31.0422 45.411 30.5373 45.5892 30.0683 45.8408C29.7888 46.0115 29.4646 46.0948 29.1374 46.0798C28.7914 46.0295 28.7222 45.6206 28.7285 44.8218L28.0995 44.7338C28.0555 45.6709 27.9486 46.7968 27.4706 50.0927L28.0995 50.1808C28.5273 48.2183 29.6091 46.3188 31.5086 45.8345L30.3828 53.5962C27.6278 54.8541 25.615 55.9423 25.2251 58.6281C24.7974 61.5214 26.439 63.4147 28.848 64.1569ZM33.339 52.3068L34.2322 46.1364C34.8089 46.412 35.28 46.8681 35.574 47.4357C35.868 48.0033 35.9689 48.6513 35.8612 49.2813C35.6411 50.8098 34.6725 51.6274 33.339 52.3068ZM33.7227 45.9351L32.7603 52.5835C32.1942 52.8414 31.5841 53.093 30.9426 53.3823L32.0307 45.7716C32.3833 45.7218 32.7411 45.7218 33.0937 45.7716C33.3083 45.805 33.519 45.8598 33.7227 45.9351ZM29.4519 63.7103L30.4897 56.521C31.0055 56.2568 31.5653 56.0115 32.1754 55.7599L32.3138 55.7033L31.1187 63.9745C30.843 63.9767 30.5675 63.9578 30.2947 63.9178C30.0067 63.8813 29.7239 63.8117 29.4519 63.7103ZM28.9487 63.4776C27.8731 62.8486 27.1435 61.7227 27.4014 59.9426C27.6089 58.5023 28.521 57.5902 29.9173 56.7977L28.9487 63.4776Z" fill="#F9DEBB"/>
<g style="mix-blend-mode:overlay" opacity="0.23">
<path d="M32.7751 32.1726C35.6119 33.9275 38.1109 36.1772 40.1531 38.8147C47.072 48.1866 44.8328 64.1943 32.9449 69.4526C27.9651 71.6717 22.4574 72.4308 17.063 71.6415C19.7706 73.7852 22.9417 75.2666 26.3234 75.9675C29.705 76.6684 33.2037 76.5695 36.5403 75.6785C39.8769 74.7875 42.9592 73.1292 45.5413 70.8359C48.1234 68.5425 50.1339 65.6775 51.4125 62.4694C52.691 59.2612 53.2022 55.7987 52.9054 52.358C52.6085 48.9172 51.5118 45.5934 49.7026 42.6517C47.8934 39.71 45.4219 37.2317 42.4851 35.4145C39.5484 33.5973 36.2276 32.4915 32.7877 32.1852L32.7751 32.1726Z" fill="black"/>
</g>
<path d="M91.9189 29.8516C87.1449 29.1849 83.2452 32.009 82.2829 32.7638C81.1255 33.6633 79.3706 35.0282 78.553 37.4498C77.2132 41.4438 79.0561 46.3625 82.4401 48.4445C83.8553 49.3125 86.0505 49.325 90.4282 49.3439C96.4917 49.3439 97.6238 48.2621 97.9761 47.8218C98.8755 46.7714 98.5233 45.9348 99.6806 43.9283C100.415 42.6447 101.374 41.5029 102.511 40.557C101.197 34.8206 96.8879 30.5435 91.9189 29.8516Z" fill="#342C3B"/>
<path d="M113.361 118.878C113.361 118.878 114.172 122.652 114.078 123.281C113.984 123.91 114.801 128.168 115.424 128.791C116.047 129.414 119.883 128.602 120.984 127.785C122.085 126.967 121.94 124.86 121.173 123.948C120.405 123.036 115.996 117.62 115.996 117.62L113.361 118.878Z" fill="#FFB9A9"/>
<path d="M95.3908 193.162C95.3908 193.162 92.4534 198.062 93.919 202.276H112.94C112.94 202.276 113.921 199.728 112.94 198.942C111.958 198.156 100.196 193.652 100.196 193.652L95.3908 193.162Z" fill="white"/>
<path d="M67.2562 193.162C67.2562 193.162 64.3189 198.062 65.7907 202.276H84.805C84.805 202.276 85.7862 199.728 84.805 198.942C83.8238 198.156 74.5399 195.432 74.5399 195.432L67.2562 193.162Z" fill="white"/>
<path d="M90.4276 49.3444L93.4907 62.5532C93.4907 62.5532 89.8175 65.7736 86.899 65.1572C84.9905 64.7101 83.1748 63.9332 81.5337 62.8613L83.0684 48.1431L90.4276 49.3444Z" fill="#FFB9A9"/>
<path d="M90.4284 49.344L91.7241 54.9042C90.1385 55.2053 88.5078 55.1759 86.9341 54.8176C85.3604 54.4594 83.8776 53.7801 82.5786 52.8222L83.0692 48.1174L90.4284 49.344Z" fill="#FF9A83"/>
<path d="M117.361 118.873L112.958 119.998L111.279 117.281L111.128 117.049C109.719 116.325 106.04 108.809 102.951 101.991C102.951 101.909 102.882 101.833 102.838 101.745C100.184 95.9146 97.9633 90.6688 97.9633 90.6688L95.2398 103.022C94.0844 103.254 92.9134 103.399 91.7364 103.456C85.9623 103.833 76.7224 103.393 72.5271 103.154C71.1622 103.079 70.3256 103.022 70.3256 103.022C68.7091 99.6067 69.4828 86.0395 69.4828 86.0395C67.7618 88.4682 65.8988 90.7932 63.9037 93.0023C62.5954 94.3924 61.3437 95.4617 60.5197 95.5686C58.0038 95.9083 40.3418 80.4729 40.3418 80.4729L38.0586 79.6993L40.1028 74.2585L43.2477 75.982L43.6251 76.1895L58.2554 84.3664C58.2554 84.3664 68.1116 64.8678 69.2438 63.5406C69.986 62.6789 74.7537 61.7669 77.993 61.2385C79.7353 60.9555 81.0373 60.7856 81.0373 60.7856C82.6946 62.163 84.7433 62.9838 86.8932 63.1318C87.0482 63.1413 87.2036 63.1413 87.3586 63.1318C89.9312 63.0311 91.2646 61.3203 93.3717 61.3329C94.7167 61.3618 96.0458 61.6301 97.2966 62.1254C100.869 63.484 103.87 66.2515 105.09 67.4781C106.203 68.5914 109.417 95.0528 109.417 95.0528C112.197 98.6695 116.223 115.136 116.336 115.621L117.361 118.873Z" fill="white"/>
<path d="M97.2968 62.0874C95.9608 63.5724 94.5345 64.9735 93.026 66.2828C90.8616 68.1695 88.5287 69.8539 86.0568 71.3147C84.7988 70.0567 83.5408 68.5911 82.2137 66.9998C80.7012 65.1458 79.2922 63.2098 77.9932 61.2005C79.7355 60.9175 81.0375 60.7477 81.0375 60.7477C82.6948 62.125 84.7435 62.9458 86.8933 63.0938C87.0483 63.1034 87.2038 63.1034 87.3588 63.0938C89.9313 62.9932 91.2648 61.2823 93.3719 61.2949C94.7169 61.3238 96.046 61.5922 97.2968 62.0874Z" fill="#EDEDED"/>
<path d="M45.424 77.2146L43.6188 76.2082L43.254 76.0006L40.1091 74.2772L38.0586 79.6991L40.3292 80.4979L42.2162 82.1081C43.6523 80.7493 44.7509 79.0735 45.424 77.2146Z" fill="#EDEDED"/>
<path d="M116.336 115.601C116.336 115.501 116.109 114.67 115.776 113.4C113.963 114.493 111.962 115.237 109.876 115.595C110.192 116.16 110.62 116.654 111.134 117.048L111.285 117.287L112.958 119.998L117.361 118.872L116.336 115.614V115.601Z" fill="#EDEDED"/>
<path d="M96.0231 50.619C99.4952 47.3287 99.6426 41.8468 96.3523 38.3747C93.0621 34.9026 87.5801 34.7552 84.108 38.0455C80.636 41.3358 80.4886 46.8177 83.7788 50.2898C87.0691 53.7619 92.5511 53.9092 96.0231 50.619Z" fill="#FFB9A9"/>
<path d="M81.9867 103.38C81.8979 103.379 81.8127 103.345 81.7476 103.284C81.6825 103.224 81.6422 103.142 81.6344 103.053C80.8796 92.8825 86.6097 63.0811 86.6663 62.798C86.6838 62.7055 86.7374 62.6236 86.8153 62.5705C86.8931 62.5175 86.9889 62.4975 87.0815 62.515C87.174 62.5325 87.2559 62.5861 87.309 62.6639C87.362 62.7418 87.382 62.8375 87.3645 62.9301C87.3079 63.232 81.5967 92.9454 82.3326 103.015C82.3379 103.109 82.3069 103.201 82.246 103.273C82.1851 103.344 82.0989 103.39 82.0055 103.399L81.9867 103.38Z" fill="white"/>
<path d="M73.5021 75.0319L73.1436 79.0448L76.1941 81.7431L79.4775 80.0449L79.9995 75.686L73.5021 75.0319Z" fill="#EDEDED"/>
<path d="M41.0269 75.7366C41.0269 75.7366 37.4605 73.8496 36.2969 73.9565C35.1333 74.0635 31.9884 75.9253 31.4097 75.7366C30.831 75.5479 26.2709 74.6736 25.8557 74.856C25.4406 75.0384 25.774 75.6108 25.8557 75.7366C25.9375 75.8624 29.334 76.68 29.334 76.68C29.334 76.68 24.8619 76.246 23.8618 76.68C22.8618 77.114 23.3649 77.5292 23.3649 77.5292C23.3649 77.5292 22.6353 78.1582 22.6353 78.5796C22.6339 78.6975 22.6572 78.8144 22.7038 78.9228C22.7504 79.0311 22.8192 79.1285 22.9058 79.2086C22.9058 79.2086 29.4095 77.743 29.8687 77.7682C30.3278 77.7933 33.6049 78.3972 34.2276 78.5041C34.8502 78.611 39.3727 78.3657 39.3727 78.3657L41.0269 75.7366Z" fill="#FFB9A9"/>
<path d="M23.3655 77.768C23.3083 77.767 23.2534 77.7455 23.2107 77.7074C23.168 77.6693 23.1403 77.6172 23.1328 77.5604C23.1238 77.4979 23.1399 77.4344 23.1776 77.3837C23.2154 77.333 23.2716 77.2993 23.3341 77.29C23.5983 77.2522 25.9066 76.9315 26.5356 77.1642C26.5653 77.174 26.5926 77.1898 26.6161 77.2104C26.6395 77.2311 26.6585 77.2563 26.672 77.2844C26.6855 77.3126 26.6932 77.3432 26.6946 77.3744C26.6961 77.4056 26.6912 77.4368 26.6803 77.4661C26.6698 77.496 26.6534 77.5235 26.6321 77.5469C26.6109 77.5704 26.5852 77.5895 26.5565 77.6029C26.5278 77.6164 26.4967 77.624 26.4651 77.6254C26.4334 77.6267 26.4018 77.6217 26.3721 77.6108C25.3801 77.5342 24.3824 77.585 23.4033 77.7617L23.3655 77.768Z" fill="#FF9A83"/>
<path d="M84.1699 43.847C83.9284 44.3086 83.5555 44.6883 83.0983 44.9381C82.6412 45.1879 82.1202 45.2966 81.6013 45.2504C81.0824 45.2043 80.5888 45.0054 80.1829 44.6789C79.777 44.3524 79.4769 43.9129 79.3206 43.416C79.1643 42.919 79.1588 42.3869 79.3048 41.8868C79.4508 41.3867 79.7417 40.9411 80.1408 40.6063C80.5399 40.2715 81.0293 40.0624 81.5471 40.0056C82.065 39.9488 82.588 40.0467 83.0503 40.287C83.3584 40.4462 83.6321 40.6649 83.8554 40.9304C84.0786 41.1959 84.2472 41.503 84.3512 41.8339C84.4553 42.1648 84.4929 42.5131 84.4617 42.8586C84.4306 43.2041 84.3314 43.54 84.1699 43.847Z" fill="#FFB9A9"/>
<path d="M95.1137 45.1055C95.0998 45.2112 95.1161 45.3186 95.1607 45.4155C95.2052 45.5123 95.2762 45.5946 95.3654 45.6529C95.4367 45.6762 95.5129 45.6797 95.5861 45.663C95.6592 45.6464 95.7265 45.6103 95.7807 45.5586C95.8996 45.446 95.992 45.3084 96.0513 45.1558C96.1381 44.9707 96.1832 44.7687 96.1835 44.5643C96.1813 44.4703 96.1582 44.378 96.1157 44.2942C96.0733 44.2103 96.0125 44.137 95.938 44.0797C95.3591 43.7084 95.1074 44.6335 95.1137 45.1055Z" fill="#342C3B"/>
<path d="M92.1072 44.9914C92.1072 44.9159 93.5609 44.897 93.7559 45.52C93.951 46.143 92.4974 46.9988 92.4974 46.9485C92.4974 46.8981 93.435 46.2437 93.284 45.6899C93.1329 45.1361 92.0883 45.0543 92.1072 44.9914Z" fill="#342C3B"/>
<path d="M90.3459 40.3938C90.4504 40.3959 90.5523 40.4263 90.6409 40.4816C90.7295 40.537 90.8014 40.6153 90.8491 40.7083C90.9246 40.9347 90.7359 41.1737 90.5409 41.3373C90.0807 41.6792 89.5053 41.8282 88.937 41.7524C88.7613 41.7358 88.5925 41.6753 88.4464 41.5763C88.3741 41.524 88.3156 41.4548 88.2762 41.3748C88.2367 41.2948 88.2174 41.2063 88.22 41.1171C88.2703 40.3686 89.8679 40.3183 90.3459 40.3938Z" fill="#342C3B"/>
<path d="M95.7997 41.771C95.7021 41.7346 95.5969 41.723 95.4937 41.7373C95.3905 41.7515 95.2925 41.7912 95.2084 41.8527C95.0386 42.0226 95.1141 42.3056 95.2084 42.4817C95.4952 42.9723 95.9625 43.3312 96.5104 43.4818C96.6821 43.5225 96.8608 43.5225 97.0325 43.4818C97.1197 43.4672 97.2019 43.4315 97.2721 43.3778C97.3423 43.3241 97.3982 43.254 97.435 43.1736C97.7181 42.5887 96.2588 41.8905 95.7997 41.771Z" fill="#342C3B"/>
<path d="M91.7422 50.7657C91.2964 50.8285 90.8425 50.7978 90.4093 50.6754C89.9761 50.553 89.5732 50.3417 89.2262 50.0549C88.396 49.319 87.9683 48.061 88.3771 47.7151C88.7859 47.3691 89.352 48.0044 91.1887 48.4133C92.8744 48.7907 93.5977 48.5768 93.7612 48.9479C93.9688 49.4385 92.975 50.5204 91.7422 50.7657Z" fill="white"/>
<path d="M95.9131 44.2932C95.8855 44.2833 95.8561 44.2791 95.8268 44.2807C95.7975 44.2824 95.7688 44.2899 95.7424 44.3028C95.716 44.3157 95.6925 44.3337 95.6732 44.3559C95.6538 44.378 95.6392 44.4038 95.63 44.4316C95.6129 44.4868 95.6171 44.5464 95.6415 44.5987C95.6659 44.651 95.7089 44.6924 95.7621 44.7148C95.818 44.7304 95.8778 44.7232 95.9285 44.695C95.9791 44.6667 96.0166 44.6195 96.0327 44.5638C96.0499 44.5119 96.0472 44.4555 96.0251 44.4054C96.003 44.3554 95.9631 44.3154 95.9131 44.2932Z" fill="white"/>
<path d="M88.9816 43.6838C88.9816 43.9041 89.0697 44.1495 89.2585 44.2187C89.3305 44.2384 89.4066 44.2382 89.4786 44.2183C89.5505 44.1983 89.6158 44.1594 89.6675 44.1055C89.782 43.9893 89.87 43.8497 89.9255 43.6964C90.007 43.5103 90.0437 43.3077 90.0325 43.1049C90.0319 43.0101 90.0081 42.917 89.9631 42.8336C89.9181 42.7502 89.8533 42.6791 89.7745 42.6266C89.183 42.2931 88.9627 43.2181 88.9816 43.6838Z" fill="#342C3B"/>
<path d="M89.7611 42.8593C89.7188 42.8402 89.6717 42.8346 89.6261 42.8431C89.5805 42.8517 89.5386 42.8741 89.5061 42.9072C89.4737 42.9404 89.4521 42.9827 89.4445 43.0285C89.4369 43.0743 89.4435 43.1213 89.4634 43.1632C89.4834 43.2051 89.5157 43.2398 89.5561 43.2628C89.5964 43.2857 89.6428 43.2957 89.689 43.2913C89.7352 43.287 89.779 43.2686 89.8144 43.2386C89.8498 43.2086 89.8752 43.1685 89.887 43.1236C89.9007 43.0718 89.8955 43.0168 89.8725 42.9684C89.8495 42.92 89.81 42.8813 89.7611 42.8593Z" fill="white"/>
<path d="M87.7609 44.6832C87.8615 44.4002 88.9056 44.526 89.434 44.6392C89.7107 44.7021 90.6353 44.9034 90.629 45.1801C90.6227 45.4569 89.6981 45.8091 88.8867 45.6141C88.2515 45.4506 87.6728 44.9286 87.7609 44.6832Z" fill="#FF9A83"/>
<path d="M94.617 46.0357C94.7302 45.8533 95.2775 46.0357 95.7681 46.1552C96.2587 46.2747 96.8562 46.4697 96.8499 46.671C96.8436 46.8723 96.026 47.256 95.3781 46.9918C94.8623 46.7905 94.4975 46.2244 94.617 46.0357Z" fill="#FF9A83"/>
<path d="M82.0444 43.6777H82.1136C82.1734 43.6589 82.2233 43.6173 82.2528 43.562C82.2822 43.5067 82.2887 43.442 82.271 43.382C82.0193 42.5891 80.8362 41.8842 80.7858 41.8591C80.7597 41.8423 80.7304 41.8311 80.6997 41.8261C80.6691 41.8212 80.6377 41.8226 80.6076 41.8303C80.5775 41.8379 80.5493 41.8517 80.5248 41.8707C80.5002 41.8898 80.4798 41.9137 80.4649 41.9409C80.4325 41.9952 80.423 42.0601 80.4383 42.1214C80.4536 42.1827 80.4926 42.2355 80.5467 42.2681C80.8425 42.4443 81.6543 43.0107 81.8053 43.5267C81.8239 43.574 81.8571 43.6142 81.9001 43.6414C81.9431 43.6685 81.9937 43.6813 82.0444 43.6777Z" fill="#FF9A83"/>
<path d="M117.361 118.872L112.958 119.998L111.285 117.287L116.317 115.601L117.361 118.872Z" fill="white"/>
<path d="M43.2477 76.0006L40.3292 80.5168L38.0586 79.718L40.1028 74.2772L43.2477 76.0006Z" fill="white"/>
<path d="M88.1824 66.6538C88.2768 74.4092 87.2641 87.4104 88.4843 95.6627L84.0814 101.091L81.0371 94.9016C81.9491 87.1022 84.05 74.3212 84.962 66.5217L88.1824 66.6538Z" fill="#24A19C"/>
<g style="mix-blend-mode:overlay" opacity="0.89">
<path d="M88.1952 67.9118C88.1952 67.4904 88.1952 67.0752 88.1952 66.6538L84.9748 66.5217C84.9748 66.7796 84.9119 67.0438 84.8867 67.3017C85.3198 67.713 85.863 67.9897 86.4504 68.098C87.0377 68.2063 87.6439 68.1416 88.1952 67.9118Z" fill="black"/>
</g>
<path d="M85.8551 63.0375L88.3711 63.157C88.4529 64.415 88.5409 65.6289 88.6227 66.868C88.0356 67.3003 87.3198 67.522 86.5911 67.497C85.8878 67.4659 85.2187 67.1849 84.7041 66.7045C85.0857 65.4842 85.4694 64.2619 85.8551 63.0375Z" fill="#24A19C"/>
<path d="M82.0625 57.7787L79.188 60.9299L84.2954 68.0186L87.0189 62.4961L82.0625 57.7787Z" fill="white"/>
<path d="M87.019 62.4964L92.573 58.559L96.1142 61.7039L88.6733 68.434L87.019 62.4964Z" fill="white"/>
<path d="M162.416 144.724C161.566 142.635 159.321 141.063 158.503 141.579C157.874 141.956 158.076 143.56 158.503 144.906L140.08 145.39L143.225 137.981C143.435 137.5 143.522 136.974 143.477 136.451C143.432 135.928 143.257 135.425 142.967 134.987C142.97 131.834 141.948 128.765 140.055 126.244C137.682 123.278 134.315 121.271 130.577 120.595C126.839 119.918 122.982 120.618 119.72 122.565C116.48 124.598 114.178 127.832 113.317 131.559C112.503 134.949 112.84 138.514 114.273 141.692L113.55 142.692C113.282 143.033 113.09 143.427 112.985 143.848C112.88 144.268 112.865 144.706 112.941 145.133C113.017 145.56 113.182 145.966 113.426 146.325C113.669 146.683 113.986 146.987 114.355 147.215L131.526 156.97C131.911 157.169 132.334 157.284 132.766 157.309C133.199 157.334 133.632 157.267 134.037 157.113C134.442 156.96 134.811 156.722 135.118 156.417C135.426 156.112 135.665 155.745 135.822 155.341L136.275 154.291C141.344 152.63 153.597 148.806 159.447 146.988C160.258 148.322 161.365 149.46 162.063 149.215C162.931 148.888 163.139 146.516 162.416 144.724ZM124.676 127.401L115.43 140.082C114.455 137.466 114.282 134.619 114.933 131.905C115.691 128.624 117.714 125.775 120.563 123.98C126.28 120.42 134.602 121.936 138.734 127.288C140.143 129.126 141.014 131.319 141.25 133.622L128.589 126.439C127.932 126.088 127.168 125.992 126.445 126.169C125.722 126.347 125.089 126.786 124.67 127.401H124.676Z" fill="#24A19C"/>
<g style="mix-blend-mode:overlay" opacity="0.32">
<path d="M114.273 141.667L113.55 142.667C113.282 143.008 113.09 143.402 112.985 143.822C112.88 144.243 112.865 144.681 112.941 145.108C113.017 145.535 113.182 145.941 113.426 146.299C113.67 146.658 113.986 146.961 114.355 147.189L131.526 156.945C131.911 157.143 132.334 157.259 132.766 157.284C133.199 157.308 133.632 157.242 134.037 157.088C134.442 156.934 134.811 156.697 135.118 156.392C135.426 156.086 135.666 155.72 135.822 155.316L136.25 154.322C127.519 153.196 119.789 148.189 114.273 141.667Z" fill="#24A19C"/>
</g>
<g style="mix-blend-mode:overlay" opacity="0.32">
<path d="M138.753 146.145C139.111 147.548 143.973 147.686 147.477 147.258C150.267 146.918 152.987 146.139 155.534 144.95L140.074 145.359L141.25 142.604C140.676 142.999 140.17 143.486 139.753 144.044C139.193 144.793 138.608 145.579 138.753 146.145Z" fill="black"/>
</g>
<g style="mix-blend-mode:overlay" opacity="0.32">
<path d="M159.277 143.114C159.326 143.013 159.407 142.933 159.508 142.885C159.608 142.836 159.722 142.824 159.831 142.85C160.246 142.975 160.297 143.957 160.076 144.064C159.856 144.171 159.12 143.517 159.277 143.114Z" fill="black"/>
</g>
<g style="mix-blend-mode:overlay" opacity="0.32">
<path d="M161.044 144.705C161.093 144.605 161.175 144.525 161.275 144.477C161.376 144.429 161.489 144.416 161.598 144.441C162.013 144.567 162.07 145.548 161.843 145.655C161.617 145.762 160.893 145.114 161.044 144.705Z" fill="black"/>
</g>
<g style="mix-blend-mode:overlay" opacity="0.32">
<path d="M160.051 146.467C160.099 146.366 160.18 146.285 160.281 146.237C160.382 146.189 160.496 146.177 160.604 146.202C161.02 146.328 161.076 147.31 160.856 147.417C160.636 147.524 159.893 146.869 160.051 146.467Z" fill="black"/>
</g>
<path d="M163.661 147.63C163.516 147.737 163.554 148.032 164.158 150.02C164.63 151.567 164.743 151.838 165.064 151.995C165.345 152.119 165.659 152.145 165.957 152.071C166.255 151.997 166.521 151.827 166.712 151.586C167.246 150.718 165.913 149.07 164.982 148.29C164.743 148.095 163.957 147.435 163.661 147.63Z" fill="#24A19C"/>
<path d="M166.076 145.629C166.019 145.806 166.227 146.013 167.913 147.227C169.227 148.177 169.485 148.322 169.831 148.252C170.13 148.18 170.397 148.01 170.589 147.77C170.781 147.53 170.889 147.233 170.894 146.925C170.793 145.913 168.736 145.416 167.523 145.353C167.208 145.34 166.183 145.29 166.076 145.629Z" fill="#24A19C"/>
<path d="M169.36 150.888C169.316 151.001 169.442 151.184 170.48 152.316C171.291 153.196 171.454 153.341 171.693 153.354C171.897 153.345 172.09 153.261 172.235 153.118C172.38 152.975 172.467 152.783 172.48 152.58C172.48 151.844 171.14 151.165 170.341 150.926C170.134 150.863 169.454 150.662 169.36 150.888Z" fill="#24A19C"/>
<path d="M115.613 129.389C115.293 128.277 115.142 127.124 115.166 125.967C115.174 125.87 115.206 125.776 115.26 125.695C115.314 125.614 115.388 125.547 115.474 125.502C116.424 125.043 116.845 127.502 116.921 127.917C117.076 128.489 117.106 129.088 117.009 129.672C116.745 130.515 115.757 130.062 115.613 129.389Z" fill="#FFB9A9"/>
<path d="M117.097 129.263C116.779 128.151 116.622 126.999 116.631 125.842C116.64 125.748 116.671 125.657 116.723 125.579C116.774 125.5 116.844 125.434 116.927 125.389C117.845 124.936 118.273 127.395 118.348 127.81C118.504 128.38 118.538 128.976 118.449 129.559C118.204 130.408 117.241 129.949 117.097 129.263Z" fill="#FFB9A9"/>
<path d="M118.632 129.106C118.387 127.918 118.003 126.471 118.129 125.238C118.136 125.128 118.171 125.022 118.232 124.931C118.293 124.839 118.376 124.765 118.475 124.716C119.556 124.194 120.035 126.98 120.116 127.446C120.291 128.091 120.325 128.767 120.217 129.427C119.915 130.396 118.795 129.886 118.632 129.106Z" fill="#FFB9A9"/>
<path d="M120.342 128.615C120.097 127.42 119.713 125.98 119.864 124.735C119.879 124.622 119.921 124.515 119.986 124.423C120.052 124.331 120.14 124.256 120.242 124.206C121.393 123.672 121.858 126.458 121.934 126.923C122.112 127.571 122.14 128.251 122.015 128.911C121.682 129.886 120.5 129.389 120.342 128.615Z" fill="#FFB9A9"/>
<path d="M82.773 42.8782C82.8736 43.2304 83.1252 43.677 83.4838 43.5763C83.9241 42.2806 83.8297 40.8591 84.1505 39.5257C84.4637 38.4803 84.8853 37.4705 85.4085 36.5128C85.5091 36.299 85.5909 35.997 85.4085 35.8838C85.3256 35.8394 85.2317 35.8198 85.138 35.8272C84.518 35.837 83.9128 36.0185 83.3898 36.3517C82.8668 36.6848 82.4465 37.1564 82.1755 37.7142C82.0602 38.0221 81.9214 38.3207 81.7603 38.6073C81.5528 38.903 81.5716 38.9659 81.7226 39.2804C82.0022 40.0187 82.2313 40.7753 82.4082 41.5447L82.773 42.8782Z" fill="#342C3B"/>
<path d="M91.2585 38.9846L94.7557 39.2802C96.2556 39.4916 97.7805 39.4469 99.2655 39.1481C98.6724 37.8667 97.8162 36.7244 96.7526 35.7956C95.689 34.8667 94.4419 34.1721 93.0923 33.7568C91.7427 33.3415 90.3208 33.2149 88.919 33.3852C87.5172 33.5555 86.167 34.0189 84.9561 34.7452C84.4296 35.0578 83.9327 35.4179 83.4716 35.8208C83.2641 36.0032 82.9747 36.2296 83.2012 36.5127C83.4112 36.7276 83.6505 36.9118 83.9119 37.0599C84.9122 37.7077 86.023 38.1661 87.189 38.4122C88.53 38.7006 89.89 38.8919 91.2585 38.9846Z" fill="#342C3B"/>
<path d="M72.5204 103.154C71.1555 103.078 70.3189 103.022 70.3189 103.022C68.7024 99.6064 69.4761 86.0391 69.4761 86.0391C67.7551 88.4679 65.8921 90.7929 63.897 93.002C66.0921 89.2281 70.0296 82.196 70.5454 78.9504C70.5454 78.9819 70.0296 97.5055 72.5204 103.154Z" fill="#EDEDED"/>
<path d="M102.832 101.745C100.177 95.9142 97.9569 90.6685 97.9569 90.6685L95.2334 103.022C94.078 103.253 92.907 103.398 91.73 103.456C91.8746 103.299 96.6549 98.0025 97.2965 84.7183C97.2965 84.7308 101.02 97.6377 102.832 101.745Z" fill="#EDEDED"/>
<path d="M96.1958 105.343C96.1958 105.343 108.631 148.29 108.631 150.001C108.631 151.712 102.416 193.401 102.416 193.401C102.416 193.401 99.9005 197.125 94.1578 194.407L96.1958 152.265L73.0176 104.55L96.1958 105.343Z" fill="#24A19C"/>
<g style="mix-blend-mode:overlay" opacity="0.15">
<path d="M87 133.364L73.0176 104.575L85.3772 104.984C86.1194 114.211 87.3019 123.929 87 133.364Z" fill="black"/>
</g>
<path d="M69.3133 105.342C68.207 108.811 67.531 112.402 67.3006 116.035C67.1119 121.256 68.307 152.516 68.307 152.516L66.1621 195.432C66.1621 195.432 71.8733 197.426 74.5402 195.432C74.5402 195.432 81.0188 154.007 81.2075 152.29C81.3962 150.573 87.1137 104.575 87.1137 104.575L69.3133 105.342Z" fill="#24A19C"/>
<g style="mix-blend-mode:overlay" opacity="0.15">
<path d="M70.4702 114.677H70.5017C75.7097 114.18 76.9677 108.035 76.9802 107.972C76.9986 107.879 76.9791 107.782 76.926 107.703C76.8729 107.624 76.7906 107.569 76.6972 107.551C76.6038 107.532 76.5069 107.552 76.4279 107.605C76.3488 107.658 76.2941 107.74 76.2758 107.834C76.2758 107.89 75.1059 113.495 70.4325 113.966C70.3463 113.982 70.2686 114.028 70.2141 114.096C70.1596 114.165 70.1321 114.251 70.1367 114.338C70.1414 114.426 70.1779 114.509 70.2393 114.571C70.3007 114.633 70.3829 114.671 70.4702 114.677Z" fill="black"/>
</g>
<g style="mix-blend-mode:overlay" opacity="0.15">
<path d="M100.033 195.433C100.121 195.433 100.206 195.4 100.271 195.341C100.336 195.281 100.377 195.2 100.385 195.112L104.964 149.196C104.976 149.144 104.976 149.09 104.964 149.039L88.8995 105.437C88.8655 105.349 88.7987 105.277 88.7131 105.238C88.6274 105.198 88.5297 105.193 88.4403 105.223C88.3523 105.257 88.2811 105.324 88.2423 105.41C88.2034 105.496 88.2 105.594 88.2328 105.683L104.272 149.208L99.6992 195.055C99.6904 195.149 99.7192 195.243 99.7793 195.316C99.8394 195.389 99.9259 195.436 100.02 195.445L100.033 195.433Z" fill="black"/>
</g>
<g style="mix-blend-mode:overlay" opacity="0.15">
<path d="M70.47 196.15C70.5569 196.149 70.6405 196.116 70.7053 196.059C70.77 196.001 70.8116 195.921 70.8223 195.835L80.8861 106.148C80.8949 106.1 80.8938 106.05 80.8827 106.002C80.8716 105.954 80.8508 105.909 80.8215 105.87C80.7923 105.83 80.7553 105.797 80.7128 105.773C80.6703 105.748 80.6232 105.733 80.5744 105.727C80.5256 105.721 80.4762 105.726 80.4292 105.74C80.3823 105.754 80.3387 105.778 80.3013 105.81C80.2639 105.842 80.2334 105.881 80.2117 105.925C80.19 105.969 80.1777 106.017 80.1753 106.066L70.1115 195.753C70.1025 195.847 70.1303 195.941 70.1889 196.015C70.2476 196.089 70.3325 196.137 70.426 196.15H70.47Z" fill="black"/>
</g>
<path d="M95.3903 103.022L96.1954 105.343C96.1954 105.343 74.2563 107.098 69.3125 105.343L70.4761 103.022H95.3903Z" fill="#24A19C"/>
<g style="mix-blend-mode:overlay" opacity="0.15">
<path d="M95.3903 103.022L96.1954 105.343C96.1954 105.343 74.2563 107.098 69.3125 105.343L70.4761 103.022H95.3903Z" fill="black"/>
</g>
<path d="M204.992 111.985C200.99 112.566 197.13 113.882 193.607 115.866C196.123 100.009 203.564 75.5223 203.564 75.5223C213.062 64.949 215.596 56.7282 215.596 56.7282L213.634 56.269C213.043 58.2944 210.571 65.8799 203.249 69.5532C201.495 70.4301 199.612 71.0184 197.67 71.2955C188.836 64.6942 181.895 55.885 177.543 45.7524C175.177 40.1382 173.663 34.2021 173.052 28.1407L172.184 28.3043C171.096 56.6842 197.287 71.0125 196.714 79.3214C196.331 84.7181 191.626 94.9769 189.059 104.267C186.896 112.104 186.858 119.099 185.21 123.514C181.411 117.998 177.299 112.703 172.894 107.657C169.787 104.091 166.699 100.839 163.692 97.8891L162.522 98.5181C166.543 102.621 170.16 107.101 173.322 111.897C176.039 116.023 180.31 122.501 182.807 131.012C186.33 143.031 184.833 154.076 182.952 161.41L201.155 161.926C201.155 161.926 193.028 137.459 192.802 124.508V124.376C195.173 120.193 198.947 115.148 205.728 113.098C210.344 111.702 214.533 112.18 217.427 112.532C213.353 111.57 209.134 111.385 204.992 111.985Z" fill="#24A19C"/>
<path d="M234.416 30.638C234.07 31.5154 233.473 32.2707 232.698 32.8084C231.924 33.3462 231.007 33.6422 230.064 33.6591C229.122 33.6759 228.195 33.4129 227.402 32.9031C226.609 32.3934 225.984 31.6599 225.608 30.7954C225.231 29.9309 225.12 28.9742 225.287 28.0462C225.454 27.1183 225.893 26.2608 226.548 25.5821C227.202 24.9035 228.043 24.4342 228.965 24.2336C229.886 24.0329 230.846 24.11 231.724 24.455C232.9 24.9191 233.843 25.8307 234.348 26.9899C234.853 28.149 234.877 29.4609 234.416 30.638Z" fill="#FFB347"/>
<path d="M233.906 30.4367C233.601 31.2136 233.072 31.8824 232.386 32.3587C231.701 32.8349 230.889 33.0972 230.055 33.1123C229.22 33.1274 228.4 32.8947 227.698 32.4437C226.995 31.9926 226.442 31.3433 226.109 30.5781C225.776 29.8128 225.677 28.9659 225.825 28.1444C225.973 27.3229 226.361 26.5637 226.94 25.9628C227.52 25.362 228.264 24.9464 229.08 24.7687C229.895 24.591 230.745 24.6592 231.522 24.9646C232.038 25.1673 232.509 25.4697 232.908 25.8545C233.307 26.2392 233.626 26.6988 233.848 27.2069C234.069 27.7151 234.188 28.2618 234.198 28.816C234.208 29.3702 234.109 29.9209 233.906 30.4367Z" fill="#F9DEBB"/>
<path d="M233.46 30.2606C233.189 30.9477 232.721 31.5391 232.114 31.9601C231.507 32.381 230.789 32.6126 230.05 32.6257C229.312 32.6388 228.586 32.4327 227.965 32.0335C227.343 31.6342 226.854 31.0598 226.559 30.3827C226.264 29.7057 226.176 28.9563 226.307 28.2294C226.438 27.5025 226.781 26.8306 227.293 26.2986C227.805 25.7665 228.464 25.3983 229.185 25.2404C229.907 25.0824 230.659 25.1419 231.347 25.4112C232.27 25.7744 233.011 26.4892 233.407 27.3985C233.803 28.3078 233.822 29.3373 233.46 30.2606Z" fill="#FFB347"/>
<path d="M230.347 31.0846L230.598 31.7136L230.705 31.6759L230.46 31.0469L230.598 30.9966C230.665 30.9722 230.731 30.9428 230.793 30.9085L231.045 31.5375L231.145 31.4935L230.894 30.8645C231.03 30.7748 231.149 30.6619 231.246 30.5311C231.309 30.4431 231.353 30.399 231.391 30.3865C231.428 30.3739 231.523 30.4305 231.605 30.5752L231.724 30.5248C231.623 30.311 231.498 30.0091 231.202 29.2669L231.083 29.3109C231.198 29.5454 231.238 29.8101 231.196 30.0683C231.155 30.3264 231.034 30.5651 230.85 30.7513L230.177 29.0341C230.363 28.8543 230.497 28.6264 230.562 28.3756C230.628 28.1248 230.623 27.8608 230.548 27.6126C230.47 27.3813 230.305 27.1901 230.087 27.0805C229.869 26.9709 229.616 26.9519 229.384 27.0277L229.126 26.3987L229.026 26.4427L229.277 27.0717H229.196C229.108 27.1047 229.023 27.1468 228.944 27.1975L228.686 26.5371L228.579 26.5748L228.85 27.2667C228.761 27.3397 228.684 27.4268 228.623 27.5246C228.589 27.585 228.539 27.635 228.479 27.6692C228.409 27.6692 228.353 27.6252 228.271 27.4805L228.145 27.5309C228.233 27.707 228.334 27.9334 228.598 28.6001L228.718 28.5498C228.637 28.3563 228.611 28.1445 228.642 27.9372C228.673 27.7299 228.76 27.535 228.894 27.3736L229.523 28.9461C229.139 29.4681 228.894 29.8896 229.095 30.4368C229.183 30.6834 229.36 30.8875 229.593 31.0078C229.825 31.1281 230.095 31.1556 230.347 31.0846ZM230.41 30.9337L229.837 29.4807C229.906 29.3738 229.988 29.2731 230.076 29.1599L230.705 30.833L230.548 30.9085C230.503 30.922 230.456 30.9305 230.41 30.9337ZM230.29 30.9337C230.144 30.9324 230.002 30.8849 229.884 30.7979C229.767 30.7109 229.68 30.5888 229.636 30.4494C229.585 30.3081 229.57 30.1563 229.593 30.0079C229.616 29.8594 229.676 29.7192 229.768 29.6002L230.29 30.9337ZM229.925 28.38L229.435 27.122C229.57 27.114 229.705 27.1501 229.818 27.225C229.932 27.2998 230.018 27.4093 230.064 27.5371C230.117 27.6794 230.133 27.8332 230.109 27.9834C230.085 28.1335 230.021 28.2746 229.925 28.3926V28.38ZM229.296 27.122L229.825 28.468L229.573 28.8077L228.944 27.2667C229.005 27.2211 229.073 27.185 229.145 27.1598C229.201 27.1496 229.259 27.1496 229.315 27.1598L229.296 27.122Z" fill="#F9DEBB"/>
<g style="mix-blend-mode:overlay" opacity="0.23">
<path d="M232.692 24.9771C233.041 25.603 233.274 26.2871 233.378 26.9961C233.674 29.512 231.554 32.2356 228.767 31.9525C227.604 31.8408 226.494 31.405 225.566 30.6945C225.845 31.3827 226.282 31.996 226.841 32.4856C227.399 32.9752 228.064 33.3275 228.783 33.5145C229.502 33.7014 230.255 33.7178 230.981 33.5623C231.707 33.4069 232.387 33.0838 232.967 32.619C233.546 32.1542 234.009 31.5604 234.318 30.8851C234.627 30.2097 234.774 29.4715 234.748 28.7292C234.721 27.9869 234.521 27.2611 234.165 26.6096C233.808 25.9582 233.304 25.3991 232.692 24.9771Z" fill="black"/>
</g>
<path d="M226.459 95.99C226.237 96.5541 225.854 97.0399 225.356 97.386C224.859 97.732 224.27 97.9228 223.664 97.934C223.058 97.9453 222.463 97.7766 221.953 97.4493C221.443 97.122 221.041 96.6507 220.799 96.0952C220.557 95.5397 220.485 94.9248 220.592 94.3284C220.7 93.732 220.982 93.1809 221.402 92.7448C221.823 92.3086 222.364 92.0071 222.956 91.8782C223.548 91.7494 224.165 91.7991 224.729 92.0211C225.484 92.3184 226.091 92.9034 226.415 93.6476C226.74 94.3918 226.755 95.2343 226.459 95.99Z" fill="#FFB347"/>
<path d="M226.113 95.8644C225.916 96.3633 225.576 96.7926 225.136 97.0982C224.695 97.4038 224.174 97.5718 223.638 97.5811C223.102 97.5904 222.575 97.4406 222.124 97.1505C221.673 96.8604 221.318 96.4431 221.105 95.9514C220.891 95.4596 220.828 94.9156 220.923 94.388C221.019 93.8604 221.268 93.3729 221.641 92.9873C222.013 92.6016 222.492 92.3351 223.016 92.2213C223.54 92.1076 224.086 92.1518 224.585 92.3484C224.916 92.4789 225.218 92.6733 225.474 92.9207C225.73 93.168 225.935 93.4633 226.077 93.7898C226.219 94.1163 226.295 94.4676 226.301 94.8235C226.308 95.1795 226.244 95.5332 226.113 95.8644Z" fill="#F9DEBB"/>
<path d="M225.83 95.7509C225.651 96.1875 225.347 96.5614 224.956 96.8259C224.565 97.0903 224.105 97.2334 223.633 97.2374C223.161 97.2413 222.699 97.1058 222.304 96.8479C221.908 96.59 221.598 96.2212 221.412 95.7877C221.225 95.3542 221.171 94.8753 221.256 94.411C221.34 93.9468 221.56 93.5179 221.888 93.1781C222.215 92.8383 222.636 92.6027 223.096 92.501C223.557 92.3992 224.038 92.4357 224.478 92.606C224.775 92.721 225.047 92.8942 225.276 93.1155C225.506 93.3367 225.689 93.6015 225.815 93.8944C225.941 94.1872 226.007 94.5023 226.01 94.8211C226.012 95.1399 225.951 95.456 225.83 95.7509Z" fill="#FFB347"/>
<path d="M223.842 96.2729L224.006 96.688H224.069L223.911 96.2918L223.999 96.2603C224.042 96.2419 224.084 96.2209 224.125 96.1974L224.289 96.6063H224.358L224.194 96.1911C224.278 96.1313 224.352 96.0592 224.414 95.9773C224.458 95.9207 224.484 95.8892 224.515 95.8829C224.547 95.8766 224.591 95.8829 224.647 96.0024L224.723 95.971C224.66 95.8389 224.578 95.6439 224.389 95.1659L224.314 95.1973C224.39 95.3465 224.416 95.516 224.389 95.6812C224.362 95.8464 224.283 95.9986 224.163 96.1156L223.729 95.0149C223.849 94.9013 223.935 94.7562 223.978 94.5962C224.02 94.4361 224.017 94.2674 223.968 94.1092C223.919 93.9611 223.813 93.8384 223.674 93.7677C223.535 93.697 223.374 93.6841 223.226 93.7318L223.062 93.3167H222.993L223.156 93.7255H223.106C223.048 93.7446 222.993 93.7722 222.943 93.8073L222.779 93.3796L222.71 93.411L222.88 93.8513C222.825 93.8979 222.778 93.9531 222.741 94.0148C222.697 94.0714 222.672 94.0966 222.647 94.1029C222.622 94.1092 222.565 94.1029 222.509 93.9834L222.433 94.0148C222.49 94.1343 222.553 94.2727 222.722 94.7004L222.798 94.669C222.746 94.5459 222.729 94.4109 222.749 94.2787C222.769 94.1466 222.825 94.0226 222.911 93.9205L223.307 94.9269C223.062 95.2602 222.892 95.5558 223.031 95.8766C223.057 95.9567 223.099 96.0307 223.154 96.0942C223.209 96.1577 223.277 96.2095 223.353 96.2464C223.428 96.2834 223.511 96.3048 223.595 96.3093C223.679 96.3139 223.763 96.3015 223.842 96.2729ZM223.88 96.1785L223.515 95.2476L223.666 95.0464L224.087 96.1156L223.987 96.166C223.958 96.1737 223.928 96.1779 223.899 96.1785H223.88ZM223.804 96.1785C223.709 96.1805 223.616 96.1507 223.54 96.0937C223.463 96.0367 223.408 95.9559 223.383 95.864C223.35 95.7733 223.34 95.6756 223.354 95.58C223.368 95.4844 223.406 95.394 223.465 95.3168L223.804 96.1785ZM223.572 94.5432L223.257 93.7507C223.345 93.7429 223.433 93.7647 223.507 93.8126C223.581 93.8604 223.637 93.9316 223.666 94.0148C223.701 94.1027 223.713 94.1984 223.7 94.2922C223.686 94.3861 223.649 94.4748 223.59 94.5495L223.572 94.5432ZM223.182 93.7569L223.521 94.6187L223.358 94.8388L222.968 93.8513C223.009 93.8231 223.053 93.7998 223.1 93.7821L223.182 93.7569Z" fill="#F9DEBB"/>
<g style="mix-blend-mode:overlay" opacity="0.23">
<path d="M225.333 92.3545C225.558 92.7577 225.705 93.1993 225.767 93.6565C225.956 95.2541 224.598 97.0216 222.811 96.8392C222.061 96.7653 221.348 96.4795 220.754 96.0152C220.934 96.4557 221.213 96.8482 221.571 97.1616C221.929 97.475 222.355 97.7006 222.815 97.8205C223.275 97.9404 223.757 97.9513 224.222 97.8522C224.687 97.7532 225.123 97.547 225.494 97.25C225.866 96.9531 226.163 96.5735 226.362 96.1416C226.561 95.7097 226.656 95.2372 226.641 94.7619C226.625 94.2866 226.499 93.8215 226.272 93.4036C226.045 92.9856 225.724 92.6264 225.333 92.3545Z" fill="black"/>
</g>
<path d="M150.207 57.6842C150.686 58.6529 150.868 59.742 150.728 60.8138C150.589 61.8856 150.135 62.8921 149.424 63.7059C148.712 64.5197 147.776 65.1043 146.732 65.386C145.689 65.6676 144.585 65.6335 143.561 65.288C142.537 64.9425 141.638 64.3011 140.978 63.445C140.319 62.5888 139.928 61.5563 139.855 60.4779C139.782 59.3995 140.03 58.3237 140.568 57.3865C141.107 56.4492 141.911 55.6926 142.879 55.2123C143.523 54.8931 144.223 54.7039 144.939 54.6554C145.656 54.6069 146.375 54.7001 147.055 54.9297C147.736 55.1593 148.364 55.5207 148.905 55.9933C149.446 56.466 149.888 57.0406 150.207 57.6842Z" fill="#FFB347"/>
<path d="M149.641 57.9862C150.066 58.8436 150.227 59.8077 150.103 60.7565C149.98 61.7053 149.578 62.5962 148.948 63.3165C148.319 64.0368 147.489 64.5542 146.566 64.8033C145.642 65.0523 144.665 65.0217 143.758 64.7155C142.852 64.4092 142.057 63.841 141.473 63.0828C140.89 62.3245 140.544 61.4102 140.48 60.4556C140.417 59.5009 140.637 58.5488 141.115 57.7196C141.592 56.8905 142.305 56.2215 143.162 55.7974C144.312 55.2289 145.64 55.1402 146.855 55.5506C148.07 55.9611 149.072 56.8371 149.641 57.9862Z" fill="#F9DEBB"/>
<path d="M149.144 58.2318C149.52 58.991 149.663 59.8448 149.554 60.6851C149.445 61.5254 149.089 62.3145 148.532 62.9526C147.974 63.5907 147.24 64.0491 146.422 64.2698C145.604 64.4904 144.739 64.4635 143.936 64.1924C143.133 63.9213 142.429 63.4181 141.912 62.7466C141.395 62.0751 141.089 61.2654 141.032 60.4199C140.976 59.5745 141.171 58.7312 141.594 57.9969C142.017 57.2626 142.648 56.6701 143.408 56.2945C144.426 55.793 145.601 55.7153 146.676 56.0784C147.751 56.4415 148.639 57.2158 149.144 58.2318Z" fill="#FFB347"/>
<path d="M144.153 62.2134L143.801 62.9178L143.92 62.9807L144.26 62.2826L144.411 62.3643C144.493 62.4084 144.568 62.4335 144.637 62.465L144.291 63.1632L144.404 63.2198L144.763 62.509C144.944 62.5538 145.131 62.5665 145.317 62.5467C145.395 62.5285 145.477 62.5285 145.556 62.5467C145.631 62.5845 145.612 62.6914 145.556 62.8675L145.688 62.9367C145.788 62.6851 145.952 62.3455 146.354 61.5278L146.222 61.4586C145.883 62.0436 145.417 62.4838 144.826 62.3643L145.763 60.4774C146.059 60.4974 146.355 60.4352 146.618 60.2976C146.881 60.1599 147.101 59.9522 147.254 59.6974C147.389 59.4531 147.423 59.1657 147.349 58.8966C147.275 58.6274 147.098 58.3979 146.858 58.2571L147.216 57.5463L147.097 57.4834L146.744 58.1942L146.663 58.1438C146.567 58.0937 146.466 58.0557 146.361 58.0306L146.725 57.301L146.606 57.2444L146.235 57.9992C146.103 57.9796 145.97 57.9796 145.839 57.9992C145.763 58.0217 145.682 58.0217 145.606 57.9992C145.53 57.9614 145.543 57.8608 145.606 57.6784L145.467 57.6155C145.386 57.8293 145.272 58.0809 144.908 58.8169L145.04 58.886C145.14 58.6676 145.299 58.4814 145.499 58.3481C145.699 58.2148 145.932 58.1397 146.172 58.1313L145.317 59.861C144.574 59.9364 144.021 60.0434 143.719 60.6409C143.574 60.9083 143.538 61.2214 143.619 61.5146C143.7 61.8078 143.891 62.0582 144.153 62.2134ZM146.109 59.7855L146.788 58.408C146.904 58.5168 146.981 58.6612 147.006 58.8183C147.031 58.9755 147.003 59.1365 146.927 59.276C146.847 59.4249 146.729 59.5502 146.586 59.6396C146.442 59.729 146.278 59.7793 146.109 59.7855ZM146.688 58.3262L145.952 59.8044L145.467 59.8547L146.304 58.1564C146.392 58.1725 146.477 58.2022 146.556 58.2445L146.688 58.3262ZM144.323 62.1568L145.122 60.5529C145.272 60.5285 145.423 60.5117 145.574 60.5025H145.612L144.694 62.3455L144.505 62.27C144.441 62.2383 144.38 62.2004 144.323 62.1568ZM144.228 62.0624C144.112 61.9369 144.04 61.7768 144.023 61.6065C144.006 61.4362 144.045 61.265 144.134 61.1189C144.216 60.9663 144.335 60.8368 144.48 60.7422C144.625 60.6477 144.792 60.5912 144.964 60.578L144.228 62.0624Z" fill="#F9DEBB"/>
<g style="mix-blend-mode:overlay" opacity="0.23">
<path d="M144.061 54.81C144.86 55.0043 145.618 55.3386 146.301 55.7975C148.64 57.4644 149.345 61.3892 146.961 63.5341C145.964 64.435 144.732 65.0348 143.407 65.2638C144.207 65.5566 145.064 65.6585 145.911 65.5612C146.757 65.4639 147.569 65.1702 148.281 64.7034C148.994 64.2367 149.587 63.6099 150.015 62.873C150.442 62.1362 150.691 61.3096 150.742 60.4593C150.794 59.6091 150.645 58.7586 150.309 57.9758C149.973 57.193 149.459 56.4996 148.808 55.9508C148.156 55.402 147.386 55.013 146.557 54.815C145.729 54.6169 144.865 54.6152 144.036 54.81H144.061Z" fill="black"/>
</g>
<path d="M240.876 127.131C241.655 128.7 241.95 130.465 241.726 132.203C241.501 133.94 240.766 135.572 239.614 136.892C238.462 138.211 236.944 139.16 235.253 139.617C233.562 140.074 231.773 140.019 230.113 139.459C228.453 138.899 226.996 137.86 225.927 136.472C224.858 135.084 224.224 133.41 224.106 131.662C223.989 129.914 224.392 128.171 225.266 126.652C226.139 125.133 227.443 123.908 229.013 123.131C230.055 122.614 231.188 122.308 232.348 122.229C233.508 122.151 234.672 122.301 235.773 122.673C236.875 123.044 237.893 123.629 238.768 124.394C239.644 125.159 240.36 126.089 240.876 127.131Z" fill="#FFB347"/>
<path d="M239.963 127.584C240.651 128.973 240.91 130.535 240.71 132.072C240.51 133.608 239.859 135.051 238.838 136.218C237.818 137.385 236.475 138.223 234.978 138.626C233.482 139.029 231.899 138.98 230.431 138.484C228.963 137.988 227.674 137.068 226.729 135.84C225.783 134.612 225.223 133.131 225.119 131.585C225.015 130.039 225.372 128.496 226.145 127.152C226.917 125.809 228.071 124.725 229.459 124.036C231.323 123.115 233.476 122.971 235.446 123.636C237.415 124.301 239.04 125.721 239.963 127.584Z" fill="#F9DEBB"/>
<path d="M239.158 127.98C239.761 129.207 239.986 130.585 239.806 131.939C239.626 133.294 239.049 134.565 238.147 135.592C237.245 136.619 236.06 137.356 234.74 137.711C233.42 138.065 232.025 138.02 230.73 137.582C229.435 137.144 228.3 136.332 227.466 135.25C226.632 134.167 226.137 132.861 226.044 131.498C225.951 130.135 226.265 128.774 226.944 127.588C227.623 126.402 228.639 125.444 229.862 124.835C230.678 124.428 231.567 124.187 232.477 124.125C233.387 124.063 234.3 124.182 235.164 124.474C236.028 124.766 236.826 125.227 237.511 125.828C238.197 126.43 238.757 127.161 239.158 127.98Z" fill="#FFB347"/>
<path d="M230.999 134.421L230.433 135.566L230.622 135.66L231.182 134.534L231.421 134.666C231.541 134.727 231.665 134.779 231.792 134.823L231.232 135.962L231.421 136.05L231.993 134.893C232.286 134.971 232.591 134.994 232.893 134.962C233.02 134.926 233.155 134.926 233.283 134.962C233.402 135.025 233.377 135.194 233.283 135.484L233.496 135.591C233.666 135.188 233.924 134.641 234.585 133.301L234.371 133.194C233.817 134.144 233.062 134.855 232.094 134.672L233.641 131.622C234.685 131.521 235.591 131.326 236.069 130.364C236.288 129.969 236.345 129.505 236.227 129.07C236.11 128.634 235.828 128.261 235.44 128.03L236.012 126.867L235.824 126.772L235.258 127.917L235.119 127.842C234.964 127.763 234.802 127.7 234.635 127.653L235.22 126.47L235.031 126.376L234.402 127.634C234.194 127.603 233.982 127.603 233.773 127.634C233.648 127.674 233.514 127.674 233.39 127.634C233.264 127.571 233.289 127.408 233.39 127.118L233.163 127.005C233.031 127.351 232.849 127.772 232.257 128.961L232.478 129.068C232.641 128.716 232.898 128.415 233.221 128.198C233.544 127.982 233.92 127.859 234.308 127.842L232.918 130.653C231.716 130.779 230.811 130.955 230.333 131.911C230.101 132.335 230.042 132.832 230.166 133.299C230.29 133.766 230.588 134.167 230.999 134.421ZM234.182 130.471L235.289 128.238C235.476 128.414 235.6 128.647 235.641 128.901C235.682 129.154 235.638 129.415 235.516 129.641C235.388 129.886 235.197 130.093 234.963 130.24C234.728 130.387 234.459 130.469 234.182 130.477V130.471ZM235.126 128.1L233.93 130.509L233.138 130.584L234.503 127.829C234.643 127.856 234.778 127.903 234.905 127.967C234.985 128.014 235.058 128.069 235.126 128.131V128.1ZM231.289 134.32L232.578 131.722C232.805 131.685 233.05 131.66 233.314 131.641H233.371L231.886 134.641C231.781 134.606 231.678 134.564 231.578 134.515C231.475 134.463 231.378 134.4 231.289 134.326V134.32ZM231.125 134.176C230.939 133.97 230.824 133.709 230.797 133.433C230.769 133.157 230.832 132.879 230.974 132.641C231.108 132.394 231.301 132.184 231.536 132.03C231.771 131.877 232.04 131.784 232.32 131.76L231.125 134.176Z" fill="#F9DEBB"/>
<g style="mix-blend-mode:overlay" opacity="0.23">
<path d="M230.931 122.47C232.226 122.783 233.455 123.324 234.56 124.068C238.334 126.766 239.491 133.119 235.629 136.597C234.016 138.059 232.02 139.03 229.874 139.396C231.169 139.877 232.559 140.047 233.932 139.894C235.305 139.741 236.624 139.27 237.782 138.516C238.94 137.763 239.905 136.749 240.602 135.556C241.298 134.363 241.706 133.023 241.792 131.644C241.878 130.265 241.64 128.886 241.098 127.615C240.555 126.344 239.723 125.218 238.667 124.327C237.612 123.435 236.363 122.803 235.019 122.481C233.676 122.158 232.276 122.155 230.931 122.47Z" fill="black"/>
</g>
<path d="M209.476 131.094C209.285 132.082 208.805 132.991 208.097 133.706C207.388 134.422 206.484 134.911 205.498 135.112C204.512 135.313 203.488 135.217 202.556 134.837C201.624 134.456 200.826 133.808 200.263 132.973C199.7 132.139 199.397 131.157 199.392 130.15C199.387 129.144 199.681 128.158 200.237 127.319C200.792 126.479 201.584 125.823 202.512 125.434C203.44 125.045 204.463 124.939 205.451 125.131C206.775 125.388 207.943 126.161 208.698 127.279C209.453 128.397 209.733 129.769 209.476 131.094Z" fill="#FFB347"/>
<path d="M208.923 130.98C208.754 131.855 208.329 132.659 207.703 133.292C207.076 133.926 206.276 134.359 205.403 134.537C204.531 134.715 203.625 134.631 202.8 134.294C201.975 133.958 201.269 133.384 200.77 132.646C200.271 131.908 200.003 131.039 199.998 130.148C199.993 129.258 200.253 128.386 200.744 127.642C201.235 126.899 201.935 126.318 202.756 125.973C203.577 125.628 204.482 125.534 205.357 125.703C205.937 125.815 206.49 126.041 206.984 126.367C207.477 126.693 207.902 127.113 208.233 127.603C208.564 128.093 208.796 128.643 208.914 129.223C209.032 129.802 209.035 130.4 208.923 130.98Z" fill="#F9DEBB"/>
<path d="M208.414 130.886C208.263 131.661 207.886 132.373 207.331 132.934C206.775 133.494 206.065 133.877 205.292 134.034C204.519 134.191 203.716 134.115 202.986 133.815C202.256 133.516 201.631 133.007 201.191 132.352C200.75 131.697 200.514 130.927 200.511 130.138C200.509 129.349 200.741 128.577 201.177 127.919C201.614 127.262 202.236 126.749 202.964 126.445C203.692 126.141 204.494 126.061 205.269 126.213C206.305 126.417 207.218 127.023 207.807 127.899C208.397 128.775 208.615 129.85 208.414 130.886Z" fill="#FFB347"/>
<path d="M204.533 132.534L204.671 133.251H204.791L204.659 132.54H204.809L205.036 132.484L205.162 133.163H205.281L205.137 132.433C205.298 132.37 205.445 132.276 205.571 132.157C205.618 132.098 205.681 132.054 205.753 132.031C205.835 132.031 205.879 132.1 205.935 132.27L206.074 132.238C206.011 131.999 205.935 131.66 205.772 130.817L205.64 130.848C205.715 131.477 205.64 132.056 205.111 132.308L204.74 130.377C204.972 130.226 205.157 130.014 205.275 129.764C205.393 129.514 205.439 129.236 205.407 128.961C205.368 128.705 205.231 128.473 205.024 128.316C204.817 128.159 204.558 128.088 204.3 128.119L204.162 127.389H204.042L204.18 128.106H204.092C203.993 128.12 203.895 128.148 203.803 128.188L203.658 127.439H203.545L203.69 128.213C203.584 128.273 203.489 128.35 203.407 128.439C203.325 128.515 203.275 128.553 203.224 128.559C203.174 128.565 203.099 128.49 203.042 128.326H202.904C202.967 128.534 203.023 128.785 203.174 129.534H203.306C203.257 129.316 203.27 129.089 203.342 128.879C203.414 128.668 203.543 128.481 203.715 128.339L204.061 130.1C203.551 130.572 203.206 130.968 203.319 131.578C203.353 131.866 203.501 132.128 203.728 132.307C203.956 132.486 204.245 132.568 204.533 132.534ZM204.627 132.389L204.313 130.76C204.407 130.66 204.508 130.565 204.621 130.465L204.986 132.352L204.803 132.396C204.743 132.397 204.684 132.388 204.627 132.37V132.389ZM204.627 129.628L204.357 128.232C204.503 128.247 204.641 128.31 204.748 128.411C204.855 128.512 204.925 128.646 204.948 128.792C204.967 128.945 204.946 129.101 204.888 129.244C204.829 129.387 204.735 129.513 204.614 129.609L204.627 129.628ZM204.231 128.225L204.52 129.735C204.419 129.836 204.306 129.936 204.187 130.043L203.853 128.314C203.928 128.28 204.006 128.255 204.086 128.238L204.231 128.225ZM204.514 132.377C204.36 132.35 204.219 132.274 204.111 132.161C204.004 132.048 203.935 131.903 203.916 131.748C203.892 131.59 203.908 131.428 203.961 131.278C204.015 131.128 204.106 130.993 204.225 130.886L204.514 132.377Z" fill="#F9DEBB"/>
<g style="mix-blend-mode:overlay" opacity="0.23">
<path d="M206.589 125.483C207.071 126.077 207.444 126.753 207.69 127.477C208.483 130.031 206.791 133.333 203.815 133.578C202.568 133.684 201.316 133.433 200.205 132.855C200.631 133.523 201.207 134.083 201.887 134.49C202.568 134.896 203.334 135.138 204.124 135.197C204.915 135.255 205.708 135.127 206.441 134.825C207.173 134.522 207.825 134.052 208.344 133.453C208.863 132.854 209.234 132.142 209.429 131.373C209.624 130.605 209.637 129.802 209.467 129.028C209.296 128.254 208.947 127.53 208.448 126.915C207.948 126.299 207.312 125.809 206.589 125.483Z" fill="black"/>
</g>
<path d="M218.176 145.994C218.469 146.698 218.546 147.474 218.399 148.223C218.251 148.971 217.884 149.659 217.345 150.199C216.806 150.739 216.119 151.107 215.371 151.257C214.623 151.406 213.847 151.33 213.142 151.038C212.437 150.747 211.834 150.252 211.41 149.618C210.986 148.984 210.76 148.238 210.76 147.475C210.76 146.712 210.987 145.966 211.411 145.332C211.836 144.697 212.438 144.203 213.144 143.912C213.611 143.718 214.112 143.618 214.617 143.618C215.123 143.618 215.624 143.717 216.091 143.91C216.558 144.104 216.983 144.387 217.341 144.745C217.698 145.102 217.982 145.527 218.176 145.994Z" fill="#FFB347"/>
<path d="M217.766 146.164C218.026 146.788 218.095 147.475 217.964 148.138C217.833 148.801 217.509 149.41 217.031 149.889C216.554 150.367 215.946 150.693 215.283 150.826C214.62 150.959 213.933 150.891 213.309 150.633C212.684 150.375 212.15 149.938 211.774 149.376C211.399 148.814 211.198 148.154 211.198 147.478C211.198 146.802 211.398 146.142 211.773 145.58C212.149 145.018 212.682 144.58 213.307 144.321C213.72 144.149 214.164 144.06 214.612 144.06C215.061 144.059 215.504 144.147 215.919 144.318C216.333 144.489 216.709 144.74 217.026 145.057C217.343 145.374 217.595 145.75 217.766 146.164Z" fill="#F9DEBB"/>
<path d="M217.408 146.315C217.637 146.867 217.698 147.476 217.582 148.063C217.465 148.65 217.177 149.19 216.754 149.613C216.331 150.037 215.792 150.325 215.205 150.442C214.618 150.559 214.01 150.499 213.457 150.271C212.903 150.042 212.431 149.654 212.098 149.156C211.766 148.658 211.588 148.073 211.588 147.474C211.589 146.876 211.766 146.291 212.099 145.793C212.432 145.296 212.905 144.908 213.458 144.679C214.199 144.375 215.03 144.376 215.77 144.682C216.51 144.989 217.099 145.576 217.408 146.315Z" fill="#FFB347"/>
<path d="M213.904 149.007L213.69 149.516L213.778 149.554L213.986 149.051L214.093 149.101L214.256 149.158L214.049 149.667L214.131 149.699L214.351 149.183C214.48 149.208 214.612 149.208 214.741 149.183C214.797 149.17 214.855 149.17 214.911 149.183C214.967 149.183 214.961 149.277 214.911 149.409L215.011 149.447C215.068 149.271 215.169 149.026 215.414 148.422L215.319 148.384C215.106 148.812 214.797 149.145 214.376 149.088L214.948 147.711C215.395 147.635 215.779 147.529 215.961 147.082C216.044 146.904 216.054 146.7 215.99 146.515C215.925 146.329 215.791 146.176 215.615 146.088L215.829 145.566L215.747 145.528L215.533 146.044L215.47 146.013C215.401 145.986 215.33 145.965 215.257 145.95L215.477 145.421L215.389 145.384L215.162 145.937C215.07 145.924 214.977 145.924 214.885 145.937C214.833 145.957 214.775 145.957 214.722 145.937C214.665 145.937 214.665 145.843 214.722 145.717L214.621 145.673C214.526 145.97 214.415 146.262 214.288 146.547L214.382 146.591C214.443 146.433 214.546 146.295 214.68 146.191C214.815 146.088 214.975 146.024 215.143 146.006L214.621 147.264C214.106 147.352 213.716 147.453 213.533 147.893C213.438 148.091 213.424 148.317 213.493 148.525C213.562 148.733 213.71 148.906 213.904 149.007ZM215.162 147.201L215.577 146.201C215.664 146.271 215.725 146.368 215.75 146.476C215.775 146.585 215.763 146.698 215.716 146.799C215.668 146.908 215.593 147.004 215.497 147.074C215.4 147.145 215.287 147.189 215.168 147.201H215.162ZM215.502 146.145L215.055 147.22L214.716 147.277L215.225 146.019C215.288 146.028 215.349 146.045 215.408 146.069L215.502 146.145ZM214.017 148.956L214.502 147.786L214.816 147.736H214.848L214.288 149.076L214.15 149.032L214.017 148.956ZM213.942 148.893C213.856 148.809 213.8 148.699 213.781 148.581C213.761 148.462 213.78 148.34 213.835 148.233C213.887 148.122 213.965 148.026 214.063 147.953C214.16 147.879 214.274 147.831 214.395 147.812L213.942 148.893Z" fill="#F9DEBB"/>
<g style="mix-blend-mode:overlay" opacity="0.23">
<path d="M213.992 143.667C214.546 143.837 215.064 144.108 215.521 144.466C217.093 145.724 217.408 148.542 215.621 149.938C214.879 150.528 213.985 150.894 213.042 150.995C213.591 151.239 214.189 151.352 214.789 151.324C215.389 151.296 215.975 151.129 216.498 150.835C217.022 150.541 217.47 150.129 217.806 149.631C218.143 149.133 218.358 148.564 218.435 147.968C218.512 147.373 218.449 146.767 218.251 146.2C218.053 145.633 217.725 145.12 217.293 144.702C216.862 144.285 216.339 143.973 215.765 143.794C215.192 143.614 214.585 143.571 213.992 143.667Z" fill="black"/>
</g>
<path d="M177.241 135.767C177.552 136.517 177.633 137.343 177.475 138.139C177.317 138.936 176.926 139.668 176.352 140.242C175.778 140.817 175.047 141.208 174.25 141.367C173.454 141.526 172.628 141.445 171.878 141.135C171.127 140.825 170.485 140.299 170.034 139.624C169.582 138.949 169.34 138.155 169.339 137.343C169.338 136.531 169.578 135.737 170.029 135.061C170.479 134.385 171.12 133.858 171.87 133.547C172.876 133.13 174.008 133.129 175.015 133.546C176.022 133.962 176.822 134.761 177.241 135.767Z" fill="#FFB347"/>
<path d="M176.807 135.949C177.084 136.615 177.157 137.347 177.016 138.054C176.876 138.761 176.53 139.41 176.021 139.92C175.511 140.43 174.862 140.777 174.156 140.918C173.449 141.059 172.717 140.987 172.051 140.711C171.385 140.435 170.816 139.969 170.416 139.369C170.016 138.77 169.802 138.066 169.802 137.345C169.802 136.625 170.016 135.921 170.417 135.322C170.817 134.723 171.386 134.256 172.052 133.981C172.944 133.612 173.946 133.612 174.837 133.981C175.729 134.35 176.437 135.058 176.807 135.949Z" fill="#F9DEBB"/>
<path d="M176.417 136.106C176.661 136.695 176.724 137.342 176.6 137.967C176.476 138.592 176.169 139.165 175.719 139.616C175.269 140.066 174.695 140.373 174.07 140.497C173.446 140.622 172.798 140.558 172.21 140.314C171.621 140.071 171.118 139.658 170.764 139.129C170.41 138.599 170.221 137.976 170.221 137.339C170.221 136.703 170.41 136.08 170.764 135.55C171.117 135.021 171.62 134.608 172.209 134.364C172.599 134.201 173.018 134.117 173.441 134.117C173.865 134.116 174.284 134.199 174.675 134.361C175.066 134.523 175.421 134.761 175.72 135.06C176.019 135.359 176.256 135.715 176.417 136.106Z" fill="#FFB347"/>
<path d="M172.644 138.975L172.418 139.522L172.506 139.56L172.726 139.019L172.845 139.075L173.022 139.138L172.795 139.679L172.889 139.717L173.116 139.163C173.255 139.189 173.398 139.189 173.537 139.163C173.595 139.147 173.656 139.147 173.713 139.163C173.776 139.163 173.77 139.264 173.713 139.402L173.82 139.446C173.883 139.258 173.984 138.994 174.254 138.352L174.147 138.308C173.921 138.767 173.594 139.119 173.141 139.063L173.77 137.591C174.248 137.509 174.663 137.396 174.858 136.962C174.945 136.77 174.955 136.553 174.884 136.354C174.814 136.156 174.669 135.993 174.481 135.899L174.713 135.339L174.625 135.301L174.399 135.855H174.33C174.255 135.821 174.177 135.796 174.097 135.779L174.336 135.213L174.242 135.176L173.996 135.767C173.901 135.75 173.803 135.75 173.707 135.767C173.648 135.787 173.584 135.787 173.525 135.767C173.468 135.767 173.474 135.666 173.525 135.528L173.424 135.484C173.374 135.647 173.298 135.849 173.059 136.421L173.166 136.459C173.23 136.289 173.339 136.14 173.482 136.029C173.626 135.918 173.797 135.849 173.978 135.83L173.418 137.176C172.864 137.27 172.455 137.377 172.26 137.843C172.172 138.045 172.162 138.274 172.233 138.483C172.304 138.692 172.451 138.868 172.644 138.975ZM173.996 137.044L174.437 135.974C174.527 136.048 174.591 136.15 174.618 136.264C174.645 136.377 174.635 136.497 174.588 136.603C174.537 136.722 174.455 136.826 174.351 136.903C174.247 136.98 174.125 137.029 173.996 137.044ZM174.361 135.912L173.877 137.069L173.512 137.126L174.059 135.805C174.127 135.813 174.193 135.832 174.254 135.861L174.361 135.912ZM172.77 138.918L173.286 137.66L173.625 137.597H173.657L173.059 139.031C173.009 139.021 172.961 139.004 172.915 138.981C172.864 138.966 172.815 138.945 172.77 138.918ZM172.694 138.855C172.604 138.763 172.544 138.646 172.523 138.519C172.501 138.392 172.52 138.261 172.575 138.144C172.63 138.027 172.714 137.924 172.818 137.846C172.922 137.769 173.044 137.718 173.172 137.698L172.694 138.855Z" fill="#F9DEBB"/>
<g style="mix-blend-mode:overlay" opacity="0.23">
<path d="M172.781 133.282C173.37 133.468 173.922 133.758 174.41 134.138C176.083 135.503 176.416 138.484 174.517 139.975C173.725 140.6 172.772 140.988 171.768 141.094C172.354 141.357 172.992 141.479 173.633 141.451C174.275 141.422 174.9 141.244 175.46 140.931C176.02 140.617 176.499 140.177 176.858 139.646C177.218 139.114 177.448 138.506 177.531 137.87C177.613 137.233 177.546 136.587 177.334 135.981C177.121 135.375 176.77 134.828 176.309 134.382C175.847 133.936 175.288 133.605 174.675 133.414C174.063 133.223 173.414 133.178 172.781 133.282Z" fill="black"/>
</g>
<path d="M225.364 78.0825C225.619 79.0563 225.579 80.0837 225.25 81.0349C224.921 81.9861 224.317 82.8182 223.515 83.4261C222.713 84.034 221.748 84.3904 220.743 84.45C219.739 84.5097 218.739 84.2701 217.87 83.7615C217.002 83.2528 216.303 82.498 215.864 81.5926C215.424 80.6871 215.263 79.6716 215.401 78.6745C215.539 77.6774 215.969 76.7436 216.637 75.9911C217.306 75.2386 218.182 74.7012 219.156 74.447C220.462 74.1062 221.849 74.2978 223.013 74.9795C224.177 75.6613 225.023 76.7774 225.364 78.0825Z" fill="#FFB347"/>
<path d="M221.107 83.8245C223.567 83.4573 225.264 81.1654 224.897 78.7055C224.529 76.2455 222.237 74.549 219.777 74.9162C217.317 75.2834 215.621 77.5753 215.988 80.0352C216.355 82.4952 218.647 84.1918 221.107 83.8245Z" fill="#F9DEBB"/>
<path d="M224.301 78.3658C224.499 79.1289 224.467 79.9336 224.208 80.6783C223.949 81.423 223.475 82.0742 222.846 82.5496C222.217 83.025 221.461 83.3033 220.674 83.3493C219.887 83.3952 219.104 83.2069 218.424 82.808C217.744 82.4091 217.197 81.8175 216.853 81.1081C216.509 80.3986 216.383 79.6031 216.491 78.8221C216.599 78.0411 216.936 77.3097 217.46 76.7202C217.983 76.1307 218.67 75.7096 219.433 75.5102C219.94 75.3776 220.468 75.3463 220.988 75.4181C221.507 75.4899 222.007 75.6633 222.459 75.9286C222.911 76.1938 223.307 76.5456 223.623 76.9638C223.939 77.382 224.169 77.8584 224.301 78.3658Z" fill="#FFB347"/>
<path d="M219.739 81.5483L219.557 82.2591L219.67 82.2905L219.853 81.5923L220.004 81.6364C220.078 81.6578 220.154 81.6746 220.23 81.6867L220.048 82.3849H220.167L220.35 81.6678C220.524 81.6785 220.7 81.655 220.865 81.5986C220.937 81.5771 221.014 81.5771 221.086 81.5986C221.161 81.5986 221.167 81.7181 221.142 81.888L221.281 81.9257C221.325 81.6804 221.406 81.3408 221.62 80.5168L221.488 80.479C221.293 81.0766 220.947 81.5672 220.387 81.5735L220.878 79.6865C221.45 79.5104 221.941 79.3028 222.098 78.699C222.14 78.5751 222.156 78.4443 222.147 78.314C222.138 78.1837 222.103 78.0565 222.044 77.9396C221.986 77.8228 221.905 77.7186 221.806 77.6331C221.708 77.5475 221.593 77.4823 221.469 77.441L221.658 76.7177L221.538 76.6863L221.356 77.397H221.268C221.171 77.3706 221.072 77.3537 220.972 77.3467L221.161 76.6171H221.048L220.847 77.3781C220.725 77.3853 220.606 77.413 220.494 77.4599C220.422 77.4814 220.346 77.4814 220.274 77.4599C220.199 77.4599 220.192 77.3404 220.211 77.1706L220.073 77.1328C220.073 77.3404 219.985 77.5983 219.796 78.3342L219.928 78.3719C219.983 78.156 220.093 77.9583 220.249 77.7992C220.405 77.6401 220.6 77.5251 220.815 77.4662L220.362 79.2085C219.702 79.4161 219.217 79.6236 219.06 80.2212C218.983 80.4873 219.011 80.7727 219.137 81.0194C219.263 81.266 219.479 81.4551 219.739 81.5483ZM221.067 78.9632L221.425 77.5857C221.55 77.6617 221.646 77.7771 221.699 77.9137C221.751 78.0503 221.757 78.2004 221.715 78.3405C221.672 78.4915 221.59 78.6286 221.477 78.7379C221.365 78.8472 221.225 78.9249 221.073 78.9632H221.067ZM221.318 77.5228L220.928 79.0135L220.494 79.1456L220.935 77.441C221.017 77.4426 221.099 77.4531 221.18 77.4725L221.318 77.5228ZM219.89 81.4603L220.306 79.8501C220.431 79.806 220.563 79.762 220.714 79.7243H220.746L220.262 81.5798L220.073 81.542C220.01 81.524 219.951 81.4965 219.897 81.4603H219.89ZM219.777 81.3974C219.649 81.3035 219.555 81.1707 219.508 81.0188C219.462 80.8669 219.466 80.704 219.519 80.5545C219.565 80.4066 219.647 80.272 219.756 80.1624C219.866 80.0528 220 79.9716 220.148 79.9255L219.777 81.3974Z" fill="#F9DEBB"/>
<g style="mix-blend-mode:overlay" opacity="0.23">
<path d="M220.32 74.2836C221.013 74.6092 221.641 75.0566 222.176 75.6044C223.993 77.5669 223.893 81.2653 221.314 82.7812C220.234 83.412 218.998 83.7258 217.748 83.6869C218.421 84.0969 219.181 84.3446 219.967 84.4107C220.752 84.4768 221.543 84.3593 222.275 84.0676C223.008 83.7759 223.663 83.3179 224.188 82.7298C224.713 82.1416 225.095 81.4395 225.302 80.6787C225.51 79.9179 225.537 79.1193 225.383 78.346C225.229 77.5726 224.898 76.8456 224.415 76.2224C223.931 75.5992 223.31 75.0968 222.599 74.7549C221.889 74.4129 221.109 74.2408 220.32 74.2521V74.2836Z" fill="black"/>
</g>
<path d="M164.818 125.615C164.143 126.594 163.192 127.352 162.086 127.792C160.98 128.231 159.769 128.333 158.605 128.085C157.441 127.836 156.377 127.248 155.547 126.395C154.718 125.541 154.16 124.462 153.943 123.291C153.727 122.121 153.863 120.913 154.333 119.82C154.803 118.726 155.587 117.797 156.585 117.149C157.584 116.501 158.752 116.164 159.942 116.179C161.132 116.195 162.29 116.563 163.271 117.237C163.924 117.684 164.482 118.256 164.913 118.92C165.345 119.584 165.641 120.326 165.785 121.104C165.928 121.883 165.917 122.682 165.751 123.456C165.585 124.23 165.268 124.963 164.818 125.615Z" fill="#FFB347"/>
<path d="M164.246 125.232C163.648 126.101 162.806 126.774 161.826 127.164C160.846 127.555 159.772 127.646 158.74 127.427C157.708 127.207 156.765 126.686 156.029 125.93C155.293 125.174 154.798 124.217 154.606 123.179C154.414 122.142 154.534 121.071 154.951 120.102C155.368 119.133 156.063 118.309 156.948 117.735C157.833 117.161 158.869 116.862 159.924 116.876C160.979 116.891 162.006 117.218 162.875 117.816C164.04 118.618 164.839 119.849 165.096 121.24C165.353 122.63 165.047 124.066 164.246 125.232Z" fill="#F9DEBB"/>
<path d="M163.743 124.879C163.215 125.648 162.47 126.243 161.603 126.588C160.737 126.934 159.787 127.014 158.874 126.82C157.962 126.626 157.127 126.165 156.476 125.497C155.826 124.828 155.388 123.982 155.218 123.065C155.048 122.147 155.154 121.2 155.523 120.343C155.891 119.486 156.506 118.757 157.288 118.249C158.071 117.741 158.987 117.477 159.92 117.489C160.852 117.502 161.761 117.79 162.529 118.319C163.04 118.67 163.476 119.118 163.814 119.638C164.151 120.158 164.382 120.739 164.495 121.348C164.608 121.957 164.6 122.582 164.471 123.188C164.342 123.794 164.095 124.369 163.743 124.879Z" fill="#FFB347"/>
<path d="M160.85 124.772L161.341 125.483L161.46 125.401L160.982 124.703L161.133 124.602C161.209 124.552 161.283 124.497 161.353 124.439L161.837 125.143L161.957 125.062L161.46 124.338C161.604 124.192 161.717 124.019 161.793 123.829C161.82 123.743 161.87 123.667 161.938 123.609C162.014 123.552 162.108 123.609 162.246 123.778L162.378 123.684C162.196 123.451 161.957 123.118 161.385 122.281L161.246 122.376C161.63 123.005 161.8 123.697 161.372 124.212L160.051 122.294C160.334 121.665 160.523 121.036 160.108 120.439C159.944 120.179 159.686 119.993 159.388 119.92C159.09 119.848 158.775 119.894 158.51 120.049L158.007 119.325L157.887 119.407L158.384 120.118L158.29 120.181C158.193 120.245 158.102 120.319 158.02 120.401L157.51 119.665L157.391 119.747L157.919 120.514C157.834 120.629 157.769 120.756 157.724 120.891C157.7 120.978 157.649 121.055 157.579 121.112C157.504 121.168 157.409 121.112 157.271 120.942L157.133 121.042C157.442 121.42 157.73 121.814 157.994 122.225L158.126 122.13C157.973 121.916 157.88 121.664 157.859 121.402C157.838 121.139 157.889 120.876 158.007 120.64L159.215 122.388C158.888 123.143 158.699 123.734 159.114 124.345C159.293 124.625 159.573 124.826 159.896 124.906C160.22 124.985 160.561 124.938 160.85 124.772ZM160.888 124.571L159.768 122.948C159.825 122.797 159.894 122.646 159.969 122.483V122.445L161.227 124.332C161.174 124.387 161.115 124.435 161.051 124.477C160.999 124.512 160.944 124.543 160.888 124.571ZM160.743 124.615C160.56 124.658 160.369 124.64 160.196 124.565C160.024 124.491 159.881 124.363 159.787 124.2C159.686 124.036 159.627 123.85 159.616 123.657C159.605 123.465 159.642 123.273 159.724 123.099L160.743 124.615ZM159.561 121.583L158.604 120.187C158.771 120.135 158.95 120.14 159.114 120.2C159.278 120.26 159.417 120.373 159.51 120.52C159.611 120.678 159.668 120.859 159.677 121.045C159.686 121.232 159.646 121.417 159.561 121.583ZM158.466 120.244L159.498 121.741C159.435 121.898 159.359 122.061 159.284 122.237L158.101 120.52C158.164 120.446 158.235 120.38 158.315 120.325C158.363 120.293 158.413 120.266 158.466 120.244Z" fill="#F9DEBB"/>
<g style="mix-blend-mode:overlay" opacity="0.23">
<path d="M164.315 118.162C164.558 119.033 164.643 119.94 164.567 120.841C164.214 123.986 160.793 126.773 157.472 125.628C156.067 125.144 154.828 124.271 153.899 123.112C154.042 124.041 154.4 124.923 154.945 125.689C155.49 126.454 156.207 127.082 157.038 127.521C157.868 127.96 158.79 128.199 159.73 128.218C160.67 128.238 161.601 128.037 162.449 127.633C163.297 127.228 164.039 126.631 164.615 125.888C165.191 125.146 165.585 124.279 165.767 123.357C165.948 122.435 165.911 121.483 165.659 120.578C165.407 119.672 164.947 118.839 164.315 118.143V118.162Z" fill="black"/>
</g>
<path d="M171.322 3.86215C171.639 4.89581 171.643 6.00035 171.332 7.03603C171.022 8.07172 170.411 8.99201 169.577 9.6805C168.743 10.369 167.724 10.7947 166.648 10.9039C165.573 11.013 164.489 10.8007 163.534 10.2937C162.579 9.78667 161.796 9.00781 161.283 8.05562C160.771 7.10343 160.553 6.02069 160.656 4.94437C160.759 3.86805 161.179 2.8465 161.863 2.00897C162.547 1.17143 163.464 0.555531 164.498 0.239182C165.883 -0.184706 167.38 -0.0412097 168.66 0.638137C169.939 1.31748 170.897 2.4771 171.322 3.86215Z" fill="#FFB347"/>
<path d="M170.725 4.04484C171.006 4.95925 171.01 5.93651 170.736 6.85304C170.461 7.76957 169.921 8.58421 169.184 9.19392C168.447 9.80364 167.546 10.1811 166.594 10.2784C165.642 10.3758 164.683 10.1888 163.838 9.74102C162.992 9.29325 162.299 8.60483 161.844 7.76283C161.39 6.92083 161.196 5.96306 161.286 5.01065C161.376 4.05824 161.747 3.15397 162.351 2.41218C162.955 1.6704 163.766 1.12442 164.68 0.843298C165.287 0.655797 165.925 0.589904 166.558 0.649394C167.191 0.708884 167.805 0.892588 168.367 1.18998C168.928 1.48738 169.426 1.89262 169.83 2.38251C170.235 2.87239 170.539 3.43729 170.725 4.04484Z" fill="#F9DEBB"/>
<path d="M170.197 4.22042C170.441 5.02974 170.441 5.89333 170.196 6.70242C169.95 7.51151 169.471 8.2299 168.818 8.76711C168.165 9.30432 167.368 9.63631 166.527 9.72127C165.686 9.80622 164.838 9.64034 164.091 9.24452C163.344 8.84869 162.731 8.24063 162.329 7.49693C161.926 6.75323 161.753 5.90716 161.831 5.06529C161.909 4.22341 162.234 3.4234 162.766 2.76601C163.298 2.10863 164.012 1.62328 164.819 1.37111C165.359 1.20233 165.927 1.14224 166.491 1.19433C167.054 1.24642 167.602 1.40964 168.102 1.67458C168.602 1.93951 169.044 2.3009 169.404 2.73787C169.764 3.17484 170.033 3.67873 170.197 4.22042Z" fill="#FFB347"/>
<path d="M165.309 7.76206L165.076 8.51684L165.196 8.55458L165.428 7.81237L165.586 7.86898L165.825 7.93188L165.598 8.67409L165.724 8.71182L165.957 7.95075C166.143 7.96619 166.33 7.94916 166.51 7.90043C166.587 7.88152 166.667 7.88152 166.743 7.90043C166.825 7.90043 166.831 8.03252 166.8 8.22122L166.938 8.26524C167.001 8.00107 167.108 7.63626 167.372 6.76197L167.234 6.71794C166.988 7.34692 166.605 7.8564 165.976 7.84382L166.605 5.82478C167.234 5.65495 167.756 5.45367 167.951 4.81211C168.044 4.54925 168.031 4.26013 167.913 4.00713C167.795 3.75412 167.583 3.55753 167.322 3.45979L167.554 2.69871L167.435 2.65468L167.202 3.40947L167.108 3.37802C167.006 3.34436 166.9 3.32324 166.793 3.31512L167.032 2.53518L166.913 2.49744L166.661 3.30254C166.53 3.3088 166.401 3.33423 166.277 3.37802C166.202 3.40131 166.121 3.40131 166.045 3.37802C165.957 3.37802 165.957 3.25222 165.988 3.06353L165.843 3.0195C165.747 3.44494 165.627 3.86487 165.485 4.27747L165.63 4.3215C165.693 4.08939 165.819 3.87938 165.994 3.71498C166.17 3.55057 166.388 3.43825 166.623 3.3906L166.057 5.23982C165.34 5.4348 164.799 5.62979 164.611 6.26507C164.507 6.55628 164.522 6.87659 164.653 7.15674C164.783 7.43688 165.019 7.65433 165.309 7.76206ZM166.844 5.04483L167.296 3.59187C167.427 3.68103 167.525 3.81047 167.575 3.9604C167.625 4.11034 167.624 4.27251 167.573 4.42214C167.517 4.58067 167.42 4.7216 167.291 4.83087C167.163 4.94013 167.009 5.01391 166.844 5.04483ZM167.183 3.51011L166.693 5.09515L166.221 5.22095L166.781 3.40947C166.868 3.41286 166.955 3.42766 167.039 3.4535L167.183 3.51011ZM165.466 7.674L165.994 5.96315C166.127 5.91912 166.271 5.88139 166.435 5.84365H166.479L165.85 7.81237C165.784 7.80084 165.718 7.78401 165.655 7.76206C165.588 7.74106 165.525 7.71146 165.466 7.674ZM165.353 7.59852C165.218 7.49238 165.122 7.34524 165.079 7.17948C165.036 7.01372 165.048 6.83841 165.114 6.6802C165.172 6.51728 165.27 6.37126 165.399 6.255C165.527 6.13875 165.682 6.0558 165.85 6.01347L165.353 7.59852Z" fill="#F9DEBB"/>
<g style="mix-blend-mode:overlay" opacity="0.23">
<path d="M165.737 0.0126583C166.493 0.333137 167.187 0.784534 167.787 1.34611C169.825 3.37145 169.888 7.35293 167.158 9.08894C166.033 9.81664 164.724 10.2093 163.384 10.2211C164.125 10.6414 164.954 10.8826 165.805 10.9255C166.656 10.9684 167.505 10.8118 168.285 10.4682C169.064 10.1246 169.753 9.60358 170.295 8.94664C170.838 8.28969 171.219 7.51505 171.409 6.68453C171.599 5.85401 171.592 4.99061 171.389 4.16324C171.186 3.33587 170.792 2.56744 170.239 1.91927C169.686 1.27111 168.989 0.761158 168.204 0.43012C167.419 0.0990833 166.568 -0.043874 165.718 0.0126583H165.737Z" fill="black"/>
</g>
<path d="M187.693 92.576L138.087 109.715L139.162 112.824L188.767 95.6852L187.693 92.576Z" fill="#009ABF"/>
<path d="M177.34 68.2266L131.201 84.1677L139.819 109.113L185.959 93.172L177.34 68.2266Z" fill="#24A19C"/>
<path d="M166.467 56.6127L132.318 68.4109L134.372 74.3559L168.521 62.5577L166.467 56.6127Z" fill="#7FDEDA"/>
<path d="M187.687 92.5745L138.082 109.713L138.655 111.372L188.26 94.2332L187.687 92.5745Z" fill="#24A19C"/>
<path d="M158.64 82.9983L138.32 90.0189L142.196 101.237L162.516 94.2166L158.64 82.9983Z" fill="#EDEDED"/>
<path d="M157.993 84.7068L139.879 90.9653L142.946 99.8413L161.06 93.5827L157.993 84.7068Z" fill="#92C9F8"/>
<path d="M175.567 77.155L164.105 81.1151L170.158 98.6351L181.62 94.675L175.567 77.155Z" fill="#EDEDED"/>
<path d="M174.951 78.796L165.593 82.0291L171.205 98.2709L180.562 95.0379L174.951 78.796Z" fill="#92C9F8"/>
<path d="M163.003 92.9166L140.982 100.525L141.568 102.219L163.588 94.611L163.003 92.9166Z" fill="#EDEDED"/>
<g opacity="0.34">
<path d="M148.005 88.171L146.106 98.7694L144.496 99.3229L146.389 88.7308L148.005 88.171Z" fill="white"/>
<path d="M153.314 86.3407L151.421 96.9328L150.804 97.1467L152.697 86.5546L153.314 86.3407Z" fill="white"/>
<path d="M156.446 85.2589L154.553 95.851L152.351 96.6121L154.251 86.0137L156.446 85.2589Z" fill="white"/>
<path d="M149.281 87.7308L147.388 98.323L146.583 98.606L148.476 88.0076L149.281 87.7308Z" fill="white"/>
</g>
<g opacity="0.34">
<path d="M172.096 79.7938L169.265 92.6692L168.303 89.8954L170.397 80.3851L172.096 79.7938Z" fill="white"/>
<path d="M176.127 82.2278L176.498 83.2908L173.36 97.5436L172.712 97.7638L176.127 82.2278Z" fill="white"/>
<path d="M177.052 84.8942L178.354 88.6744L176.656 96.4046L174.341 97.2034L177.052 84.8942Z" fill="white"/>
<path d="M173.441 79.328L170.026 94.8703L169.548 93.4802L172.592 79.6236L173.441 79.328Z" fill="white"/>
</g>
<path d="M134.017 70.9812L127.476 73.2393L127.903 84.0893L135.288 81.5419L134.017 70.9812Z" fill="#24A19C"/>
<path d="M140.552 68.7234L134.017 70.9814L135.287 81.5421L142.678 78.9884L140.552 68.7234Z" fill="#EDEDED"/>
<path d="M147.094 66.4653L140.552 68.7234L142.678 78.9884L150.063 76.4348L147.094 66.4653Z" fill="#24A19C"/>
<path d="M160.17 61.9489L153.629 64.2069L157.447 73.887L164.837 71.3333L160.17 61.9489Z" fill="#24A19C"/>
<path d="M173.247 57.4331L166.706 59.6912L172.222 68.78L179.606 66.2326L173.247 57.4331Z" fill="#24A19C"/>
<path d="M153.629 64.2068L147.094 66.4649L150.063 76.4343L157.447 73.8869L153.629 64.2068Z" fill="#EDEDED"/>
<path d="M166.706 59.691L160.17 61.9491L164.838 71.3336L172.222 68.7799L166.706 59.691Z" fill="#EDEDED"/>
<path d="M135.287 81.542L127.903 84.0579L129.746 89.3855C130.395 89.7111 131.102 89.9044 131.826 89.954C132.551 90.0036 133.278 89.9085 133.965 89.6743C134.652 89.4402 135.286 89.0716 135.829 88.59C136.373 88.1085 136.815 87.5236 137.13 86.8695L135.287 81.542Z" fill="#7FDEDA"/>
<path d="M142.678 78.9885L135.288 81.5422L137.143 86.8697C137.794 87.1932 138.504 87.3838 139.23 87.4303C139.955 87.4768 140.683 87.3784 141.371 87.1407C142.058 86.903 142.691 86.5308 143.233 86.0458C143.775 85.5609 144.215 84.9728 144.527 84.316L142.678 78.9885Z" fill="#DBDBDB"/>
<path d="M150.063 76.4344L142.678 78.9881L144.515 84.3156C145.166 84.6419 145.876 84.8346 146.603 84.8826C147.33 84.9305 148.059 84.8326 148.748 84.5947C149.436 84.3568 150.07 83.9836 150.613 83.4972C151.155 83.0107 151.594 82.4207 151.905 81.762C151.289 79.9882 150.675 78.2124 150.063 76.4344Z" fill="#7FDEDA"/>
<path d="M164.818 71.3333L157.428 73.8869L159.271 79.2145C160.628 79.8353 162.175 79.8985 163.579 79.3906C164.91 78.8984 166.008 77.9241 166.655 76.6608L164.818 71.3333Z" fill="#7FDEDA"/>
<path d="M179.606 66.2327L172.222 68.7486L174.065 74.0824C174.746 74.4145 175.488 74.6048 176.245 74.6415C177.001 74.6783 177.758 74.5608 178.468 74.2963C179.782 73.7903 180.851 72.7997 181.456 71.5287C180.833 69.7864 180.223 68.0064 179.606 66.2327Z" fill="#7FDEDA"/>
<path d="M157.446 73.8872L150.062 76.4346L151.905 81.7621C153.185 82.4 154.663 82.5128 156.025 82.0766C156.733 81.8436 157.388 81.47 157.949 80.9782C158.509 80.4865 158.965 79.8867 159.289 79.2147C158.673 77.4347 158.063 75.6609 157.446 73.8872Z" fill="#DBDBDB"/>
<path d="M172.222 68.7797L164.819 71.3333L166.655 76.6609C167.305 76.9866 168.013 77.18 168.737 77.2297C169.462 77.2793 170.19 77.1843 170.878 76.9502C171.565 76.7161 172.2 76.3475 172.744 75.8659C173.288 75.3843 173.73 74.7993 174.046 74.1449C173.449 72.3334 172.832 70.5597 172.222 68.7797Z" fill="#DBDBDB"/>
<path d="M170.555 80.3132L169.907 80.5371L175.518 96.779L176.166 96.5551L170.555 80.3132Z" fill="#EDEDED"/>
<path d="M167.588 90.111L167.802 90.7292L178.354 87.0834L178.141 86.4651L167.588 90.111Z" fill="#EDEDED"/>
<path d="M168.826 94.4996L169.04 95.1179L179.593 91.4739L179.379 90.8556L168.826 94.4996Z" fill="#EDEDED"/>
<path d="M166.103 85.7932L166.316 86.4115L176.869 82.7675L176.656 82.1492L166.103 85.7932Z" fill="#EDEDED"/>
<path d="M236.394 65.4579L200.923 53.1542L200.152 55.3767L235.623 67.6804L236.394 65.4579Z" fill="#009ABF"/>
<path d="M241.338 47.1961L208.339 35.7499L202.151 53.5893L235.15 65.0356L241.338 47.1961Z" fill="#24A19C"/>
<path d="M240.369 35.8494L215.945 27.3776L214.472 31.6265L238.895 40.0983L240.369 35.8494Z" fill="#7FDEDA"/>
<path d="M236.387 65.4568L200.917 53.1531L200.504 54.3416L235.975 66.6453L236.387 65.4568Z" fill="#24A19C"/>
<path d="M224.292 47.2228L209.763 42.183L206.98 50.2054L221.509 55.2452L224.292 47.2228Z" fill="#EDEDED"/>
<path d="M210.214 43.4132L208.012 49.7598L220.967 54.2533L223.168 47.9067L210.214 43.4132Z" fill="#92C9F8"/>
<path d="M236.389 51.4231L228.194 48.5806L223.849 61.1074L232.044 63.9499L236.389 51.4231Z" fill="#EDEDED"/>
<path d="M228.627 49.7509L224.598 61.3685L231.289 63.6895L235.319 52.0719L228.627 49.7509Z" fill="#92C9F8"/>
<path d="M222.365 54.734L206.618 49.2716L206.197 50.4839L221.945 55.9462L222.365 54.734Z" fill="#EDEDED"/>
<g opacity="0.34">
<path d="M216.031 45.4321L210.276 50.5458L209.125 50.1495L214.873 45.0295L216.031 45.4321Z" fill="white"/>
<path d="M219.83 46.7467L214.075 51.8666L213.634 51.7094L219.383 46.5957L219.83 46.7467Z" fill="white"/>
<path d="M222.069 47.5202L216.314 52.6401L214.741 52.0929L220.496 46.9792L222.069 47.5202Z" fill="white"/>
<path d="M216.942 45.7467L211.193 50.8666L210.615 50.6654L216.37 45.5454L216.942 45.7467Z" fill="white"/>
</g>
<g opacity="0.34">
<path d="M233.284 51.3758L225.994 57.3574L226.686 55.3761L232.07 50.9543L233.284 51.3758Z" fill="white"/>
<path d="M234.472 54.5267L234.208 55.2815L226.145 61.911L225.679 61.7475L234.472 54.5267Z" fill="white"/>
<path d="M233.812 56.4323L232.875 59.1369L228.503 62.7284L226.849 62.156L233.812 56.4323Z" fill="white"/>
<path d="M234.246 51.7091L225.447 58.9361L225.793 57.9424L233.636 51.4952L234.246 51.7091Z" fill="white"/>
</g>
<path d="M215.766 29.5748L211.093 27.952L206.533 34.2419L211.81 36.0722L215.766 29.5748Z" fill="#24A19C"/>
<path d="M220.44 31.1981L215.766 29.5753L211.81 36.0728L217.094 37.9094L220.44 31.1981Z" fill="#EDEDED"/>
<path d="M225.12 32.8209L220.44 31.1981L217.094 37.9094L222.377 39.7398L225.12 32.8209Z" fill="#24A19C"/>
<path d="M234.472 36.0602L229.792 34.4374L227.66 41.5701L232.944 43.4067L234.472 36.0602Z" fill="#24A19C"/>
<path d="M243.819 39.3055L239.145 37.6827L238.221 45.2369L243.504 47.0672L243.819 39.3055Z" fill="#24A19C"/>
<path d="M229.793 34.4372L225.119 32.8207L222.377 39.7395L227.66 41.5699L229.793 34.4372Z" fill="#EDEDED"/>
<path d="M239.146 37.6826L234.472 36.0598L232.944 43.4064L238.221 45.2367L239.146 37.6826Z" fill="#EDEDED"/>
<path d="M211.816 36.0729L206.533 34.2426L205.212 38.0542C205.434 38.5243 205.748 38.9454 206.135 39.2927C206.522 39.6401 206.975 39.9068 207.466 40.0772C207.958 40.2476 208.478 40.3183 208.997 40.2853C209.516 40.2522 210.023 40.116 210.489 39.8846C210.929 38.614 211.372 37.3435 211.816 36.0729Z" fill="#7FDEDA"/>
<path d="M217.094 37.9095L211.816 36.0729L210.489 39.8845C210.711 40.356 211.025 40.7784 211.412 41.1268C211.8 41.4752 212.253 41.7425 212.745 41.9131C213.238 42.0836 213.759 42.154 214.279 42.1199C214.799 42.0859 215.307 41.9482 215.773 41.7149L217.094 37.9095Z" fill="#DBDBDB"/>
<path d="M222.377 39.7397L217.093 37.9093L215.772 41.6832C216.21 42.6097 216.994 43.3277 217.955 43.6834C218.457 43.8649 218.989 43.9439 219.522 43.9159C220.055 43.8878 220.576 43.7531 221.056 43.5199L222.377 39.7397Z" fill="#7FDEDA"/>
<path d="M232.944 43.4002L227.66 41.5698L226.339 45.3815C226.81 46.3112 227.624 47.0217 228.608 47.3632C229.593 47.7046 230.671 47.6504 231.617 47.2118C232.065 45.9413 232.508 44.6707 232.944 43.4002Z" fill="#7FDEDA"/>
<path d="M243.504 47.067L238.221 45.2367L236.9 49.0484C237.137 49.5354 237.471 49.9692 237.881 50.3238C238.29 50.6784 238.768 50.9463 239.284 51.1114C240.244 51.4094 241.283 51.3261 242.183 50.8787L243.504 47.067Z" fill="#7FDEDA"/>
<path d="M227.66 41.57L222.377 39.7396L221.056 43.5513C221.279 44.021 221.594 44.4416 221.982 44.7885C222.37 45.1355 222.823 45.4019 223.314 45.5722C223.806 45.7425 224.327 45.8134 224.846 45.7806C225.365 45.7479 225.873 45.6123 226.339 45.3816L227.66 41.57Z" fill="#DBDBDB"/>
<path d="M238.221 45.2368L232.944 43.4001L231.617 47.2118C231.848 47.6927 232.174 48.1221 232.575 48.4744C232.976 48.8267 233.444 49.0947 233.95 49.2623C234.924 49.5777 235.982 49.501 236.9 49.0484L238.221 45.2368Z" fill="#DBDBDB"/>
<path d="M232.168 51.0002L231.705 50.8394L227.673 62.4563L228.136 62.6171L232.168 51.0002Z" fill="#EDEDED"/>
<path d="M226.185 55.1673L226.031 55.613L233.578 58.2308L233.732 57.7852L226.185 55.1673Z" fill="#EDEDED"/>
<path d="M224.925 58.1846L224.77 58.6302L232.317 61.2481L232.472 60.8024L224.925 58.1846Z" fill="#EDEDED"/>
<path d="M227.24 52.0779L227.085 52.5236L234.632 55.1414L234.787 54.6957L227.24 52.0779Z" fill="#EDEDED"/>
<path d="M188.942 28.2466L158.359 37.6317L158.948 39.5499L189.53 30.1648L188.942 28.2466Z" fill="#009ABF"/>
<path d="M183.157 13.1917L154.709 21.9218L159.429 37.3033L187.877 28.5733L183.157 13.1917Z" fill="#24A19C"/>
<path d="M176.781 5.88623L155.723 12.3484L156.846 16.0104L177.904 9.54821L176.781 5.88623Z" fill="#7FDEDA"/>
<path d="M188.94 28.2487L158.357 37.6338L158.671 38.656L189.254 29.2709L188.94 28.2487Z" fill="#24A19C"/>
<path d="M171.456 21.7903L158.925 25.6359L161.047 32.5509L173.578 28.7054L171.456 21.7903Z" fill="#EDEDED"/>
<path d="M171.027 22.8215L159.854 26.25L161.534 31.7219L172.706 28.2934L171.027 22.8215Z" fill="#92C9F8"/>
<path d="M181.881 18.5935L174.815 20.7617L178.131 31.5673L185.197 29.3991L181.881 18.5935Z" fill="#EDEDED"/>
<path d="M181.481 19.5821L175.715 21.3517L178.789 31.3695L184.556 29.5999L181.481 19.5821Z" fill="#92C9F8"/>
<path d="M173.898 27.9287L160.32 32.0953L160.641 33.1416L174.219 28.975L173.898 27.9287Z" fill="#EDEDED"/>
<g opacity="0.34">
<path d="M164.862 24.7007L163.485 31.1101L162.491 31.4183L163.868 25.0026L164.862 24.7007Z" fill="white"/>
<path d="M168.139 23.6946L166.755 30.1102L166.378 30.2235L167.755 23.8078L168.139 23.6946Z" fill="white"/>
<path d="M170.07 23.1033L168.686 29.5126L167.334 29.9341L168.711 23.5184L170.07 23.1033Z" fill="white"/>
<path d="M165.655 24.4557L164.271 30.8714L163.774 31.0223L165.158 24.6129L165.655 24.4557Z" fill="white"/>
</g>
<g opacity="0.34">
<path d="M179.72 20.109L177.719 27.8896L177.197 26.1787L178.669 20.4298L179.72 20.109Z" fill="white"/>
<path d="M182.122 21.6752L182.323 22.323L180.109 30.9401L179.713 31.0659L182.122 21.6752Z" fill="white"/>
<path d="M182.625 23.3169L183.342 25.6504L182.147 30.3175L180.719 30.7578L182.625 23.3169Z" fill="white"/>
<path d="M180.55 19.8511L178.134 29.2481L177.876 28.3927L180.028 20.0083L180.55 19.8511Z" fill="white"/>
</g>
<path d="M156.704 13.9259L152.672 15.165L152.704 21.7882L157.258 20.3856L156.704 13.9259Z" fill="#24A19C"/>
<path d="M160.736 12.6932L156.705 13.9261L157.258 20.3857L161.812 18.9894L160.736 12.6932Z" fill="#EDEDED"/>
<path d="M164.768 11.4542L160.736 12.6933L161.811 18.9895L166.365 17.5931L164.768 11.4542Z" fill="#24A19C"/>
<path d="M172.832 8.97583L168.8 10.2149L170.92 16.1966L175.473 14.794L172.832 8.97583Z" fill="#24A19C"/>
<path d="M180.889 6.50366L176.857 7.74276L180.028 13.3974L184.581 12.001L180.889 6.50366Z" fill="#24A19C"/>
<path d="M168.8 10.215L164.768 11.4541L166.366 17.593L170.92 16.1966L168.8 10.215Z" fill="#EDEDED"/>
<path d="M176.857 7.74329L172.832 8.9761L175.473 14.7942L180.027 13.3979L176.857 7.74329Z" fill="#EDEDED"/>
<path d="M157.27 20.3859L152.716 21.7885L153.723 25.0718C154.112 25.2838 154.54 25.4159 154.982 25.4603C155.423 25.5048 155.869 25.4607 156.293 25.3306C156.717 25.2006 157.111 24.9872 157.452 24.703C157.792 24.4188 158.073 24.0694 158.277 23.6755L157.27 20.3859Z" fill="#7FDEDA"/>
<path d="M161.811 18.9891L157.27 20.3855L158.276 23.6751C158.666 23.8868 159.095 24.0186 159.536 24.0626C159.978 24.1066 160.424 24.0619 160.848 23.9313C161.272 23.8007 161.666 23.5866 162.007 23.3018C162.347 23.0169 162.627 22.667 162.83 22.2724C162.484 21.2032 162.145 20.0836 161.811 18.9891Z" fill="#DBDBDB"/>
<path d="M166.366 17.5933L161.812 18.9896L162.818 22.2729C163.588 22.6923 164.492 22.7918 165.334 22.5497C165.77 22.4228 166.176 22.2092 166.527 21.9217C166.878 21.6342 167.168 21.2787 167.379 20.8766C167.039 19.7821 166.706 18.6877 166.366 17.5933Z" fill="#7FDEDA"/>
<path d="M175.473 14.7939L170.919 16.1714L171.926 19.4547C172.719 19.8528 173.635 19.9298 174.483 19.6697C175.331 19.4096 176.046 18.8325 176.48 18.0584C176.14 16.9891 175.807 15.8947 175.473 14.7939Z" fill="#7FDEDA"/>
<path d="M184.581 12.0011L180.027 13.3974L181.034 16.6808C181.423 16.8916 181.85 17.0228 182.29 17.0666C182.73 17.1105 183.175 17.0661 183.598 16.9361C184.02 16.8061 184.413 16.593 184.753 16.3094C185.092 16.0258 185.372 15.6774 185.575 15.2844C185.254 14.19 184.946 13.0955 184.581 12.0011Z" fill="#7FDEDA"/>
<path d="M170.92 16.1715L166.366 17.5679L167.372 20.8512C167.762 21.0632 168.19 21.1952 168.631 21.2397C169.073 21.2841 169.518 21.24 169.942 21.11C170.367 20.98 170.76 20.7666 171.101 20.4824C171.442 20.1981 171.722 19.8488 171.926 19.4548C171.593 18.3855 171.253 17.2911 170.92 16.1715Z" fill="#DBDBDB"/>
<path d="M180.027 13.3978L175.473 14.7942L176.48 18.0838C176.88 18.2983 177.321 18.4295 177.773 18.4695C178.226 18.5095 178.683 18.4574 179.115 18.3165C179.934 18.04 180.612 17.4526 181.002 16.6811C180.7 15.5867 180.36 14.4923 180.027 13.3978Z" fill="#DBDBDB"/>
<path d="M178.771 20.393L178.368 20.5166L181.442 30.5344L181.845 30.4108L178.771 20.393Z" fill="#EDEDED"/>
<path d="M176.732 26.2923L176.851 26.6771L183.357 24.6805L183.239 24.2957L176.732 26.2923Z" fill="#EDEDED"/>
<path d="M177.399 28.9906L177.518 29.3754L184.023 27.3776L183.905 26.9928L177.399 28.9906Z" fill="#EDEDED"/>
<path d="M175.92 23.6236L176.038 24.0084L182.544 22.0107L182.426 21.6259L175.92 23.6236Z" fill="#EDEDED"/>
<path d="M204.904 202.238L177.229 202.351C176.42 202.354 175.639 202.058 175.036 201.519C174.433 200.98 174.051 200.237 173.964 199.433L169.681 160.071L212.213 159.895L208.143 199.301C208.061 200.104 207.685 200.848 207.087 201.39C206.489 201.933 205.711 202.234 204.904 202.238Z" fill="#24A19C"/>
<g style="mix-blend-mode:overlay" opacity="0.47">
<path d="M169.681 160.071L170.498 167.619C183.858 167.191 198.306 167.619 210.917 172.481L212.213 159.901L169.681 160.071Z" fill="black"/>
</g>
<path d="M212.986 154.825H168.906C168.007 154.825 167.277 155.555 167.277 156.454V163.084C167.277 163.984 168.007 164.713 168.906 164.713H212.986C213.886 164.713 214.615 163.984 214.615 163.084V156.454C214.615 155.555 213.886 154.825 212.986 154.825Z" fill="#24A19C"/>
<path d="M225.878 116.051L206.008 108.244L205.518 109.491L225.388 117.298L225.878 116.051Z" fill="#009ABF"/>
<path d="M228.407 106.76L209.939 99.4126L205.967 109.398L224.434 116.745L228.407 106.76Z" fill="#24A19C"/>
<path d="M228.821 99.3263L215.14 93.9509L214.203 96.3336L227.885 101.709L228.821 99.3263Z" fill="#7FDEDA"/>
<path d="M225.873 116.053L206.004 108.246L205.742 108.913L225.611 116.72L225.873 116.053Z" fill="#24A19C"/>
<path d="M219.421 105.416L211.283 102.219L209.517 106.715L217.654 109.912L219.421 105.416Z" fill="#EDEDED"/>
<path d="M212.446 103.623L211.033 107.173L218.287 110.059L219.699 106.508L212.446 103.623Z" fill="#92C9F8"/>
<path d="M226.202 108.081L221.612 106.278L218.854 113.297L223.444 115.101L226.202 108.081Z" fill="#EDEDED"/>
<path d="M221.842 106.96L219.286 113.464L223.033 114.937L225.588 108.433L221.842 106.96Z" fill="#92C9F8"/>
<path d="M217.431 110.567L208.615 107.059L208.345 107.738L217.161 111.245L217.431 110.567Z" fill="#EDEDED"/>
<g opacity="0.34">
<path d="M214.779 104.198L211.395 106.972L210.747 106.72L214.131 103.947L214.779 104.198Z" fill="white"/>
<path d="M216.905 105.034L213.521 107.808L213.275 107.714L216.659 104.94L216.905 105.034Z" fill="white"/>
<path d="M218.157 105.525L214.773 108.305L213.892 107.959L217.276 105.179L218.157 105.525Z" fill="white"/>
<path d="M215.289 104.399L211.905 107.179L211.584 107.047L214.968 104.274L215.289 104.399Z" fill="white"/>
</g>
<g opacity="0.34">
<path d="M224.44 107.972L220.163 111.205L220.603 110.092L223.761 107.708L224.44 107.972Z" fill="white"/>
<path d="M225.044 109.79L224.88 110.218L220.144 113.797L219.886 113.696L225.044 109.79Z" fill="white"/>
<path d="M224.628 110.859L224.031 112.375L221.465 114.312L220.54 113.947L224.628 110.859Z" fill="white"/>
<path d="M224.981 108.186L219.817 112.085L220.037 111.532L224.641 108.053L224.981 108.186Z" fill="white"/>
</g>
<path d="M214.993 95.1847L212.376 94.1594L209.64 97.6251L212.596 98.7888L214.993 95.1847Z" fill="#24A19C"/>
<path d="M217.609 96.2164L214.993 95.1848L212.596 98.7889L215.559 99.9525L217.609 96.2164Z" fill="#EDEDED"/>
<path d="M220.232 97.2416L217.61 96.2163L215.559 99.9525L218.515 101.11L220.232 97.2416Z" fill="#24A19C"/>
<path d="M225.465 99.2982L222.849 98.2729L221.471 102.273L224.434 103.437L225.465 99.2982Z" fill="#24A19C"/>
<path d="M230.705 101.361L228.088 100.33L227.39 104.601L230.346 105.764L230.705 101.361Z" fill="#24A19C"/>
<path d="M222.849 98.273L220.232 97.2415L218.515 101.11L221.471 102.273L222.849 98.273Z" fill="#EDEDED"/>
<path d="M228.088 100.33L225.465 99.2983L224.434 103.437L227.39 104.601L228.088 100.33Z" fill="#EDEDED"/>
<path d="M212.621 98.7884L209.665 97.6248L208.822 99.757C208.942 100.031 209.115 100.279 209.331 100.486C209.547 100.693 209.801 100.856 210.08 100.965C210.354 101.071 210.646 101.121 210.94 101.114C211.234 101.106 211.523 101.04 211.791 100.921L212.621 98.7884Z" fill="#7FDEDA"/>
<path d="M215.552 99.9524L212.596 98.7888L211.759 100.921C211.873 101.191 212.04 101.436 212.25 101.641C212.459 101.846 212.707 102.008 212.98 102.116C213.254 102.231 213.549 102.291 213.848 102.291C214.146 102.291 214.441 102.231 214.716 102.116C214.999 101.374 215.275 100.663 215.552 99.9524Z" fill="#DBDBDB"/>
<path d="M218.515 101.085L215.552 99.9272L214.716 102.06C214.945 102.596 215.373 103.022 215.911 103.248C216.191 103.366 216.491 103.426 216.795 103.426C217.098 103.426 217.399 103.366 217.678 103.248C217.955 102.538 218.232 101.827 218.515 101.085Z" fill="#7FDEDA"/>
<path d="M224.434 103.437L221.471 102.273L220.635 104.412C220.884 104.956 221.335 105.383 221.893 105.601C222.434 105.804 223.032 105.792 223.566 105.569L224.434 103.437Z" fill="#7FDEDA"/>
<path d="M230.347 105.764L227.39 104.601L226.554 106.745C226.673 107.033 226.85 107.293 227.074 107.51C227.298 107.726 227.564 107.894 227.856 108.003C228.396 108.193 228.988 108.168 229.51 107.934L230.347 105.764Z" fill="#7FDEDA"/>
<path d="M221.471 102.273L218.515 101.109L217.678 103.248C217.905 103.782 218.331 104.207 218.867 104.43C219.146 104.549 219.447 104.61 219.751 104.61C220.054 104.61 220.355 104.549 220.634 104.43C220.911 103.694 221.194 102.971 221.471 102.273Z" fill="#DBDBDB"/>
<path d="M227.389 104.601L224.433 103.437L223.59 105.57C223.706 105.843 223.875 106.09 224.087 106.297C224.299 106.504 224.551 106.666 224.827 106.774C225.103 106.883 225.398 106.935 225.694 106.928C225.99 106.921 226.282 106.855 226.553 106.733L227.389 104.601Z" fill="#DBDBDB"/>
<path d="M223.836 107.716L223.578 107.615L221.022 114.118L221.279 114.219L223.836 107.716Z" fill="#EDEDED"/>
<path d="M220.331 109.975L220.235 110.221L224.462 111.882L224.558 111.636L220.331 109.975Z" fill="#EDEDED"/>
<path d="M219.537 111.647L219.44 111.892L223.667 113.552L223.764 113.307L219.537 111.647Z" fill="#EDEDED"/>
<path d="M221.007 108.247L220.911 108.493L225.137 110.155L225.233 109.91L221.007 108.247Z" fill="#EDEDED"/>
<path d="M185.921 184.149H143.622C143.326 184.149 143.087 184.388 143.087 184.683V191.155C143.087 191.451 143.326 191.69 143.622 191.69H185.921C186.216 191.69 186.456 191.451 186.456 191.155V184.683C186.456 184.388 186.216 184.149 185.921 184.149Z" fill="#FFB347"/>
<g opacity="0.58">
<path d="M163.114 184.149H152.075V191.69H163.114V184.149Z" fill="#BF8635"/>
</g>
<path d="M159.793 184.149H155.39V191.69H159.793V184.149Z" fill="#F4D9B3"/>
<path d="M184.519 184.149H182.77V191.69H184.519V184.149Z" fill="#F49519"/>
<path d="M181.204 184.149H179.455V191.69H181.204V184.149Z" fill="#F49519"/>
<path d="M177.889 184.149H176.14V191.69H177.889V184.149Z" fill="#FFB347"/>
<path d="M174.567 184.149H172.819V191.69H174.567V184.149Z" fill="#FFB347"/>
<path d="M171.19 184.149H169.442V191.69H171.19V184.149Z" fill="#FFB347"/>
<path d="M167.813 184.149H166.064V191.69H167.813V184.149Z" fill="#FFB347"/>
<path d="M150.371 184.149H148.622V191.69H150.371V184.149Z" fill="#FFB347"/>
<path d="M147.295 184.149H145.546V191.69H147.295V184.149Z" fill="#F49519"/>
<g style="mix-blend-mode:overlay" opacity="0.27">
<path d="M143.087 188.81V190.401C143.137 190.79 143.338 191.144 143.646 191.388C143.954 191.631 144.345 191.744 144.735 191.703H184.801C185.192 191.744 185.582 191.631 185.89 191.388C186.198 191.144 186.399 190.79 186.449 190.401V187.69C179.805 189.535 172.968 190.599 166.076 190.86C158.357 191.164 150.631 190.475 143.087 188.81Z" fill="black"/>
</g>
<path d="M182.7 191.69H140.401C140.106 191.69 139.866 191.929 139.866 192.225V198.697C139.866 198.992 140.106 199.232 140.401 199.232H182.7C182.996 199.232 183.235 198.992 183.235 198.697V192.225C183.235 191.929 182.996 191.69 182.7 191.69Z" fill="#FFB347"/>
<g opacity="0.58">
<path d="M159.893 191.69H148.854V199.232H159.893V191.69Z" fill="#BF8635"/>
</g>
<path d="M156.572 191.69H152.169V199.232H156.572V191.69Z" fill="#F4D9B3"/>
<path d="M181.304 191.69H179.555V199.232H181.304V191.69Z" fill="#F49519"/>
<path d="M177.983 191.69H176.234V199.232H177.983V191.69Z" fill="#F49519"/>
<path d="M174.669 191.69H172.92V199.232H174.669V191.69Z" fill="#FFB347"/>
<path d="M171.354 191.69H169.605V199.232H171.354V191.69Z" fill="#FFB347"/>
<path d="M167.976 191.69H166.228V199.232H167.976V191.69Z" fill="#FFB347"/>
<path d="M164.599 191.69H162.85V199.232H164.599V191.69Z" fill="#FFB347"/>
<path d="M147.156 191.69H145.408V199.232H147.156V191.69Z" fill="#FFB347"/>
<path d="M144.081 191.69H142.332V199.232H144.081V191.69Z" fill="#F49519"/>
<g style="mix-blend-mode:overlay" opacity="0.27">
<path d="M139.866 196.345V197.949C139.928 198.335 140.138 198.683 140.452 198.917C140.765 199.152 141.157 199.256 141.546 199.207H181.606C181.996 199.248 182.387 199.136 182.695 198.894C183.004 198.652 183.207 198.3 183.26 197.911V195.194C176.612 197.046 169.771 198.117 162.875 198.383C155.149 198.696 147.416 198.011 139.866 196.345Z" fill="black"/>
</g>
<path d="M185.939 199.226H143.64C143.345 199.226 143.105 199.465 143.105 199.76V206.233C143.105 206.528 143.345 206.767 143.64 206.767H185.939C186.235 206.767 186.474 206.528 186.474 206.233V199.76C186.474 199.465 186.235 199.226 185.939 199.226Z" fill="#FFB347"/>
<g opacity="0.58">
<path d="M163.132 199.226H152.094V206.767H163.132V199.226Z" fill="#BF8635"/>
</g>
<path d="M159.812 199.226H155.409V206.767H159.812V199.226Z" fill="#F4D9B3"/>
<path d="M184.543 199.226H182.794V206.767H184.543V199.226Z" fill="#F49519"/>
<path d="M181.222 199.226H179.474V206.767H181.222V199.226Z" fill="#F49519"/>
<path d="M177.908 199.226H176.159V206.767H177.908V199.226Z" fill="#FFB347"/>
<path d="M174.593 199.226H172.844V206.767H174.593V199.226Z" fill="#FFB347"/>
<path d="M171.215 199.226H169.467V206.767H171.215V199.226Z" fill="#FFB347"/>
<path d="M167.837 199.226H166.088V206.767H167.837V199.226Z" fill="#FFB347"/>
<path d="M150.396 199.226H148.647V206.767H150.396V199.226Z" fill="#FFB347"/>
<path d="M147.319 199.226H145.571V206.767H147.319V199.226Z" fill="#F49519"/>
<g style="mix-blend-mode:overlay" opacity="0.27">
<path d="M143.105 203.886V205.496C143.159 205.885 143.361 206.237 143.67 206.479C143.979 206.721 144.37 206.833 144.76 206.792H184.82C185.21 206.833 185.601 206.721 185.909 206.479C186.218 206.237 186.421 205.885 186.474 205.496V202.779C179.821 204.625 172.975 205.684 166.076 205.936C158.363 206.245 150.642 205.556 143.105 203.886Z" fill="black"/>
</g>
</svg>
