<svg width="34" height="35" viewBox="0 0 34 35" fill="none" xmlns="http://www.w3.org/2000/svg">
<path d="M24.0846 25.9997C24.8361 25.9997 25.5568 26.2982 26.0881 26.8295C26.6195 27.3609 26.918 28.0816 26.918 28.833C26.918 29.5845 26.6195 30.3051 26.0881 30.8365C25.5568 31.3678 24.8361 31.6663 24.0846 31.6663C23.3332 31.6663 22.6125 31.3678 22.0812 30.8365C21.5498 30.3051 21.2513 29.5845 21.2513 28.833C21.2513 27.2605 22.5121 25.9997 24.0846 25.9997ZM1.41797 3.33301H6.05047L7.38214 6.16634H28.3346C28.7104 6.16634 29.0707 6.3156 29.3364 6.58127C29.602 6.84695 29.7513 7.20728 29.7513 7.58301C29.7513 7.82384 29.6805 8.06467 29.5813 8.29134L24.5096 17.4572C24.028 18.3213 23.093 18.9163 22.0305 18.9163H11.4763L10.2013 21.2255L10.1588 21.3955C10.1588 21.4894 10.1961 21.5795 10.2625 21.6459C10.329 21.7124 10.419 21.7497 10.513 21.7497H26.918V24.583H9.91797C9.16652 24.583 8.44585 24.2845 7.9145 23.7531C7.38315 23.2218 7.08464 22.5011 7.08464 21.7497C7.08464 21.2538 7.21214 20.7863 7.42464 20.3897L9.3513 16.9188L4.2513 6.16634H1.41797V3.33301ZM9.91797 25.9997C10.6694 25.9997 11.3901 26.2982 11.9214 26.8295C12.4528 27.3609 12.7513 28.0816 12.7513 28.833C12.7513 29.5845 12.4528 30.3051 11.9214 30.8365C11.3901 31.3678 10.6694 31.6663 9.91797 31.6663C9.16652 31.6663 8.44585 31.3678 7.9145 30.8365C7.38315 30.3051 7.08464 29.5845 7.08464 28.833C7.08464 27.2605 8.34547 25.9997 9.91797 25.9997ZM22.668 16.083L26.6063 8.99967H8.69964L12.043 16.083H22.668Z" fill="#24A19C"/>
</svg>
