<svg width="89" height="92" viewBox="0 0 89 92" fill="none" xmlns="http://www.w3.org/2000/svg">
<path d="M45.3711 48.0815C46.3881 49.065 48.0096 49.0379 48.9931 48.0209L57.0073 39.7338L58.0806 40.7718C58.4038 41.0848 58.8005 41.4691 59.1646 41.7426L59.1716 41.748C59.433 41.9446 60.6212 42.8373 62.133 42.2848C63.6488 41.7307 63.9837 40.2719 64.0561 39.9563L64.0594 39.9445C64.1621 39.4985 64.2186 38.9446 64.2657 38.4893L64.2758 38.3918C64.4025 37.175 64.5615 35.6028 64.5572 34.2053C64.5551 33.508 64.5143 32.7504 64.3719 32.0467C64.2454 31.4212 63.9619 30.4235 63.1689 29.6566C62.3759 28.8897 61.3693 28.6397 60.7398 28.5342C60.0317 28.4155 59.2726 28.3993 58.5755 28.4206C57.1787 28.4631 55.6133 28.6753 54.4015 28.8427L54.3037 28.8553C53.8503 28.9177 53.2991 28.9934 52.8569 29.1109L52.8453 29.1146C52.5323 29.1975 51.0855 29.5811 50.5824 31.1145C50.0808 32.6443 51.0131 33.802 51.218 34.0563L51.2236 34.0632C51.5092 34.418 51.9066 34.8015 52.2302 35.114L53.3246 36.1724L45.3104 44.4595C44.327 45.4764 44.3542 47.0979 45.3711 48.0815ZM26.6615 67.4071C32.5817 73.1323 41.7805 73.3778 47.9816 68.2491C48.4686 67.8463 48.7125 67.6453 48.9539 67.6258C49.1954 67.6063 49.4726 67.7686 50.026 68.0933C55.2549 71.1612 62.0909 70.386 66.4922 65.8349C71.6557 60.4955 71.513 51.9811 66.1738 46.8175L66.0636 46.7109C65.6593 46.3199 65.4569 46.1246 65.2285 46.0826C65.0001 46.0406 64.6872 46.1737 64.0618 46.4419C63.2926 46.7718 62.4457 46.956 61.5559 46.9583C60.3718 46.9613 59.262 46.6423 58.3091 46.0844C57.6021 45.6706 57.2483 45.4636 56.985 45.4995C56.7218 45.5356 56.4874 45.7781 56.0192 46.2623L51.7449 50.6821C49.2861 53.2246 45.2318 53.2924 42.6892 50.8337C40.1466 48.3748 40.0787 44.3205 42.5376 41.7779L46.8118 37.3581C47.28 36.874 47.5145 36.6316 47.5418 36.3673C47.5689 36.103 47.3501 35.7562 46.9129 35.0635C46.3235 34.1298 45.9675 33.0313 45.9308 31.8478C45.9032 30.9545 46.0184 30.0582 46.2976 29.2491C46.5279 28.5816 46.6427 28.2475 46.5766 28.0151C46.5104 27.7828 46.3066 27.6162 45.8986 27.2833C40.0302 22.4945 31.3703 22.9232 26.0089 28.4671C21.3048 33.3318 20.6224 40.6005 23.8914 46.1641C24.1554 46.6133 24.2878 46.8384 24.2888 47.0456C24.2898 47.2526 24.1602 47.477 23.9023 47.9257C20.3323 54.1356 21.2783 62.2011 26.6615 67.4071Z" fill="#24A19C"/>
<path d="M43.9238 43.018C44.9408 44.0016 46.5623 43.9744 47.5458 42.9574L55.56 34.6703L56.6334 35.7083C56.9565 36.0213 57.3532 36.4057 57.7173 36.6792L57.7243 36.6846C57.9858 36.8811 59.1739 37.7738 60.6858 37.2213C62.2015 36.6672 62.5364 35.2084 62.6089 34.8928L62.6121 34.881C62.7148 34.435 62.7713 33.8811 62.8184 33.4258L62.8285 33.3283C62.9553 32.1115 63.1142 30.5393 63.11 29.1418C63.1079 28.4445 63.067 27.6869 62.9247 26.9832C62.7981 26.3577 62.5146 25.36 61.7216 24.5931C60.9286 23.8262 59.922 23.5762 59.2925 23.4707C58.5844 23.352 57.8253 23.3359 57.1283 23.3571C55.7315 23.3997 54.166 23.6118 52.9543 23.7792L52.8564 23.7919C52.403 23.8542 51.8519 23.9299 51.4097 24.0475L51.398 24.0511C51.085 24.134 49.6382 24.5176 49.1351 26.0511C48.6335 27.5809 49.5659 28.7385 49.7707 28.9929L49.7764 28.9997C50.0619 29.3545 50.4593 29.738 50.7829 30.0505L51.8773 31.1089L43.8632 39.396C42.8797 40.413 42.907 42.0344 43.9238 43.018ZM25.2142 62.3436C31.1345 68.0688 40.3332 68.3143 46.5343 63.1856C47.0213 62.7828 47.2652 62.5818 47.5066 62.5623C47.7482 62.5429 48.0253 62.7051 48.5787 63.0298C53.8077 66.0977 60.6436 65.3225 65.0449 60.7714C70.2085 55.432 70.0658 46.9176 64.7265 41.754L64.6163 41.6474C64.2121 41.2564 64.0096 41.0611 63.7812 41.0191C63.5528 40.9771 63.2399 41.1102 62.6145 41.3784C61.8453 41.7083 60.9984 41.8926 60.1086 41.8948C58.9245 41.8978 57.8148 41.5788 56.8618 41.021C56.1549 40.6071 55.801 40.4002 55.5377 40.4361C55.2745 40.4722 55.0401 40.7147 54.5719 41.1988L50.2977 45.6186C47.8388 48.1611 43.7845 48.229 41.2419 45.7702C38.6993 43.3113 38.6314 39.257 41.0903 36.7144L45.3645 32.2946C45.8327 31.8105 46.0672 31.5681 46.0945 31.3038C46.1217 31.0395 45.9029 30.6927 45.4656 30.0001C44.8762 29.0663 44.5202 27.9678 44.4836 26.7843C44.4559 25.891 44.5711 24.9947 44.8503 24.1856C45.0806 23.5181 45.1955 23.184 45.1294 22.9516C45.0632 22.7193 44.8593 22.5527 44.4514 22.2198C38.583 17.431 29.923 17.8597 24.5617 23.4036C19.8575 28.2683 19.1751 35.5371 22.4442 41.1006C22.7082 41.5498 22.8406 41.775 22.8415 41.9821C22.8425 42.1892 22.713 42.4135 22.455 42.8622C18.8851 49.0721 19.831 57.1376 25.2142 62.3436Z" fill="#7FDEDA"/>
</svg>
