<svg width="18" height="18" viewBox="0 0 18 18" fill="none" xmlns="http://www.w3.org/2000/svg">
<path d="M7.75855 1.98458C7.91487 1.80999 8.10625 1.67033 8.32021 1.57472C8.53416 1.47911 8.76587 1.42969 9.00021 1.42969C9.23456 1.42969 9.46627 1.47911 9.68022 1.57472C9.89417 1.67033 10.0856 1.80999 10.2419 1.98458L10.8252 2.63625C10.9919 2.82249 11.1984 2.96885 11.4294 3.06449C11.6603 3.16013 11.9098 3.2026 12.1594 3.18875L13.0344 3.14041C13.2684 3.12751 13.5025 3.16412 13.7215 3.24785C13.9404 3.33158 14.1392 3.46054 14.3049 3.62632C14.4706 3.7921 14.5995 3.99097 14.6831 4.20994C14.7667 4.4289 14.8032 4.66305 14.7902 4.89708L14.7419 5.77125C14.7282 6.02069 14.7707 6.27003 14.8663 6.50082C14.962 6.73161 15.1082 6.93795 15.2944 7.10458L15.946 7.68791C16.1208 7.84424 16.2605 8.03567 16.3562 8.2497C16.4519 8.46373 16.5014 8.69555 16.5014 8.93C16.5014 9.16445 16.4519 9.39626 16.3562 9.61029C16.2605 9.82432 16.1208 10.0158 15.946 10.1721L15.2944 10.7554C15.1081 10.9221 14.9618 11.1286 14.8661 11.3596C14.7705 11.5905 14.728 11.84 14.7419 12.0896L14.7902 12.9646C14.8031 13.1986 14.7665 13.4327 14.6828 13.6517C14.5991 13.8706 14.4701 14.0694 14.3043 14.2351C14.1385 14.4008 13.9397 14.5297 13.7207 14.6133C13.5017 14.6969 13.2676 14.7334 13.0335 14.7204L12.1594 14.6721C11.9099 14.6584 11.6606 14.7009 11.4298 14.7965C11.199 14.8922 10.9927 15.0384 10.826 15.2246L10.2427 15.8762C10.0864 16.051 9.89495 16.1907 9.68092 16.2864C9.46689 16.3821 9.23508 16.4316 9.00063 16.4316C8.76618 16.4316 8.53437 16.3821 8.32034 16.2864C8.10631 16.1907 7.91488 16.051 7.75855 15.8762L7.17521 15.2246C7.0085 15.0383 6.80202 14.892 6.57107 14.7963C6.34013 14.7007 6.09063 14.6582 5.84105 14.6721L4.96605 14.7204C4.73201 14.7333 4.49788 14.6967 4.27896 14.613C4.06003 14.5293 3.86122 14.4003 3.69552 14.2345C3.52982 14.0687 3.40095 13.8699 3.31732 13.6509C3.2337 13.4319 3.1972 13.1978 3.21021 12.9637L3.25855 12.0896C3.27227 11.8401 3.22974 11.5908 3.13411 11.36C3.03848 11.1292 2.89218 10.9229 2.70605 10.7562L2.05438 10.1729C1.87966 10.0166 1.73988 9.82515 1.64418 9.61112C1.54849 9.39709 1.49902 9.16528 1.49902 8.93083C1.49902 8.69638 1.54849 8.46457 1.64418 8.25054C1.73988 8.03651 1.87966 7.84507 2.05438 7.68875L2.70605 7.10541C2.89229 6.9387 3.03866 6.73222 3.13429 6.50127C3.22993 6.27033 3.2724 6.02083 3.25855 5.77125L3.21021 4.89625C3.19743 4.66228 3.23413 4.42824 3.31792 4.20941C3.4017 3.99059 3.53068 3.79188 3.69645 3.62628C3.86222 3.46067 4.06104 3.33187 4.27995 3.2483C4.49885 3.16472 4.73292 3.12824 4.96688 3.14125L5.84105 3.18958C6.09049 3.2033 6.33983 3.16078 6.57062 3.06514C6.80141 2.96951 7.00775 2.82321 7.17438 2.63708L7.75855 1.98458Z" stroke="#808080" stroke-width="2"/>
</svg>
