<svg width="315" height="315" viewBox="0 0 315 315" fill="none" xmlns="http://www.w3.org/2000/svg">
<path d="M27.0801 213.332H67.5271C60.3337 213.332 54.5019 206.239 54.5019 197.491C54.5019 188.743 60.3337 181.651 67.5271 181.651H35.9915C28.7981 181.651 22.9663 174.559 22.9663 165.811C22.9663 157.062 28.7981 149.971 35.9915 149.971H41.9412C38.0466 147.232 35.4211 142.125 35.4211 136.262C35.4211 129.658 38.7445 124.003 43.4673 121.625H28.2225C21.0283 121.625 15.1958 114.533 15.1958 105.785C15.1958 97.0366 21.0283 89.9446 28.2225 89.9446H68.6687C61.476 89.9446 55.645 82.8527 55.645 74.105C55.645 65.3566 61.476 58.2654 68.6687 58.2654H37.1346C29.9405 58.2654 24.1094 51.1734 24.1094 42.425C24.1094 33.6765 29.9405 26.5846 37.1346 26.5846H292.043C299.237 26.5846 305.068 33.6765 305.068 42.425C305.068 51.1734 299.236 58.2654 292.043 58.2654H275.589C282.783 58.2654 288.615 65.3566 288.615 74.105C288.615 82.8527 282.783 89.9446 275.589 89.9446H283.13C290.324 89.9446 296.157 97.0366 296.157 105.785C296.157 114.533 290.324 121.625 283.13 121.625H260.345C265.068 124.003 268.392 129.658 268.392 136.262C268.392 142.125 265.766 147.232 261.872 149.971H290.9C298.094 149.971 303.925 157.062 303.925 165.811C303.925 174.559 298.094 181.651 290.9 181.651H274.447C281.64 181.651 287.472 188.742 287.472 197.491C287.472 206.239 281.64 213.332 274.447 213.332H281.987C289.181 213.332 295.014 220.423 295.014 229.171C295.014 237.92 289.181 245.011 281.987 245.011H259.201C263.924 247.39 267.25 253.045 267.25 259.648C267.25 268.397 261.417 275.489 254.225 275.489H47.3033C40.1091 275.489 34.278 268.397 34.278 259.648C34.278 253.045 37.6014 247.39 42.3242 245.011H27.0794C19.8867 245.011 14.0542 237.92 14.0542 229.171C14.0542 220.423 19.8875 213.332 27.0801 213.332Z" fill="#BCE1E5"/>
<path d="M247.92 287.338C247.92 281.27 209.331 276.351 161.731 276.351C114.129 276.351 77.2984 283.489 77.2984 289.556C77.2984 295.624 114.129 298.325 161.731 298.325C209.331 298.325 247.92 293.407 247.92 287.338Z" fill="#C0C2C4"/>
<path d="M236.174 198.368L251.446 207.902V293.445L236.174 284.339V198.368Z" fill="#3E0D00"/>
<path d="M63.5543 198.357L78.8242 207.902V293.445L63.5543 284.33V198.357Z" fill="#3E0D00"/>
<path d="M78.8245 207.902H251.446V214.009H78.8245V207.902Z" fill="#582100"/>
<path d="M236.184 198.368L251.446 207.902H78.8245L63.5605 198.368H236.184Z" fill="#71300D"/>
<path d="M78.8242 207.902H81.1289V293.446H78.8242V207.902Z" fill="#572000"/>
<path d="M249.142 207.902H251.446V293.446H249.142V207.902Z" fill="#572000"/>
<path d="M123.083 285.954C123.083 288.016 124.754 289.689 126.817 289.689C128.879 289.689 130.552 288.016 130.552 285.954C130.552 283.892 128.879 282.221 126.817 282.221C124.754 282.221 123.083 283.892 123.083 285.954Z" fill="#00010D"/>
<path d="M126.817 272.948V283.041" stroke="#00010D" stroke-width="3.6881" stroke-miterlimit="10"/>
<path d="M106.206 188.773H110.942V228.117H106.206V188.773Z" fill="#28313B"/>
<path d="M102.38 194.278C102.38 195.423 103.548 196.351 104.987 196.351H112.161C113.599 196.351 114.768 195.423 114.768 194.278C114.768 193.135 113.599 192.207 112.161 192.207H104.987C103.548 192.207 102.38 193.135 102.38 194.278Z" fill="#1B232D"/>
<path d="M102.38 199.643C102.38 200.787 103.548 201.715 104.987 201.715H112.161C113.599 201.715 114.768 200.787 114.768 199.643C114.768 198.497 113.599 197.57 112.161 197.57H104.987C103.548 197.571 102.38 198.497 102.38 199.643Z" fill="#1B232D"/>
<path d="M102.38 205.006C102.38 206.15 103.548 207.078 104.987 207.078H112.161C113.599 207.078 114.768 206.15 114.768 205.006C114.768 203.862 113.599 202.934 112.161 202.934H104.987C103.548 202.934 102.38 203.862 102.38 205.006Z" fill="#1B232D"/>
<path d="M102.38 210.324C102.38 211.467 103.548 212.395 104.987 212.395H112.161C113.599 212.395 114.768 211.467 114.768 210.324C114.768 209.179 113.599 208.251 112.161 208.251H104.987C103.548 208.252 102.38 209.179 102.38 210.324Z" fill="#1B232D"/>
<path d="M102.38 215.688C102.38 216.832 103.548 217.76 104.987 217.76H112.161C113.599 217.76 114.768 216.832 114.768 215.688C114.768 214.544 113.599 213.616 112.161 213.616H104.987C103.548 213.616 102.38 214.544 102.38 215.688Z" fill="#1B232D"/>
<path d="M102.38 220.606C102.38 221.749 103.548 222.677 104.987 222.677H112.161C113.599 222.677 114.768 221.749 114.768 220.606C114.768 219.461 113.599 218.532 112.161 218.532H104.987C103.548 218.532 102.38 219.461 102.38 220.606Z" fill="#1B232D"/>
<path d="M102.937 232.069C102.937 236.597 106.608 240.267 111.136 240.267H142.498C147.025 240.267 150.696 236.597 150.696 232.069C150.696 227.54 147.026 223.871 142.498 223.871H111.136C106.608 223.871 102.937 227.54 102.937 232.069Z" fill="#D83633"/>
<path d="M111.136 223.871H111.194C110.862 224.763 110.671 225.724 110.671 226.733C110.671 231.26 114.343 234.931 118.869 234.931H150.173C149.012 238.045 146.018 240.267 142.499 240.267H111.137C106.609 240.267 102.938 236.597 102.938 232.069C102.938 227.54 106.608 223.871 111.136 223.871Z" fill="#D1D3D4"/>
<path d="M91.4305 180.587C91.4305 186.623 96.3244 191.517 102.36 191.517H124.541C130.576 191.517 135.47 186.623 135.47 180.587V169.664C135.47 163.627 130.576 158.735 124.541 158.735H102.36C96.3244 158.735 91.4305 163.627 91.4305 169.664V180.587Z" fill="#D83633"/>
<path d="M101.183 158.799C99.6869 160.549 98.7772 162.818 98.7772 165.301V175.31C98.7772 180.84 103.26 185.325 108.792 185.325H129.114C131.368 185.325 133.441 184.571 135.113 183.315C133.901 188.029 129.634 191.517 124.542 191.517H102.361C96.325 191.517 91.4311 186.623 91.4311 180.587V169.664C91.4304 164.024 95.7005 159.388 101.183 158.799Z" fill="#D1D3D4"/>
<path d="M124.416 240.267H129.218V273.842H124.416V240.267Z" fill="#151D27"/>
<path d="M127.36 272.948L142.418 285.698" stroke="#151D27" stroke-width="3.6881" stroke-miterlimit="10"/>
<path d="M125.884 272.948L110.827 285.698" stroke="#151D27" stroke-width="3.6881" stroke-miterlimit="10"/>
<path d="M139.471 287.34C139.471 289.401 141.142 291.07 143.204 291.07C145.267 291.07 146.938 289.401 146.938 287.34C146.938 285.276 145.267 283.605 143.204 283.605C141.142 283.605 139.471 285.276 139.471 287.34Z" fill="#151D27"/>
<path d="M107.091 287.34C107.091 289.401 108.764 291.07 110.827 291.07C112.889 291.07 114.561 289.401 114.561 287.34C114.561 285.276 112.889 283.605 110.827 283.605C108.764 283.605 107.091 285.276 107.091 287.34Z" fill="#151D27"/>
<path d="M132.185 152.086H141.916V144.646L132.185 140.385V152.086Z" fill="#F9A374"/>
<path d="M137.886 150.373C140.167 148.767 140.534 145.738 139.239 143.474L141.916 144.646V152.086H132.185V151.593C134.176 151.896 136.362 151.447 137.886 150.373Z" fill="#E6E7E8"/>
<path d="M115.319 212.207L112.995 158.36C113.621 150.069 119.401 149.316 119.401 149.316L133.118 147.866L137.789 150.983L142.108 148.195L153.322 155.563C153.322 155.563 155.023 156.875 156.284 162.664L153.336 212.206H115.319V212.207Z" fill="#E6E7E8"/>
<path d="M135.654 150.984H139.537L142.014 155.576L139.333 159.582L139.173 159.591H136.192L133.565 155.575L135.654 150.984Z" fill="#D83633"/>
<path d="M139.333 159.582L140.053 202.022L136.563 208.059L133.287 201.767L136.192 159.591L139.333 159.582Z" fill="#98221E"/>
<path d="M114.255 212.207L112.995 157.851C113.62 149.559 119.401 148.807 119.401 148.807L132.021 147.42L129.007 212.208L114.255 212.207Z" fill="#003F54"/>
<path d="M142.377 212.207L142.107 148.196L153.321 155.563C153.321 155.563 155.022 156.876 156.283 162.664L153.335 212.207H142.377Z" fill="#003F54"/>
<path d="M153.335 212.207H114.255C114.255 212.207 108.811 233.857 135.23 231.949C135.23 231.949 156.425 232.616 153.335 212.207Z" fill="#181421"/>
<path d="M153.335 212.207L185.443 217.906L178.223 283.61H170.001L170.92 228.666H147.269L153.335 212.207Z" fill="#181421"/>
<path d="M143.729 149.247L141.865 147.053L137.788 150.984L145.122 157.882L143.729 149.247Z" fill="white"/>
<path d="M130.522 147.563L132.184 145.633L137.788 150.984L129.217 157.882L130.522 147.563Z" fill="white"/>
<path d="M126.799 127.073C126.981 129.847 125.71 132.184 123.968 132.296C122.225 132.408 120.666 130.255 120.489 127.481C120.311 124.709 121.579 122.371 123.325 122.259C125.067 122.147 126.623 124.303 126.799 127.073Z" fill="#F9A374"/>
<path d="M124.331 126.084C124.331 126.084 124.327 125.93 124.292 125.675C124.259 125.418 124.172 125.054 124.012 124.658C123.846 124.276 123.556 123.827 123.126 123.767C123.02 123.752 122.907 123.758 122.792 123.775C122.773 123.784 122.653 123.81 122.616 123.83C122.575 123.857 122.535 123.865 122.483 123.901C122.288 124.023 122.118 124.224 121.993 124.459C121.858 124.689 121.759 124.952 121.688 125.215C121.624 125.478 121.568 125.755 121.573 125.996C121.589 126.273 121.568 126.555 121.597 126.798C121.623 127.045 121.645 127.278 121.668 127.494C121.708 127.713 121.737 127.916 121.761 128.095C121.783 128.277 121.831 128.428 121.852 128.557C121.907 128.813 121.931 128.965 121.931 128.965C121.931 128.965 121.86 128.831 121.748 128.591C121.699 128.469 121.619 128.327 121.558 128.152C121.495 127.978 121.422 127.781 121.351 127.563C121.286 127.342 121.234 127.093 121.177 126.83C121.116 126.567 121.108 126.302 121.077 126.02C121.053 125.698 121.085 125.394 121.16 125.084C121.234 124.777 121.341 124.47 121.502 124.178C121.665 123.894 121.894 123.619 122.204 123.432C122.274 123.385 122.374 123.346 122.466 123.312C122.565 123.279 122.591 123.28 122.71 123.255C122.883 123.238 123.057 123.242 123.229 123.279C123.576 123.356 123.843 123.595 124.002 123.834C124.17 124.074 124.256 124.325 124.317 124.553C124.432 125.014 124.416 125.404 124.4 125.67C124.375 125.94 124.331 126.084 124.331 126.084Z" fill="#C8825F"/>
<path d="M124.331 126.084C124.331 126.084 124.529 125.807 123.412 125.641C123.412 125.641 122.131 125.719 122.687 127.139C122.808 127.445 122.905 127.758 122.942 128.087C122.994 128.55 122.71 129.15 122.957 129.58C123.278 130.137 124.307 129.926 124.446 129.334C124.552 128.883 124.076 128.048 123.854 127.7C123.854 127.7 123.18 126.64 124.331 126.084Z" fill="#C8825F"/>
<path d="M124.454 129.275C124.452 129.277 124.49 129.298 124.531 129.356C124.578 129.414 124.627 129.505 124.661 129.625C124.686 129.685 124.689 129.75 124.695 129.823C124.7 129.896 124.71 129.975 124.685 130.05C124.666 130.126 124.654 130.211 124.626 130.291C124.595 130.367 124.546 130.436 124.503 130.509C124.452 130.577 124.412 130.657 124.349 130.706C124.291 130.761 124.22 130.803 124.161 130.848C124.04 130.946 123.91 130.996 123.792 131.016C123.559 131.075 123.398 131.059 123.398 131.059C123.398 131.059 123.483 130.901 123.617 130.745C123.651 130.703 123.687 130.662 123.728 130.625C123.763 130.578 123.792 130.525 123.829 130.481C123.865 130.437 123.897 130.386 123.941 130.346C123.986 130.305 124.002 130.247 124.034 130.2C124.112 130.113 124.155 130.012 124.21 129.915C124.24 129.868 124.258 129.819 124.278 129.77C124.294 129.72 124.327 129.672 124.341 129.626C124.41 129.44 124.454 129.275 124.454 129.275Z" fill="#C8825F"/>
<path d="M156.018 117.241C156.018 117.241 158.012 138.075 147.812 144.633C147.812 144.633 142.716 149.642 136.595 145.254C136.595 145.254 127.513 140.355 126.016 136.618C126.016 136.618 118.175 102.789 137.212 101.696C137.212 101.696 153.47 97.9337 156.018 117.241Z" fill="#F9A374"/>
<path d="M137.212 101.696C137.212 101.696 138.502 101.397 140.416 101.401C137.038 102.712 134.454 105.515 132.731 108.929C130.288 113.767 128.607 119.714 128.325 125.141C127.953 132.341 131.65 139.688 138.128 143.174C140.828 144.627 144.206 145.997 147.308 145.059C145.879 146.171 141.577 148.826 136.595 145.254C136.595 145.254 127.512 140.355 126.015 136.618C126.015 136.618 118.175 102.79 137.212 101.696Z" fill="#E6E7E8"/>
<path d="M136.762 122.352C136.762 123.259 136.026 123.994 135.12 123.994C134.213 123.994 133.479 123.259 133.479 122.352C133.479 121.447 134.213 120.71 135.12 120.71C136.026 120.71 136.762 121.448 136.762 122.352Z" fill="#2E2E2F"/>
<path d="M135.216 121.302C135.347 121.486 135.158 121.85 134.789 122.115C134.421 122.378 134.017 122.444 133.884 122.26C133.751 122.077 133.941 121.714 134.31 121.447C134.678 121.184 135.084 121.118 135.216 121.302Z" fill="white"/>
<path d="M138.247 116.854C138.247 116.854 138.961 117.094 139.037 117.897C139.037 117.897 139.005 118.852 138.208 118.769C138.208 118.769 132.33 118.011 130.061 119.47C130.061 119.47 130.335 115.16 138.247 116.854Z" fill="#3C2415"/>
<path d="M146.635 122.352C146.635 123.259 147.37 123.994 148.275 123.994C149.183 123.994 149.917 123.259 149.917 122.352C149.917 121.447 149.183 120.71 148.275 120.71C147.37 120.71 146.635 121.448 146.635 122.352Z" fill="#2E2E2F"/>
<path d="M148.18 121.302C148.048 121.486 148.239 121.85 148.608 122.115C148.975 122.378 149.38 122.444 149.513 122.26C149.645 122.077 149.454 121.714 149.088 121.447C148.719 121.184 148.312 121.118 148.18 121.302Z" fill="white"/>
<path d="M145.15 116.854C145.15 116.854 144.434 117.094 144.36 117.897C144.36 117.897 144.393 118.852 145.189 118.769C145.189 118.769 151.067 118.011 153.335 119.47C153.335 119.47 153.06 115.16 145.15 116.854Z" fill="#3C2415"/>
<path d="M142.905 126.107C142.905 126.107 143.111 126.797 143.468 127.755C143.646 128.228 143.855 128.78 144.078 129.372C144.132 129.519 144.186 129.669 144.24 129.82L144.328 130.046C144.336 130.066 144.372 130.16 144.358 130.12L144.38 130.215C144.447 130.498 144.477 130.806 144.48 131.096C144.475 131.387 144.437 131.665 144.348 131.903C144.263 132.146 144.108 132.326 143.923 132.486C143.537 132.793 142.966 132.911 142.484 132.955C141.992 133.006 141.562 132.982 141.259 132.979C140.954 132.969 140.78 132.963 140.78 132.963C140.78 132.963 140.94 133.036 141.221 133.163C141.509 133.272 141.924 133.429 142.466 133.513C142.998 133.583 143.699 133.624 144.413 133.227C144.764 133.031 145.071 132.695 145.256 132.316C145.45 131.936 145.532 131.524 145.55 131.128C145.569 130.73 145.528 130.349 145.446 129.972L145.407 129.82C145.367 129.7 145.367 129.717 145.346 129.66L145.247 129.421C145.178 129.265 145.111 129.11 145.044 128.957C144.887 128.664 144.739 128.38 144.587 128.118C144.419 127.864 144.271 127.619 144.111 127.407C143.484 126.549 142.905 126.107 142.905 126.107Z" fill="#D78E65"/>
<path d="M146.402 136.072H137.253C137.253 136.072 137.417 139.453 141.828 139.805C141.828 139.805 145.859 140.034 146.402 136.072Z" fill="white"/>
<path d="M147.16 136.072C147.16 136.072 146.467 135.987 145.428 135.915C144.389 135.846 143.003 135.8 141.617 135.798C140.23 135.8 138.844 135.845 137.805 135.915C136.766 135.986 136.073 136.072 136.073 136.072C136.073 136.072 136.766 136.157 137.805 136.229C138.844 136.298 140.23 136.343 141.617 136.345C143.003 136.343 144.388 136.298 145.428 136.228C146.467 136.156 147.16 136.072 147.16 136.072Z" fill="#CD8861"/>
<path d="M146.291 136.644C146.291 136.644 146.258 136.832 146.14 137.136C146.08 137.287 146.002 137.468 145.885 137.658C145.771 137.85 145.624 138.054 145.444 138.254C145.267 138.458 145.041 138.642 144.788 138.813C144.659 138.896 144.516 138.963 144.378 139.042C144.23 139.104 144.079 139.167 143.925 139.23C143.764 139.276 143.601 139.324 143.435 139.37C143.266 139.402 143.093 139.433 142.919 139.465C142.577 139.506 142.191 139.547 141.847 139.541C141.128 139.533 140.407 139.399 139.779 139.166C139.15 138.933 138.609 138.59 138.236 138.194C137.858 137.806 137.61 137.408 137.469 137.115C137.321 136.824 137.255 136.644 137.255 136.644C137.255 136.644 137.264 136.691 137.281 136.778C137.298 136.865 137.318 136.995 137.371 137.153C137.418 137.313 137.487 137.507 137.589 137.718C137.687 137.933 137.822 138.167 138.007 138.395C138.37 138.855 138.916 139.316 139.598 139.608C140.275 139.91 141.055 140.065 141.84 140.085C142.249 140.087 142.613 140.038 143.003 139.985C143.192 139.946 143.382 139.913 143.565 139.863C143.745 139.801 143.924 139.74 144.099 139.679C144.267 139.597 144.435 139.524 144.591 139.437C144.739 139.334 144.889 139.242 145.023 139.137C145.286 138.919 145.514 138.689 145.685 138.447C146.039 137.97 146.172 137.489 146.243 137.165C146.307 136.836 146.291 136.644 146.291 136.644Z" fill="#CD8861"/>
<path d="M145.122 137.677C145.122 137.677 144.71 137.633 144.092 137.6C143.474 137.563 142.651 137.55 141.828 137.54C141.005 137.549 140.181 137.562 139.563 137.6C138.946 137.632 138.534 137.677 138.534 137.677C138.534 137.677 138.946 137.721 139.563 137.754C140.181 137.792 141.004 137.804 141.828 137.814C142.651 137.804 143.474 137.791 144.092 137.754C144.709 137.72 145.122 137.677 145.122 137.677Z" fill="#D1D3D4"/>
<path d="M143.212 136.644C143.212 136.644 143.168 136.788 143.135 137.003C143.097 137.218 143.085 137.505 143.075 137.792C143.085 138.079 143.097 138.366 143.134 138.581C143.168 138.796 143.211 138.939 143.211 138.939C143.211 138.939 143.255 138.796 143.288 138.581C143.325 138.365 143.338 138.078 143.348 137.792C143.338 137.504 143.325 137.218 143.288 137.003C143.256 136.788 143.212 136.644 143.212 136.644Z" fill="#D1D3D4"/>
<path d="M140.992 136.644C140.992 136.644 140.948 136.788 140.915 137.003C140.878 137.218 140.864 137.505 140.855 137.792C140.864 138.079 140.878 138.366 140.915 138.581C140.947 138.796 140.992 138.939 140.992 138.939C140.992 138.939 141.036 138.796 141.069 138.581C141.106 138.365 141.119 138.078 141.128 137.792C141.119 137.504 141.105 137.218 141.069 137.003C141.035 136.788 140.992 136.644 140.992 136.644Z" fill="#D1D3D4"/>
<path d="M156.018 117.478C156.162 119.08 156.284 120.748 156.167 122.352C156.167 122.352 160.39 108.748 151.555 99.551C146.335 94.1148 137.253 95.2705 137.253 95.2705C125.417 95.8402 121.796 107.11 121.796 107.11C119.816 115.785 122.547 122.365 122.547 122.365C124.046 122.137 124.41 122.365 124.41 122.365L124.802 128.967H125.783V121.782C125.872 117.146 129.244 117.129 129.244 117.129C128.63 115.155 128.816 113.144 129.513 111.183C130.006 109.793 131.705 108.383 133.193 108.213C133.569 108.17 134.444 108.497 134.549 108.92C135.503 112.702 144.133 112.074 144.179 112.068C145.419 111.892 146.749 111.541 147.776 110.803C148.304 110.424 148.724 110.003 148.919 109.354C149.127 108.651 148.859 107.871 149.548 107.333C150.159 106.856 151.374 106.791 151.99 107.282C151.99 107.282 155.382 110.479 154.015 115.58C154.015 115.58 155.844 115.537 156.018 117.478Z" fill="#3C2415"/>
<path d="M143.383 140.671C143.383 140.671 143.198 140.657 142.951 140.641C142.826 140.632 142.686 140.631 142.54 140.628C142.392 140.617 142.238 140.637 142.083 140.621C141.927 140.628 141.774 140.628 141.626 140.625C141.479 140.625 141.336 140.644 141.214 140.641C140.966 140.651 140.778 140.691 140.778 140.691C140.778 140.691 140.911 140.812 141.146 140.947C141.261 141.021 141.409 141.063 141.57 141.103C141.73 141.154 141.907 141.163 142.084 141.167C142.261 141.171 142.438 141.14 142.598 141.105C142.759 141.066 142.904 141.007 143.024 140.945C143.261 140.814 143.383 140.671 143.383 140.671Z" fill="#CD8861"/>
<path d="M170.048 283.61H178.24C178.24 283.61 180.837 285.566 185.529 286.19C185.529 286.19 187.795 286.192 188.263 287.989C188.263 287.989 188.576 289.084 188.263 290.257C188.263 290.257 182.012 292.08 175.796 290.257C175.796 290.257 174.622 289.49 174.505 290.426H170.047C170.047 290.426 169.146 286.997 170.048 283.61Z" fill="#0A0313"/>
<path d="M150.513 283.61H158.705C158.705 283.61 161.302 285.566 165.992 286.19C165.992 286.19 168.259 286.192 168.728 287.989C168.728 287.989 169.042 289.084 168.728 290.257C168.728 290.257 162.476 292.08 156.261 290.257C156.261 290.257 155.087 289.49 154.97 290.426H150.513C150.513 290.426 149.613 286.997 150.513 283.61Z" fill="#0A0313"/>
<path d="M131.161 231.92H144.39L150.642 283.61H158.756L161.622 222.411L135.863 212.207H114.256C114.256 212.207 112.514 219.892 116.373 225.735C116.373 225.735 121.141 232.444 131.161 231.92Z" fill="#23202D"/>
<path d="M150.696 161.302C150.696 161.302 152.866 196.305 196.147 195.787" stroke="#003F54" stroke-width="14.7523" stroke-miterlimit="10"/>
<path d="M204.007 192.974C204.007 192.974 205.423 192.008 206.364 192.245L210.925 197.108L211.725 197.809C211.725 197.809 210.233 198.486 208.795 197.108C208.795 197.108 205.401 193.309 204.007 192.974Z" fill="#F9A374"/>
<path d="M201.216 192.974C201.216 192.974 202.63 192.008 203.571 192.245L208.134 197.108L208.933 197.809C208.933 197.809 207.44 198.486 206.003 197.108C206.003 197.108 202.609 193.309 201.216 192.974Z" fill="#F9A374"/>
<path d="M206.116 192.328C206.116 192.328 207.531 191.364 208.471 191.599L213.033 196.462L213.832 197.165C213.832 197.165 212.341 197.84 210.902 196.462C210.902 196.462 207.508 192.662 206.116 192.328Z" fill="#F9A374"/>
<path d="M196.095 196.697C196.095 196.697 199.397 198.203 201.243 198.369C201.243 198.369 202.725 198.849 204.985 200.585C204.985 200.585 206.427 201.375 206.181 199.072C206.181 199.072 204.158 196.746 202.218 196.176C202.218 196.176 205.642 191.315 208.472 191.599C208.472 191.599 203.93 190.502 201.733 190.995C201.733 190.995 200.463 191.137 196.095 190.995V196.697Z" fill="#F9A374"/>
<path d="M212.578 198.054H200.552C200.552 198.054 202.392 194.921 202.392 190.124C202.392 185.325 210.32 183.621 210.32 190.124C210.319 196.626 212.578 198.054 212.578 198.054Z" fill="#A7A9AC"/>
<path d="M166.545 191.331C166.545 193.122 167.171 193.24 168.902 193.24H246.97C248.7 193.24 249.188 193.122 249.188 191.331V137.199C249.188 135.408 248.7 135.054 246.97 135.054H168.902C167.171 135.054 166.545 135.409 166.545 137.199V191.331Z" fill="#BCBEC0"/>
<path d="M218.616 201.369V202.013C218.616 202.582 218.211 203.042 217.709 203.042H195.594C195.093 203.042 194.687 202.582 194.687 202.013V201.369H218.616Z" fill="#D1D3D4"/>
<path d="M168.691 137.515H247.182V187.627H168.691V137.515Z" fill="#58595B"/>
<path d="M169.98 138.421H245.891V186.721H169.98V138.421Z" fill="#249DC3"/>
<path d="M201.525 166.836C223.555 181.266 245.942 186.648 245.942 186.648L245.84 138.346L169.93 138.493C169.93 138.493 179.497 152.405 201.525 166.836Z" fill="#56B9D6"/>
<path d="M212.578 198.054H200.551L194.688 201.369H218.616L212.578 198.054Z" fill="#BCBEC0"/>
<path d="M201.191 167.001C201.191 168.985 204.179 170.596 207.867 170.596C211.555 170.596 214.544 168.985 214.544 167.001C214.544 165.014 211.555 163.405 207.867 163.405C204.179 163.405 201.191 165.014 201.191 167.001Z" fill="#95979A"/>
<path d="M205.585 169.645C205.585 170.862 206.606 171.848 207.868 171.848C209.127 171.848 210.15 170.862 210.15 169.645C210.15 168.426 209.128 167.44 207.868 167.44C206.606 167.44 205.585 168.426 205.585 169.645Z" fill="#95979A"/>
<path d="M189.376 133.124C189.376 122.911 197.655 116.14 207.868 116.14C218.081 116.14 226.356 122.911 226.356 133.124C226.356 141.838 219.182 145.808 217.021 151.809C215.343 156.472 216.954 158.842 215.839 158.842C213.287 158.842 201.807 158.842 199.895 158.842C199.084 158.842 201.166 156.97 199.488 152.511C197.209 146.451 189.376 141.626 189.376 133.124Z" fill="#F7941D"/>
<path d="M216.244 127.641C215.295 123.037 212.981 119.369 209.717 116.216C219.061 116.981 226.356 123.535 226.356 133.124C226.356 141.838 219.182 145.808 217.021 151.809C215.343 156.473 216.954 158.842 215.839 158.842H206.27C213.875 150.827 218.46 138.392 216.244 127.641Z" fill="#E5CBC7"/>
<path d="M199.895 158.842H215.839L214.767 167.969H200.698L199.895 158.842Z" fill="#BEC0C2"/>
<path d="M206.489 166.59L200.634 167.24L200.52 165.939L206.489 166.59Z" fill="#A3A5A8"/>
<path d="M204.835 163.99L200.386 164.424L200.309 163.556L204.835 163.99Z" fill="#A3A5A8"/>
<path d="M208.631 161.586L200.174 162.018L200.098 161.152L208.631 161.586Z" fill="#A3A5A8"/>
<path d="M209.115 165.951L214.942 166.483L215.06 165.486L209.115 165.951Z" fill="#A3A5A8"/>
<path d="M210.417 163.249L215.271 163.683L215.372 162.816L210.417 163.249Z" fill="#A3A5A8"/>
<path d="M206.973 160.946L215.551 161.303L215.643 160.513L206.973 160.946Z" fill="#A3A5A8"/>
<path d="M190.516 132.656C190.516 138.347 193.889 142.96 198.049 142.96C202.21 142.96 205.584 138.347 205.584 132.656C205.584 126.965 202.21 122.353 198.049 122.353C193.889 122.353 190.516 126.965 190.516 132.656Z" fill="#FCAF17"/>
<path d="M117.387 157.525C120.762 150.221 89.3194 205.641 159.455 198.102" stroke="#003F54" stroke-width="15.3255" stroke-miterlimit="10"/>
<path d="M163.686 194.836L167.345 194.103C167.345 194.103 172.139 195.256 172.888 195.878C173.633 196.499 172.767 197.289 172.767 197.289L171.783 196.948L168.477 196.022L165.905 196.532C165.905 196.532 163.689 196.667 163.686 194.836Z" fill="#E1956A"/>
<path d="M165.357 201.413C160.453 200.204 159.752 202.397 159.752 202.397L159.308 196.22C160.497 194.815 163.886 194.796 163.886 194.796L168.955 195.067C168.955 195.067 171.948 197.136 172.58 197.892C173.209 198.649 172.225 199.258 172.225 199.258L171.313 198.732L169.002 196.976L166.129 197.289L169.124 197.633L171.361 199.775C172.528 200.883 171.244 201.544 171.244 201.544L168.505 199.094L164.325 199.75C165.708 200.052 168.02 200.607 168.02 200.607C168.02 200.607 168.417 201.691 167.342 201.691L165.357 201.413Z" fill="#F9A374"/>
<path d="M120.519 164.73C120.519 164.73 120.305 165.162 120.009 165.95C119.723 166.74 119.322 167.879 118.993 169.29C118.824 169.995 118.667 170.765 118.548 171.591C118.426 172.414 118.326 173.29 118.289 174.202C118.255 175.113 118.242 176.061 118.332 177.022C118.397 177.984 118.572 178.954 118.778 179.917C119.031 180.869 119.324 181.816 119.736 182.701C120.112 183.602 120.64 184.414 121.171 185.174C121.44 185.551 121.745 185.893 122.03 186.235C122.339 186.557 122.657 186.857 122.956 187.155C123.283 187.421 123.602 187.682 123.909 187.934C124.229 188.169 124.558 188.367 124.862 188.57C125.479 188.962 126.087 189.255 126.624 189.496C127.176 189.71 127.639 189.929 128.045 190.047C128.853 190.293 129.314 190.417 129.314 190.417C129.314 190.417 128.883 190.2 128.127 189.85C127.745 189.684 127.316 189.408 126.811 189.135C126.553 189.004 126.313 188.808 126.044 188.633C125.781 188.447 125.484 188.284 125.218 188.052C124.947 187.829 124.651 187.615 124.369 187.363C124.096 187.106 123.813 186.84 123.522 186.566C123.259 186.266 122.981 185.966 122.713 185.647C122.474 185.305 122.192 184.984 121.959 184.62C121.487 183.896 121.051 183.115 120.703 182.275C120.329 181.449 120.069 180.557 119.841 179.661C119.636 178.757 119.456 177.843 119.383 176.927C119.292 176.013 119.244 175.106 119.25 174.226C119.261 172.465 119.407 170.814 119.607 169.406C119.811 168 120.018 166.823 120.213 166.011C120.396 165.195 120.519 164.73 120.519 164.73Z" fill="#00212F"/>
<path d="M68.0065 228.811C51.389 208.468 41.4175 182.484 41.4175 154.168C41.4175 88.9579 94.2807 36.0946 159.491 36.0946C224.7 36.0946 277.564 88.9579 277.564 154.168C277.564 182.484 267.592 208.468 250.974 228.811" stroke="#003D5B" stroke-width="1.0661" stroke-miterlimit="10" stroke-dasharray="3.2 3.2"/>
<path d="M133.695 37.6353C133.308 23.6967 144.295 12.0841 158.233 11.6978C172.172 11.3116 183.784 22.2979 184.171 36.2365C184.557 50.1751 173.571 61.7877 159.632 62.174C145.693 62.5602 134.081 51.5739 133.695 37.6353Z" fill="#D7DF23"/>
<path d="M105.485 69.8208C105.485 83.7646 94.1826 95.0689 80.2379 95.0689C66.2941 95.0689 54.9898 83.7654 54.9898 69.8208C54.9898 55.8762 66.2941 44.5726 80.2379 44.5726C94.1826 44.5726 105.485 55.8762 105.485 69.8208Z" fill="#249DC3"/>
<path d="M276.426 69.8208C276.426 83.7646 265.122 95.0689 251.178 95.0689C237.235 95.0689 225.93 83.7654 225.93 69.8208C225.93 55.8762 237.235 44.5726 251.178 44.5726C265.122 44.5726 276.426 55.8762 276.426 69.8208Z" fill="#949AA8"/>
<path d="M66.6641 152.92C66.6641 166.864 55.3605 178.168 41.4167 178.168C27.4728 178.168 16.1685 166.864 16.1685 152.92C16.1685 138.976 27.4728 127.672 41.4167 127.672C55.3605 127.672 66.6641 138.976 66.6641 152.92Z" fill="#93C1BD"/>
<path d="M252.998 158.731C249.794 145.161 258.197 131.562 271.768 128.358C285.338 125.154 298.937 133.557 302.141 147.127C305.346 160.698 296.942 174.297 283.372 177.501C269.801 180.705 256.203 172.302 252.998 158.731Z" fill="#289FAA"/>
<path d="M139.301 37.0015C139.301 47.5064 147.815 56.0215 158.32 56.0215C168.825 56.0215 177.341 47.5064 177.341 37.0015C177.341 26.4973 168.825 17.9814 158.32 17.9814C147.815 17.9814 139.301 26.4973 139.301 37.0015Z" fill="#2599A3"/>
<path d="M152.674 19.6186C150.541 20.898 149.796 23.2805 149.581 25.7038C149.515 26.4446 148.651 26.6787 148.22 26.072C147.395 24.9118 145.824 26.9558 145.308 27.4869C144.922 27.8492 144.593 28.2596 144.319 28.7182L144.958 30.4399C145.238 30.0806 145.47 29.6916 145.655 29.2768C146.072 28.4411 146.673 26.6342 147.948 26.7594C149.334 26.8943 150.651 27.5707 151.778 28.3604C152.073 28.5671 152.476 28.8856 152.577 29.2546C152.801 30.0695 151.1 32.732 153.552 32.669C154.092 32.6557 154.308 33.2254 154.117 33.6543C153.351 35.3664 151.044 36.1517 151.089 38.1882C151.097 38.5779 150.686 38.9068 150.306 38.7838C149.869 38.6431 149.563 38.5179 149.14 38.3327C148.677 38.0978 148.2 37.8926 147.712 37.72C147.002 37.7193 146.643 38.0104 146.632 38.5927C147.203 38.9601 147.51 39.1498 147.665 39.8521C147.93 41.0663 148.461 42.1435 148.625 43.4096C148.954 45.9469 148.934 48.0316 150.799 50.0214C151.118 50.3615 150.803 50.9067 150.349 50.7949C149.32 50.5422 148.445 49.7918 147.391 49.654C147.196 49.6288 147.019 49.5377 146.967 49.331C146.784 48.6087 145.452 46.0047 144.414 46.0913C144.469 46.9137 143.177 47.2137 142.937 46.3321C142.149 43.4414 140.694 40.8033 139.746 37.9741C139.731 37.6518 139.722 37.3274 139.722 37.0014C139.722 28.4804 145.327 21.2736 153.051 18.8533C153.193 18.8089 153.387 19.3541 152.674 19.6186Z" fill="#A7C3D2"/>
<path d="M171.061 25.1267C170.893 25.0074 170.724 24.9037 170.554 24.8037C170.859 25.8475 171.328 26.8106 171.104 27.9396C170.876 29.082 169.589 30.2814 168.891 31.183C168.463 31.7356 168.005 32.2475 167.482 32.7098C166.696 33.4047 167.457 33.4062 168.151 34.127C168.695 34.6908 169.283 35.665 168.75 36.4532C168.017 37.5341 168.344 38.5564 168.021 39.7314C167.639 41.1189 165.349 43.031 167.268 44.503C168.134 45.1668 167.352 46.2625 167.411 47.1115C167.495 48.305 167.232 49.5221 166.791 50.6445C166.816 50.9594 166.824 51.2816 166.811 51.6091C166.774 52.4877 165.419 52.4936 165.442 51.6091C165.527 48.245 163.392 46.4625 161.191 44.2623C159.556 42.6287 157.421 41.822 155.806 40.2514C154.993 39.4625 155.111 38.2164 155.832 37.4348C156.266 36.9644 157.021 36.7125 157.583 36.4458C157.956 36.2687 158.319 36.0821 158.679 35.8798C159.457 35.4427 158.572 35.4494 158.115 35.2531C157.514 34.9953 157.667 33.9448 158.3 33.8403C160.325 33.5047 161.616 31.8764 163.518 31.2815C164.269 31.0474 164.984 30.9489 165.764 30.8859C167.199 30.7703 167.307 30.1073 167.283 28.7486C167.271 28.1174 167.951 27.8122 168.468 28.0685C168.529 28.0996 168.59 28.13 168.652 28.1604C169.543 25.3037 164.899 24.8496 164.834 26.9654C164.806 27.8737 163.466 28.0952 163.23 27.1825C162.866 25.7801 161.559 23.708 159.693 24.8548C159.227 25.1422 158.538 24.7748 158.568 24.2088C158.597 23.6628 158.562 23.1428 158.516 22.616C158.25 22.6634 157.983 22.7116 157.717 22.7723C157.048 22.9242 156.538 22.1204 157.041 21.61C157.62 21.021 159.927 20.3269 160.84 19.6609C158.828 19.329 157.152 19.612 155.11 19.3986C154.714 19.3571 154.468 18.7971 154.492 18.4904C155.73 18.237 156.708 18.4326 158.021 18.4326C162.912 18.4326 167.371 20.2802 170.741 23.3139C171.051 23.6458 171.359 23.9888 171.668 24.3422C172.021 24.7452 171.55 25.4749 171.061 25.1267Z" fill="#A7C3D2"/>
<path d="M171.36 24.677C171.193 24.5585 171.024 24.454 170.853 24.3533C171.159 25.3971 171.627 26.3602 171.403 27.4892C171.175 28.6315 169.888 29.8309 169.19 30.7325C168.762 31.2852 168.303 31.7971 167.781 32.2586C166.994 32.9535 167.756 32.9557 168.45 33.6758C168.993 34.2396 169.582 35.2138 169.048 36.002C168.316 37.0829 168.642 38.1052 168.32 39.2795C167.938 40.6678 165.649 42.5798 167.567 44.0511C168.433 44.7149 167.651 45.8106 167.71 46.6596C167.795 47.8531 167.531 49.0702 167.09 50.1926C167.114 50.5074 167.121 50.829 167.108 51.1564C167.073 52.0343 165.718 52.041 165.74 51.1564C165.825 47.7923 163.69 46.0099 161.49 43.8104C159.855 42.1761 157.72 41.3701 156.104 39.7988C155.293 39.0098 155.41 37.7637 156.132 36.9821C156.566 36.5117 157.32 36.2598 157.883 35.9931C158.256 35.8161 158.619 35.6294 158.98 35.4271C159.757 34.9893 158.872 34.996 158.414 34.8004C157.813 34.5426 157.966 33.4921 158.598 33.3876C160.624 33.0521 161.916 31.4237 163.818 30.8296C164.568 30.5947 165.283 30.4962 166.063 30.434C167.498 30.3177 167.606 29.6546 167.581 28.2967C167.57 27.6655 168.251 27.3603 168.767 27.6166C168.828 27.6477 168.89 27.6781 168.951 27.7085C169.842 24.8518 165.199 24.3977 165.133 26.5135C165.106 27.4218 163.765 27.6433 163.528 26.7306C163.166 25.3282 161.858 23.2568 159.993 24.4029C159.526 24.6903 158.837 24.3236 158.867 23.7569C158.896 23.2109 158.86 22.6908 158.816 22.1641C158.549 22.2115 158.282 22.2589 158.017 22.3204C157.348 22.4723 156.837 21.6692 157.34 21.1581C157.92 20.5698 160.226 19.8757 161.138 19.2089C159.128 18.8778 157.117 19.2282 155.076 19.0148C154.679 18.9734 154.464 18.6741 154.487 18.3666C155.725 18.1133 157.008 17.9807 158.32 17.9807C163.211 17.9807 167.67 19.8283 171.04 22.862C171.35 23.1939 171.658 23.5369 171.966 23.8902C172.321 24.2947 171.849 25.0244 171.36 24.677Z" fill="white"/>
<path d="M152.698 19.3778C150.22 20.5802 149.388 23.119 149.159 25.7038C149.093 26.4446 148.229 26.6787 147.798 26.0719C146.973 24.9118 145.402 26.9558 144.886 27.4869C144.501 27.8492 144.17 28.2596 143.898 28.7182L144.536 30.4399C144.816 30.0806 145.048 29.6916 145.233 29.2768C145.65 28.4411 146.253 26.6342 147.527 26.7594C148.911 26.8943 150.229 27.5706 151.355 28.3604C151.65 28.5671 152.053 28.8856 152.155 29.2545C152.379 30.0695 150.678 32.732 153.13 32.669C153.67 32.6557 153.886 33.2254 153.696 33.6543C152.929 35.3664 150.623 36.1517 150.666 38.1882C150.675 38.5779 150.265 38.9068 149.885 38.7838C149.447 38.6431 149.14 38.5179 148.718 38.3326C148.255 38.0978 147.78 37.8926 147.291 37.72C146.58 37.7192 146.221 38.0104 146.21 38.5927C146.781 38.9601 147.089 39.1498 147.242 39.8521C147.508 41.0663 148.04 42.1435 148.203 43.4095C148.531 45.9469 148.511 48.0316 150.377 50.0214C150.695 50.3615 150.382 50.9067 149.926 50.7949C148.897 50.5422 148.022 49.7918 146.97 49.654C146.774 49.6288 146.596 49.5377 146.546 49.331C146.362 48.6087 145.031 46.0047 143.992 46.0913C144.047 46.9137 142.755 47.2137 142.516 46.3321C141.727 43.4414 140.271 40.8033 139.324 37.9741C139.309 37.6518 139.301 37.3273 139.301 37.0014C139.301 28.3248 145.114 21.0091 153.056 18.7252C153.066 18.9882 152.959 19.2504 152.698 19.3778Z" fill="white"/>
<path d="M69.1921 72.9197H92.1237L97.8125 58.4802H67.5208L69.1921 72.9197Z" fill="#93CED4" stroke="black" stroke-width="1.7719" stroke-miterlimit="10" stroke-linecap="round" stroke-linejoin="round"/>
<path d="M91.249 79.3375H69.9547L67.287 56.8726L63.9014 55.8555" stroke="black" stroke-width="1.7719" stroke-miterlimit="10" stroke-linecap="round" stroke-linejoin="round"/>
<path d="M86.1445 81.8896C86.1445 83.2994 87.2868 84.4418 88.6959 84.4418C90.1057 84.4418 91.248 83.2994 91.248 81.8896C91.248 80.4799 90.1057 79.3375 88.6959 79.3375C87.2868 79.3375 86.1445 80.4799 86.1445 81.8896Z" fill="#93CED4" stroke="black" stroke-width="1.4423" stroke-miterlimit="10" stroke-linecap="round" stroke-linejoin="round"/>
<path d="M87.676 81.8896C87.676 82.4534 88.1324 82.9105 88.6962 82.9105C89.2607 82.9105 89.7178 82.4534 89.7178 81.8896C89.7178 81.3259 89.2607 80.8688 88.6962 80.8688C88.1331 80.8688 87.676 81.3259 87.676 81.8896Z" fill="black"/>
<path d="M70.3918 81.8896C70.3918 83.2994 71.5341 84.4418 72.9439 84.4418C74.3537 84.4418 75.4961 83.2994 75.4961 81.8896C75.4961 80.4798 74.3537 79.3375 72.9439 79.3375C71.5341 79.3375 70.3918 80.4798 70.3918 81.8896Z" fill="#93CED4" stroke="black" stroke-width="1.4423" stroke-miterlimit="10" stroke-linecap="round" stroke-linejoin="round"/>
<path d="M71.9239 81.8896C71.9239 82.4534 72.381 82.9105 72.9447 82.9105C73.5085 82.9105 73.9648 82.4534 73.9648 81.8896C73.9648 81.3259 73.5085 80.8688 72.9447 80.8688C72.381 80.8688 71.9239 81.3259 71.9239 81.8896Z" fill="black"/>
<path d="M62.6621 56.4385C62.6621 57.123 63.2184 57.6786 63.9015 57.6786C64.5875 57.6786 65.1416 57.123 65.1416 56.4385C65.1416 55.754 64.5875 55.1991 63.9015 55.1991C63.2184 55.1991 62.6621 55.754 62.6621 56.4385Z" fill="black"/>
<path d="M68.3352 65.7003H94.9688" stroke="black" stroke-width="1.7719" stroke-miterlimit="10" stroke-linecap="round" stroke-linejoin="round"/>
<path d="M81.6523 58.4802V72.4819" stroke="black" stroke-width="1.7719" stroke-miterlimit="10" stroke-linecap="round" stroke-linejoin="round"/>
<path d="M91.833 58.4802L87.1658 72.4819" stroke="black" stroke-width="1.7719" stroke-miterlimit="10" stroke-linecap="round" stroke-linejoin="round"/>
<path d="M74.33 58.4802L75.4961 72.4819" stroke="black" stroke-width="1.7719" stroke-miterlimit="10" stroke-linecap="round" stroke-linejoin="round"/>
<path d="M67.8503 61.3242H96.6455" stroke="black" stroke-width="1.7719" stroke-miterlimit="10" stroke-linecap="round" stroke-linejoin="round"/>
<path d="M68.8214 69.7112H93.3643" stroke="black" stroke-width="1.7719" stroke-miterlimit="10" stroke-linecap="round" stroke-linejoin="round"/>
<path d="M19.9909 152.616C19.8331 163.65 28.6504 172.722 39.685 172.878C50.7196 173.035 59.7918 164.218 59.9481 153.183C60.1045 142.149 51.2879 133.077 40.2532 132.92C29.2186 132.764 20.1464 141.582 19.9909 152.616Z" fill="#EE332A"/>
<path d="M40.2038 136.395C49.319 136.525 56.6035 144.019 56.4739 153.134C56.3442 162.25 48.85 169.534 39.7349 169.404C30.619 169.274 23.3352 161.781 23.4648 152.665C23.5945 143.55 31.0887 136.266 40.2038 136.395ZM39.7786 166.316C47.1891 166.421 53.2802 160.499 53.3846 153.091C53.4906 145.682 47.5684 139.59 40.1594 139.485C32.7504 139.379 26.6585 145.301 26.5533 152.71C26.4489 160.119 32.3696 166.21 39.7786 166.316Z" fill="white"/>
<path d="M40.118 142.507C45.8565 142.589 50.4437 147.308 50.3622 153.048C50.28 158.786 45.5616 163.373 39.8224 163.292C34.0825 163.211 29.496 158.491 29.5768 152.752C29.659 147.013 34.3781 142.426 40.118 142.507ZM39.8699 159.917C43.7451 159.972 46.9329 156.875 46.9877 152.999C47.0426 149.123 43.9451 145.936 40.0684 145.882C36.1939 145.826 33.0061 148.923 32.9513 152.8C32.8964 156.676 35.9946 159.862 39.8699 159.917Z" fill="white"/>
<path d="M40.0203 149.232C42.0458 149.26 43.6652 150.926 43.6363 152.951C43.6089 154.977 41.9435 156.595 39.9166 156.567C37.892 156.538 36.2733 154.873 36.3021 152.848C36.3296 150.821 37.9964 149.203 40.0203 149.232ZM39.9485 154.348C40.7486 154.359 41.4057 153.72 41.4168 152.92C41.4287 152.121 40.7886 151.464 39.99 151.452C39.1899 151.44 38.532 152.079 38.5217 152.879C38.5098 153.679 39.1491 154.336 39.9485 154.348Z" fill="white"/>
<path d="M21.7422 163.844L21.2088 167.04L20.3783 167.516L20.4265 166.194L19.5708 167.979L17.661 169.073L17.6469 167.578L16.8735 169.524L15.1984 170.484L15.7318 167.289L21.7422 163.844Z" fill="#F9A45A"/>
<path d="M21.3994 163.244L18.1961 162.253L16.8174 162.741L17.9664 163.207L16.301 163.339L14.8409 164.177L15.5091 164.519L13.9371 164.694L12.1865 165.697L15.3883 166.689L21.3994 163.244Z" fill="#DA844D"/>
<path d="M40.1231 153.284C40.3861 153.132 40.2172 152.451 39.712 152.7L14.3831 167.028C14.1186 167.178 14.0275 167.515 14.1794 167.78C14.3305 168.045 14.6676 168.136 14.9328 167.984L40.1231 153.284Z" fill="#603913"/>
<path d="M264.69 168.875C264.69 170.279 265.827 171.419 267.232 171.419H287.896C289.3 171.419 290.438 170.28 290.438 168.875V149.23C290.438 147.826 289.3 146.687 287.896 146.687H267.231C265.827 146.687 264.689 147.826 264.689 149.23L264.69 168.875Z" fill="#FFC421"/>
<path d="M266.372 169.104C266.372 170.383 267.363 171.419 268.583 171.419H286.544C287.765 171.419 288.755 170.383 288.755 169.104V151.44C288.755 150.161 287.765 149.126 286.544 149.126H268.584C267.363 149.126 266.373 150.161 266.373 151.44L266.372 169.104Z" fill="#FFD31C"/>
<path d="M277.564 132.701C282.294 132.701 286.138 136.486 286.238 141.193V146.688H283.298V141.193C283.199 138.107 280.674 135.635 277.564 135.635C274.454 135.635 271.928 138.107 271.828 141.193V146.688H268.889V141.193C268.989 136.486 272.833 132.701 277.564 132.701Z" fill="#D1D3D4"/>
<path d="M274.733 157.651C274.733 156.088 276 154.82 277.564 154.82C279.126 154.82 280.394 156.088 280.394 157.651C280.394 158.713 279.809 159.637 278.944 160.122L279.625 164.453H275.666L276.206 160.137C275.328 159.654 274.733 158.722 274.733 157.651Z" fill="#E49723"/>
<path d="M279.442 157.651C279.442 156.251 278.423 155.091 277.087 154.863C277.242 154.837 277.402 154.82 277.565 154.82C279.127 154.82 280.395 156.087 280.395 157.65C280.395 158.712 279.81 159.636 278.945 160.121L279.626 164.453H278.674L277.992 160.121C278.857 159.637 279.442 158.713 279.442 157.651Z" fill="#D27D21"/>
<path d="M263.301 50.9199L272.616 65.4631L241.323 85.5075L232.008 70.9643L263.301 50.9199Z" fill="#51693C"/>
<path d="M272.036 65.3891L263.128 51.4816L232.589 71.0424L272.036 65.3891Z" fill="#445F37"/>
<path d="M239.865 80.7457L235.726 74.2828C237.55 73.1145 238.227 70.915 237.237 69.3711L259.673 55.0005C260.662 56.5451 262.943 56.8503 264.767 55.6813L268.906 62.1443C267.082 63.3126 266.405 65.5114 267.395 67.0552L244.959 81.4258C243.969 79.8827 241.689 79.5775 239.865 80.7457Z" fill="#6F8A52"/>
<path d="M240.175 80.3072L236.253 74.185C238.026 73.0508 238.701 70.9454 237.765 69.4815L259.552 55.5258C260.49 56.9882 262.685 57.2549 264.457 56.1199L268.378 62.2421C266.606 63.3763 265.931 65.4817 266.867 66.9449L245.079 80.9006C244.142 79.4382 241.947 79.173 240.175 80.3072Z" fill="#E8E2C3"/>
<path d="M245.536 72.5559C247.995 76.3964 253.024 77.5654 256.77 75.1673C260.513 72.7693 261.554 67.7116 259.095 63.8712C256.636 60.0307 251.606 58.8617 247.862 61.2598C244.117 63.6586 243.076 68.7155 245.536 72.5559Z" fill="#51693C"/>
<path d="M250.55 72.0381C251.006 72.7515 251.623 73.1782 252.401 73.3197C253.178 73.4612 254.036 73.299 254.973 72.8337L255.781 74.0917L256.271 73.7768L255.466 72.5189C256.343 71.9566 257.083 71.1372 257.683 70.0593L256.479 68.1791L256.247 68.3273C256.937 69.8704 256.59 71.1328 255.206 72.1136L252.603 68.0509C253.733 66.0366 253.967 64.5135 253.306 63.4815C252.905 62.8548 252.353 62.4918 251.65 62.391C250.947 62.291 250.172 62.471 249.325 62.9318L248.733 62.0065L248.241 62.3214L248.843 63.2615C247.917 63.8542 247.303 64.6024 246.997 65.504L248.015 67.0945L248.247 66.9464C247.973 66.2648 247.898 65.6707 248.021 65.1632C248.145 64.6557 248.49 64.1327 249.056 63.5934L251.343 67.1642C250.594 68.4332 250.175 69.4689 250.091 70.2705C250.039 70.8898 250.192 71.4788 250.55 72.0381ZM251.697 66.6337L249.557 63.2941C249.994 63.083 250.46 63.0422 250.957 63.1726C251.454 63.3022 251.812 63.5363 252.028 63.8734C252.392 64.4416 252.282 65.3617 251.697 66.6337ZM251.891 71.6484C251.427 70.9254 251.55 69.9082 252.261 68.5969L254.715 72.4285C254.177 72.6915 253.65 72.7508 253.135 72.6041C252.621 72.4589 252.205 72.1396 251.891 71.6484Z" fill="#E8E2C3"/>
</svg>
