<svg width="252" height="88" viewBox="0 0 252 88" fill="none" xmlns="http://www.w3.org/2000/svg">
<path d="M145.37 49.6333C145.37 49.6333 145.833 49.8345 146.699 50.2138C147.133 50.3977 147.67 50.6251 148.299 50.8938C148.611 51.0249 148.953 51.1675 149.315 51.3197C149.663 51.4577 150.036 51.6062 150.423 51.7634C150.815 51.9216 151.227 52.0893 151.66 52.2554C152.095 52.4158 152.554 52.5869 153.028 52.7609C153.265 52.8479 153.513 52.9369 153.759 53.0315C154.008 53.1148 154.267 53.2001 154.524 53.2911C155.041 53.4674 155.584 53.6486 156.136 53.8318C158.373 54.5281 160.923 55.2377 163.738 55.8272C166.553 56.4168 169.638 56.893 172.921 57.1241C176.204 57.3552 179.685 57.347 183.263 56.9976C183.489 56.9761 183.714 56.9547 183.933 56.9379C184.159 56.9164 184.383 56.877 184.605 56.8489C185.055 56.7881 185.505 56.7272 185.96 56.6674L186.3 56.6206L186.636 56.5615C186.861 56.5222 187.091 56.4838 187.316 56.4388C187.772 56.3553 188.225 56.2832 188.681 56.1942C190.496 55.8002 192.33 55.3743 194.144 54.7796C195.969 54.2341 197.766 53.512 199.555 52.7532C201.326 51.9376 203.096 51.0805 204.799 50.0571C208.219 48.0601 211.477 45.6604 214.439 42.9082C215.17 42.2112 215.922 41.5416 216.616 40.8018C216.967 40.4385 217.321 40.0819 217.672 39.7186C217.849 39.5403 218.013 39.3477 218.182 39.1618L218.688 38.5983C219.024 38.2264 219.357 37.8479 219.694 37.476C220.011 37.0946 220.323 36.7121 220.634 36.3352C221.275 35.5912 221.848 34.7928 222.443 34.0162C222.745 33.6318 223.014 33.2291 223.293 32.8284C223.57 32.4334 223.849 32.0327 224.12 31.6423C224.379 31.2376 224.637 30.833 224.895 30.4283C225.149 30.0227 225.42 29.6323 225.654 29.2171C225.897 28.8095 226.135 28.4009 226.371 27.9979C226.489 27.7964 226.613 27.5959 226.726 27.3934C226.835 27.1843 226.948 26.9819 227.056 26.7784C227.279 26.3668 227.5 25.9609 227.714 25.5596C227.935 25.1537 228.127 24.7362 228.331 24.3329C229.946 21.0736 231.216 17.8423 232.195 14.7966C233.178 11.752 233.869 8.89309 234.369 6.33957C234.485 5.70087 234.596 5.0791 234.701 4.48552C234.762 4.18458 234.796 3.88998 234.837 3.60299C234.879 3.316 234.921 3.02901 234.961 2.7533C235.141 1.64314 235.221 0.61403 235.33 -0.309288C235.387 -0.770451 235.411 -1.20837 235.441 -1.62173C235.47 -2.0351 235.498 -2.41926 235.525 -2.77988C235.558 -3.13951 235.568 -3.4739 235.582 -3.77811C235.596 -4.08232 235.603 -4.35833 235.615 -4.6098C235.632 -5.10807 235.648 -5.48858 235.655 -5.74103C235.657 -5.99448 235.657 -6.13016 235.657 -6.13016C235.657 -6.13016 235.663 -5.99914 235.672 -5.74371C235.675 -5.48928 235.675 -5.1058 235.68 -4.61484C235.68 -4.36704 235.683 -4.08905 235.686 -3.78752C235.689 -3.48598 235.689 -3.1496 235.673 -2.79264C235.663 -2.4347 235.65 -2.04755 235.636 -1.63121C235.623 -1.21488 235.62 -0.77865 235.579 -0.314517C235.511 0.616719 235.468 1.64711 235.339 2.76716C235.31 3.04485 235.284 3.33482 235.252 3.62379C235.22 3.91276 235.196 4.21499 235.151 4.51326C235.071 5.11743 234.985 5.74415 234.894 6.39344C234.499 8.97902 233.923 11.8955 233.06 15.0223C232.197 18.1491 231.04 21.4908 229.528 24.8999C229.335 25.3231 229.16 25.7615 228.952 26.1817C228.742 26.6075 228.538 27.0343 228.327 27.4658C228.221 27.6815 228.116 27.8972 228.01 28.113C227.904 28.3287 227.785 28.5358 227.674 28.7506C227.448 29.1791 227.216 29.6066 226.988 30.0407C226.766 30.4758 226.505 30.8918 226.261 31.3229C226.014 31.7475 225.761 32.1767 225.511 32.6125C225.243 33.0331 224.976 33.4536 224.707 33.8799C224.434 34.2994 224.173 34.7389 223.876 35.1479C223.296 35.9745 222.729 36.8333 222.101 37.6387C221.792 38.0514 221.48 38.4574 221.171 38.8701C220.838 39.2722 220.51 39.6752 220.177 40.0773C220.01 40.2811 219.843 40.485 219.677 40.6832C219.51 40.8871 219.347 41.0919 219.166 41.2872C218.814 41.6796 218.468 42.0675 218.115 42.4656C217.427 43.2714 216.671 43.9993 215.934 44.766C212.958 47.7809 209.627 50.4797 206.083 52.7713C204.318 53.9421 202.476 54.9445 200.622 55.9035C198.746 56.7991 196.856 57.6626 194.929 58.342C193.018 59.0714 191.074 59.6234 189.149 60.138C188.669 60.2579 188.182 60.3589 187.698 60.4722C187.459 60.5265 187.215 60.5798 186.976 60.6341L186.617 60.7185L186.257 60.7848C185.774 60.8746 185.296 60.9597 184.817 61.0504C184.576 61.0925 184.339 61.1411 184.099 61.1775C183.859 61.2139 183.62 61.2447 183.38 61.2811C179.571 61.8516 175.853 62.0443 172.344 61.9703C168.835 61.8963 165.529 61.5603 162.509 61.0848C159.489 60.6092 156.749 59.993 154.344 59.3762C153.744 59.2076 153.164 59.0487 152.606 58.888C152.329 58.811 152.052 58.734 151.785 58.659C151.519 58.5783 151.255 58.492 151 58.4133C150.484 58.255 149.994 58.1015 149.524 57.9521C149.056 57.797 148.615 57.6412 148.192 57.5007C147.77 57.3545 147.372 57.2189 146.995 57.0872C146.62 56.95 146.263 56.8223 145.938 56.7006C145.281 56.4561 144.722 56.254 144.268 56.0839C143.366 55.7449 142.884 55.5576 142.884 55.5576C142.884 55.5576 142.768 55.5056 142.538 55.4083C142.309 55.311 141.969 55.1571 141.528 54.9599C141.086 54.7626 140.543 54.5164 139.901 54.2334C139.262 53.9392 138.531 53.6036 137.712 53.2276C134.436 51.7113 129.791 49.471 124.271 46.643C118.75 43.8207 112.352 40.4165 105.475 36.7667C98.597 33.1224 91.2195 29.2521 83.678 25.6395C79.9073 23.8331 76.0933 22.0952 72.2868 20.4826C68.4804 18.87 64.675 17.3875 60.9385 16.0657C57.202 14.744 53.5318 13.5944 49.9983 12.6364C46.4649 11.6783 43.0761 10.9016 39.908 10.3031C33.5717 9.10617 28.1517 8.61686 24.3377 8.42509C23.3867 8.37764 22.532 8.35463 21.7855 8.32887C21.0442 8.30409 20.4094 8.30574 19.8944 8.30097C19.3795 8.29619 18.9881 8.29162 18.7204 8.28726C18.4564 8.28952 18.316 8.29199 18.316 8.29199C18.316 8.29199 18.4526 8.28289 18.7193 8.26934C18.9846 8.26144 19.38 8.24909 19.8952 8.23031C20.4091 8.21717 21.0469 8.18067 21.795 8.17724C22.5431 8.17381 23.4021 8.15634 24.3588 8.15767C28.1967 8.18289 33.6712 8.42304 40.1138 9.3336C43.3325 9.78839 46.79 10.4131 50.3986 11.2145C54.0073 12.0159 57.7696 13.0062 61.6007 14.1573C65.4371 15.3094 69.3474 16.6233 73.264 18.0682C77.1806 19.5132 81.1047 21.0835 84.9869 22.7166C92.75 25.9883 100.344 29.5167 107.393 32.828C114.446 36.146 120.975 39.2273 126.584 41.7536C132.19 44.2912 136.877 46.268 140.165 47.5979C140.989 47.9278 141.725 48.2229 142.363 48.4757C143.003 48.7228 143.547 48.9399 143.991 49.1079C144.433 49.2816 144.773 49.412 145 49.497C145.257 49.588 145.37 49.6333 145.37 49.6333Z" fill="#D6EEED" fill-opacity="0.3"/>
<path d="M122.367 30.9613C122.367 30.9613 124.193 31.9388 127.392 33.6515C130.585 35.3448 135.137 37.7401 140.605 40.4144C143.34 41.7487 146.305 43.1409 149.447 44.5378C150.234 44.8827 151.031 45.2296 151.839 45.5786C152.595 45.8929 153.356 46.2083 154.127 46.5258C154.905 46.8141 155.688 47.1278 156.483 47.4134C156.884 47.5538 157.286 47.6884 157.687 47.8288C158.088 47.9692 158.494 48.1106 158.904 48.2346C162.176 49.2855 165.604 50.1357 169.112 50.7094L169.44 50.7683L169.77 50.8155L170.433 50.9042C170.874 50.9613 171.314 51.0301 171.756 51.0873C172.195 51.1318 172.64 51.1773 173.084 51.2228L173.751 51.2939C173.974 51.3138 174.194 51.3209 174.417 51.3408C174.861 51.3678 175.303 51.4006 175.752 51.4287C176.199 51.4625 176.639 51.4584 177.085 51.4738C177.528 51.4823 177.976 51.5103 178.418 51.5003L179.749 51.484C186.847 51.3558 193.784 49.7518 199.764 46.8428C202.76 45.4078 205.535 43.6855 208.046 41.7764C210.555 39.8732 212.792 37.7882 214.752 35.6846C215.259 35.1821 215.713 34.6322 216.17 34.1135C216.398 33.8542 216.627 33.5948 216.849 33.3403C217.076 33.0868 217.267 32.8261 217.471 32.5801C217.676 32.3283 217.874 32.0813 218.071 31.8401C218.17 31.7195 218.269 31.5989 218.367 31.4783C218.462 31.3509 218.55 31.2282 218.644 31.1066C219.013 30.6133 219.37 30.1295 219.711 29.667C220.041 29.184 220.361 28.7174 220.667 28.2662C220.987 27.8239 221.252 27.3587 221.526 26.9315C221.663 26.715 221.793 26.5033 221.923 26.2974C221.99 26.195 222.052 26.0915 222.119 25.9891C222.181 25.8856 222.238 25.7811 222.299 25.6835C222.534 25.2793 222.757 24.8846 222.972 24.5191C223.08 24.3334 223.182 24.1525 223.281 23.9833C223.376 23.8072 223.467 23.6301 223.555 23.4588C223.731 23.122 223.902 22.8086 224.058 22.5105C224.384 21.9292 224.609 21.4071 224.814 20.9908C225.014 20.5736 225.17 20.2571 225.274 20.0402C225.326 19.9347 225.362 19.8504 225.386 19.7942C225.41 19.738 225.422 19.71 225.422 19.71C225.422 19.71 225.41 19.738 225.391 19.7953C225.367 19.8514 225.336 19.9367 225.289 20.0491C225.194 20.268 225.053 20.5934 224.872 21.0206C224.687 21.441 224.481 21.9788 224.184 22.578C224.043 22.8791 223.89 23.2083 223.723 23.553C223.639 23.7253 223.56 23.9044 223.473 24.0884C223.382 24.2713 223.285 24.4532 223.186 24.6468C222.989 25.0281 222.781 25.4317 222.563 25.8517C222.512 25.9572 222.455 26.0617 222.396 26.172C222.334 26.2754 222.276 26.3857 222.214 26.4892C222.094 26.703 221.967 26.9215 221.844 27.1469C221.589 27.5899 221.341 28.0709 221.038 28.5347C220.748 29.0075 220.445 29.4957 220.137 30.0013C219.806 30.4902 219.471 30.9965 219.122 31.5183C219.038 31.6478 218.947 31.7821 218.857 31.9106C218.762 32.038 218.667 32.1654 218.578 32.2939C218.387 32.5546 218.196 32.8153 218.004 33.0818C217.806 33.3474 217.623 33.6218 217.404 33.889C217.189 34.1572 216.968 34.4303 216.746 34.7091C216.303 35.2611 215.863 35.8441 215.374 36.3868C213.474 38.6301 211.283 40.8888 208.782 42.9887C206.285 45.0953 203.489 47.0452 200.427 48.7169C194.326 52.1014 187.097 54.2082 179.631 54.7569L178.232 54.8512C177.763 54.8862 177.299 54.8794 176.827 54.9017C176.359 54.9124 175.891 54.9416 175.422 54.9338C174.95 54.9318 174.486 54.925 174.015 54.923C173.783 54.9196 173.549 54.922 173.313 54.9118L172.611 54.8762C172.144 54.8567 171.673 54.8304 171.206 54.8109C170.742 54.7798 170.275 54.736 169.807 54.698L169.111 54.6392L168.76 54.6122L168.411 54.5735C164.698 54.1786 161.057 53.4809 157.576 52.5777C157.14 52.4729 156.709 52.3449 156.277 52.2226C155.845 52.1004 155.418 51.9792 154.991 51.858C154.14 51.6039 153.306 51.3227 152.477 51.0669C151.656 50.7762 150.838 50.4923 150.032 50.2105C149.194 49.8982 148.363 49.5811 147.546 49.2729C144.282 48.0226 141.206 46.7606 138.371 45.5527C132.703 43.1312 128.005 40.9445 124.707 39.401C121.413 37.84 119.529 36.9485 119.529 36.9485C119.529 36.9485 117.686 35.9495 114.463 34.2015C111.235 32.4466 106.622 29.9173 101.015 26.9107C95.4004 23.9147 88.7911 20.4412 81.4834 16.9877C74.1717 13.5517 66.1564 10.1346 57.7654 7.39858C49.3916 4.63547 40.6325 2.59416 32.1664 1.57365C27.9334 1.06339 23.7834 0.801138 19.814 0.763581C15.846 0.720196 12.0651 0.896711 8.56946 1.22118C6.8211 1.37416 5.14475 1.59017 3.55289 1.79247C2.7548 1.91451 1.98021 2.02902 1.22763 2.14181C0.852027 2.19529 0.478837 2.26145 0.116049 2.32966C-0.251917 2.39685 -0.608107 2.46026 -0.964358 2.52367C-2.38526 2.75986 -3.70176 3.05941 -4.93076 3.30928C-6.1521 3.57285 -7.26845 3.85114 -8.28319 4.08865C-9.2878 4.35253 -10.1883 4.58833 -10.9729 4.79224C-11.3646 4.89128 -11.7252 4.99648 -12.0572 5.09518C-12.3892 5.19387 -12.6859 5.28127 -12.9527 5.35632C-14.0293 5.67297 -14.5995 5.84019 -14.5995 5.84019C-14.5995 5.84019 -14.0291 5.64863 -12.9637 5.28711C-12.6994 5.19938 -12.3985 5.09453 -12.0703 4.98898C-11.7408 4.87761 -11.3879 4.7587 -10.9974 4.64115C-10.2201 4.39922 -9.32174 4.12646 -8.32315 3.81873C-7.31445 3.53737 -6.20409 3.21524 -4.98089 2.8972C-3.76175 2.59663 -2.44211 2.23677 -1.02317 1.93927C-0.669379 1.86318 -0.309051 1.78229 0.0578139 1.69661C0.423305 1.61675 0.795392 1.5321 1.17507 1.46115C1.93063 1.31239 2.70824 1.16192 3.50795 1.00973C5.10574 0.735495 6.78937 0.441734 8.55022 0.212016C12.0708 -0.265922 15.8911 -0.611332 19.9116 -0.746426C23.9373 -0.880494 28.1632 -0.804262 32.4825 -0.477968C41.1277 0.169823 50.1256 1.83806 58.7563 4.24385C67.4027 6.62841 75.6928 9.70393 83.2467 12.8224C90.7964 15.9583 97.6178 19.1265 103.391 21.8615C114.779 27.3181 122.367 30.9613 122.367 30.9613Z" fill="#D6EEED" fill-opacity="0.3"/>
<path d="M98.55 31.0715C98.55 31.0715 99.761 31.7504 101.886 32.938C104.004 34.1305 107.023 35.8414 110.653 37.8898C117.903 41.9847 127.545 47.4743 137.459 52.4218C139.937 53.6555 142.432 54.8618 144.909 56.0032C147.381 57.1435 149.847 58.221 152.282 59.1448C157.152 60.974 161.864 62.2859 165.992 63.0503C170.115 63.8383 173.638 64.1435 176.112 64.2694C177.351 64.3084 178.327 64.3622 178.994 64.3419C179.662 64.3403 180.015 64.3372 180.015 64.3372C180.015 64.3372 179.656 64.3638 178.988 64.4145C178.315 64.4828 177.334 64.5017 176.084 64.553C173.585 64.6064 170.018 64.5629 165.788 64.0733C161.559 63.6082 156.69 62.6403 151.607 61.1496C149.067 60.3955 146.471 59.4826 143.908 58.5269C141.333 57.5691 138.736 56.5453 136.157 55.4941C125.831 51.2698 115.773 46.5023 108.256 42.9752C104.499 41.2151 101.37 39.7465 99.181 38.7183C96.9895 37.7017 95.7399 37.1196 95.7399 37.1196C95.7399 37.1196 94.5313 36.4535 92.4181 35.2867C90.3034 34.1256 87.2761 32.4746 83.6236 30.5692C76.3186 26.7586 66.4738 21.9356 56.2184 18.2541C53.6568 17.3357 51.0698 16.4799 48.5067 15.7087C45.9409 14.9494 43.3872 14.2786 40.9054 13.6959C38.4171 13.1181 35.9938 12.6578 33.6804 12.2626C33.099 12.1709 32.5267 12.0871 31.9661 11.9995C31.6832 11.9552 31.4041 11.9178 31.1264 11.8746C30.8473 11.8372 30.5734 11.8008 30.2982 11.7703C29.7504 11.6976 29.2117 11.6329 28.6795 11.5633C28.1498 11.5065 27.6239 11.4566 27.1149 11.404C23.0263 10.9856 19.5829 10.8993 17.1666 10.9016C16.5635 10.9039 16.0229 10.8941 15.5535 10.9047C15.0842 10.9154 14.6851 10.9277 14.3575 10.936C13.7075 10.9535 13.3629 10.9645 13.3629 10.9645C13.3629 10.9645 13.7077 10.929 14.3582 10.8623C14.6861 10.8296 15.0869 10.7867 15.5592 10.7398C16.0314 10.6929 16.5711 10.6594 17.1786 10.615C19.6096 10.4311 23.0843 10.2654 27.245 10.3723C27.7634 10.3838 28.2961 10.4043 28.8367 10.4141C29.3784 10.4425 29.9253 10.472 30.484 10.4977C30.7633 10.5106 31.0478 10.5244 31.3309 10.5442C31.6141 10.5639 31.9024 10.5847 32.1907 10.6055C32.7674 10.6471 33.3531 10.6967 33.9453 10.7414C36.3151 10.9634 38.8078 11.2408 41.3708 11.6368C43.9337 12.0328 46.5687 12.5169 49.2326 13.0868C51.8938 13.6685 54.5788 14.3349 57.2475 15.0718C59.9176 15.8028 62.5621 16.6209 65.1569 17.466C67.7517 18.3111 70.2798 19.2105 72.7141 20.1157C77.5894 21.9213 82.0729 23.7777 85.9009 25.4168C89.7238 27.0549 92.8833 28.4865 95.0944 29.4885C97.2886 30.4932 98.55 31.0715 98.55 31.0715Z" fill="#D6EEED" fill-opacity="0.3"/>
<path d="M122.999 48.2806C122.999 48.2806 124.225 48.944 126.367 50.1046C128.515 51.2602 131.59 52.8964 135.328 54.7823C137.201 55.7228 139.236 56.7329 141.408 57.7641C142.495 58.2768 143.616 58.8026 144.765 59.3277C145.34 59.5902 145.926 59.849 146.509 60.1195C147.099 60.3852 147.719 60.6384 148.332 60.9024C150.796 61.9367 153.384 62.9283 156.078 63.7687C156.411 63.8783 156.75 63.9831 157.088 64.0939C157.429 64.1928 157.77 64.2918 158.111 64.3908C158.452 64.4897 158.793 64.5887 159.139 64.6887L159.653 64.8347L160.17 64.969C160.863 65.1444 161.56 65.3209 162.258 65.4973C162.961 65.6503 163.669 65.8043 164.37 65.9632C167.199 66.5477 170.071 66.9933 172.94 67.2659C175.807 67.5199 178.668 67.6128 181.458 67.5438C184.251 67.4631 186.969 67.189 189.546 66.8191C190.838 66.5856 192.095 66.4067 193.308 66.1144C193.915 65.9776 194.513 65.8574 195.101 65.7105C195.685 65.5567 196.258 65.4009 196.819 65.2547C201.315 64.0266 204.991 62.4498 207.511 61.2013C207.829 61.0495 208.128 60.9064 208.41 60.7661C208.688 60.6188 208.948 60.4802 209.19 60.3503C209.674 60.0903 210.088 59.8719 210.422 59.6928C210.757 59.5138 211.016 59.381 211.182 59.2728C211.352 59.1716 211.439 59.1214 211.439 59.1214C211.439 59.1214 211.356 59.1785 211.188 59.2925C211.026 59.4076 210.773 59.5601 210.45 59.7599C210.122 59.9587 209.722 60.2107 209.248 60.4973C209.014 60.6411 208.755 60.7983 208.483 60.9653C208.207 61.1253 207.916 61.2823 207.603 61.4596C205.133 62.8717 201.502 64.6975 196.996 66.2496C196.431 66.4379 195.86 66.6311 195.271 66.8271C194.685 67.0172 194.083 67.1796 193.471 67.3586C192.249 67.7353 190.975 68.0092 189.669 68.332C187.048 68.8899 184.275 69.3559 181.415 69.6323C178.553 69.896 175.601 70.0065 172.622 69.9516C169.648 69.8792 166.656 69.6248 163.691 69.2283C162.952 69.1172 162.216 69.013 161.476 68.9018C160.747 68.7682 160.011 68.6395 159.282 68.5058L158.734 68.4086L158.191 68.2937C157.829 68.2151 157.471 68.1435 157.109 68.0649C156.747 67.9863 156.391 67.9088 156.028 67.8362C155.672 67.7528 155.318 67.6635 154.963 67.5801C152.122 66.907 149.371 66.0797 146.748 65.1919C146.1 64.9639 145.434 64.7446 144.808 64.5207C144.193 64.2931 143.586 64.0734 142.98 63.8537C141.78 63.4106 140.607 62.9667 139.471 62.5242C137.199 61.6452 135.065 60.7813 133.108 59.9715C129.193 58.3518 125.977 56.9331 123.728 55.9296C121.491 54.9222 120.207 54.3456 120.207 54.3456C120.207 54.3456 118.979 53.6693 116.832 52.4832C114.685 51.2971 111.639 49.5866 108.005 47.531C100.734 43.4313 91.162 37.9181 81.48 32.9055C76.6364 30.3987 71.7602 28.0329 67.1355 25.9881C62.5094 23.9492 58.1376 22.2194 54.349 20.9016C50.5633 19.5721 47.361 18.6299 45.1096 18.0133C43.9844 17.7143 43.0965 17.469 42.4883 17.3288C41.8815 17.1828 41.5587 17.0998 41.5587 17.0998C41.5587 17.0998 41.8883 17.1535 42.506 17.2525C43.1251 17.3456 44.0292 17.5204 45.18 17.7322C47.4774 18.1735 50.7589 18.8671 54.6607 19.9062C58.5652 20.9336 63.0847 22.33 67.8898 24.0173C72.6935 25.7104 77.7684 27.71 82.8159 29.8517C92.9056 34.1341 102.878 38.922 110.408 42.4459C114.168 44.2132 117.314 45.6793 119.523 46.6932C121.738 47.7022 122.999 48.2806 122.999 48.2806Z" fill="#D6EEED" fill-opacity="0.3"/>
<path d="M125.576 55.2348C125.576 55.2348 126.418 55.6946 127.889 56.4989C129.367 57.2985 131.48 58.4436 134.049 59.7709C136.616 61.1039 139.644 62.6258 142.94 64.1827C143.356 64.3751 143.771 64.5732 144.192 64.7666C144.403 64.8633 144.612 64.9658 144.822 65.0625C145.043 65.1612 145.269 65.261 145.49 65.3597C145.937 65.5582 146.395 65.7588 146.847 65.9584C147.073 66.0581 147.304 66.1589 147.53 66.2587C147.763 66.3537 147.996 66.4486 148.228 66.5436C149.16 66.9176 150.092 67.316 151.053 67.6592C152.011 68.014 152.966 68.3805 153.944 68.6966C157.836 70.0241 161.849 71.0888 165.71 71.8247C169.57 72.5665 173.281 72.9736 176.505 73.1437C176.907 73.1625 177.304 73.1803 177.69 73.1961C178.077 73.2118 178.457 73.2324 178.826 73.2323C179.567 73.2391 180.276 73.2456 180.936 73.2486C181.266 73.253 181.588 73.2438 181.899 73.2324C182.211 73.2211 182.511 73.2135 182.801 73.2039C183.38 73.1846 183.908 73.1736 184.392 73.1417C185.358 73.0709 186.119 73.0146 186.637 72.9772C186.897 72.9556 187.096 72.9401 187.228 72.9298C187.362 72.9137 187.433 72.9096 187.433 72.9096C187.433 72.9096 187.364 72.9264 187.229 72.9484C187.094 72.9703 186.896 73.0043 186.642 73.0513C186.123 73.1374 185.367 73.262 184.397 73.4232C183.914 73.498 183.38 73.5567 182.799 73.6305C182.509 73.6644 182.207 73.7022 181.889 73.7427C181.576 73.7842 181.247 73.8226 180.916 73.8484C180.247 73.9047 179.532 73.9702 178.78 74.0344C178.403 74.0694 178.019 74.0907 177.624 74.1099C177.229 74.1292 176.829 74.1474 176.417 74.1694C173.132 74.3102 169.328 74.2567 165.316 73.8874C161.304 73.5181 157.099 72.836 152.975 71.8772C151.938 71.653 150.923 71.3785 149.907 71.1097C148.883 70.8516 147.892 70.5451 146.897 70.2561C146.648 70.1824 146.4 70.1087 146.151 70.035C145.904 69.9554 145.662 69.877 145.421 69.7985C144.932 69.6404 144.448 69.4834 143.964 69.3264C143.722 69.2478 143.485 69.1704 143.243 69.0919C143.017 69.0165 142.797 68.9362 142.576 68.8618C142.135 68.7072 141.693 68.5584 141.257 68.4049C137.768 67.1878 134.559 65.9776 131.83 64.9175C129.101 63.8574 126.855 62.9359 125.286 62.2951C123.724 61.6437 122.829 61.2769 122.829 61.2769C122.829 61.2769 121.983 60.8102 120.501 59.9853C119.028 59.1624 116.925 57.9764 114.434 56.5487C109.44 53.6913 102.897 49.831 96.4195 46.0629C93.1773 44.1812 89.9505 42.327 86.9206 40.6278C83.8907 38.9285 81.0681 37.3863 78.6375 36.0927C76.207 34.7991 74.1812 33.7688 72.7544 33.0526C71.3301 32.349 70.514 31.9431 70.514 31.9431C70.514 31.9431 71.3687 32.253 72.8635 32.7937C74.3556 33.346 76.4917 34.1359 79.0472 35.1493C81.604 36.157 84.5897 37.3717 87.7867 38.7259C90.9851 40.0743 94.4001 41.5633 97.8252 43.0787C104.67 46.1085 111.568 49.2157 116.793 51.4971C119.404 52.6436 121.593 53.5781 123.132 54.2313C124.699 54.8594 125.576 55.2348 125.576 55.2348Z" fill="#D6EEED" fill-opacity="0.3"/>
<path d="M187.747 77.4182C187.747 77.4182 187.664 77.4261 187.496 77.4478C187.329 77.4636 187.092 77.4836 186.77 77.5115C186.141 77.5576 185.208 77.6532 184.035 77.7258C181.69 77.8524 178.351 77.9342 174.451 77.6776C170.549 77.4269 166.088 76.826 161.479 75.7914C160.902 75.6582 160.317 75.5415 159.739 75.3897C159.161 75.2378 158.577 75.0908 157.994 74.9379C157.703 74.8615 157.411 74.7851 157.114 74.7076C156.824 74.6253 156.536 74.5372 156.24 74.4539C155.656 74.2825 155.072 74.111 154.483 73.9385C153.895 73.7602 153.318 73.5595 152.732 73.3753C152.148 73.1794 151.56 73.0011 150.98 72.7876C149.826 72.3618 148.655 71.9631 147.521 71.4984C146.95 71.2684 146.378 71.0443 145.808 70.8143C145.245 70.5737 144.683 70.333 144.122 70.0865C142.966 69.5991 141.98 69.1271 140.944 68.6575C139.92 68.1842 138.92 67.7032 137.923 67.2292C136.94 66.7455 135.958 66.2804 135.01 65.804C131.202 63.9126 127.717 62.0795 124.756 60.4856C121.801 58.8927 119.371 57.5391 117.676 56.5893C115.987 55.6405 115.019 55.0925 115.019 55.0925C115.019 55.0925 114.012 54.6408 112.253 53.8497C110.507 53.0548 108.014 51.9215 105.022 50.56C99.0619 47.8421 91.2024 44.2191 83.4058 40.9087C79.507 39.2442 75.6137 37.6727 71.9691 36.2915C68.3245 34.9103 64.9286 33.7195 62.0172 32.7782C59.1059 31.837 56.6803 31.1395 54.9889 30.6678C53.292 30.2196 52.3271 29.96 52.3271 29.96C52.3271 29.96 52.4488 29.9965 52.6753 30.0722C52.907 30.149 53.2462 30.2533 53.6954 30.3979C54.59 30.6802 55.8986 31.1185 57.559 31.7003C58.3912 31.9946 59.3139 32.3193 60.3166 32.6966C61.3168 33.0611 62.4009 33.4853 63.5614 33.9307C65.8769 34.8451 68.4868 35.9161 71.3341 37.1568C77.03 39.6324 83.6642 42.8092 90.8288 46.4346C98.0014 50.0492 105.707 54.1008 113.615 58.1007C121.517 62.0995 129.639 66.0196 137.54 69.3693C138.535 69.7817 139.506 70.2017 140.493 70.6003C140.983 70.8021 141.469 70.9969 141.954 71.1976L142.322 71.3443L142.715 71.4961C142.979 71.5977 143.238 71.6982 143.501 71.7997C144.024 72.0018 144.543 72.197 145.06 72.3981C145.582 72.5816 146.104 72.7651 146.62 72.9475C147.138 73.1241 147.653 73.3124 148.166 73.4822C148.687 73.6471 149.197 73.8099 149.712 73.9738C153.807 75.261 157.795 76.2147 161.558 76.8785C165.319 77.5482 168.85 77.9211 172.024 78.1064C173.621 78.1674 175.106 78.2428 176.506 78.2157C176.853 78.2174 177.196 78.2123 177.532 78.212C177.864 78.2106 178.193 78.2151 178.513 78.1931C179.159 78.1686 179.772 78.1439 180.353 78.1188C180.643 78.1092 180.929 78.0926 181.203 78.0799C181.478 78.0613 181.749 78.0417 182.009 78.0201C182.534 77.9777 183.02 77.9399 183.479 77.9027C184.389 77.8391 185.173 77.7321 185.803 77.6615C186.433 77.5851 186.92 77.5228 187.243 77.4832C187.576 77.4516 187.747 77.4182 187.747 77.4182Z" fill="#D6EEED" fill-opacity="0.3"/>
<path d="M218.538 -27.1846C218.538 -27.1846 218.735 -26.8502 219.103 -26.2271C219.198 -26.0692 219.301 -25.8982 219.415 -25.7076C219.529 -25.517 219.635 -25.293 219.766 -25.0586C220.01 -24.5872 220.321 -24.0622 220.605 -23.4258C220.754 -23.1123 220.915 -22.7847 221.077 -22.4394C221.233 -22.0895 221.387 -21.7109 221.55 -21.3247C221.631 -21.1288 221.717 -20.932 221.807 -20.7286C221.892 -20.5262 221.962 -20.309 222.044 -20.0955C222.201 -19.6638 222.376 -19.2171 222.541 -18.7492C223.187 -16.8681 223.798 -14.6677 224.281 -12.1831C224.763 -9.69298 225.101 -6.91603 225.209 -3.92087C225.217 -3.73308 225.23 -3.54432 225.233 -3.35751C225.235 -3.16513 225.238 -2.97831 225.234 -2.78691C225.238 -2.40772 225.241 -2.02296 225.243 -1.63264L225.247 -1.3408L225.24 -1.04536C225.235 -0.848396 225.23 -0.651421 225.22 -0.455428C225.21 -0.0614943 225.2 0.332438 225.189 0.731936C225.162 1.12851 225.139 1.53162 225.111 1.93375C225.084 2.33589 225.071 2.74095 225.02 3.15032C224.929 3.96544 224.88 4.78836 224.749 5.61335C224.316 8.9243 223.616 12.3416 222.551 15.7009C222.417 16.1234 222.284 16.5404 222.154 16.964C222.006 17.3781 221.856 17.7977 221.708 18.2118C221.429 19.055 221.072 19.8659 220.753 20.6957C220.676 20.9022 220.584 21.1059 220.492 21.3095L220.222 21.9158L219.956 22.5286L219.823 22.835L219.676 23.133C219.286 23.9259 218.914 24.7339 218.486 25.5079C217.677 27.0824 216.744 28.5694 215.801 30.0367C215.554 30.3914 215.307 30.7516 215.061 31.1063L214.69 31.641L214.299 32.1542C214.038 32.5004 213.785 32.842 213.526 33.1826C213.255 33.5269 212.964 33.8672 212.683 34.2094C210.437 36.9477 208.028 39.3694 205.531 41.4428C203.031 43.5097 200.441 45.2161 197.866 46.5993C195.291 47.9825 192.725 49.0414 190.281 49.8384C185.396 51.439 181.032 51.9746 177.971 52.1881C177.585 52.2135 177.226 52.2382 176.882 52.2658C176.538 52.2758 176.215 52.284 175.918 52.2972C175.617 52.3038 175.341 52.3153 175.088 52.3252C174.834 52.335 174.602 52.3432 174.395 52.3385C173.562 52.3311 173.119 52.3281 173.119 52.3281C173.119 52.3281 173.009 52.3188 172.798 52.3076C172.586 52.302 172.269 52.2648 171.856 52.2268C171.442 52.1887 170.931 52.1377 170.336 52.0767C169.735 51.997 169.046 51.9063 168.28 51.801C167.893 51.7446 167.489 51.6676 167.067 51.5988C166.642 51.5235 166.196 51.4675 165.733 51.3677C164.806 51.1792 163.808 50.9947 162.745 50.7278C161.678 50.4953 160.553 50.1759 159.368 49.8568C158.78 49.6806 158.173 49.495 157.554 49.3129C156.936 49.1253 156.307 48.9004 155.662 48.6902C155.504 48.6368 155.341 48.5824 155.178 48.5279C155.016 48.468 154.854 48.408 154.692 48.348C154.368 48.228 154.039 48.1071 153.705 47.9852C153.04 47.7534 152.37 47.4743 151.692 47.2053C151.521 47.1378 151.35 47.0703 151.179 47.0028C151.008 46.9353 150.838 46.8678 150.649 46.7853C150.276 46.6268 149.901 46.4738 149.528 46.3153C148.775 46.0029 148.011 45.6709 147.231 45.3359C144.131 43.9879 140.873 42.4934 137.501 40.8781C130.762 37.6429 123.593 33.9123 116.328 30.0879C109.064 26.2635 101.7 22.3676 94.5853 18.8512C87.4839 15.3256 80.6288 12.1963 74.5632 9.73555C71.5305 8.5052 68.7045 7.43652 66.1659 6.52743C64.8947 6.08124 63.7024 5.66177 62.5826 5.29684C61.4705 4.92176 60.4372 4.59665 59.5085 4.30311C58.5812 4.00401 57.73 3.76598 57.0027 3.54579C56.2755 3.3256 55.6451 3.14716 55.1333 3.0088C54.1161 2.72749 53.5698 2.57673 53.5698 2.57673C53.5698 2.57673 53.8417 2.64605 54.3702 2.78177C54.8974 2.92306 55.6916 3.10946 56.7037 3.38979C58.7421 3.93573 61.7091 4.77519 65.4004 5.97979C69.093 7.17882 73.5034 8.74758 78.416 10.7148C83.3364 12.6719 88.7564 15.0386 94.5235 17.716C100.296 20.3943 106.401 23.3981 112.759 26.5491C119.117 29.7001 125.718 32.9963 132.515 36.1902C135.913 37.7872 139.355 39.3576 142.846 40.8615C144.59 41.6074 146.345 42.3496 148.109 43.0586C148.552 43.2363 148.991 43.413 149.434 43.5907C149.879 43.7629 150.317 43.9396 150.762 44.1118L151.426 44.3723L151.759 44.4997L152.067 44.6168C152.475 44.7645 152.882 44.9177 153.29 45.0653L153.903 45.2929L154.522 45.4982C154.932 45.6347 155.347 45.7778 155.758 45.9143C156.172 46.0574 156.588 46.1717 157.001 46.2971C157.42 46.4235 157.832 46.5544 158.252 46.6752C159.926 47.1343 161.605 47.5767 163.303 47.9179C166.689 48.6161 170.103 49.0869 173.485 49.208L174.752 49.2518C175.176 49.2685 175.592 49.249 176.014 49.2537L176.645 49.2518C176.854 49.2509 177.066 49.2565 177.272 49.2435L178.525 49.1914C178.732 49.1784 178.944 49.184 179.147 49.1644L179.768 49.1141L181.005 49.0183L182.233 48.874C182.64 48.8237 183.051 48.7855 183.454 48.711L184.666 48.5173L184.966 48.4698L185.264 48.4102L185.86 48.2909C186.255 48.2034 186.655 48.14 187.047 48.0459L188.219 47.7571C188.412 47.7068 188.609 47.6685 188.804 47.6127L189.38 47.4431L190.53 47.1094C190.908 46.9836 191.282 46.8513 191.66 46.7255C192.035 46.5931 192.419 46.4859 192.783 46.3284C195.744 45.2051 198.554 43.8027 201.179 42.103C203.797 40.3903 206.24 38.4057 208.5 36.1824L208.927 35.7689L209.142 35.5655L209.344 35.3479C209.618 35.0567 209.891 34.7655 210.159 34.4788C210.717 33.916 211.223 33.2849 211.746 32.692L212.139 32.2429C212.276 32.0945 212.378 31.9393 212.499 31.7935C212.737 31.4954 212.975 31.1974 213.208 30.8984C213.454 30.6078 213.664 30.2928 213.888 29.9863C214.112 29.6797 214.336 29.3732 214.559 29.0722C216.295 26.586 217.794 23.9498 219.058 21.2689C221.59 15.8959 223.142 10.3069 223.897 5.11327C224.656 -0.0914967 224.65 -4.90068 224.223 -9.01009C223.776 -13.1234 222.958 -16.5626 222.057 -19.2432C221.823 -19.9107 221.626 -20.5536 221.385 -21.1291C221.157 -21.7083 220.965 -22.2629 220.73 -22.7501C220.507 -23.2409 220.321 -23.7072 220.124 -24.1113C219.923 -24.5164 219.739 -24.8832 219.578 -25.2109C219.494 -25.3724 219.427 -25.5365 219.348 -25.6738C219.269 -25.8111 219.194 -25.9419 219.127 -26.0651C218.993 -26.3061 218.878 -26.5144 218.789 -26.6768C218.631 -27.0156 218.538 -27.1846 218.538 -27.1846Z" fill="#D6EEED" fill-opacity="0.3"/>
<path d="M231.291 4.00425C231.291 4.00425 231.225 4.50514 231.1 5.44213C231.042 5.91449 230.928 6.48355 230.819 7.16708C230.76 7.50785 230.711 7.87446 230.63 8.25888C230.549 8.6433 230.467 9.05726 230.381 9.48834C230.223 10.3592 229.969 11.3131 229.727 12.3529C229.67 12.6165 229.592 12.876 229.518 13.1422C229.444 13.4085 229.367 13.6862 229.29 13.9638C229.214 14.2415 229.136 14.5249 229.056 14.814C228.977 15.1031 228.876 15.3881 228.784 15.6866C228.693 15.9794 228.599 16.2836 228.5 16.5868C228.406 16.891 228.311 17.2009 228.199 17.5135C227.981 18.134 227.754 18.7707 227.523 19.4244C227.268 20.0674 227.007 20.7333 226.744 21.4105C226.465 22.0848 226.159 22.7598 225.858 23.4596C224.607 26.2258 223.063 29.1323 221.176 32.0136C220.935 32.3669 220.688 32.7249 220.441 33.0829C220.318 33.2619 220.194 33.4409 220.07 33.6257L219.885 33.9004L219.687 34.1664C219.425 34.5214 219.159 34.8697 218.895 35.2304C218.761 35.4074 218.631 35.5911 218.497 35.7681C218.353 35.9431 218.208 36.1238 218.064 36.2988C216.92 37.7304 215.709 39.1488 214.409 40.5083C211.824 43.2359 208.929 45.7661 205.781 47.9782C202.63 50.1836 199.205 52.0193 195.641 53.4817L195.306 53.6196L194.969 53.745L194.294 53.996L193.62 54.2469C193.395 54.3286 193.168 54.4218 192.941 54.4911L191.568 54.9345C191.341 55.0038 191.11 55.0902 190.879 55.1528L190.187 55.3407C189.726 55.4659 189.263 55.5968 188.802 55.722C188.334 55.8281 187.872 55.9351 187.409 56.0422C186.484 56.2802 185.544 56.4199 184.616 56.6035L184.266 56.6669L183.914 56.7178L183.215 56.8207C182.747 56.8848 182.286 56.9624 181.814 57.0198C181.349 57.0668 180.879 57.1185 180.414 57.1655C180.181 57.1918 179.95 57.2124 179.717 57.2388C179.487 57.2537 179.251 57.2677 179.02 57.2883C178.554 57.3172 178.094 57.347 177.633 57.3826C177.401 57.4033 177.174 57.4068 176.94 57.415C176.711 57.4243 176.478 57.4268 176.249 57.436C175.788 57.4478 175.33 57.4662 174.876 57.4733C174.418 57.4679 173.966 57.4635 173.509 57.4581C169.884 57.4097 166.373 57.0611 163.072 56.5143C159.772 55.9618 156.678 55.2225 153.855 54.3867C152.45 53.9641 151.098 53.5457 149.834 53.0968C149.515 52.9869 149.201 52.8781 148.892 52.7702C148.574 52.6546 148.262 52.54 147.954 52.4265C147.334 52.1983 146.734 51.9742 146.154 51.7598C143.833 50.8782 141.81 50.0845 140.153 49.4039C139.321 49.0688 138.585 48.7585 137.941 48.4958C137.298 48.2273 136.754 47.9961 136.307 47.8135C135.419 47.4378 134.949 47.2388 134.949 47.2388C134.949 47.2388 134.485 47.0111 133.62 46.5861C132.755 46.1611 131.486 45.5319 129.877 44.7174C126.655 43.0872 122.072 40.7145 116.571 37.7752C111.068 34.8473 104.645 31.3584 97.6513 27.7105C90.6558 24.0683 83.0782 20.2651 75.2299 16.8511C71.3084 15.1446 67.3225 13.5271 63.3179 12.0792C59.3147 10.6255 55.3058 9.33197 51.3529 8.23444C43.4497 6.02796 35.7629 4.68168 29.0497 4.07423C28.208 4.00602 27.386 3.92371 26.5777 3.87394C25.7694 3.82417 24.9817 3.7784 24.2109 3.72995C22.665 3.674 21.1966 3.60927 19.8103 3.60826C18.4255 3.5777 17.1252 3.62328 15.9247 3.63455C14.7226 3.67536 13.6109 3.72182 12.6116 3.77222C11.6082 3.83975 10.7147 3.8988 9.93498 3.9561C9.1563 4.03151 8.49409 4.09378 7.95859 4.14485C7.42311 4.19592 7.00923 4.23482 6.73104 4.27027C6.45283 4.30571 6.30926 4.31958 6.30926 4.31958C6.30926 4.31958 6.59396 4.27943 7.15172 4.20283C7.70674 4.13764 8.52825 4.0407 9.60466 3.91572C11.7545 3.701 14.9053 3.40635 18.9012 3.32391C22.8907 3.24618 27.7309 3.35783 33.1795 3.92826C38.6295 4.49298 44.6816 5.52119 51.0955 7.11545C57.5094 8.7097 64.2748 10.868 71.2078 13.5246C78.1434 16.1699 85.2377 19.3058 92.4166 22.721C106.779 29.5341 121.436 37.4857 136.273 44.2777C139.981 45.9726 143.702 47.5923 147.422 49.1042L148.821 49.6631L149.521 49.9426L149.871 50.0823L150.203 50.2066C150.649 50.3711 151.095 50.5413 151.536 50.7048L152.205 50.9544L152.879 51.1812C153.329 51.3343 153.773 51.4864 154.222 51.6395C154.671 51.7925 155.12 51.9218 155.572 52.0635C156.021 52.1984 156.471 52.3458 156.921 52.4751C157.371 52.5986 157.822 52.7221 158.278 52.8467L158.957 53.0325C159.18 53.0938 159.411 53.1447 159.635 53.2002C160.088 53.3123 160.543 53.4188 160.992 53.5299C161.444 53.6477 161.9 53.7246 162.351 53.8243C162.804 53.9183 163.256 54.0123 163.709 54.1063C164.164 54.1889 164.615 54.2648 165.07 54.3473C165.522 54.4232 165.974 54.5172 166.431 54.5703C167.335 54.6925 168.238 54.8442 169.142 54.9245C172.754 55.3227 176.337 55.4346 179.829 55.2243C186.819 54.7808 193.433 53.0818 199.233 50.2871C205.039 47.4933 210.045 43.684 214.157 39.4561C214.422 39.2031 214.667 38.9223 214.914 38.6539C215.162 38.3855 215.409 38.1172 215.656 37.8488C216.157 37.3311 216.615 36.7635 217.084 36.2217C217.316 35.9503 217.547 35.6789 217.779 35.4075C218.01 35.1418 218.21 34.8643 218.425 34.5956C218.635 34.3259 218.845 34.0562 219.053 33.7922C219.156 33.6569 219.267 33.5292 219.364 33.3929C219.461 33.2565 219.558 33.1201 219.657 32.9781C219.851 32.7054 220.051 32.4336 220.244 32.1666C220.433 31.8929 220.64 31.6346 220.813 31.3579C221.176 30.8074 221.536 30.2684 221.885 29.7331C222.22 29.1833 222.548 28.6439 222.87 28.1093C222.95 27.9756 223.03 27.842 223.111 27.7083C223.186 27.5736 223.261 27.439 223.336 27.3043C223.486 27.035 223.637 26.7657 223.781 26.501C223.93 26.2374 224.073 25.9728 224.222 25.7092C224.356 25.4425 224.494 25.1769 224.627 24.916C224.759 24.6551 224.891 24.3941 225.023 24.1332C225.155 23.8723 225.29 23.6238 225.407 23.3598C225.649 22.8397 225.883 22.3299 226.115 21.8316C226.172 21.7054 226.229 21.5791 226.29 21.4596C226.342 21.3323 226.393 21.205 226.449 21.0845C226.551 20.8357 226.659 20.5879 226.76 20.3447C227.185 19.3706 227.532 18.411 227.878 17.499C228.062 17.045 228.197 16.5877 228.35 16.1515C228.498 15.7086 228.642 15.2829 228.785 14.8628C229.035 14.0157 229.285 13.2163 229.503 12.4585C229.705 11.6977 229.891 10.9815 230.066 10.3167C230.219 9.64793 230.357 9.02378 230.486 8.45772C230.52 8.31503 230.547 8.17703 230.58 8.04005C230.607 7.90206 230.633 7.76978 230.653 7.64221C230.703 7.38336 230.751 7.13592 230.795 6.90561C230.884 6.43927 230.96 6.03001 231.029 5.67312C231.087 5.31423 231.13 5.01813 231.167 4.77439C231.253 4.25368 231.291 4.00425 231.291 4.00425Z" fill="#D6EEED" fill-opacity="0.3"/>
<path d="M229.807 -35.0353C229.807 -35.0353 230.067 -34.5927 230.553 -33.766C230.673 -33.5582 230.809 -33.33 230.959 -33.0702C231.104 -32.8114 231.252 -32.523 231.417 -32.2142C231.74 -31.592 232.134 -30.8926 232.502 -30.0595C232.695 -29.6471 232.899 -29.2151 233.114 -28.7637C233.316 -28.3032 233.512 -27.815 233.724 -27.3064C233.828 -27.0554 233.939 -26.7913 234.046 -26.5282C234.152 -26.2651 234.25 -25.9865 234.352 -25.7068C234.556 -25.1419 234.779 -24.5677 234.983 -23.9622C235.804 -21.5338 236.572 -18.7108 237.166 -15.5451C237.762 -12.3848 238.165 -8.87362 238.28 -5.11664C238.287 -4.88396 238.298 -4.64479 238.306 -4.41212C238.307 -4.17488 238.308 -3.93763 238.308 -3.70039C238.309 -3.22039 238.309 -2.74039 238.314 -2.2539L238.316 -1.88926L238.301 -1.52202C238.294 -1.2747 238.283 -1.03385 238.277 -0.786521C238.258 -0.292842 238.244 0.201792 238.225 0.695474C238.19 1.19178 238.158 1.69458 238.121 2.19641C238.084 2.69824 238.062 3.2085 238.003 3.71199C237.89 4.72546 237.809 5.75676 237.649 6.79012C237.085 10.927 236.18 15.1957 234.815 19.429C234.644 19.9574 234.473 20.4857 234.3 21.0196C234.114 21.5451 233.917 22.0686 233.73 22.5996C233.366 23.6579 232.911 24.6933 232.497 25.742C232.395 26.0061 232.275 26.2607 232.158 26.5218L231.81 27.2942L231.463 28.0665L231.288 28.4555L231.1 28.836C230.597 29.8507 230.107 30.8793 229.553 31.8668C228.493 33.88 227.279 35.806 226.036 37.6976C225.71 38.1619 225.385 38.6206 225.059 39.0848L224.571 39.7784L224.056 40.4496C223.712 40.8989 223.37 41.3427 223.032 41.7874C222.681 42.2237 222.316 42.6516 221.961 43.0814C219.101 46.5162 215.975 49.6228 212.71 52.2924C209.435 54.9602 206.019 57.1734 202.646 58.9496C199.272 60.7312 195.947 62.0711 192.824 63.062C192.432 63.1842 192.045 63.3073 191.664 63.4258L191.376 63.5156L191.09 63.5943C190.902 63.6453 190.709 63.6953 190.521 63.7463C190.144 63.8482 189.769 63.9446 189.403 64.0485C189.22 64.1005 189.038 64.1469 188.856 64.1933C188.676 64.2342 188.49 64.2741 188.31 64.315C187.59 64.473 186.883 64.6395 186.199 64.7812C185.513 64.9054 184.844 65.0269 184.197 65.1468C181.608 65.5627 179.336 65.8133 177.474 65.9106C177.009 65.938 176.565 65.9692 176.148 65.9942C175.735 66.0081 175.344 66.0148 174.984 66.0274C174.626 66.0344 174.287 66.0453 173.982 66.0509C173.676 66.0621 173.397 66.0671 173.149 66.0603C172.155 66.0507 171.624 66.0424 171.624 66.0424C171.624 66.0424 171.493 66.0348 171.235 66.0205C170.976 66.0118 170.601 65.9753 170.107 65.9276C169.617 65.8809 169.008 65.823 168.294 65.7567C167.586 65.6684 166.771 65.5598 165.861 65.4447C165.409 65.3762 164.932 65.2973 164.431 65.2135C163.929 65.1297 163.403 65.0587 162.864 64.9506C161.782 64.7335 160.608 64.522 159.375 64.2242C158.136 63.954 156.832 63.5965 155.461 63.2319C154.779 63.0331 154.084 62.8258 153.368 62.6146C152.654 62.3979 151.936 62.1517 151.195 61.9126C139.459 57.8096 124.821 50.3916 110.309 42.766C103.046 38.9577 95.7922 35.1339 88.8908 31.7239C81.9907 28.3083 75.4453 25.3187 69.7122 22.9979C66.8463 21.8348 64.1916 20.8332 61.8195 19.9836C60.6315 19.567 59.5184 19.1706 58.4813 18.8348C57.4481 18.4824 56.4921 18.1851 55.6265 17.9108C54.7622 17.6309 53.9839 17.4137 53.3088 17.2103C52.6337 17.0069 52.055 16.8449 51.5857 16.7152C50.6471 16.456 50.1486 16.315 50.1486 16.315C50.1486 16.315 50.3992 16.38 50.8865 16.5015C51.3724 16.6285 52.1027 16.8019 53.0427 17.0556C54.9238 17.5576 57.6707 18.3338 61.1178 19.4513C64.5648 20.5687 68.7108 22.0329 73.3776 23.8966C78.0522 25.7503 83.2513 28.0101 88.8497 30.6001C94.448 33.1902 100.443 36.1215 106.758 39.2467C113.075 42.3664 119.719 45.6754 126.659 48.9251C130.127 50.5495 133.672 52.1598 137.29 53.7144C139.1 54.4862 140.927 55.2554 142.771 55.9988C143.693 56.3706 144.62 56.7433 145.551 57.0994C146.013 57.2797 146.484 57.4675 146.949 57.6368C147.414 57.8061 147.884 57.9763 148.348 58.1512L149.048 58.4056L149.757 58.6444C150.23 58.8036 150.702 58.9627 151.177 59.1164C151.648 59.2811 152.134 59.4081 152.608 59.5618C153.09 59.7054 153.565 59.8536 154.049 59.9916C155.982 60.5208 157.93 61.0298 159.911 61.4292C163.863 62.2437 167.901 62.7967 171.982 62.9477L173.509 63.0007C174.022 63.0172 174.531 63.0041 175.042 63.0085L175.81 63.0041C176.065 63.0064 176.322 63.0031 176.576 62.9878L178.109 62.9263C178.363 62.911 178.619 62.9132 178.874 62.8924L179.64 62.8298L181.172 62.7103L182.702 62.5325C183.212 62.4733 183.72 62.4196 184.232 62.3317L185.756 62.0893L186.138 62.029L186.519 61.9511L187.275 61.7998C187.781 61.6935 188.286 61.6102 188.79 61.4862C189.294 61.3623 189.792 61.243 190.291 61.1181C190.541 61.0557 190.794 60.9998 191.04 60.9308L191.786 60.7139C192.284 60.5715 192.777 60.4281 193.271 60.2792C193.763 60.1182 194.251 59.9508 194.745 59.7844C195.233 59.6169 195.729 59.4625 196.208 59.2645C200.084 57.8094 203.814 55.945 207.296 53.6981C210.771 51.4383 213.997 48.8191 216.928 45.9471L217.479 45.41L217.752 45.1438L218.017 44.8646C218.368 44.492 218.72 44.1193 219.072 43.7467C219.786 43.0209 220.437 42.2309 221.107 41.4679C221.786 40.7122 222.392 39.908 223.024 39.1261C223.342 38.7412 223.629 38.3274 223.928 37.9276C224.223 37.5267 224.519 37.1204 224.814 36.7196C227.103 33.4599 229.047 30.0476 230.674 26.5984C233.929 19.7001 235.87 12.6795 236.831 6.16637C237.31 2.9038 237.546 -0.237215 237.597 -3.20537C237.601 -3.57456 237.612 -3.94831 237.615 -4.31197C237.614 -4.6766 237.607 -5.0422 237.598 -5.40227C237.59 -5.76234 237.587 -6.12145 237.577 -6.47599C237.573 -6.65603 237.572 -6.82957 237.563 -7.01058C237.552 -7.18605 237.542 -7.36153 237.536 -7.53604C237.498 -8.23145 237.469 -8.92492 237.42 -9.59919C237.359 -10.2699 237.297 -10.935 237.238 -11.5882C236.676 -16.7946 235.622 -21.1985 234.457 -24.6693C234.156 -25.5359 233.895 -26.3662 233.586 -27.1129C233.285 -27.8696 233.027 -28.5836 232.73 -29.224C232.44 -29.869 232.192 -30.4712 231.933 -31.006C231.668 -31.5363 231.428 -32.0212 231.214 -32.455C231.107 -32.672 231.009 -32.8815 230.904 -33.0633C230.8 -33.2507 230.703 -33.4195 230.614 -33.5809C230.437 -33.9037 230.283 -34.1699 230.166 -34.3888C229.933 -34.809 229.807 -35.0353 229.807 -35.0353Z" fill="#D6EEED" fill-opacity="0.3"/>
</svg>
