<svg width="22" height="21" viewBox="0 0 22 21" fill="none" xmlns="http://www.w3.org/2000/svg">
<path d="M12.75 1.75C12.75 1.28587 12.5656 0.840752 12.2374 0.512563C11.9092 0.184374 11.4641 0 11 0C10.5359 0 10.0908 0.184374 9.76256 0.512563C9.43437 0.840752 9.25 1.28587 9.25 1.75V8.75H2.25C1.78587 8.75 1.34075 8.93437 1.01256 9.26256C0.684374 9.59075 0.5 10.0359 0.5 10.5C0.5 10.9641 0.684374 11.4092 1.01256 11.7374C1.34075 12.0656 1.78587 12.25 2.25 12.25H9.25V19.25C9.25 19.7141 9.43437 20.1592 9.76256 20.4874C10.0908 20.8156 10.5359 21 11 21C11.4641 21 11.9092 20.8156 12.2374 20.4874C12.5656 20.1592 12.75 19.7141 12.75 19.25V12.25H19.75C20.2141 12.25 20.6592 12.0656 20.9874 11.7374C21.3156 11.4092 21.5 10.9641 21.5 10.5C21.5 10.0359 21.3156 9.59075 20.9874 9.26256C20.6592 8.93437 20.2141 8.75 19.75 8.75H12.75V1.75Z" fill="#252525"/>
</svg>
