<svg width="15" height="20" viewBox="0 0 15 20" fill="none" xmlns="http://www.w3.org/2000/svg">
<g clip-path="url(#clip0_963_51540)">
<mask id="mask0_963_51540" style="mask-type:luminance" maskUnits="userSpaceOnUse" x="0" y="0" width="15" height="19">
<path d="M15 0.7248H0V18.994H15V0.7248Z" fill="white"/>
</mask>
<g mask="url(#mask0_963_51540)">
<path d="M7.06031 0.7248C7.06997 3.62875 7.07962 6.53269 7.0896 9.52464C7.63097 9.39836 8.1724 9.27215 8.73021 9.142C8.75923 9.142 8.78825 9.142 8.81812 9.142C8.81773 9.11204 8.81734 9.08216 8.81694 9.05124C8.80781 8.32069 8.8011 7.59021 8.79686 6.85963C8.79477 6.50632 8.79184 6.15304 8.78714 5.79976C8.78303 5.49166 8.78042 5.1836 8.77951 4.87547C8.77899 4.71245 8.77775 4.54952 8.77475 4.38653C8.77194 4.23275 8.7711 4.0791 8.77168 3.92529C8.77162 3.86918 8.77077 3.81308 8.76921 3.757C8.76138 3.46491 8.77912 3.26417 8.96212 3.03909C9.03249 2.96016 9.10514 2.88497 9.18066 2.81186C9.24073 2.75315 9.2959 2.69008 9.35094 2.62585C9.59994 2.35999 10.2374 1.68131 10.6052 1.68131C10.6052 4.00657 10.6052 6.33183 10.6052 8.72759C10.7599 8.68549 10.9146 8.6434 11.074 8.59999C11.2096 8.56711 11.3452 8.53481 11.4813 8.50361C11.5378 8.49052 11.5378 8.49052 11.5955 8.47715C11.6971 8.45362 11.7988 8.43024 11.9005 8.40685C12.0074 8.38222 12.1143 8.35745 12.2213 8.33275C12.4003 8.29146 12.5793 8.25017 12.7584 8.20896C12.9654 8.16131 13.1723 8.11359 13.3792 8.06573C13.579 8.01962 13.7788 7.97351 13.9786 7.92747C14.0634 7.90788 14.1483 7.8883 14.2331 7.86871C14.351 7.84146 14.469 7.81434 14.5869 7.7872C14.6397 7.77498 14.6397 7.77498 14.6936 7.76252C14.7256 7.75519 14.7575 7.74787 14.7905 7.74031C14.8183 7.73389 14.8462 7.72748 14.8749 7.72086C14.9411 7.70728 14.9411 7.70728 14.9997 7.70728C15.0067 7.93419 14.9826 8.14071 14.9411 8.36286C14.9348 8.39721 14.9284 8.43162 14.9219 8.46699C14.8398 8.88792 14.7241 9.30855 14.5622 9.70185C14.55 9.73152 14.55 9.73152 14.5376 9.76184C14.4606 9.86861 14.3187 9.88754 14.2017 9.9145C14.1563 9.9251 14.1563 9.9251 14.1099 9.93591C14.077 9.94344 14.0441 9.95097 14.0101 9.95871C13.9752 9.96675 13.9402 9.97486 13.9042 9.98319C13.8087 10.0053 13.7131 10.0273 13.6175 10.0492C13.5376 10.0675 13.4578 10.0859 13.3779 10.1044C13.1895 10.1478 13.0011 10.1911 12.8126 10.2344C12.6183 10.2789 12.4241 10.3237 12.2298 10.3685C12.0629 10.4071 11.896 10.4456 11.729 10.4839C11.6293 10.5068 11.5297 10.5297 11.4301 10.5528C11.319 10.5784 11.2079 10.6038 11.0968 10.6293C11.0639 10.6369 11.0309 10.6445 10.997 10.6524C10.9666 10.6593 10.9364 10.6662 10.9051 10.6733C10.8657 10.6823 10.8657 10.6823 10.8256 10.6915C10.7517 10.7043 10.7517 10.7043 10.6052 10.7043C10.6052 11.3462 10.6052 11.988 10.6052 12.6492C10.8566 12.5861 11.108 12.523 11.3669 12.4579C11.5047 12.4248 11.6426 12.392 11.7806 12.3601C11.8154 12.352 11.8503 12.3439 11.8863 12.3355C11.9979 12.3096 12.1095 12.2837 12.2211 12.2579C12.3 12.2396 12.3789 12.2212 12.4578 12.203C12.6213 12.1651 12.7848 12.1271 12.9483 12.0893C13.1371 12.0456 13.3259 12.0018 13.5147 11.958C13.6978 11.9154 13.8808 11.873 14.0639 11.8306C14.1414 11.8126 14.2188 11.7946 14.2963 11.7766C14.4037 11.7517 14.5111 11.7268 14.6185 11.702C14.6665 11.6909 14.6665 11.6909 14.7155 11.6795C14.7446 11.6727 14.7736 11.666 14.8035 11.6591C14.8289 11.6533 14.8542 11.6474 14.8803 11.6414C14.9411 11.629 14.9411 11.629 14.9997 11.629C15.0063 11.8537 14.9837 12.0584 14.943 12.2785C14.9367 12.3127 14.9304 12.3467 14.924 12.3818C14.8448 12.7877 14.7292 13.1877 14.5896 13.5738C14.5814 13.6052 14.5732 13.6366 14.5647 13.6689C14.4642 13.8224 14.3291 13.8274 14.1651 13.8623C14.1128 13.8743 14.1128 13.8743 14.0594 13.8867C13.9633 13.9087 13.8671 13.9301 13.7707 13.9511C13.6681 13.9738 13.5656 13.9973 13.4631 14.0208C13.2669 14.0656 13.0705 14.1095 12.8741 14.1531C12.6578 14.2011 12.4417 14.25 12.2256 14.299C11.9495 14.3616 11.6735 14.4241 11.3973 14.486C10.7438 14.6326 10.091 14.7829 9.43853 14.9351C9.38323 14.948 9.32792 14.9609 9.27262 14.9738C9.20544 14.9895 9.13827 15.0052 9.0711 15.0209C9.04181 15.0278 9.0126 15.0346 8.9824 15.0416C8.9569 15.0476 8.93134 15.0536 8.90505 15.0597C8.8474 15.0723 8.8474 15.0723 8.81812 15.0723C8.81812 13.7782 8.81812 12.484 8.81812 11.1507C8.27668 11.2769 7.73531 11.4032 7.17744 11.5333C7.13884 11.5333 7.10016 11.5333 7.06031 11.5333C7.0609 11.5776 7.0609 11.5776 7.06149 11.6227C7.06501 11.9023 7.06768 12.1817 7.06938 12.4613C7.07029 12.605 7.07153 12.7486 7.07355 12.8923C7.07544 13.0312 7.07649 13.1702 7.07694 13.3091C7.07727 13.3618 7.07792 13.4145 7.0789 13.4672C7.08477 13.8057 7.05784 14.0462 6.88449 14.339C6.86968 14.3652 6.85481 14.3916 6.83955 14.4186C6.79501 14.4953 6.7487 14.5704 6.70149 14.6453C6.68466 14.6724 6.6679 14.6995 6.65055 14.7273C6.61533 14.784 6.57999 14.8405 6.54457 14.897C6.49084 14.9827 6.43745 15.0685 6.38411 15.1545C6.34955 15.2099 6.31498 15.2654 6.28037 15.3208C6.26468 15.346 6.24899 15.3712 6.23282 15.3972C6.08589 15.6311 5.93573 15.8699 5.74193 16.0608C5.72403 16.0784 5.70613 16.0961 5.68768 16.1143C5.3379 16.4368 4.8794 16.5033 4.44394 16.6014C4.37843 16.6165 4.31293 16.6315 4.24743 16.6466C4.10675 16.679 3.96603 16.7112 3.82529 16.7432C3.59902 16.7949 3.37291 16.8475 3.14684 16.9001C3.10795 16.9091 3.06906 16.9182 3.03017 16.9273C2.97138 16.941 2.9126 16.9547 2.85382 16.9684C2.63685 17.0189 2.41985 17.0692 2.20284 17.1196C2.14345 17.1333 2.08406 17.1471 2.02468 17.1609C1.98491 17.1701 1.94516 17.1793 1.9054 17.1885C1.74161 17.2265 1.57784 17.2645 1.41406 17.3026C1.25358 17.3398 1.0931 17.377 0.932611 17.4143C0.837869 17.4362 0.743128 17.4582 0.648397 17.4802C0.544522 17.5043 0.440639 17.5285 0.336754 17.5525C0.290301 17.5633 0.290301 17.5633 0.242909 17.5744C0.214954 17.5808 0.186999 17.5873 0.158197 17.5939C0.133807 17.5996 0.109418 17.6053 0.0842882 17.6111C0.0290372 17.623 0.0290371 17.623 -0.00025975 17.623C-0.00826604 17.3924 0.0123588 17.1809 0.056503 16.9555C0.0627673 16.9231 0.0690318 16.8906 0.0754858 16.8572C0.157287 16.4566 0.272457 16.0603 0.409896 15.6782C0.42091 15.6461 0.431923 15.6141 0.44327 15.5811C0.497787 15.4868 0.497787 15.4868 0.586998 15.4455C0.623893 15.4373 0.660791 15.429 0.6988 15.4206C0.71933 15.4157 0.739861 15.4109 0.761011 15.4059C0.829698 15.39 0.898554 15.3753 0.96745 15.3606C1.01655 15.3495 1.06564 15.3382 1.11472 15.3269C1.2475 15.2966 1.38046 15.2672 1.51346 15.2381C1.65195 15.2076 1.79026 15.1761 1.92858 15.1448C2.12843 15.0995 2.32833 15.0544 2.52829 15.0097C2.88825 14.9293 3.24769 14.8463 3.60692 14.762C3.65827 14.7499 3.70961 14.7379 3.76096 14.7259C3.93277 14.6856 4.10458 14.6454 4.27637 14.6049C4.41345 14.5728 4.55055 14.5407 4.68769 14.5088C4.729 14.4992 4.7703 14.4896 4.81159 14.4798C4.86772 14.4666 4.92388 14.4535 4.98004 14.4405C5.01139 14.4332 5.04274 14.4258 5.07504 14.4183C5.15599 14.4028 5.15599 14.4028 5.27318 14.4028C5.26351 13.6032 5.25384 12.8035 5.24388 11.9797C4.56656 12.136 4.56656 12.136 3.88924 12.2924C3.61279 12.3561 3.33633 12.4199 3.05988 12.4837C2.85848 12.5302 2.65708 12.5768 2.45568 12.6232C2.3492 12.6478 2.24273 12.6724 2.13625 12.697C2.01692 12.7245 1.89758 12.7521 1.77825 12.7796C1.72622 12.7916 1.72622 12.7916 1.67314 12.8038C1.64004 12.8115 1.60694 12.8192 1.57283 12.827C1.52477 12.838 1.52477 12.838 1.47573 12.8493C1.40567 12.8656 1.33567 12.8824 1.26575 12.8994C1.21126 12.9126 1.21126 12.9126 1.15567 12.926C1.12293 12.934 1.09018 12.9421 1.05645 12.9504C0.975074 12.9663 0.902441 12.9716 0.820052 12.968C0.835248 12.7162 0.862404 12.4719 0.909772 12.2248C0.91598 12.1923 0.922189 12.1598 0.928587 12.1263C1.00046 11.7701 1.10735 11.426 1.23021 11.0869C1.24001 11.0487 1.2498 11.0105 1.2599 10.9711C1.32252 10.8556 1.33033 10.8467 1.44066 10.8114C1.49387 10.7987 1.54731 10.787 1.60088 10.7762C1.6305 10.7694 1.66012 10.7626 1.69065 10.7556C1.7903 10.733 1.89018 10.7117 1.9901 10.6904C2.06045 10.6746 2.13078 10.6589 2.2011 10.6429C2.33591 10.6126 2.47076 10.5826 2.60569 10.5529C2.8878 10.4909 3.16937 10.4263 3.45084 10.3609C3.57827 10.3313 3.70573 10.3018 3.83317 10.2723C3.85826 10.2664 3.88334 10.2607 3.90918 10.2547C3.98482 10.2371 4.06046 10.2197 4.1361 10.2021C4.16111 10.1964 4.18612 10.1906 4.21189 10.1846C4.35682 10.1511 4.50179 10.1177 4.64679 10.0846C4.69131 10.0744 4.73582 10.0642 4.78032 10.0539C4.84148 10.0397 4.90267 10.0257 4.96387 10.0118C4.9983 10.0039 5.03274 9.99598 5.06822 9.9878C5.15599 9.97099 5.15599 9.97099 5.27318 9.97099C5.27282 9.91231 5.27282 9.91231 5.27244 9.85239C5.26673 8.92256 5.26238 7.99265 5.25971 7.06281C5.25939 6.94829 5.25904 6.83375 5.2587 6.71922C5.25859 6.68502 5.25859 6.68502 5.25849 6.65013C5.25734 6.28128 5.25526 5.91245 5.25283 5.54361C5.25037 5.16495 5.24891 4.78629 5.24837 4.40762C5.24804 4.19501 5.24722 3.98242 5.2453 3.76981C5.24351 3.56961 5.24296 3.36944 5.24336 3.16922C5.24328 3.09583 5.24276 3.02244 5.24175 2.94906C5.23357 2.32545 5.23357 2.32545 5.40071 2.12136C5.44528 2.0799 5.49061 2.03937 5.53685 2.00014C5.57071 1.95847 5.60385 1.91608 5.63572 1.87261C5.88898 1.5578 6.6306 0.7248 7.06031 0.7248Z" fill="black"/>
<path d="M14.9994 15.5507C15.006 15.7754 14.9833 15.9802 14.9426 16.2004C14.9363 16.2344 14.93 16.2685 14.9236 16.3036C14.8444 16.7094 14.7289 17.1094 14.5892 17.4956C14.5782 17.5276 14.5672 17.5597 14.5558 17.5926C14.5013 17.6869 14.5013 17.6869 14.412 17.7282C14.375 17.7364 14.338 17.7446 14.2999 17.7531C14.2792 17.7579 14.2586 17.7628 14.2372 17.7677C14.1678 17.7837 14.0981 17.7986 14.0284 17.8135C13.9783 17.8248 13.9282 17.8362 13.8781 17.8477C13.7696 17.8723 13.661 17.8965 13.5523 17.9202C13.3795 17.9581 13.2069 17.997 13.0342 18.0361C12.8507 18.0776 12.6671 18.119 12.4834 18.1601C12.0055 18.2669 11.5283 18.3769 11.0512 18.4883C11.0166 18.4964 10.9819 18.5046 10.9462 18.5129C10.7739 18.5532 10.6016 18.5934 10.4292 18.6337C10.1329 18.703 9.83657 18.7722 9.54022 18.8411C9.45224 18.8615 9.36433 18.8821 9.27642 18.9027C9.22379 18.9149 9.17122 18.9272 9.11859 18.9394C9.08272 18.9478 9.08272 18.9478 9.04614 18.9563C8.88296 18.9941 8.88296 18.9941 8.81774 18.9941C8.80959 18.7763 8.83972 18.5776 8.87996 18.3645C8.88655 18.3295 8.89307 18.2945 8.89985 18.2584C8.9427 18.0369 8.99122 17.8183 9.05024 17.6013C9.05657 17.5776 9.0629 17.5541 9.06942 17.5299C9.08272 17.4831 9.0974 17.4368 9.11344 17.3911C9.14292 17.3026 9.14292 17.3026 9.15524 17.1994C9.18681 17.0599 9.21824 16.9577 9.31574 16.8579C9.54264 16.732 9.80729 16.696 10.0556 16.6461C10.1582 16.6249 10.2604 16.6016 10.3625 16.5785C10.558 16.5346 10.7538 16.4927 10.9498 16.4516C11.1655 16.4062 11.3809 16.3589 11.5963 16.3112C11.8715 16.2504 12.1468 16.1898 12.4224 16.1305C13.0948 15.9857 13.7654 15.8324 14.4356 15.6755C14.4715 15.6671 14.5075 15.6586 14.5446 15.65C14.6118 15.6342 14.679 15.6184 14.7462 15.6026C14.7755 15.5957 14.8048 15.5888 14.835 15.5817C14.8605 15.5757 14.8861 15.5696 14.9124 15.5634C14.9701 15.5507 14.9701 15.5507 14.9994 15.5507Z" fill="black"/>
</g>
</g>
<defs>
<clipPath id="clip0_963_51540">
<rect width="15" height="19" fill="white" transform="translate(0 0.5)"/>
</clipPath>
</defs>
</svg>
