<svg width="13" height="16" viewBox="0 0 13 16" fill="none" xmlns="http://www.w3.org/2000/svg">
<path d="M12.4647 0.80731C12.5703 0.871784 12.656 0.9644 12.712 1.07478C12.768 1.18517 12.7921 1.30896 12.7817 1.4323L11.6597 14.8017C11.6491 14.9271 11.6031 15.0469 11.5273 15.1473C11.4514 15.2477 11.3486 15.3246 11.2309 15.3691C11.1131 15.4135 10.9852 15.4237 10.8619 15.3985C10.7386 15.3733 10.6249 15.3137 10.5341 15.2266L6.21097 11.0677L0.533862 9.13148C0.414695 9.09075 0.309501 9.0171 0.230463 8.91905C0.151424 8.82101 0.101772 8.70258 0.0872575 8.57748C0.0727426 8.45238 0.0939578 8.32573 0.148447 8.2122C0.202936 8.09866 0.28847 8.00288 0.395145 7.93594L11.7639 0.811924C11.8688 0.746175 11.9899 0.710919 12.1136 0.710104C12.2374 0.709289 12.359 0.742948 12.4647 0.80731ZM7.41379 10.3752L10.4485 13.2945L11.2172 4.13493L7.41379 10.3752ZM10.0787 3.441L2.28985 8.32174L6.27526 9.68125L10.0787 3.441Z" fill="#555555"/>
</svg>
