<svg width="20" height="18" viewBox="0 0 20 18" fill="none" xmlns="http://www.w3.org/2000/svg">
<path d="M7.15587 5.82878L9.32087 1.46878C9.38389 1.3426 9.48082 1.23647 9.60078 1.1623C9.72074 1.08812 9.85899 1.04883 10 1.04883C10.1411 1.04883 10.2793 1.08812 10.3993 1.1623C10.5193 1.23647 10.6162 1.3426 10.6792 1.46878L12.8442 5.82878L17.6842 6.53211C17.8238 6.55147 17.9552 6.60969 18.0633 6.70012C18.1714 6.79055 18.2519 6.90956 18.2956 7.04355C18.3393 7.17754 18.3444 7.32112 18.3105 7.45791C18.2765 7.59469 18.2047 7.71916 18.1034 7.81711L14.6017 11.2088L15.4284 16.0004C15.5342 16.6154 14.8842 17.0838 14.3284 16.7938L10 14.5304L5.67087 16.7938C5.11587 17.0846 4.46587 16.6154 4.5717 15.9996L5.39837 11.2079L1.8967 7.81628C1.79586 7.71826 1.72453 7.59391 1.69084 7.45737C1.65714 7.32084 1.66243 7.17758 1.70609 7.0439C1.74976 6.91022 1.83005 6.79146 1.93784 6.70114C2.04564 6.61082 2.17661 6.55254 2.31587 6.53295L7.15587 5.82878Z" stroke="#808080" stroke-width="2" stroke-linecap="round" stroke-linejoin="round"/>
</svg>
