<svg width="260" height="56" viewBox="0 0 260 56" fill="none" xmlns="http://www.w3.org/2000/svg">
<g style="mix-blend-mode:multiply" opacity="0.41">
<path d="M129.974 55.1718C201.757 55.1718 259.948 51.9108 259.948 47.8881C259.948 43.8655 201.757 40.6045 129.974 40.6045C58.1913 40.6045 0 43.8655 0 47.8881C0 51.9108 58.1913 55.1718 129.974 55.1718Z" fill="#CFCFCF"/>
</g>
<path d="M191.444 47.4117L163.769 47.525C162.96 47.5281 162.179 47.2316 161.576 46.6926C160.973 46.1536 160.591 45.4104 160.504 44.6064L156.221 5.24447L198.753 5.06836L194.683 44.4744C194.601 45.2774 194.225 46.0217 193.627 46.5639C193.029 47.1062 192.251 47.4082 191.444 47.4117Z" fill="#24A19C"/>
<g style="mix-blend-mode:overlay" opacity="0.47">
<path d="M156.221 5.24599L157.038 12.7938C170.398 12.3661 184.846 12.7938 197.457 17.6559L198.753 5.07617L156.221 5.24599Z" fill="black"/>
</g>
<path d="M199.527 0H155.447C154.548 0 153.818 0.729359 153.818 1.62907V8.2586C153.818 9.15831 154.548 9.88767 155.447 9.88767H199.527C200.427 9.88767 201.156 9.15831 201.156 8.2586V1.62907C201.156 0.729359 200.427 0 199.527 0Z" fill="#24A19C"/>
</svg>
