<svg width="18" height="25" viewBox="0 0 18 25" fill="none" xmlns="http://www.w3.org/2000/svg">
<g clip-path="url(#clip0_916_15708)">
<mask id="mask0_916_15708" style="mask-type:luminance" maskUnits="userSpaceOnUse" x="0" y="0" width="18" height="24">
<path d="M18 0.78418H0V23.8611H18V0.78418Z" fill="white"/>
</mask>
<g mask="url(#mask0_916_15708)">
<path d="M8.47472 0.78418C8.4863 4.45232 8.49788 8.12046 8.50986 11.8998C9.1595 11.7403 9.80922 11.5808 10.4786 11.4164C10.5134 11.4164 10.5482 11.4164 10.5841 11.4164C10.5836 11.3786 10.5831 11.3408 10.5827 11.3018C10.5717 10.379 10.5637 9.45628 10.5586 8.53344C10.5561 8.08715 10.5525 7.64091 10.5469 7.19465C10.542 6.80548 10.5388 6.41634 10.5378 6.02713C10.5371 5.82121 10.5356 5.6154 10.532 5.40952C10.5287 5.21527 10.5277 5.02119 10.5284 4.82691C10.5283 4.75603 10.5273 4.68516 10.5254 4.61432C10.516 4.24537 10.5373 3.99181 10.7569 3.70749C10.8413 3.60779 10.9285 3.51282 11.0191 3.42047C11.0912 3.34631 11.1574 3.26664 11.2235 3.18551C11.5223 2.84969 12.2873 1.9924 12.7286 1.9924C12.7286 4.92957 12.7286 7.86674 12.7286 10.893C12.9142 10.8398 13.0999 10.7866 13.2911 10.7318C13.4539 10.6903 13.6166 10.6495 13.7799 10.61C13.8477 10.5935 13.8477 10.5935 13.9169 10.5766C14.0389 10.5469 14.1609 10.5174 14.2829 10.4878C14.4113 10.4567 14.5395 10.4254 14.6679 10.3942C14.8827 10.3421 15.0975 10.2899 15.3124 10.2379C15.5608 10.1777 15.8091 10.1174 16.0574 10.0569C16.2971 9.99869 16.5369 9.94044 16.7766 9.88229C16.8785 9.85755 16.9803 9.83281 17.0821 9.80807C17.2236 9.77364 17.3652 9.73939 17.5067 9.70511C17.57 9.68968 17.57 9.68968 17.6347 9.67393C17.673 9.66467 17.7114 9.65542 17.7509 9.64588C17.7843 9.63777 17.8177 9.62967 17.8522 9.62131C17.9317 9.60415 17.9317 9.60415 18.002 9.60415C18.0103 9.89078 17.9815 10.1516 17.9317 10.4323C17.9241 10.4756 17.9164 10.5191 17.9086 10.5638C17.8101 11.0955 17.6713 11.6268 17.477 12.1236C17.4624 12.1611 17.4624 12.1611 17.4474 12.1994C17.3551 12.3343 17.1848 12.3582 17.0444 12.3922C16.9899 12.4056 16.9899 12.4056 16.9343 12.4193C16.8947 12.4288 16.8552 12.4383 16.8145 12.4481C16.7726 12.4582 16.7306 12.4685 16.6874 12.479C16.5728 12.507 16.4581 12.5347 16.3434 12.5623C16.2475 12.5855 16.1517 12.6088 16.0559 12.632C15.8298 12.687 15.6037 12.7416 15.3775 12.7963C15.1443 12.8525 14.9112 12.9091 14.6781 12.9657C14.4779 13.0145 14.2775 13.063 14.0771 13.1115C13.9575 13.1404 13.8379 13.1694 13.7184 13.1984C13.5852 13.2308 13.4518 13.263 13.3185 13.2951C13.279 13.3047 13.2395 13.3144 13.1987 13.3243C13.1623 13.333 13.126 13.3417 13.0885 13.3507C13.0412 13.3621 13.0412 13.3621 12.993 13.3737C12.9044 13.3899 12.9044 13.3899 12.7286 13.3899C12.7286 14.2006 12.7286 15.0114 12.7286 15.8466C13.0302 15.7669 13.3319 15.6871 13.6427 15.605C13.808 15.5632 13.9734 15.5216 14.139 15.4814C14.1809 15.4711 14.2227 15.4609 14.2659 15.4504C14.3998 15.4176 14.5338 15.3849 14.6677 15.3523C14.7624 15.3292 14.857 15.306 14.9517 15.2829C15.1479 15.235 15.3441 15.1871 15.5403 15.1394C15.7668 15.0841 15.9935 15.0288 16.22 14.9734C16.4397 14.9197 16.6593 14.8661 16.879 14.8125C16.972 14.7898 17.0649 14.7671 17.1579 14.7444C17.2867 14.7128 17.4156 14.6815 17.5445 14.6502C17.6021 14.636 17.6021 14.636 17.6609 14.6216C17.6958 14.6131 17.7306 14.6047 17.7666 14.596C17.797 14.5886 17.8274 14.5811 17.8587 14.5735C17.9317 14.5579 17.9317 14.5579 18.002 14.5579C18.0099 14.8417 17.9828 15.1003 17.934 15.3784C17.9264 15.4215 17.9188 15.4645 17.9111 15.5088C17.8161 16.0215 17.6774 16.5268 17.5099 17.0145C17.5 17.0542 17.4901 17.0938 17.48 17.1346C17.3594 17.3286 17.1973 17.3348 17.0005 17.3789C16.9377 17.3941 16.9377 17.3941 16.8737 17.4097C16.7583 17.4376 16.6428 17.4645 16.5272 17.4911C16.404 17.5197 16.2811 17.5495 16.1581 17.5791C15.9226 17.6357 15.6869 17.6911 15.4512 17.7463C15.1917 17.8069 14.9323 17.8687 14.6731 17.9306C14.3418 18.0096 14.0105 18.0885 13.6791 18.1667C12.8949 18.3519 12.1115 18.5418 11.3286 18.734C11.2622 18.7504 11.1959 18.7666 11.1295 18.783C11.0489 18.8027 10.9683 18.8226 10.8877 18.8424C10.8525 18.8511 10.8175 18.8597 10.7812 18.8686C10.7506 18.8761 10.7199 18.8837 10.6884 18.8914C10.6192 18.9074 10.6192 18.9074 10.5841 18.9074C10.5841 17.2727 10.5841 15.6379 10.5841 13.9537C9.93436 14.1132 9.28472 14.2727 8.61528 14.437C8.56895 14.437 8.52254 14.437 8.47472 14.437C8.47542 14.493 8.47542 14.493 8.47613 14.55C8.48035 14.9031 8.48356 15.2561 8.4856 15.6092C8.48669 15.7907 8.48818 15.9722 8.49061 16.1537C8.49288 16.3291 8.49413 16.5046 8.49468 16.6801C8.49507 16.7467 8.49585 16.8133 8.49702 16.8799C8.50407 17.3074 8.47175 17.6112 8.26373 17.9811C8.24596 18.0142 8.22812 18.0475 8.20981 18.0816C8.15635 18.1785 8.10079 18.2733 8.04413 18.3679C8.02394 18.4022 8.00382 18.4364 7.98301 18.4716C7.94075 18.5431 7.89833 18.6146 7.85583 18.6859C7.79135 18.7941 7.72728 18.9026 7.66328 19.0111C7.62181 19.0812 7.58032 19.1513 7.53879 19.2212C7.51996 19.2531 7.50113 19.2849 7.48173 19.3178C7.30542 19.6132 7.12522 19.9148 6.89266 20.1559C6.87118 20.1782 6.8497 20.2005 6.82756 20.2235C6.40783 20.631 5.85763 20.7149 5.33507 20.8388C5.25646 20.8579 5.17786 20.8769 5.09926 20.8959C4.93044 20.9369 4.76158 20.9775 4.59269 21.018C4.32116 21.0833 4.04983 21.1496 3.77855 21.2161C3.73188 21.2275 3.68522 21.239 3.63855 21.2504C3.56801 21.2678 3.49746 21.2851 3.42692 21.3024C3.16657 21.3662 2.90616 21.4298 2.64576 21.4934C2.57448 21.5107 2.50322 21.5282 2.43195 21.5455C2.38424 21.5572 2.33653 21.5688 2.28882 21.5804C2.09228 21.6284 1.89575 21.6764 1.69921 21.7245C1.50665 21.7716 1.31406 21.8186 1.12148 21.8657C1.00779 21.8934 0.894097 21.9211 0.78042 21.9489C0.65577 21.9794 0.531111 22.0099 0.406449 22.0402C0.350705 22.0539 0.350705 22.0539 0.293835 22.0678C0.260289 22.0759 0.226743 22.0842 0.19218 22.0926C0.162912 22.0997 0.133645 22.1069 0.10349 22.1143C0.0371884 22.1293 0.0371883 22.1293 0.00203205 22.1293C-0.00757549 21.838 0.0171743 21.5708 0.0701473 21.2861C0.0776645 21.2452 0.085182 21.2042 0.0929267 21.162C0.191088 20.6559 0.329292 20.1554 0.494219 19.6726C0.507435 19.6322 0.520651 19.5917 0.534267 19.55C0.599689 19.431 0.599689 19.431 0.706741 19.3787C0.751015 19.3684 0.795293 19.3579 0.840903 19.3472C0.86554 19.3411 0.890176 19.3351 0.915556 19.3288C0.997981 19.3087 1.08061 19.2901 1.16328 19.2715C1.22221 19.2574 1.28111 19.2432 1.34 19.229C1.49934 19.1907 1.65889 19.1536 1.8185 19.1167C1.98469 19.0783 2.15065 19.0385 2.31665 18.9989C2.55646 18.9416 2.79634 18.8848 3.03629 18.8283C3.46825 18.7267 3.89957 18.6219 4.33065 18.5154C4.39226 18.5001 4.45388 18.485 4.51549 18.4698C4.72167 18.4189 4.92783 18.368 5.13399 18.317C5.29849 18.2764 5.46301 18.2359 5.62757 18.1956C5.67714 18.1834 5.72671 18.1712 5.77625 18.159C5.8436 18.1423 5.911 18.1257 5.97839 18.1093C6.01601 18.1001 6.05363 18.0907 6.0924 18.0812C6.18953 18.0617 6.18953 18.0617 6.33016 18.0617C6.31855 17.0516 6.30696 16.0415 6.295 15.0008C5.48222 15.1983 5.48222 15.1983 4.66943 15.3958C4.33769 15.4764 4.00595 15.557 3.6742 15.6376C3.43252 15.6963 3.19084 15.7551 2.94917 15.8138C2.82139 15.8448 2.69362 15.8758 2.56584 15.9069C2.42264 15.9417 2.27944 15.9765 2.13625 16.0113C2.07381 16.0265 2.07381 16.0265 2.01011 16.0419C1.97039 16.0516 1.93067 16.0613 1.88974 16.0711C1.83207 16.0851 1.83207 16.0851 1.77323 16.0994C1.68914 16.12 1.60515 16.1411 1.52124 16.1626C1.45585 16.1793 1.45585 16.1793 1.38915 16.1962C1.34986 16.2064 1.31056 16.2165 1.27008 16.2271C1.17243 16.2472 1.08527 16.2538 0.986406 16.2493C1.00464 15.9312 1.03723 15.6226 1.09407 15.3104C1.10152 15.2695 1.10897 15.2284 1.11665 15.1861C1.2029 14.7361 1.33116 14.3015 1.4786 13.8732C1.49035 13.8249 1.50211 13.7767 1.51422 13.7269C1.58937 13.581 1.59874 13.5698 1.73114 13.5251C1.79499 13.5091 1.85912 13.4944 1.9234 13.4807C1.95895 13.472 1.99449 13.4635 2.03112 13.4547C2.15071 13.4261 2.27056 13.3992 2.39046 13.3723C2.47488 13.3524 2.55929 13.3325 2.64367 13.3123C2.80543 13.274 2.96725 13.2361 3.12917 13.1986C3.46771 13.1203 3.80558 13.0387 4.14335 12.956C4.29627 12.9187 4.44921 12.8815 4.60215 12.8442C4.63225 12.8368 4.66235 12.8295 4.69337 12.8219C4.78412 12.7998 4.87489 12.7777 4.96566 12.7555C4.99567 12.7483 5.02568 12.741 5.05661 12.7334C5.23053 12.6911 5.40449 12.6489 5.5785 12.607C5.63192 12.5942 5.68532 12.5813 5.73873 12.5683C5.81212 12.5503 5.88554 12.5327 5.95898 12.5151C6.00031 12.5051 6.04163 12.4951 6.0842 12.4848C6.18953 12.4636 6.18953 12.4636 6.33016 12.4636C6.32972 12.3895 6.32972 12.3895 6.32928 12.3138C6.32242 11.1392 6.3172 9.96462 6.314 8.79009C6.31361 8.64543 6.31319 8.50075 6.31278 8.35608C6.31265 8.31288 6.31265 8.31288 6.31253 8.2688C6.31115 7.80289 6.30865 7.337 6.30574 6.8711C6.30278 6.39279 6.30103 5.91449 6.30039 5.43617C6.29999 5.1676 6.299 4.89907 6.2967 4.63051C6.29455 4.37762 6.29389 4.12478 6.29437 3.87187C6.29429 3.77917 6.29366 3.68647 6.29244 3.59377C6.28262 2.80605 6.28262 2.80605 6.48319 2.54826C6.53667 2.49588 6.59107 2.44469 6.64656 2.39514C6.68719 2.3425 6.72696 2.28895 6.76521 2.23404C7.06912 1.83639 7.95906 0.78418 8.47472 0.78418Z" fill="white"/>
<path d="M18.0016 19.5117C18.0095 19.7956 17.9823 20.0542 17.9334 20.3323C17.9259 20.3753 17.9184 20.4184 17.9107 20.4627C17.8156 20.9754 17.677 21.4806 17.5094 21.9684C17.4962 22.0088 17.483 22.0494 17.4693 22.091C17.4039 22.2101 17.4039 22.2101 17.2968 22.2622C17.2524 22.2726 17.208 22.283 17.1622 22.2937C17.1374 22.2998 17.1126 22.3059 17.087 22.3122C17.0037 22.3324 16.9201 22.3511 16.8364 22.3699C16.7763 22.3842 16.7162 22.3986 16.6561 22.4131C16.5258 22.4442 16.3956 22.4748 16.2651 22.5048C16.0578 22.5526 15.8506 22.6017 15.6434 22.6511C15.4231 22.7035 15.2028 22.7559 14.9824 22.8078C14.409 22.9427 13.8363 23.0816 13.2638 23.2224C13.2223 23.2326 13.1806 23.2429 13.1378 23.2534C12.931 23.3043 12.7242 23.3551 12.5174 23.406C12.1618 23.4936 11.8062 23.5809 11.4506 23.668C11.345 23.6938 11.2395 23.7198 11.134 23.7458C11.0709 23.7612 11.0078 23.7767 10.9447 23.7921C10.9016 23.8027 10.9016 23.8027 10.8577 23.8135C10.6619 23.8613 10.6619 23.8613 10.5836 23.8613C10.5739 23.5861 10.61 23.3351 10.6583 23.0659C10.6662 23.0217 10.674 22.9775 10.6822 22.932C10.7336 22.6522 10.7918 22.376 10.8626 22.1019C10.8702 22.0721 10.8778 22.0423 10.8856 22.0117C10.9016 21.9526 10.9192 21.8942 10.9385 21.8364C10.9738 21.7246 10.9738 21.7246 10.9886 21.5943C11.0265 21.4181 11.0642 21.2889 11.1812 21.1629C11.4535 21.0039 11.7711 20.9585 12.0691 20.8953C12.1922 20.8686 12.3148 20.8391 12.4374 20.8099C12.672 20.7546 12.9069 20.7017 13.1421 20.6497C13.401 20.5924 13.6594 20.5326 13.9179 20.4724C14.2482 20.3955 14.5785 20.319 14.9092 20.2441C15.7161 20.0612 16.5208 19.8676 17.325 19.6693C17.3682 19.6587 17.4114 19.6481 17.4558 19.6371C17.5365 19.6171 17.6172 19.5972 17.6978 19.5773C17.7329 19.5685 17.7681 19.5598 17.8043 19.5509C17.835 19.5433 17.8657 19.5356 17.8972 19.5278C17.9665 19.5117 17.9665 19.5117 18.0016 19.5117Z" fill="white"/>
</g>
</g>
<defs>
<clipPath id="clip0_916_15708">
<rect width="18" height="24" fill="white" transform="translate(0 0.5)"/>
</clipPath>
</defs>
</svg>
