<svg width="98" height="75" viewBox="0 0 98 75" fill="none" xmlns="http://www.w3.org/2000/svg">
<g clip-path="url(#clip0_963_46750)">
<path d="M70.7651 57.8269L65.0406 39.5959C63.6807 35.2281 60.1701 31.8414 55.7739 30.607L44.2933 25.5745C38.4423 23.0108 31.6425 24.1819 26.9934 28.5181L2.45082 51.3701C-1.21791 55.1998 -0.553734 61.4034 3.84241 64.347C5.42377 65.4231 7.353 65.9295 9.25063 65.7713L39.3279 57.3838L70.7651 57.8269Z" fill="#017772"/>
<path d="M44.1353 17.4086L42.9967 13.1673V13.1357C44.831 9.93894 44.3566 5.82431 41.6367 3.10233C38.3791 -0.157725 33.0974 -0.157725 29.8398 3.10233C26.5823 6.36238 26.5823 11.6481 29.8398 14.9081C32.5598 17.6301 36.7029 18.0732 39.8656 16.2691H39.8972L44.1353 17.4086Z" fill="white"/>
<path d="M47.4247 24.7832L44.4834 24.1502L41.1309 26.619L44.9578 36.9372L51.5362 33.5189L55.8058 39.311L55.9956 29.974L47.4247 24.7832Z" fill="white"/>
<path d="M55.8055 39.6275C55.8371 39.6275 55.8687 39.6275 55.9004 39.6275C56.0269 39.5959 56.1218 39.4693 56.1218 39.3427L56.3115 29.974C56.3115 29.7841 56.185 29.6575 55.9953 29.6575C55.8055 29.6575 55.679 29.7841 55.679 29.974L55.5208 38.3932L51.7889 33.329C51.694 33.2024 51.5358 33.1707 51.3777 33.234L45.1156 36.4941L41.5101 26.7139L44.5463 24.4984L47.3611 25.0681C47.5192 25.0997 47.709 25.0048 47.7406 24.8149C47.7722 24.6566 47.6774 24.4667 47.4876 24.4351L44.5463 23.8337C44.4514 23.8021 44.3565 23.8337 44.2933 23.897L40.9724 26.3341C40.8459 26.4291 40.8143 26.5557 40.8775 26.7139L44.6728 37.0322C44.7044 37.1271 44.7677 37.1904 44.8625 37.2221C44.9574 37.2537 45.0523 37.2537 45.1156 37.2221L51.441 33.8987L55.5525 39.5009C55.6157 39.5959 55.7106 39.6275 55.8055 39.6275Z" fill="#017772"/>
<path d="M59.8496 26.4048L53.9035 19.4162L45.5717 26.516L51.5179 33.5045L59.8496 26.4048Z" fill="white"/>
<path d="M51.5359 33.8354C51.5992 33.8354 51.6941 33.8038 51.7257 33.7721L60.0436 26.6823C60.1701 26.5557 60.2017 26.3658 60.0752 26.2392L54.1294 19.2443C54.0028 19.1177 53.8131 19.0861 53.6866 19.2127L45.3687 26.3025C45.3054 26.3658 45.2738 26.4291 45.2738 26.5241C45.2738 26.619 45.3054 26.6823 45.337 26.7456L51.2829 33.7405C51.3462 33.7721 51.4411 33.8354 51.5359 33.8354ZM59.4111 26.3658L51.5676 33.0442L46.0328 26.5241L53.8763 19.8457L59.4111 26.3658Z" fill="#017772"/>
<path d="M53.9081 19.4343L59.854 26.4291L55.7109 29.974C53.1807 28.6764 51.2831 25.7961 49.9231 22.8526L53.9081 19.4343Z" fill="#017772"/>
<path d="M68.1238 16.2683C65.5234 14.4997 64.8479 10.9563 66.6152 8.35396C68.3824 5.75158 71.9231 5.07565 74.5235 6.84422C77.1239 8.6128 77.7993 12.1562 76.0321 14.7585C74.2648 17.3609 70.7242 18.0368 68.1238 16.2683Z" fill="#017772"/>
<path d="M52.1053 8.41972C55.2996 3.60877 61.625 1.77301 66.97 4.36839L68.8676 5.28627C73.0424 7.28028 74.7819 12.3128 72.7894 16.5224L68.583 25.258C66.5588 29.436 61.5302 31.2084 57.3554 29.1828L55.8689 28.4548C50.9035 26.0493 48.3101 20.7319 49.1324 15.5728C48.1519 15.2247 47.3296 14.4651 46.8869 13.4522C46.0329 11.4899 46.9817 9.21099 48.9426 8.35641C49.9547 7.88165 51.1249 7.9766 52.1053 8.41972Z" fill="white"/>
<path d="M60.9923 30.3221C61.9727 30.3221 62.9215 30.1639 63.8703 29.8157C66.0842 29.0561 67.8237 27.4736 68.8358 25.3529L73.0738 16.6489C75.1612 12.3127 73.3268 7.09032 68.9939 5.00136L67.0963 4.08348C61.7829 1.51975 55.331 3.22891 51.9786 8.03985C50.9349 7.62839 49.7963 7.62839 48.7526 8.07151C47.7089 8.51462 46.9183 9.33754 46.5071 10.382C46.096 11.4265 46.096 12.5659 46.5387 13.6104C46.9499 14.5916 47.7406 15.3829 48.721 15.826C47.9936 21.1434 50.8084 26.4607 55.6789 28.8029L57.1654 29.5309C58.3989 30.0373 59.6956 30.3221 60.9923 30.3221ZM61.9095 3.51376C63.5857 3.51376 65.2619 3.89358 66.8433 4.6532L68.7409 5.57108C72.7259 7.50179 74.4337 12.3444 72.5045 16.3641L68.2981 25.0997C67.3493 27.0621 65.7047 28.518 63.6806 29.2144C61.6248 29.9423 59.4426 29.8157 57.5133 28.8662L56.0268 28.1382C51.346 25.891 48.6577 20.7319 49.48 15.6044C49.5117 15.4462 49.4168 15.3196 49.2903 15.2563C48.3415 14.9081 47.6141 14.2118 47.2029 13.2939C46.8234 12.4077 46.8234 11.4582 47.1713 10.5719C47.5192 9.68571 48.215 8.98938 49.0689 8.60957C50.0177 8.19811 51.093 8.22976 52.0102 8.67287C52.1683 8.73618 52.3265 8.70452 52.4214 8.57792C54.5404 5.34952 58.1775 3.51376 61.9095 3.51376Z" fill="#017772"/>
<path d="M62.1627 19.4659C61.8464 20.004 61.8781 20.6053 62.226 20.8269C62.5739 21.0168 63.1115 20.7636 63.4278 20.1939C63.744 19.6558 63.7124 19.0544 63.3645 18.8329C63.0166 18.643 62.479 18.9278 62.1627 19.4659Z" fill="#017772"/>
<path d="M67.128 22.536C66.8118 23.0741 66.8434 23.6755 67.1913 23.897C67.5392 24.0869 68.0768 23.8337 68.3931 23.264C68.7094 22.7259 68.6778 22.1246 68.3299 21.903C67.982 21.6815 67.4443 21.9663 67.128 22.536Z" fill="#017772"/>
<path d="M63.6489 25.8594C63.8071 25.8594 63.9336 25.7645 63.9652 25.6062C63.9968 25.448 63.9019 25.258 63.7122 25.2264C63.6489 25.2264 62.1308 24.8782 62.1625 23.359C62.1625 23.1691 62.0359 23.0425 61.8462 23.0425C61.6881 23.0425 61.5299 23.1691 61.5299 23.359C61.4983 25.0048 62.8899 25.7012 63.5857 25.8278C63.6173 25.8594 63.6173 25.8594 63.6489 25.8594Z" fill="#017772"/>
<path d="M66.2109 14.6866C66.2741 14.6866 66.369 14.655 66.4323 14.6233C66.5588 14.4967 66.5904 14.3068 66.4639 14.1802C66.4006 14.0852 64.7244 12.2178 62.5738 12.5976C62.4156 12.6293 62.2891 12.7876 62.3208 12.9775C62.3524 13.1357 62.5105 13.2623 62.7003 13.2307C64.5347 12.9142 65.9895 14.5917 66.0211 14.5917C66.0211 14.655 66.116 14.6866 66.2109 14.6866Z" fill="#017772"/>
<path d="M72.7576 19.4659C72.8208 19.4659 72.8525 19.4659 72.9157 19.4342C73.0738 19.3393 73.1055 19.1494 73.0106 18.9911C71.872 17.0604 69.753 17.0287 69.6581 17.0287C69.4684 17.0287 69.3419 17.1554 69.3419 17.3453C69.3419 17.5352 69.4684 17.6618 69.6581 17.6618C69.753 17.6618 71.5241 17.7251 72.4729 19.3393C72.5362 19.4026 72.6311 19.4659 72.7576 19.4659Z" fill="#017772"/>
<path d="M51.5994 14.5916C51.6942 14.5916 51.7891 14.56 51.8524 14.465C51.884 14.4017 52.9909 12.8192 52.6747 11.2999C52.5165 10.6036 52.1054 10.0022 51.4412 9.59076C51.2831 9.49581 51.0933 9.55911 50.9984 9.68571C50.9036 9.84397 50.9668 10.0339 51.0933 10.1288C51.631 10.477 51.9473 10.8885 52.0421 11.4265C52.2952 12.6926 51.3147 14.0852 51.3147 14.1169C51.2198 14.2751 51.2515 14.465 51.378 14.56C51.4728 14.5916 51.5361 14.5916 51.5994 14.5916Z" fill="#017772"/>
<path d="M62.2261 3.41882C62.3526 3.41882 62.4475 3.35552 62.5107 3.26057C63.08 2.15278 64.7563 2.31104 64.7879 2.34269C64.946 2.37434 65.1042 2.24774 65.1358 2.05783C65.1674 1.89957 65.0409 1.74132 64.8511 1.70967C64.7563 1.70967 62.7321 1.48811 61.9415 2.97571C61.8466 3.13396 61.9098 3.32387 62.068 3.41882C62.1312 3.38717 62.1628 3.41882 62.2261 3.41882Z" fill="#017772"/>
<path d="M62.479 2.72251C62.6055 2.72251 62.732 2.65921 62.7637 2.5326C63.1116 1.70968 62.6372 1.10831 62.3525 0.918401C62.1944 0.823448 62.0046 0.855099 61.9097 1.01335C61.8149 1.17161 61.8465 1.36151 62.0046 1.45647C62.0679 1.51977 62.4158 1.77298 62.1944 2.31104C62.1311 2.4693 62.1944 2.65921 62.3842 2.72251C62.4158 2.72251 62.4474 2.72251 62.479 2.72251Z" fill="#017772"/>
<path d="M61.6251 8.64127C63.3013 6.48901 65.7682 5.31792 68.4565 5.09636L63.8074 2.84914C59.6959 0.85513 54.7937 2.59593 52.8012 6.71056L51.9789 8.38806C52.8328 8.76788 53.5602 9.4642 53.9714 10.4137C54.7304 12.1862 54.0663 14.1802 52.5165 15.193C53.4337 15.6678 54.5407 15.3513 55.0467 14.4334L56.375 12.0912L57.1657 11.9646C58.3992 11.7747 59.5061 11.1734 60.2968 10.2238L61.3721 8.95778C61.467 8.86283 61.5302 8.76788 61.6251 8.64127Z" fill="#017772"/>
<path d="M65.2251 7.78819C64.9735 5.77617 66.3994 3.94095 68.4099 3.68913C70.4204 3.43731 72.2542 4.86423 72.5058 6.87626C72.7574 8.88828 71.3316 10.7235 69.3211 10.9753C67.3106 11.2271 65.4768 9.80021 65.2251 7.78819Z" fill="#017772"/>
<path d="M59.9976 7.83005C59.7307 5.69661 61.2426 3.75065 63.3744 3.48363C65.5063 3.21661 67.4508 4.72964 67.7176 6.86308C67.9844 8.99652 66.4725 10.9425 64.3407 11.2095C62.2089 11.4765 60.2644 9.96348 59.9976 7.83005Z" fill="#017772"/>
<path d="M69.4368 26.714C70.2275 26.714 71.0182 26.4924 71.6823 26.0177C72.5995 25.4163 73.2321 24.4984 73.4218 23.4223C73.6432 22.3461 73.4218 21.2384 72.8209 20.3521C72.22 19.4342 71.3028 18.8012 70.2275 18.6113C69.1522 18.3898 68.0452 18.6113 67.1597 19.2127C66.2425 19.8141 65.61 20.7319 65.4202 21.8081C65.1988 22.8842 65.4202 23.992 66.0211 24.8782C66.622 25.7961 67.5392 26.4291 68.6145 26.619C68.8675 26.6823 69.1522 26.714 69.4368 26.714ZM69.4052 19.1177C69.6266 19.1177 69.8796 19.1494 70.101 19.181C71.0182 19.3709 71.7772 19.8774 72.3149 20.6686C72.8209 21.4283 73.0107 22.3778 72.8209 23.264C72.6311 24.1819 72.1251 24.9415 71.3344 25.4796C70.5754 25.986 69.6266 26.1759 68.741 25.986C67.8238 25.7961 67.0648 25.2897 66.5271 24.4984C66.0211 23.7388 65.8313 22.7893 66.0211 21.903C66.2109 21.0168 66.7169 20.2255 67.5076 19.6875C68.0769 19.3393 68.741 19.1177 69.4052 19.1177Z" fill="white"/>
<path d="M61.973 21.998C62.7636 21.998 63.5543 21.7764 64.2185 21.3016C65.1357 20.7003 65.7682 19.7824 65.958 18.7063C66.1793 17.6301 65.958 16.5224 65.357 15.6361C64.7561 14.7182 63.8389 14.0852 62.7636 13.8953C61.6883 13.6738 60.5814 13.8953 59.6958 14.4967C58.7786 15.0981 58.1461 16.0159 57.9563 17.0921C57.7349 18.1682 57.9563 19.276 58.5572 20.1622C59.1582 21.0801 60.0753 21.7131 61.1507 21.903C61.4353 21.9663 61.6883 21.998 61.973 21.998ZM61.973 14.4334C62.1943 14.4334 62.4474 14.465 62.6687 14.4967C63.5859 14.6866 64.345 15.193 64.8826 15.9843C65.3887 16.7439 65.5784 17.6934 65.3887 18.5797C65.1989 19.4975 64.6929 20.2572 63.9022 20.7952C63.1432 21.3016 62.1943 21.4916 61.3088 21.3016C60.3916 21.1117 59.6326 20.6053 59.0949 19.8141C58.5889 19.0544 58.3991 18.1049 58.5889 17.2187C58.7786 16.3008 59.2847 15.5412 60.0753 15.0031C60.613 14.6233 61.2772 14.4334 61.973 14.4334Z" fill="white"/>
<path d="M59.3163 15.5095C59.4112 15.5095 59.5377 15.4462 59.6009 15.3513C59.6958 15.193 59.6326 15.0031 59.4744 14.9081L54.6039 12.1229C54.4457 12.0279 54.256 12.0912 54.1611 12.2495C54.0662 12.4077 54.1295 12.5976 54.2876 12.6926L59.1582 15.4779C59.1898 15.5095 59.253 15.5095 59.3163 15.5095Z" fill="white"/>
<path d="M66.8435 20.2255C66.97 20.2255 67.0649 20.1622 67.1281 20.0356C67.1914 19.8774 67.1281 19.6875 66.97 19.6242L65.7365 19.0228C65.5784 18.9595 65.3886 19.0228 65.3254 19.181C65.2621 19.3393 65.3254 19.5292 65.4835 19.5925L66.717 20.1939C66.7802 20.2255 66.8118 20.2255 66.8435 20.2255Z" fill="white"/>
<path d="M31.6424 35.2914H37.272V28.3915H31.6424V35.2914ZM36.6394 34.6584H32.2749V29.0245H36.6394V34.6584Z" fill="#FAB333"/>
<path d="M23.3563 35.2914H29.0176V19.9723H23.3563V35.2914ZM28.385 34.6583H23.9889V20.6053H28.385V34.6583Z" fill="#FAB333"/>
<path d="M15.1015 35.2914H20.7627V23.9287H15.1015V35.2914ZM20.1302 34.6584H15.734V24.5617H20.1302V34.6584Z" fill="#FAB333"/>
<path d="M6.84696 35.2914H12.4766V16.5856H6.84696V35.2914ZM11.844 34.6583H7.4795V17.2187H11.844V34.6583Z" fill="#FAB333"/>
<path d="M21.6799 11.6165H30.9149C31.2945 11.6165 31.5791 11.9013 31.5791 12.2811V16.1109C31.5791 16.4907 31.2945 16.7756 30.9149 16.7756H27.2146L26.9616 17.187L26.2974 18.3265L25.6332 17.187L25.3802 16.7756H21.6799C21.3003 16.7756 21.0157 16.4907 21.0157 16.1109V12.2811C21.0157 11.9013 21.332 11.6165 21.6799 11.6165Z" fill="#FAB333"/>
<path d="M28.7959 13.927H23.8305V14.56H28.7959V13.927Z" fill="white"/>
<path d="M38.5688 34.6584H4.47495V35.2914H38.5688V34.6584Z" fill="#FAB333"/>
<path d="M49.607 74.3487L33.667 64.347C32.1173 63.3658 32.402 61.0553 34.1414 60.4855L62.1946 51.0535C62.669 50.8953 63.2066 50.8953 63.681 51.0852L80.728 57.8269C82.4991 58.5232 82.5624 61.0553 80.7912 61.8149L51.6312 74.5069C50.967 74.7918 50.2079 74.7285 49.607 74.3487Z" fill="#FAB333"/>
<path d="M50.0183 72.2913C50.1132 72.2913 50.2397 72.228 50.3029 72.1331C50.3978 71.9748 50.3346 71.7849 50.2081 71.69L34.7425 62.3846C34.5843 62.2896 34.3946 62.3529 34.2997 62.4795C34.2048 62.6378 34.2681 62.8277 34.3946 62.9227L49.8602 72.228C49.9234 72.2597 49.955 72.2913 50.0183 72.2913Z" fill="white"/>
<path d="M53.845 68.335L66.1163 43.5839C66.4325 42.9509 67.0018 42.4445 67.666 42.2229L93.5052 33.5189C95.7824 32.7593 97.8381 35.1331 96.7628 37.2854L85.9464 58.8397C85.6617 59.4094 85.1873 59.8525 84.6181 60.1057L57.324 72.0065C55.0468 73.0193 52.738 70.5822 53.845 68.335Z" fill="#FAB333"/>
<path d="M53.5602 72.0698C53.6867 72.0698 53.7816 72.0065 53.8448 71.9116L67.7923 44.6601C67.8872 44.5018 67.824 44.3119 67.6658 44.2486C67.5077 44.1536 67.3179 44.2169 67.2547 44.3752L53.2755 71.6267C53.1807 71.785 53.2439 71.9749 53.402 72.0382C53.4337 72.0382 53.4969 72.0698 53.5602 72.0698Z" fill="white"/>
<path d="M77.344 56.4658C78.3244 56.4658 79.3997 55.8328 80.0639 54.725C81.0127 53.2058 80.8862 51.4017 79.7793 50.7054C78.6723 50.009 76.9645 50.6421 76.0157 52.1613C75.0668 53.6806 75.1934 55.4847 76.3003 56.181C76.6166 56.3709 76.9645 56.4658 77.344 56.4658ZM78.7356 51.0535C78.9886 51.0535 79.2416 51.1168 79.4314 51.2434C80.2537 51.7815 80.2853 53.1741 79.5263 54.3769C78.7672 55.5796 77.4705 56.1493 76.6482 55.6113C75.8259 55.0732 75.7943 53.6806 76.5533 52.4778C77.1226 51.5916 78.0082 51.0535 78.7356 51.0535Z" fill="white"/>
<path d="M43.7243 56.5292C44.009 58.3016 42.5225 59.9791 40.4667 60.2956C38.3794 60.6121 36.4817 59.4411 36.1971 57.7003C35.9124 55.9278 37.3989 54.2503 39.4547 53.9338C41.5421 53.5856 43.4713 54.7567 43.7243 56.5292Z" fill="white"/>
<path d="M41.3836 58.7131C42.617 59.9475 42.9333 61.1819 42.9333 61.2452C42.9966 61.53 43.1863 61.8149 43.3761 61.9732C43.6924 62.258 44.1668 62.3846 44.6095 62.2897C45.3686 62.0998 45.843 61.3718 45.6849 60.6122C45.6532 60.5172 45.2421 58.7448 43.5975 56.9407C45.9062 59.0613 46.4755 61.4667 46.5072 61.4984C46.5704 61.8149 46.7286 62.0681 46.9499 62.258C47.2662 62.5429 47.7406 62.6695 48.1834 62.5745C48.9424 62.3846 49.4168 61.6566 49.2587 60.897C49.2587 60.8654 49.1638 60.4856 48.9741 59.9791C49.2903 60.4856 49.4485 60.8021 49.4485 60.8337C49.5434 61.0553 49.6699 61.2135 49.828 61.3718C50.2075 61.7199 50.7768 61.8149 51.2828 61.5933C52.0103 61.3085 52.3582 60.4856 52.0419 59.7576C52.0103 59.6626 51.4726 58.4282 50.2391 56.9723C51.0298 57.4787 51.5042 57.8585 51.5042 57.8902C52.1051 58.3966 52.9907 58.3333 53.4967 57.7319C54.0028 57.1306 53.9395 56.2443 53.3386 55.7379C53.1805 55.6113 49.2271 52.2563 43.5659 51.6233C43.5659 51.6233 38.1576 50.5471 34.5522 50.8004C30.9467 51.0536 23.0399 51.3068 23.0399 51.3068L22.7237 51.6233C20.0354 54.5352 19.6875 58.9347 21.9014 62.2264L37.0507 59.4727L41.3836 58.7131Z" fill="white"/>
<path d="M47.8988 62.9227C48.0254 62.9227 48.1519 62.9227 48.2784 62.891C48.9742 62.7328 49.4486 62.1947 49.5751 61.53L49.6067 61.5617C50.1127 62.0048 50.8085 62.0998 51.4094 61.8466C52.295 61.4667 52.7062 60.4856 52.3583 59.5993C52.3583 59.5677 52.1369 59.0296 51.6625 58.3016C52.3583 58.6498 53.2438 58.4915 53.7815 57.8902C54.414 57.1622 54.3191 56.0544 53.5917 55.4531C53.4336 55.2948 49.4169 51.9081 43.6292 51.2751C43.4394 51.2435 38.1894 50.199 34.5523 50.4522C30.9784 50.6738 23.1033 50.9586 23.04 50.9586C22.9451 50.9586 22.8819 50.9903 22.8186 51.0536L22.5024 51.3701C19.6876 54.4086 19.3397 58.9347 21.6801 62.3846C21.7433 62.4796 21.8698 62.5429 21.9963 62.5112L37.1457 59.7576C37.3038 59.7259 37.4303 59.5677 37.3987 59.3778C37.3671 59.2195 37.2089 59.0929 37.0192 59.1246L22.0912 61.8466C20.0671 58.6815 20.415 54.5668 22.9768 51.8132L23.1982 51.5916C24.2419 51.56 31.2947 51.3068 34.6155 51.0852C38.1577 50.8637 43.5027 51.9081 43.5343 51.9081C49.1323 52.5412 52.9908 55.8012 53.1806 55.9278C53.655 56.3076 53.6866 57.004 53.3071 57.4787C52.9275 57.9535 52.2317 57.9851 51.7573 57.6053C51.7257 57.5737 51.2829 57.1939 50.4606 56.6874C50.3341 56.5925 50.1444 56.6241 50.0495 56.7507C49.9546 56.8773 49.9546 57.0356 50.0495 57.1622C51.2829 58.5865 51.789 59.8209 51.8206 59.8842C52.042 60.4539 51.789 61.0869 51.2197 61.3085C50.8402 61.4667 50.3974 61.4034 50.0811 61.1186C49.9546 60.992 49.8597 60.8654 49.7965 60.7071C49.7965 60.7071 49.6383 60.359 49.2904 59.8209C49.1956 59.6943 49.0374 59.631 48.8793 59.6943C48.7212 59.7576 48.6579 59.9475 48.7212 60.0741C48.9109 60.6122 49.0058 60.9603 49.0058 60.9603C49.1323 61.5617 48.7528 62.1314 48.1835 62.258C47.8356 62.3213 47.4877 62.258 47.2347 62.0048C47.0449 61.8466 46.9184 61.6566 46.8868 61.4034C46.8868 61.3718 46.2542 58.8397 43.8822 56.6874C43.7557 56.5608 43.5659 56.5925 43.4394 56.6874C43.3129 56.814 43.3129 57.004 43.4394 57.1306C45.0524 58.8714 45.4319 60.5805 45.4636 60.6438C45.5901 61.2135 45.2106 61.8149 44.6413 61.9415C44.2934 62.0365 43.9455 61.9415 43.6608 61.6883C43.4711 61.53 43.3762 61.3401 43.3129 61.1186C43.3129 61.0553 42.965 59.7576 41.6683 58.4282C41.5418 58.3016 41.3521 58.3016 41.2256 58.4282C41.099 58.5549 41.099 58.7448 41.2256 58.8714C42.3958 60.0741 42.712 61.2452 42.712 61.2452C42.8069 61.5933 42.9967 61.9099 43.2813 62.1631C43.6925 62.5112 44.2617 62.6695 44.7994 62.5429C45.5268 62.3846 46.0645 61.7516 46.1277 61.0236C46.2542 61.3401 46.2859 61.4984 46.2859 61.4984C46.3808 61.8466 46.5705 62.1631 46.8552 62.4163C47.0765 62.7644 47.4877 62.9227 47.8988 62.9227Z" fill="#FAB333"/>
<path d="M46.792 53.5856C46.792 53.5856 49.1641 55.2315 50.271 56.909L46.792 53.5856Z" fill="white"/>
<path d="M50.2708 57.2255C50.334 57.2255 50.3973 57.1939 50.4289 57.1622C50.587 57.0673 50.6187 56.8773 50.5238 56.7191C49.4168 55.0099 47.0764 53.3641 46.9499 53.3008C46.7918 53.2058 46.602 53.2375 46.5072 53.3957C46.4123 53.554 46.4439 53.7439 46.602 53.8389C46.6337 53.8705 48.9424 55.4847 49.9861 57.0673C50.0494 57.1939 50.1759 57.2255 50.2708 57.2255Z" fill="#FAB333"/>
<path d="M48.9743 60.264C49.006 60.264 49.0376 60.264 49.0692 60.2323C49.2274 60.169 49.3222 60.0108 49.259 59.8209C48.3734 57.1305 45.9698 54.9783 45.8749 54.8833C45.7484 54.7567 45.5586 54.7884 45.4321 54.915C45.3056 55.0416 45.3372 55.2315 45.4638 55.3581C45.4954 55.3897 47.8358 57.5104 48.6581 60.0424C48.7213 60.169 48.8478 60.264 48.9743 60.264Z" fill="#FAB333"/>
<path d="M13.7102 52.0981L23.0718 51.56C23.2616 51.56 23.3881 51.4017 23.3565 51.2118C23.3565 51.0219 23.1984 50.8953 23.0086 50.927L13.647 51.465C13.4572 51.465 13.3307 51.6233 13.3624 51.8132C13.394 51.9398 13.5521 52.0981 13.7102 52.0981Z" fill="#017772"/>
<path d="M38.8228 4.09277H38.7142V4.43423H38.8228V4.09277Z" fill="#FAB333"/>
<path d="M38.937 4.21204H38.595V4.32043H38.937V4.21204Z" fill="#FAB333"/>
<path d="M37.9434 5.10632H37.8348V5.71877H37.9434V5.10632Z" fill="#FAB333"/>
<path d="M38.1987 5.35565H37.5853V5.46405H38.1987V5.35565Z" fill="#FAB333"/>
<path d="M39.561 5.33934C39.5936 5.33392 39.6099 5.33392 39.6099 5.33392L39.6044 5.22552C39.6044 5.22552 39.5827 5.22552 39.5447 5.23094L39.561 5.33934Z" fill="#FAB333"/>
<path d="M38.1553 6.49384C38.1661 6.46132 38.177 6.42338 38.1879 6.39086L38.0847 6.35292C38.0739 6.38544 38.063 6.42338 38.0522 6.46132L38.1553 6.49384ZM38.2259 6.28788C38.2421 6.25536 38.253 6.22284 38.2693 6.19032L38.1716 6.14154C38.1553 6.17406 38.139 6.212 38.1227 6.24452L38.2259 6.28788ZM38.3236 6.09818C38.3398 6.06566 38.3616 6.03856 38.3833 6.00604L38.2964 5.94642C38.2747 5.97894 38.253 6.01146 38.2367 6.04398L38.3236 6.09818ZM38.4484 5.92474C38.4701 5.89764 38.4918 5.87054 38.519 5.84344L38.4376 5.76757C38.4104 5.79467 38.3833 5.82177 38.3616 5.85428L38.4484 5.92474ZM38.595 5.76757C38.6221 5.74589 38.6493 5.71879 38.6764 5.69711L38.6113 5.61039C38.5787 5.63207 38.5516 5.65917 38.5244 5.68627L38.595 5.76757ZM38.7633 5.63207C38.7904 5.61039 38.823 5.59413 38.8555 5.57245L38.8012 5.48031C38.7687 5.50199 38.7361 5.51825 38.7035 5.53993L38.7633 5.63207ZM38.9478 5.52367C38.9804 5.50741 39.0129 5.49115 39.0455 5.48031L39.0021 5.38275C38.9695 5.39901 38.9315 5.41527 38.899 5.43153L38.9478 5.52367ZM39.1432 5.43695C39.1758 5.42611 39.2138 5.41527 39.2464 5.40443L39.2138 5.30145C39.1812 5.31229 39.1432 5.32313 39.1052 5.33939L39.1432 5.43695ZM39.3495 5.37733C39.3875 5.36649 39.4255 5.36107 39.4526 5.35565L39.4309 5.24725C39.3984 5.25267 39.3604 5.26351 39.3169 5.26893L39.3495 5.37733Z" fill="#FAB333"/>
<path d="M38.1171 6.65101C38.1225 6.63475 38.1225 6.61849 38.1279 6.59681L38.0194 6.57513C38.0139 6.59139 38.0139 6.61307 38.0085 6.62933L38.1171 6.65101Z" fill="#FAB333"/>
<path d="M30.8979 10.8514C30.9305 10.846 30.9468 10.846 30.9468 10.846L30.9413 10.7376C30.9413 10.7376 30.9196 10.7376 30.8816 10.743L30.8979 10.8514Z" fill="#FAB333"/>
<path d="M29.4917 12.0059C29.5026 11.9733 29.5134 11.9354 29.5243 11.9029L29.4211 11.8649C29.4103 11.8975 29.3994 11.9354 29.3886 11.9733L29.4917 12.0059ZM29.5623 11.8053C29.5786 11.7728 29.5894 11.7403 29.6057 11.7078L29.508 11.659C29.4917 11.6915 29.4754 11.7294 29.4591 11.762L29.5623 11.8053ZM29.66 11.6156C29.6763 11.5831 29.698 11.556 29.7197 11.5235L29.6328 11.4639C29.6111 11.4964 29.5894 11.5289 29.5731 11.5614L29.66 11.6156ZM29.7848 11.4368C29.8066 11.4097 29.8283 11.3826 29.8554 11.3555L29.774 11.2796C29.7468 11.3067 29.7197 11.3338 29.698 11.3663L29.7848 11.4368ZM29.9314 11.285C29.9585 11.2633 29.9857 11.2362 30.0128 11.2146L29.9477 11.1278C29.9151 11.1495 29.888 11.1766 29.8608 11.2037L29.9314 11.285ZM30.0942 11.1495C30.1214 11.1278 30.154 11.1116 30.1865 11.0899L30.1322 10.9978C30.0997 11.0194 30.0671 11.0357 30.0345 11.0574L30.0942 11.1495ZM30.2842 11.0411C30.3168 11.0249 30.3494 11.0086 30.3819 10.9978L30.3385 10.9002C30.306 10.9165 30.268 10.9327 30.2354 10.949L30.2842 11.0411ZM30.4797 10.9544C30.5122 10.9436 30.5502 10.9327 30.5828 10.9219L30.5502 10.8189C30.5177 10.8297 30.4797 10.8406 30.4417 10.8568L30.4797 10.9544ZM30.6859 10.8894C30.7239 10.8785 30.7619 10.8731 30.7891 10.8677L30.7673 10.7593C30.7348 10.7647 30.6968 10.7755 30.6534 10.781L30.6859 10.8894Z" fill="#FAB333"/>
<path d="M29.454 12.163C29.4594 12.1468 29.4594 12.1305 29.4648 12.1088L29.3563 12.0872C29.3509 12.1034 29.3509 12.1251 29.3454 12.1414L29.454 12.163Z" fill="#FAB333"/>
<path d="M32.3036 5.12797L32.3633 5.03583C32.3633 5.03583 32.347 5.02499 32.3144 5.00873L32.2656 5.10629C32.2873 5.11713 32.3036 5.12797 32.3036 5.12797Z" fill="#FAB333"/>
<path d="M30.4473 5.25266C30.4744 5.23098 30.5016 5.2093 30.5342 5.18762L30.469 5.1009C30.4365 5.12258 30.4093 5.14426 30.3767 5.17136L30.4473 5.25266ZM30.621 5.128C30.6536 5.10632 30.6807 5.09006 30.7133 5.0738L30.6644 4.97625C30.6319 4.9925 30.5993 5.01418 30.5667 5.03586L30.621 5.128ZM32.1626 5.05754L32.2061 4.95999C32.1735 4.94373 32.1409 4.93289 32.1029 4.91663L32.0649 5.0196C32.1029 5.03044 32.1355 5.04128 32.1626 5.05754ZM30.811 5.02502C30.8436 5.00876 30.8761 4.99792 30.9087 4.98708L30.8707 4.88411C30.8327 4.89495 30.8001 4.91121 30.7621 4.92747L30.811 5.02502ZM31.9618 4.98167L31.9944 4.87869C31.9618 4.86785 31.9238 4.85701 31.8858 4.84617L31.8586 4.94915C31.8966 4.95999 31.9292 4.97083 31.9618 4.98167ZM31.0118 4.94915C31.0444 4.93831 31.0824 4.93289 31.115 4.92205L31.0933 4.81365C31.0553 4.81907 31.0173 4.82991 30.9793 4.84075L31.0118 4.94915ZM31.7555 4.92747L31.7772 4.81907C31.7392 4.81365 31.7012 4.80281 31.6632 4.80281L31.6469 4.91121C31.6849 4.91121 31.7175 4.91663 31.7555 4.92747ZM31.2181 4.90579C31.2507 4.90037 31.2887 4.89495 31.3267 4.89495L31.3213 4.78655C31.2833 4.78655 31.2453 4.79197 31.2073 4.79739L31.2181 4.90579ZM31.5384 4.89495L31.5438 4.78655C31.5058 4.78113 31.4678 4.78113 31.4298 4.78113V4.88953C31.4678 4.89495 31.5058 4.89495 31.5384 4.89495Z" fill="#FAB333"/>
<path d="M30.3224 5.36106C30.3332 5.35022 30.3495 5.33396 30.3604 5.32312L30.2844 5.24182C30.2735 5.25266 30.2572 5.26892 30.2464 5.27976L30.3224 5.36106Z" fill="#FAB333"/>
<path d="M32.5264 7.32849H32.0487V7.43689H32.5264V7.32849Z" fill="#FAB333"/>
<path d="M32.3418 7.14423H32.2332V7.62118H32.3418V7.14423Z" fill="#FAB333"/>
<path d="M35.5064 11.6536L36.3532 11.6482L36.3695 11.6319L39.621 8.37998L39.6265 7.53447L35.7616 6.23369L34.3448 4.81909L34.2688 4.89497L35.7019 6.32583L35.7127 6.33125L39.5179 7.61577L39.5125 8.33662L36.3044 11.5398L35.5824 11.5452L34.2905 7.73501L32.8575 6.30415L32.7815 6.38003L34.1982 7.79463L35.5064 11.6536Z" fill="#FAB333"/>
<path d="M32.662 6.51008L33.1017 6.07107L33.0257 5.99519L32.662 6.35832L32.1138 5.81091L33.7748 4.147L34.3231 4.69983L33.6228 5.399L33.7042 5.47488L34.4805 4.69983L33.7748 3.99524L31.9563 5.81091L32.662 6.51008Z" fill="#FAB333"/>
<path d="M35.7148 6.34381L35.6381 6.26716L35.0047 6.89947L35.0815 6.97612L35.7148 6.34381Z" fill="#FAB333"/>
<path d="M38.9795 8.08875L38.9027 8.01209L37.3213 9.59104L37.3981 9.66769L38.9795 8.08875Z" fill="#FAB333"/>
<path d="M35.6133 7.4422L35.5365 7.36555L34.9032 7.99789L34.9799 8.07455L35.6133 7.4422Z" fill="#FAB333"/>
<path d="M36.1147 7.94757L36.038 7.87092L35.4046 8.50327L35.4814 8.57992L36.1147 7.94757Z" fill="#FAB333"/>
<path d="M36.6162 8.44537L36.5394 8.36872L35.9061 9.00107L35.9829 9.07772L36.6162 8.44537Z" fill="#FAB333"/>
<path d="M37.1216 8.9469L37.0448 8.87025L36.4115 9.50259L36.4882 9.57924L37.1216 8.9469Z" fill="#FAB333"/>
<path d="M37.6191 9.44824L37.5424 9.37159L36.909 10.0039L36.9858 10.0806L37.6191 9.44824Z" fill="#FAB333"/>
<path d="M36.2275 10.8339L36.1508 10.7572L35.5482 11.359L35.625 11.4356L36.2275 10.8339Z" fill="#FAB333"/>
<path d="M41.081 6.6835L42.2969 6.40708L41.0267 5.52905L39.8107 5.80547L41.081 6.6835ZM42.0309 6.3583L41.1027 6.56968L40.0767 5.85967L41.005 5.64829L42.0309 6.3583Z" fill="#FAB333"/>
<path d="M39.8653 5.90299L41.0595 5.63199L41.5264 4.21198L40.3322 4.48839L39.8653 5.90299ZM40.9727 5.53986L40.0282 5.75665L40.419 4.57511L41.3635 4.35831L40.9727 5.53986Z" fill="#FAB333"/>
<path d="M42.1939 6.46669L42.6553 5.05751L41.4122 4.19574L40.9508 5.60492L42.1939 6.46669ZM42.525 5.10087L42.1342 6.29325L41.0811 5.56698L41.4719 4.3746L42.525 5.10087Z" fill="#FAB333"/>
<path d="M28.0478 15.0952H29.3018V13.8432H28.0478V15.0952ZM29.1932 14.9868H28.1564V13.9516H29.1932V14.9868Z" fill="#FAB333"/>
<path d="M28.9653 14.5749H28.3845V14.6833H28.9653V14.5749Z" fill="#FAB333"/>
<path d="M28.9653 14.2551H28.3845V14.3635H28.9653V14.2551Z" fill="#FAB333"/>
<path d="M28.0479 15.0952H30.4092V12.7375H28.0479V15.0952ZM30.3006 14.9868H28.1565V12.8459H30.3006V14.9868Z" fill="#FAB333"/>
<path d="M28.0479 15.0952H30.4092V12.7375H28.0479V15.0952ZM30.3006 14.9868H28.1565V12.8459H30.3006V14.9868Z" fill="#FAB333"/>
<path d="M29.2749 12.7972H29.1663V15.0356H29.2749V12.7972Z" fill="#FAB333"/>
<path d="M30.3442 13.8595H28.1024V13.9679H30.3442V13.8595Z" fill="#FAB333"/>
<path d="M30.0942 13.3066H29.5134V13.415H30.0942V13.3066Z" fill="#FAB333"/>
<path d="M29.8555 13.0736H29.7469V13.6535H29.8555V13.0736Z" fill="#FAB333"/>
<path d="M28.9434 13.3066H28.3625V13.415H28.9434V13.3066Z" fill="#FAB333"/>
<path d="M30.0449 14.3275L29.9682 14.2509L29.5574 14.6609L29.6342 14.7376L30.0449 14.3275Z" fill="#FAB333"/>
<path d="M30.0488 14.6611L29.6381 14.251L29.5614 14.3276L29.9721 14.7377L30.0488 14.6611Z" fill="#FAB333"/>
<path d="M30.8378 7.95721C31.0278 7.95721 31.1255 7.79462 31.1255 7.64286C31.1255 7.49652 30.9789 7.33392 30.9084 7.25804C30.8975 7.2472 30.8921 7.24178 30.8866 7.23636L30.8812 7.21469L30.8324 7.19843L30.7889 7.21469L30.7835 7.23636C30.7781 7.24178 30.7727 7.25262 30.7618 7.25804C30.6912 7.33392 30.5447 7.49652 30.5447 7.64286C30.5501 7.7892 30.6478 7.95179 30.8378 7.95721ZM30.8378 7.33934C30.8975 7.40438 31.0169 7.53988 31.0169 7.64286C31.0169 7.72416 30.9681 7.84882 30.8378 7.84882C30.7075 7.84882 30.6587 7.71874 30.6587 7.64286C30.6587 7.53988 30.7781 7.40438 30.8378 7.33934Z" fill="#FAB333"/>
<path d="M30.6695 7.16589C30.7129 7.16589 30.7618 7.14963 30.7944 7.11711C30.8269 7.08459 30.8486 7.04123 30.8486 6.99246C30.8486 6.94368 30.8323 6.90032 30.7944 6.8678L30.7238 6.79734C30.7401 6.69978 30.7129 6.5968 30.6369 6.52634L29.8661 5.75671L29.7901 5.83259L30.5609 6.5968C30.6152 6.651 30.6315 6.72688 30.6098 6.79734L30.5989 6.82986L30.7129 6.94368C30.7238 6.95452 30.7346 6.97078 30.7346 6.99246C30.7346 7.00872 30.7292 7.02498 30.7129 7.04123C30.6858 7.06833 30.6424 7.06833 30.6152 7.04123L30.5012 6.92742L30.4687 6.93826C30.3981 6.95994 30.3221 6.93826 30.2678 6.88948L29.5024 6.10901L29.4264 6.18489L30.1972 6.95452C30.2678 7.02497 30.3709 7.05749 30.4687 7.04123L30.5392 7.11169C30.5772 7.14963 30.6261 7.16589 30.6695 7.16589Z" fill="#FAB333"/>
<path d="M29.231 6.07107L29.307 5.99519L28.6664 5.35022C28.5687 5.25266 28.5741 5.09548 28.6718 4.9925C28.7207 4.94373 28.7858 4.91663 28.851 4.91663C28.9161 4.91663 28.9813 4.93831 29.0247 4.98708L29.6652 5.62664L29.7412 5.55076L29.1007 4.91121C29.0355 4.84617 28.9433 4.80823 28.8456 4.80823C28.7478 4.80823 28.661 4.84617 28.5904 4.91663C28.4493 5.05754 28.4439 5.28518 28.585 5.4261L29.231 6.07107Z" fill="#FAB333"/>
<path d="M29.3179 6.33667L30.0127 5.64292L29.7847 5.41528L29.0899 6.10903L29.3179 6.33667ZM29.8607 5.64292L29.3179 6.18491L29.2419 6.10903L29.7847 5.56704L29.8607 5.64292Z" fill="#FAB333"/>
<path d="M32.6185 10.9707H32.7271V10.3962L32.2548 10.1469L32.2059 10.239L32.6185 10.4612V10.9707Z" fill="#FAB333"/>
<path d="M33.2811 9.82163H33.3896V9.24712L32.9174 8.9978L32.8685 9.08994L33.2811 9.31216V9.82163Z" fill="#FAB333"/>
<path d="M31.9617 9.82167H32.0703V9.24716L31.6035 8.9599L31.5438 9.05204L31.9617 9.30677V9.82167Z" fill="#FAB333"/>
<path d="M33.5794 11.4693L33.6337 11.3717L32.9986 11.0086V10.3149L33.6066 9.96798L34.2362 10.3311L34.2905 10.2336L33.6066 9.84332L32.89 10.2498V11.0736L33.5794 11.4693Z" fill="#FAB333"/>
<path d="M32.2874 11.4855L32.9985 11.0736V10.2498L32.2874 9.83789L31.5763 10.2498V11.0736L32.2874 11.4855ZM32.89 11.0086L32.2874 11.3555L31.6849 11.0086V10.3148L32.2874 9.96797L32.89 10.3148V11.0086Z" fill="#FAB333"/>
<path d="M30.9957 11.4693L31.6797 11.0736V10.2498L30.9686 9.84332L30.2846 10.2336L30.3389 10.3311L30.9686 9.96798L31.5711 10.3149V11.0086L30.9414 11.3717L30.9957 11.4693Z" fill="#FAB333"/>
<path d="M34.2362 10.3203L34.2905 10.2227L33.6609 9.85958V9.16583L34.2905 8.8027L34.2362 8.70514L33.5523 9.10079V9.92462L34.2362 10.3203Z" fill="#FAB333"/>
<path d="M32.9442 10.3366L33.6553 9.92465V9.10082L32.9442 8.6889L32.2331 9.10082V9.92465L32.9442 10.3366ZM33.5521 9.85961L32.9496 10.2065L32.3471 9.85961V9.16586L32.9442 8.81898L33.5467 9.16586V9.85961H33.5521Z" fill="#FAB333"/>
<path d="M31.6307 10.3366L32.3418 9.92465V9.10082L31.6307 8.6889L30.9196 9.10082V9.92465L31.6307 10.3366ZM32.2332 9.85961L31.6307 10.2065L31.0282 9.85961V9.16586L31.6307 8.81898L32.2332 9.16586V9.85961Z" fill="#FAB333"/>
<path d="M30.339 10.3203L31.0229 9.92462V9.10079L30.339 8.70514L30.2847 8.8027L30.9144 9.16583V9.85958L30.2847 10.2227L30.339 10.3203Z" fill="#FAB333"/>
<path d="M33.6066 9.18752L34.2905 8.79187L34.2362 8.69431L33.6066 9.06287L33.004 8.71057V8.24988H32.8955V8.77561L33.6066 9.18752Z" fill="#FAB333"/>
<path d="M32.2874 9.18752L32.9985 8.77561V8.24988H32.89V8.71057L32.2874 9.06287L31.6849 8.71057V8.24988H31.5763V8.77561L32.2874 9.18752Z" fill="#FAB333"/>
<path d="M30.9685 9.18752L31.6851 8.77561V8.24988H31.5765V8.71057L30.9685 9.06287L30.3389 8.69431L30.2846 8.79187L30.9685 9.18752Z" fill="#FAB333"/>
</g>
<defs>
<clipPath id="clip0_963_46750">
<rect width="97" height="74" fill="white" transform="matrix(-1 0 0 1 97.0791 0.665222)"/>
</clipPath>
</defs>
</svg>
