<svg width="84" height="72" viewBox="0 0 84 72" fill="none" xmlns="http://www.w3.org/2000/svg">
<g clip-path="url(#clip0_963_46974)">
<path d="M51.8345 5.32327L48.9609 3.01729L50.4431 1.16644C50.8968 0.589941 51.7437 0.498916 52.3184 0.954044L53.1049 1.59122C53.6796 2.04635 53.7703 2.89592 53.3166 3.47242L51.8345 5.32327ZM49.8079 2.92627L51.7437 4.4737L52.8327 3.10832C52.9536 2.95661 53.0141 2.77456 52.9839 2.56216C52.9536 2.38011 52.8629 2.19806 52.7117 2.07669L51.9252 1.43951C51.6227 1.19678 51.169 1.22712 50.8968 1.56088L49.8079 2.92627Z" fill="white"/>
<path d="M44.3418 11.2532L50.0926 4.05574L50.5647 4.43526L44.8138 11.6327L44.3418 11.2532Z" fill="white"/>
<path d="M42.5176 14.0314L43.0923 10.3601L48.8999 3.078L49.3838 3.47245L43.667 10.6028L43.2738 13.0605L45.5726 12.1502L51.2894 5.01988L51.7734 5.38399L45.9658 12.666L42.5176 14.0314Z" fill="white"/>
<path d="M49.8418 1.77332L50.2203 1.29993L51.7068 2.49594L51.3283 2.96932L49.8418 1.77332Z" fill="white"/>
<path d="M10.6083 71.6832C16.4051 71.6376 21.0901 69.7804 21.0725 67.5349C21.055 65.2894 16.3416 63.506 10.5448 63.5515C4.74804 63.5971 0.0630371 65.4543 0.0805648 67.6998C0.0980924 69.9453 4.81152 71.7287 10.6083 71.6832Z" fill="#017772"/>
<path d="M11.1813 43.8878L3.74037 67.7972L6.09969 68.6164C8.97324 69.6177 12.1493 69.5267 14.9623 68.313C14.9623 68.2827 22.0705 39.7006 21.2538 36.4237C20.4069 33.0861 17.5334 22.4968 17.5031 22.3754C17.4729 22.2541 17.3519 22.1934 17.2309 22.1934C17.1401 22.1934 15.295 22.5271 15.0833 24.0746C14.9321 25.2276 14.7808 29.263 14.7506 30.7498C13.7826 29.8092 11.2418 27.2301 10.1529 24.56C10.0924 24.4387 9.97142 24.378 9.85042 24.4387C9.78993 24.469 9.72943 24.5297 9.69918 24.5904C9.66894 24.56 9.63869 24.56 9.60844 24.56C9.60844 24.56 9.60844 24.56 9.57819 24.56C9.82018 24.2263 10.0924 23.8318 10.3646 23.4374C10.9998 22.5878 11.2418 21.7686 11.0906 21.01C10.9091 20.0088 10.0924 19.4929 10.0622 19.4929C10.0622 19.4929 10.0622 19.4929 10.0319 19.4929C10.0622 19.4626 10.0924 19.4323 10.1227 19.4019C11.7258 17.6421 10.0319 14.9113 9.97142 14.79C9.91092 14.6686 9.85042 14.6382 9.75968 14.6382C9.66894 14.6382 9.60844 14.6686 9.54795 14.7293L7.70283 16.9746C7.67258 16.307 7.55159 13.91 7.12812 13.1515C6.61391 12.2716 4.88978 11.5434 4.82929 11.513C4.76879 11.4827 4.67805 11.4827 4.61755 11.5434C4.55706 11.5737 4.49656 11.6647 4.49656 11.7254L4.0126 21.4045C4.0126 21.4348 4.0126 21.4652 4.0126 21.4955L2.80268 22.9823C2.77244 23.0429 2.74219 23.1036 2.74219 23.1643C2.74219 23.1643 3.55888 33.966 3.58913 34.0267L11.1813 43.8878Z" fill="white"/>
<path d="M10.1527 69.6177C8.7613 69.6177 7.3699 69.375 6.00875 68.9198L3.64942 68.1006C3.49818 68.0399 3.40743 67.8882 3.46793 67.7365L10.8786 43.9788L3.40743 34.1784C3.31669 34.0874 3.31669 34.057 2.5 23.1643C2.5 23.0126 2.53025 22.8912 2.62099 22.7699L3.74016 21.4045L4.22413 11.7557C4.22413 11.5737 4.31487 11.422 4.46611 11.331C4.61735 11.2399 4.79883 11.2096 4.98032 11.2703C5.31305 11.3916 6.91618 12.1199 7.43039 13.0301C7.79337 13.6673 7.94461 15.154 8.0051 16.216L9.36625 14.5775C9.48725 14.4562 9.63848 14.3652 9.81997 14.3652C10.0015 14.3652 10.1527 14.4562 10.2434 14.6079C10.3342 14.7293 11.9978 17.4904 10.5157 19.4322C10.8181 19.7053 11.2719 20.1908 11.4231 20.9493C11.5743 21.7989 11.3324 22.6788 10.6367 23.6194C10.5157 23.8015 10.3644 23.9835 10.2132 24.1959C10.3039 24.2566 10.3947 24.3476 10.4249 24.469C11.3324 26.7143 13.2985 28.8989 14.4479 30.0822C14.5084 28.2314 14.6294 25.0758 14.7806 24.0746C15.0226 22.3147 17.0794 21.9506 17.1702 21.9506C17.4424 21.9203 17.7147 22.072 17.7751 22.3451C17.8054 22.4361 20.7092 33.0254 21.5259 36.3934C22.3426 39.7006 15.3251 68.3434 15.2343 68.5254C15.2041 68.5861 15.1436 68.6164 15.0831 68.6468C13.5102 69.284 11.8163 69.6177 10.1527 69.6177ZM4.10313 67.6152L6.19023 68.3434C8.97303 69.3143 11.9676 69.2233 14.6899 68.1006C15.3856 65.3699 21.6771 39.4882 20.9209 36.4844C20.1345 33.2681 17.4122 23.316 17.2004 22.5271C16.898 22.5878 15.5368 22.9216 15.3553 24.1352C15.2041 25.2882 15.0528 29.5057 15.0226 30.7801C15.0226 30.9015 14.9319 30.9925 14.8411 31.0532C14.7201 31.0835 14.5991 31.0835 14.5084 30.9925C13.48 30.0216 10.9996 27.4728 9.88047 24.8028C9.85022 24.8331 9.81997 24.8634 9.75948 24.8938C9.66873 24.9241 9.57799 24.9241 9.51749 24.8938C9.42675 24.8938 9.30576 24.8331 9.27551 24.7117C9.21501 24.6207 9.24526 24.4993 9.30576 24.4083C9.57799 24.0139 9.85022 23.6194 10.1224 23.2857C10.6972 22.4968 10.9391 21.7686 10.7879 21.101C10.6367 20.3122 10.0317 19.8874 9.91071 19.7963C9.91071 19.7963 9.91071 19.7963 9.88047 19.7963C9.78972 19.766 9.72923 19.675 9.72923 19.584C9.69898 19.4929 9.72923 19.4019 9.78972 19.3109L9.88047 19.2199C11.2114 17.7634 10.0015 15.4878 9.72923 15.0327L7.94461 17.1566C7.85386 17.2476 7.73287 17.278 7.61188 17.2476C7.49089 17.2173 7.40015 17.0959 7.40015 16.9746C7.33965 15.6395 7.18841 13.8493 6.85569 13.2728C6.52296 12.666 5.40379 12.0895 4.76859 11.8164L4.31487 21.3741C4.34512 21.4651 4.31487 21.5865 4.25437 21.6472L3.04446 23.1036C3.2562 25.9254 3.80066 33.0254 3.8914 33.8446L11.4231 43.7057C11.4836 43.7968 11.5138 43.8878 11.4836 43.9788L4.10313 67.6152Z" fill="#017772"/>
<path d="M2.74188 23.3767C2.68139 23.3767 2.62089 23.3463 2.5604 23.316C2.4394 23.1946 2.40916 23.0126 2.53015 22.8912L7.52104 16.7621C7.64203 16.6408 7.82351 16.6104 7.94451 16.7318C8.0655 16.8532 8.09575 17.0352 7.97475 17.1566L2.98387 23.2553C2.92337 23.316 2.83263 23.3767 2.74188 23.3767Z" fill="#017772"/>
<path d="M3.10516 27.5335C3.04467 27.5335 2.98417 27.5032 2.92368 27.4728C2.80269 27.3514 2.77244 27.1694 2.89343 27.048C4.46632 25.1365 8.24729 20.5245 9.54795 19.1591C9.66894 19.0378 9.85043 19.0378 9.97142 19.1591C10.0924 19.2805 10.0924 19.4626 9.97142 19.5839C8.64051 20.9493 4.55706 25.9557 3.34715 27.4425C3.2564 27.5032 3.19591 27.5335 3.10516 27.5335Z" fill="#017772"/>
<path d="M13.7218 37.0609C13.6311 37.0609 13.5403 37.0002 13.4799 36.9091C11.5742 33.9963 8.30748 33.3288 8.27723 33.3288C8.15624 33.2985 8.06549 33.2074 8.03524 33.0861L7.46054 30.507C7.43029 30.416 7.46054 30.2946 7.55128 30.2339C7.58153 30.2036 9.60813 28.1403 10.1223 27.048C10.4551 26.3805 10.0618 25.3792 9.75937 24.7724L5.25245 28.8686C5.13145 28.9899 4.94997 28.9596 4.82898 28.8382C4.70798 28.7168 4.73823 28.5348 4.85922 28.4134L9.63838 24.1049C9.69887 24.0442 9.78962 24.0138 9.88036 24.0442C9.97111 24.0442 10.0316 24.1049 10.0921 24.1656C10.1526 24.2566 11.302 26.0468 10.6668 27.3211C10.1828 28.3527 8.54946 30.0822 8.09574 30.5677L8.57971 32.7827C9.36615 32.9647 12.2094 33.8446 13.9941 36.5754C14.0848 36.7271 14.0546 36.9091 13.9033 37.0002C13.8428 37.0609 13.7823 37.0609 13.7218 37.0609Z" fill="#017772"/>
<path d="M83.0589 67.6998C83.0764 65.4543 78.3914 63.5971 72.5946 63.5515C66.7978 63.506 62.0844 65.2894 62.0669 67.5349C62.0494 69.7804 66.7344 71.6376 72.5311 71.6831C78.3279 71.7287 83.0413 69.9453 83.0589 67.6998Z" fill="#017772"/>
<path d="M71.9787 43.8878L79.4197 67.7972L77.0603 68.6164C74.1868 69.6177 71.0108 69.5267 68.1977 68.313C68.1977 68.2827 61.0895 39.7006 61.9062 36.4237C62.7531 33.0861 65.6267 22.4968 65.6569 22.3754C65.6871 22.2541 65.8081 22.1934 65.9291 22.1934C66.0199 22.1934 67.865 22.5271 68.0767 24.0746C68.228 25.2276 68.3792 29.263 68.4094 30.7498C69.3774 29.8092 71.9182 27.2301 73.0071 24.56C73.0676 24.4387 73.1886 24.378 73.3096 24.4387C73.3701 24.469 73.4306 24.5297 73.4608 24.5904C73.4911 24.56 73.5213 24.56 73.5516 24.56C73.5516 24.56 73.5516 24.56 73.5818 24.56C73.3398 24.2263 73.0676 23.8318 72.7954 23.4374C72.1602 22.5878 71.9182 21.7686 72.0694 21.01C72.2509 20.0088 73.0676 19.4929 73.0979 19.4929C73.0979 19.4929 73.0979 19.4929 73.1281 19.4929C73.0979 19.4626 73.0676 19.4323 73.0374 19.4019C71.4342 17.6421 73.1281 14.9113 73.1886 14.7899C73.2189 14.7293 73.3096 14.6686 73.3701 14.6686C73.4608 14.6686 73.5213 14.6989 73.5818 14.7596L75.4269 17.0049C75.4572 16.3374 75.5782 13.9404 76.0017 13.1818C76.5159 12.3019 78.24 11.5737 78.3005 11.5434C78.361 11.513 78.4517 11.513 78.5122 11.5737C78.5727 11.6041 78.6332 11.6951 78.6332 11.7558L79.1172 21.4045C79.1172 21.4348 79.1172 21.4652 79.1172 21.4955L80.3271 22.9823C80.3573 23.0429 80.3876 23.1036 80.3876 23.1643C80.3876 23.1643 79.5709 33.966 79.5406 34.0267L71.9787 43.8878Z" fill="white"/>
<path d="M73.0073 69.6177C71.3134 69.6177 69.6498 69.2839 68.0769 68.6164C68.0164 68.5861 67.9559 68.5557 67.9257 68.4951C67.8349 68.313 60.7872 39.6703 61.6341 36.363C62.481 32.9951 65.3848 22.4057 65.3848 22.3147C65.4453 22.0416 65.7176 21.8596 65.9898 21.9203C66.0805 21.9203 68.1374 22.2844 68.3794 24.0442C68.5004 25.0455 68.6213 28.201 68.7121 30.0519C69.8918 28.8686 71.8276 26.6839 72.7351 24.4387C72.7653 24.3173 72.856 24.2263 72.9468 24.1656C72.7955 23.9835 72.6746 23.7711 72.5233 23.5891C71.8276 22.6788 71.5856 21.7686 71.7369 20.919C71.8881 20.1604 72.3418 19.6446 72.6443 19.3716C71.1319 17.46 72.8258 14.6686 72.9165 14.5472C73.0073 14.3955 73.1888 14.3045 73.34 14.3045C73.5215 14.3045 73.6727 14.3651 73.7937 14.5169L75.1549 16.1553C75.2154 15.0934 75.3666 13.6066 75.7296 12.9694C76.2438 12.0592 77.8772 11.3613 78.1797 11.2096C78.3612 11.1489 78.5426 11.1489 78.6939 11.2399C78.8451 11.331 78.9359 11.4827 78.9359 11.6647L79.4198 21.3134L80.539 22.6788C80.6297 22.8002 80.66 22.9216 80.66 23.0733C79.8433 33.966 79.8433 33.966 79.7525 34.0874L72.2813 43.8878L79.6921 67.6455C79.7526 67.7972 79.6618 67.9792 79.5106 68.0096L77.1512 68.8288C75.7901 69.375 74.3987 69.6177 73.0073 69.6177ZM68.4399 68.1006C71.1622 69.2233 74.1567 69.3143 76.9395 68.3433L79.0266 67.6151L71.6764 43.9788C71.6461 43.8878 71.6764 43.7968 71.7369 43.7057L79.2686 33.8446C79.3593 33.0254 79.8735 25.9254 80.1155 23.1036L78.9056 21.6472C78.8451 21.5562 78.8149 21.4651 78.8451 21.3741L78.3611 11.8164C77.7259 12.0895 76.6068 12.6963 76.274 13.2728C75.9413 13.8493 75.7901 15.6092 75.7296 16.9745C75.7296 17.0959 75.6388 17.2173 75.5179 17.2476C75.3969 17.278 75.2759 17.2476 75.1851 17.1566L73.4005 14.972C73.1585 15.3968 71.9184 17.6724 73.2493 19.1592L73.34 19.2502C73.4005 19.3109 73.4308 19.4322 73.4005 19.5233C73.3703 19.6143 73.3098 19.7053 73.2493 19.7357C73.2493 19.7357 73.2493 19.7357 73.219 19.7357C73.0678 19.8267 72.4931 20.2818 72.3418 21.0404C72.2208 21.7079 72.4326 22.4361 73.0073 23.225C73.2795 23.5891 73.5517 23.9532 73.824 24.3476C73.8845 24.4386 73.8845 24.56 73.8542 24.651C73.7937 24.7421 73.703 24.8028 73.6122 24.8331C73.5215 24.8634 73.461 24.8938 73.3703 24.8331C73.34 24.8028 73.3098 24.8028 73.2795 24.7724C72.1603 27.4425 69.68 29.9912 68.6818 30.9622C68.5911 31.0532 68.4701 31.0835 68.3491 31.0228C68.2281 30.9925 68.1676 30.8711 68.1676 30.7498C68.1374 29.4754 67.9861 25.2579 67.8349 24.1049C67.6837 22.8912 66.2923 22.5575 65.9898 22.4968C65.7781 23.316 63.0558 33.2378 62.2391 36.4844C61.4526 39.4882 67.7442 65.3698 68.4399 68.1006Z" fill="#017772"/>
<path d="M80.4183 23.3767C80.3275 23.3767 80.2368 23.3463 80.1763 23.2553L75.1551 17.1566C75.0342 17.0352 75.0644 16.8228 75.1854 16.7318C75.3064 16.6104 75.5181 16.6408 75.6089 16.7621L80.63 22.8609C80.751 22.9822 80.7207 23.1946 80.5998 23.2856C80.5393 23.3463 80.4788 23.3767 80.4183 23.3767Z" fill="#017772"/>
<path d="M80.0547 27.5335C79.9639 27.5335 79.8732 27.5032 79.8127 27.4121C78.6028 25.9254 74.5193 20.9493 73.1884 19.5536C73.0674 19.4322 73.0674 19.2502 73.1884 19.1288C73.3094 19.0074 73.4909 19.0074 73.6119 19.1288C74.9125 20.4942 78.6935 25.1062 80.2664 27.0177C80.3874 27.1391 80.3571 27.3515 80.2361 27.4425C80.1756 27.5032 80.1151 27.5335 80.0547 27.5335Z" fill="#017772"/>
<path d="M69.4083 37.0609C69.3478 37.0609 69.2873 37.0305 69.257 37.0002C69.1058 36.9091 69.0755 36.7271 69.1663 36.5754C70.9509 33.8446 73.7942 32.9647 74.5806 32.7827L75.0646 30.5677C74.6109 30.0822 72.9775 28.3527 72.4935 27.3211C71.8886 26.0468 73.038 24.2262 73.0682 24.1656C73.1287 24.1049 73.1892 24.0442 73.28 24.0442C73.3707 24.0442 73.4615 24.0745 73.522 24.1049L78.3011 28.4134C78.4221 28.5348 78.4221 28.7168 78.3314 28.8382C78.2104 28.9596 78.0289 28.9596 77.9079 28.8685L73.401 24.8027C73.0985 25.3792 72.7053 26.3805 73.038 27.0784C73.5522 28.1707 75.6091 30.2339 75.6091 30.2643C75.6696 30.325 75.6998 30.4463 75.6998 30.5374L75.1251 33.1164C75.0949 33.2378 75.0041 33.3288 74.8831 33.3591C74.8529 33.3591 71.5861 34.0267 69.6805 36.9395C69.62 37.0305 69.5293 37.0609 69.4083 37.0609Z" fill="#017772"/>
<path d="M48.6045 50.3369L48.8863 49.2818L49.4707 49.4388L49.1888 50.4939L48.6045 50.3369Z" fill="white"/>
<path d="M48.6045 50.3369L48.8863 49.2818L49.4707 49.4388L49.1888 50.4939L48.6045 50.3369Z" fill="white"/>
<path d="M45.1582 50.6118L45.5858 50.1824L46.3561 50.9544L45.9286 51.3838L45.1582 50.6118Z" fill="white"/>
<path d="M44.2998 53.898L45.3516 53.6153L45.5082 54.2015L44.4564 54.4842L44.2998 53.898Z" fill="white"/>
<path d="M46.8438 56.8959L47.1249 55.8407L47.7093 55.9973L47.4282 57.0526L46.8438 56.8959Z" fill="white"/>
<path d="M49.9746 55.4185L50.4021 54.9891L51.1726 55.7609L50.7451 56.1903L49.9746 55.4185Z" fill="white"/>
<path d="M50.834 52.1414L51.8856 51.8578L52.0426 52.4438L50.9911 52.7274L50.834 52.1414Z" fill="white"/>
<path d="M25.4275 42.7348L12.9654 33.3895C11.7555 32.4792 12.1487 30.598 13.6006 30.2339L37.3149 24.3476C37.7081 24.2566 38.1618 24.2869 38.5248 24.469L52.1061 31.1745C53.5277 31.8724 53.4067 33.966 51.8943 34.4818L27.0306 43.0079C26.5164 43.1899 25.9115 43.0686 25.4275 42.7348Z" fill="#FAB333"/>
<path d="M25.9412 41.0963C25.8807 41.0963 25.8202 41.066 25.7598 41.0356L13.6606 32.3275C13.5396 32.2365 13.4791 32.0544 13.6001 31.9027C13.6909 31.7814 13.8724 31.7207 14.0236 31.842L26.1227 40.5502C26.2437 40.6412 26.3042 40.8232 26.1832 40.9749C26.1227 41.066 26.032 41.0963 25.9412 41.0963Z" fill="white"/>
<path d="M29.3299 38.0318L41.0963 18.431C41.3987 17.9152 41.8827 17.5511 42.4574 17.3994L64.3266 11.9682C66.2624 11.4827 67.8051 13.6066 66.7767 15.3058L56.4319 32.3579C56.1597 32.813 55.7362 33.1468 55.2522 33.2985L31.9917 41.2784C29.9953 41.9763 28.2712 39.822 29.3299 38.0318Z" fill="#FAB333"/>
<path d="M28.8458 41.1571C28.7853 41.1571 28.7248 41.1571 28.6945 41.0964C28.5433 41.0054 28.513 40.8233 28.6038 40.6716L41.9431 19.1289C42.0338 18.9772 42.2153 18.9468 42.3665 19.0378C42.5178 19.1289 42.548 19.3109 42.4573 19.4626L29.118 41.0054C29.0575 41.0964 28.9668 41.1571 28.8458 41.1571Z" fill="white"/>
<path d="M49.626 29.8699C49.263 29.8699 48.9 29.7485 48.6278 29.5361C47.7506 28.8686 47.7506 27.3515 48.658 26.1378C49.5655 24.9545 51.0174 24.5297 51.9248 25.1972C52.3785 25.531 52.6205 26.0772 52.5903 26.7447C52.56 27.3819 52.318 28.019 51.8946 28.5955C51.4711 29.172 50.8964 29.5665 50.3217 29.7485C50.0494 29.8396 49.8377 29.8699 49.626 29.8699ZM50.8661 25.5007C50.2914 25.5007 49.5957 25.8648 49.1118 26.5323C48.4161 27.4729 48.3556 28.5955 48.9605 29.081C49.2327 29.2934 49.6562 29.3541 50.0797 29.2024C50.5637 29.0507 51.0174 28.7169 51.3501 28.2618C51.7131 27.8066 51.8946 27.2605 51.9248 26.775C51.9248 26.3199 51.7736 25.9558 51.5013 25.7131C51.3501 25.5613 51.1081 25.5007 50.8661 25.5007Z" fill="white"/>
<path d="M39.1599 17.2173L28.8756 23.7408C27.575 24.56 25.8508 24.1959 25.0039 22.8609L18.4704 12.5446C17.6537 11.2399 18.0167 9.51046 19.3476 8.66089L29.6318 2.10704C30.9325 1.28781 32.6566 1.65191 33.5035 2.98696L40.0371 13.3032C40.8538 14.6382 40.4605 16.3677 39.1599 17.2173Z" fill="#017772"/>
<path d="M27.2729 10.2994C28.0291 11.513 27.6662 13.0908 26.4865 13.8494C25.2766 14.6079 23.7037 14.2438 22.9475 13.0605C22.1913 11.8468 22.5543 10.269 23.734 9.51047C24.9439 8.75192 26.5168 9.08568 27.2729 10.2994Z" fill="white"/>
<path d="M25.0339 22.8913L23.5518 20.5549L23.945 18.8255C24.2172 17.5511 25.4876 16.7622 26.758 17.0353C27.9679 17.3084 29.1476 16.5498 29.4198 15.3361L30.9322 8.5699C31.2952 6.96178 32.8681 5.9605 34.4712 6.3246L35.8021 6.62802L40.0368 13.3336C40.8535 14.6383 40.4905 16.3678 39.1596 17.2173L28.8754 23.7408C27.5747 24.5904 25.8506 24.196 25.0339 22.8913Z" fill="white"/>
<path d="M37.9209 46.4972L42.4581 49.319C42.7606 48.7425 43.3958 47.984 44.6359 47.3164C46.1786 46.4972 48.5076 46.6186 50.1713 43.1596C52.1071 39.1241 48.1144 36.09 47.7212 35.8169C47.2372 35.5135 42.821 33.2985 40.0685 36.8485C37.7092 39.8827 38.8283 41.9156 38.7981 43.6754C38.7073 45.0408 38.3141 45.9814 37.9209 46.4972Z" fill="#017772"/>
<path d="M40.1892 51.534L36.9526 49.5314C36.4687 49.228 36.3174 48.5605 36.6199 48.075L37.6786 46.3759L42.6997 49.5011L41.6411 51.2002C41.3386 51.6857 40.7034 51.8374 40.1892 51.534Z" fill="white"/>
<path d="M39.2214 51.9891L36.9528 50.5934C36.6201 50.381 36.4991 49.9259 36.7108 49.5618L37.4368 48.3784L40.9455 50.563L40.2196 51.7464C40.0381 52.1105 39.5843 52.2015 39.2214 51.9891Z" fill="white"/>
<path d="M39.6318 46.5256L41.9808 42.7386L42.4944 43.0591L40.1455 46.8462L39.6318 46.5256Z" fill="white"/>
<path d="M41.1514 47.5063L43.5003 43.7192L44.014 44.0398L41.665 47.8269L41.1514 47.5063Z" fill="white"/>
<path d="M40.9482 42.4669L41.2678 41.9516L45.0433 44.3075L44.7238 44.8228L40.9482 42.4669Z" fill="white"/>
<path d="M56.8555 57.4809L52.8325 55.5087L48.8096 53.5365L49.5658 57.9664L50.3522 62.3963L52.2578 59.6959L54.1937 62.275L55.6758 61.122L53.74 58.5733L56.8555 57.4809Z" fill="white"/>
</g>
<defs>
<clipPath id="clip0_963_46974">
<rect width="83" height="71" fill="white" transform="translate(0.0800781 0.665039)"/>
</clipPath>
</defs>
</svg>
