<svg width="97" height="77" viewBox="0 0 97 77" fill="none" xmlns="http://www.w3.org/2000/svg">
<g clip-path="url(#clip0_963_47030)">
<path d="M81.1196 9.22654H80.427V7.67089H78.7646V7.02271H81.1196V9.22654Z" fill="#FAB333"/>
<path d="M84.8592 21.283C80.3917 21.283 76.7207 17.88 76.7207 13.6668C76.7207 11.0092 78.1752 8.57848 80.5995 7.18488L80.9458 7.73583C78.7294 8.9998 77.3787 11.236 77.3787 13.6668C77.3787 17.4911 80.7034 20.6348 84.8246 20.6348C85.5172 20.6348 86.2099 20.5375 86.8679 20.3755L87.041 20.9913C86.3484 21.1857 85.6211 21.283 84.8592 21.283Z" fill="#FAB333"/>
<path d="M89.0504 20.181L88.7041 19.63C90.9552 18.366 92.2712 16.1298 92.2712 13.6667C92.2712 9.84237 88.9465 6.69866 84.8253 6.69866C84.1327 6.69866 83.44 6.79589 82.782 6.95794L82.5742 6.34216C83.3015 6.1477 84.0634 6.05048 84.8253 6.05048C89.2928 6.05048 92.9638 9.45346 92.9638 13.6667C92.9638 16.3567 91.5093 18.7874 89.0504 20.181Z" fill="#FAB333"/>
<path d="M90.955 20.3106H88.5654V18.1068H89.2581V19.6624H90.955V20.3106Z" fill="#FAB333"/>
<path d="M86.5567 16.2919H83.1628V15.5465C82.1238 14.9631 81.4658 13.9584 81.4658 12.7917C81.4658 11.0416 82.9896 9.61554 84.8598 9.61554C86.7299 9.61554 88.2537 11.0416 88.2537 12.7917C88.2537 13.926 87.5957 14.9631 86.5567 15.5465V16.2919ZM83.8554 15.6437H85.8641V15.1575L86.0719 15.0603C87.0069 14.639 87.5611 13.7639 87.5611 12.7917C87.5611 11.3981 86.3489 10.2637 84.8598 10.2637C83.3706 10.2637 82.1585 11.3981 82.1585 12.7917C82.1585 13.7639 82.7472 14.6066 83.6476 15.0603L83.8554 15.1575V15.6437Z" fill="#017772"/>
<path d="M83.1621 16.616H86.556V17.2642H83.1621V16.616Z" fill="#017772"/>
<path d="M84.5137 13.1157H85.2068V15.6437H84.5137V13.1157Z" fill="#017772"/>
<path d="M84.2012 12.7916H85.5518V13.4398H84.2012V12.7916Z" fill="#017772"/>
<path d="M83.509 12.8241H82.8164C82.8164 11.787 83.7168 10.9119 84.8597 10.9119V11.5601C84.1324 11.5601 83.509 12.1111 83.509 12.8241Z" fill="#017772"/>
<path d="M89.7429 70.7072C89.7429 70.7072 92.4788 65.781 90.955 64.9383C89.0502 63.9012 87.4918 66.9477 88.2883 68.1469C89.0848 69.346 88.5307 65.4893 86.5913 66.0078C85.0675 66.4292 84.6173 68.6978 89.7429 70.7072Z" fill="#017772"/>
<path d="M82.9551 26.1443H83.6482V28.1537H82.9551V26.1443Z" fill="#017772"/>
<path d="M82.9551 26.1443H83.6482V28.1537H82.9551V26.1443Z" fill="#FAB333"/>
<path d="M76.2695 30.1266L76.6157 29.5652L78.4755 30.5695L78.1293 31.1309L76.2695 30.1266Z" fill="#017772"/>
<path d="M82.9551 38.8812H83.6482V40.8906H82.9551V38.8812Z" fill="#017772"/>
<path d="M88.0791 36.472L88.4251 35.9105L90.2852 36.9144L89.9391 37.4759L88.0791 36.472Z" fill="#FAB333"/>
<path d="M88.0615 30.5875L89.9504 29.5656L90.2971 30.1267L88.4082 31.1487L88.0615 30.5875Z" fill="#FAB333"/>
<path d="M88.7383 60.3038H89.4314V62.3132H88.7383V60.3038Z" fill="#017772"/>
<path d="M88.7383 60.3038H89.4314V62.3132H88.7383V60.3038Z" fill="#FAB333"/>
<path d="M82.0459 64.2876L82.3921 63.7262L84.2518 64.7305L83.9056 65.2919L82.0459 64.2876Z" fill="#FAB333"/>
<path d="M82.0615 71.1022L83.9212 70.0978L84.2674 70.6592L82.4077 71.6636L82.0615 71.1022Z" fill="#FAB333"/>
<path d="M88.7383 73.0406H89.4314V75.05H88.7383V73.0406Z" fill="#FAB333"/>
<path d="M93.8604 70.6328L94.2064 70.0712L96.0664 71.0751L95.7204 71.6366L93.8604 70.6328Z" fill="#FAB333"/>
<path d="M93.8428 64.745L95.7316 63.723L96.0783 64.2842L94.1894 65.3061L93.8428 64.745Z" fill="#FAB333"/>
<path d="M13.7949 61.4706H72.6001C76.9984 61.4706 80.5309 64.8087 80.5309 68.8923C80.5309 73.0083 76.9638 76.3141 72.6001 76.3141H13.7949V61.4706Z" fill="#017772"/>
<path d="M68.7213 76.6705C68.5135 76.6705 68.375 76.5408 68.375 76.3464C68.375 76.1519 68.5135 76.0223 68.7213 76.0223C72.9118 76.0223 76.3057 72.8462 76.3057 68.9246C76.3057 65.0031 72.9118 61.827 68.7213 61.827C68.5135 61.827 68.375 61.6973 68.375 61.5029C68.375 61.3084 68.5135 61.1788 68.7213 61.1788C73.2927 61.1788 76.9984 64.6466 76.9984 68.9246C77.033 73.1702 73.2927 76.6705 68.7213 76.6705Z" fill="#FAB333"/>
<path d="M57.985 76.6705C57.7772 76.6705 57.6387 76.5408 57.6387 76.3464C57.6387 76.1519 57.7772 76.0223 57.985 76.0223C62.1755 76.0223 65.5694 72.8462 65.5694 68.9246C65.5694 65.0031 62.1755 61.827 57.985 61.827C57.7772 61.827 57.6387 61.6973 57.6387 61.5029C57.6387 61.3084 57.7772 61.1788 57.985 61.1788C62.5564 61.1788 66.2621 64.6466 66.2621 68.9246C66.2967 73.1702 62.5564 76.6705 57.985 76.6705Z" fill="#FAB333"/>
<path d="M13.7949 61.4706H49.8469C54.2451 61.4706 57.7776 64.8087 57.7776 68.8923C57.7776 73.0083 54.2105 76.3141 49.8469 76.3141H13.7949V61.4706Z" fill="white"/>
<path d="M49.8465 76.6705H13.7946C13.5868 76.6705 13.4482 76.5409 13.4482 76.3464V61.4705C13.4482 61.2761 13.5868 61.1464 13.7946 61.1464H49.8465C54.4179 61.1464 58.1236 64.6142 58.1236 68.8923C58.1236 73.1703 54.4179 76.6705 49.8465 76.6705ZM14.1409 76.0223H49.8465C54.037 76.0223 57.4309 72.8462 57.4309 68.9247C57.4309 65.0031 54.037 61.827 49.8465 61.827H14.1409V76.0223Z" fill="#FAB333"/>
<path d="M47.492 72.6517H14.2106C14.0028 72.6517 13.8643 72.5221 13.8643 72.3276C13.8643 72.1332 14.0028 72.0035 14.2106 72.0035H47.492C47.6998 72.0035 47.8383 72.1332 47.8383 72.3276C47.8383 72.4897 47.6651 72.6517 47.492 72.6517Z" fill="#FAB333"/>
<path d="M38.0369 69.8321H14.6256C14.4178 69.8321 14.2793 69.7025 14.2793 69.5081C14.2793 69.3136 14.4178 69.184 14.6256 69.184H38.0369C38.2447 69.184 38.3832 69.3136 38.3832 69.5081C38.3832 69.6701 38.21 69.8321 38.0369 69.8321Z" fill="#FAB333"/>
<path d="M65.3967 33.5985H22.4876C19.7863 33.5985 17.6045 35.6403 17.6045 38.1682V38.3627C17.6045 40.8906 19.7863 42.9324 22.4876 42.9324H65.3967V33.5985Z" fill="#017772"/>
<path d="M57.7429 42.6083C55.2493 42.6083 53.2061 40.6961 53.2061 38.3626V38.1682C53.2061 35.8347 55.2493 33.9225 57.7429 33.9225H83.8208V42.6083H57.7429Z" fill="white"/>
<path d="M83.4741 34.2467V42.2842H57.7425C55.4221 42.2842 53.552 40.5341 53.552 38.3627V38.1682C53.552 35.9968 55.4221 34.2467 57.7425 34.2467H83.4741ZM84.1667 33.5985H57.7425C55.0412 33.5985 52.8594 35.6403 52.8594 38.1682V38.3627C52.8594 40.8906 55.0412 42.9324 57.7425 42.9324H84.1667V33.5985Z" fill="#FAB333"/>
<path d="M60.0979 24.8156H17.1888C14.4875 24.8156 12.3057 26.8573 12.3057 29.3853V29.5797C12.3057 32.1077 14.4875 34.1495 17.1888 34.1495H60.0979V24.8156Z" fill="#FAB333"/>
<path d="M52.444 33.8254C49.9505 33.8254 47.9072 31.9132 47.9072 29.5797V29.3853C47.9072 27.0518 49.9505 25.1396 52.444 25.1396H78.5219V33.8254H52.444Z" fill="white"/>
<path d="M78.2104 25.4637V33.5013H52.4788C50.1585 33.5013 48.2883 31.7512 48.2883 29.5797V29.3853C48.2883 27.2138 50.1585 25.4637 52.4788 25.4637H78.2104ZM78.9031 24.8156H52.4788C49.7775 24.8156 47.5957 26.8573 47.5957 29.3853V29.5797C47.5957 32.1077 49.7775 34.1495 52.4788 34.1495H78.9031V24.8156Z" fill="#FAB333"/>
<path d="M16.7041 52.2338H81.6738C84.479 52.2338 86.7647 50.0948 86.7647 47.4696C86.7647 44.8445 84.479 42.7054 81.6738 42.7054H16.7041V52.2338Z" fill="white"/>
<path d="M81.6734 52.5579H16.7037C16.496 52.5579 16.3574 52.4283 16.3574 52.2338V42.7054C16.3574 42.511 16.496 42.3813 16.7037 42.3813H81.6734C84.6518 42.3813 87.1107 44.65 87.1107 47.4696C87.1107 50.2568 84.6864 52.5579 81.6734 52.5579ZM17.0501 51.9097H81.6734C84.2708 51.9097 86.418 49.9327 86.418 47.4696C86.418 45.0389 84.3055 43.0295 81.6734 43.0295H17.0501V51.9097Z" fill="#FAB333"/>
<path d="M16.7041 52.2338H42.8167C45.6219 52.2338 47.9076 50.0948 47.9076 47.4696C47.9076 44.8445 45.6219 42.7054 42.8167 42.7054H16.7041V52.2338Z" fill="white"/>
<path d="M42.8163 52.5579H16.7037C16.4959 52.5579 16.3574 52.4283 16.3574 52.2338V42.7054C16.3574 42.511 16.4959 42.3813 16.7037 42.3813H42.8163C45.7946 42.3813 48.2535 44.65 48.2535 47.4696C48.2535 50.2568 45.7946 52.5579 42.8163 52.5579ZM17.0501 51.9097H42.8163C45.4137 51.9097 47.5609 49.9327 47.5609 47.4696C47.5609 45.0389 45.4483 43.0295 42.8163 43.0295H17.0501V51.9097Z" fill="#FAB333"/>
<path d="M41.2928 45.6223H16.9811C16.7733 45.6223 16.6348 45.4927 16.6348 45.2982C16.6348 45.1038 16.7733 44.9741 16.9811 44.9741H41.2928C41.5006 44.9741 41.6391 45.1038 41.6391 45.2982C41.6391 45.4603 41.5006 45.6223 41.2928 45.6223Z" fill="#FAB333"/>
<path d="M34.7471 59.2666V48.6364H38.7298H42.6778V59.2666L38.7298 57.1276L34.7471 59.2666Z" fill="#017772"/>
<path d="M17.9854 61.4705H79.4226C82.02 61.4705 84.1325 59.4935 84.1325 57.0628C84.1325 54.6321 82.02 52.6552 79.4226 52.6552H17.9854V61.4705Z" fill="#FAB333"/>
<path d="M79.4568 61.7947H17.985C17.7772 61.7947 17.6387 61.665 17.6387 61.4706V52.6228C17.6387 52.4283 17.7772 52.2987 17.985 52.2987H79.4222C82.2274 52.2987 84.4785 54.4377 84.4785 57.0305C84.5131 59.6556 82.262 61.7947 79.4568 61.7947ZM18.3313 61.1465H79.4222C81.8465 61.1465 83.7858 59.2991 83.7858 57.0629C83.7858 54.7942 81.8118 52.9793 79.4222 52.9793H18.3313V61.1465Z" fill="#FAB333"/>
<path d="M17.9854 61.4705H42.1931C44.7905 61.4705 46.9031 59.4935 46.9031 57.0628C46.9031 54.6321 44.7905 52.6552 42.1931 52.6552H17.9854V61.4705Z" fill="white"/>
<path d="M42.2274 61.7947H17.985C17.7772 61.7947 17.6387 61.665 17.6387 61.4706V52.6228C17.6387 52.4283 17.7772 52.2987 17.985 52.2987H42.1928C44.998 52.2987 47.2491 54.4377 47.2491 57.0305C47.2837 59.6556 45.0326 61.7947 42.2274 61.7947ZM18.3313 61.1465H42.1928C44.617 61.1465 46.5564 59.2991 46.5564 57.0629C46.5564 54.7942 44.5824 52.9793 42.1928 52.9793H18.3313V61.1465Z" fill="#FAB333"/>
<path d="M40.8078 55.3452H18.2623C18.0545 55.3452 17.916 55.2156 17.916 55.0211C17.916 54.8267 18.0545 54.697 18.2623 54.697H40.8424C41.0502 54.697 41.1887 54.8267 41.1887 55.0211C41.1541 55.2156 41.0156 55.3452 40.8078 55.3452Z" fill="#FAB333"/>
<path d="M28.7556 57.8083H18.5045C18.2967 57.8083 18.1582 57.6787 18.1582 57.4843C18.1582 57.2898 18.2967 57.1602 18.5045 57.1602H28.7556C28.9634 57.1602 29.1019 57.2898 29.1019 57.4843C29.1019 57.6787 28.9288 57.8083 28.7556 57.8083Z" fill="#FAB333"/>
<path d="M36.3401 25.3341C36.2362 25.3341 36.167 25.3342 36.0977 25.3017C32.6691 24.7184 26.9549 20.5051 21.864 16.4216C17.9852 13.3427 17.6042 10.8147 17.7427 9.55078C17.8466 8.54609 18.2969 7.73585 18.9895 7.37935C19.9938 6.82839 21.2059 7.08766 22.3488 7.31453C23.0068 7.44417 23.6302 7.5738 24.1843 7.5738C24.8077 7.5414 25.2233 7.05525 25.7081 6.47189C26.2276 5.85611 26.7817 5.1431 27.7514 5.07828C28.4787 5.01346 29.3791 5.36997 30.3142 5.72647C31.6302 6.21261 33.0847 6.76357 34.4008 6.40707C35.1627 6.21261 35.8207 5.62924 36.6518 4.88383C38.2103 3.52263 40.3228 1.6753 44.7211 1.02711C47.1453 0.638197 49.5696 1.22157 51.7168 2.7124C54.6605 4.75419 56.3228 7.80067 56.5306 9.35632C56.9116 11.9815 52.167 12.9214 51.3012 13.0834C49.812 14.7039 39.9072 25.3341 36.3401 25.3341ZM20.3748 7.73585C19.9938 7.73585 19.6129 7.80067 19.3012 7.96272C18.9202 8.15717 18.47 8.74054 18.4008 9.64801C18.3315 10.5555 18.5393 12.9538 22.2795 15.9678C27.0241 19.7273 32.8769 24.135 36.2016 24.686C36.8943 24.8156 38.9029 24.1998 44.5826 18.8847C47.8726 15.8058 50.7817 12.6297 50.8163 12.5973C50.8856 12.5324 50.9549 12.5 51.0241 12.5C52.444 12.2732 56.0804 11.3009 55.8033 9.48596C55.5956 8.09236 54.0025 5.17551 51.2665 3.26336C49.2579 1.83734 47.1107 1.31879 44.825 1.6753C40.6345 2.32349 38.6951 4.00877 37.1367 5.36997C36.2709 6.11538 35.509 6.76357 34.6085 7.02285C33.0847 7.44417 31.4917 6.82839 30.0717 6.30984C29.2059 5.98575 28.3748 5.69406 27.8207 5.72647C27.1627 5.75888 26.7471 6.30984 26.2622 6.8608C25.7427 7.47658 25.1886 8.18958 24.2189 8.22199C23.5609 8.2544 22.8683 8.09236 22.2103 7.96272C21.5523 7.83308 20.9289 7.73585 20.3748 7.73585Z" fill="#FAB333"/>
<path d="M51.544 13.0185C51.544 13.0185 57.3276 11.8194 57.0852 9.06457C56.8427 6.30977 52.583 -0.593427 45.4834 0.864995C38.4185 2.32342 36.8601 6.407 34.2973 7.24964C31.7345 8.09229 28.9986 5.95327 27.267 6.14772C25.5354 6.34218 25.0159 8.90252 23.3536 9.06457C21.6912 9.22661 19.5787 8.1247 18.0549 9.06457C16.4964 10.0044 15.3882 13.926 20.6869 18.204C25.9856 22.4821 31.6306 26.6629 35.0246 27.0842C38.4531 27.5379 51.544 13.0185 51.544 13.0185Z" fill="#FAB333"/>
<path d="M56.8425 13.6018C56.7733 13.6018 56.704 13.5694 56.6348 13.537C56.4962 13.4398 56.4616 13.2129 56.5655 13.0833C56.9811 12.5971 57.1889 12.0462 57.2235 11.4304C57.2928 9.87476 55.9767 8.57839 54.3144 8.51357C52.6521 8.44875 51.2668 9.6803 51.1975 11.236C51.1975 11.4304 51.0244 11.56 50.8512 11.56C50.6434 11.56 50.5049 11.398 50.5049 11.236C50.5741 9.3238 52.3057 7.83297 54.349 7.89779C56.3923 7.96261 57.9854 9.58308 57.9161 11.4952C57.8815 12.2406 57.6044 12.9537 57.1196 13.537C57.0157 13.5694 56.9464 13.6018 56.8425 13.6018Z" fill="#FAB333"/>
<path d="M57.0205 11.3611C57.1938 9.77634 55.9615 8.36017 54.268 8.198C52.5746 8.03582 51.0613 9.18905 50.888 10.7738C50.7147 12.3586 51.947 13.7747 53.6405 13.9369C55.3339 14.0991 56.8472 12.9458 57.0205 11.3611Z" fill="#FAB333"/>
<path d="M38.1062 28.8018L26.9893 31.2325C24.565 31.7835 22.0369 30.714 20.8594 28.6073C19.6127 26.4035 20.236 23.7135 22.314 22.1579L26.5391 19.0142C31.0759 15.6436 36.7209 13.8611 42.5044 13.9583L53.3096 14.1204C55.9763 14.0879 58.643 14.25 61.3096 14.6389L69.4135 15.838C74.92 16.6483 75.578 23.8108 70.314 25.496L63.907 26.8248L55.9417 24.3293L38.1062 28.8018Z" fill="#017772"/>
<path d="M41.3958 19.5003C42.8157 20.7643 45.0668 20.6994 46.4175 19.3707L51.4391 14.412C52.7898 13.0832 52.7205 10.9766 51.3006 9.71266C49.8807 8.4487 47.6296 8.51352 46.2789 9.8423L41.2573 14.8009C39.9066 16.1297 39.9759 18.2363 41.3958 19.5003Z" fill="white"/>
<path d="M43.8552 20.7319C42.8855 20.7319 41.9158 20.4078 41.1539 19.7272C39.5954 18.3336 39.5262 16.0325 41.0154 14.5417L46.037 9.58308C47.5262 8.12466 49.985 8.05984 51.5781 9.45344C52.34 10.134 52.7556 11.0415 52.7902 12.0138C52.8249 12.9861 52.4439 13.9259 51.7167 14.6389L46.695 19.5976C45.8985 20.343 44.8941 20.7319 43.8552 20.7319ZM41.6387 19.2735C42.9201 20.4078 44.9634 20.3754 46.1755 19.1438L51.1972 14.1852C51.7859 13.6018 52.0976 12.824 52.063 12.0462C52.0283 11.236 51.682 10.4905 51.0586 9.93958C49.7773 8.80526 47.734 8.83767 46.5218 10.0692L41.5002 15.0279C40.2881 16.227 40.3573 18.1067 41.6387 19.2735Z" fill="#FAB333"/>
<path d="M38.0716 19.6948C38.0716 19.6948 43.9937 20.1485 46.7989 20.2457C49.6041 20.3754 53.6906 21.5745 53.6906 21.5745C58.0196 22.482 60.7902 25.2044 60.8941 25.334C61.3097 25.7553 61.2751 26.4035 60.8595 26.7924C60.4093 27.1813 59.7166 27.1489 59.301 26.76C59.301 26.76 58.9547 26.4359 58.4006 26.0146C59.2318 27.1813 59.5435 28.1212 59.5781 28.186C59.7512 28.737 59.4049 29.2879 58.8162 29.45C58.4006 29.5472 57.985 29.45 57.708 29.1583C57.6041 29.0287 57.5002 28.899 57.4655 28.737C57.4655 28.737 57.3616 28.4777 57.1885 28.0888C57.2924 28.4777 57.327 28.737 57.327 28.7694C57.3963 29.3203 56.9461 29.8389 56.3573 29.9037C56.011 29.9361 55.6647 29.8065 55.4222 29.5796C55.2837 29.4176 55.1452 29.2231 55.1452 28.9963C55.1452 28.9638 54.8681 27.1813 53.2751 25.4636C54.4179 26.8896 54.5911 28.2184 54.5911 28.2832C54.6603 28.8342 54.2448 29.3528 53.6214 29.4176C53.2751 29.45 52.9287 29.3203 52.6863 29.0935C52.5478 28.9314 52.4439 28.737 52.4093 28.5101C52.4093 28.4453 52.2707 27.5378 51.4049 26.5656C50.0543 27.311 48.3227 26.2739 48.3227 26.2739C48.3227 26.2739 38.4872 29.0611 38.1062 28.8342C37.7253 28.5749 36.0283 27.8619 35.5781 24.8154C35.1279 21.6393 38.0716 19.6948 38.0716 19.6948Z" fill="white"/>
<path d="M56.2186 30.2278C55.8376 30.2278 55.422 30.0658 55.145 29.8065C54.9372 29.5796 54.7987 29.3203 54.764 29.0287C54.764 29.0287 54.764 29.0287 54.764 28.9963C54.5562 29.3852 54.1407 29.6768 53.6558 29.7417C53.2056 29.8065 52.7554 29.6444 52.4091 29.3203C52.2013 29.1259 52.0627 28.8666 52.0281 28.5749C52.0281 28.5749 51.9242 27.8295 51.2662 26.9869C50.0541 27.473 48.6688 26.8572 48.2532 26.6304C38.4177 29.45 38.0714 29.1907 37.8982 29.0935C37.8636 29.0611 37.829 29.0611 37.7943 29.0287C37.2056 28.6722 35.6818 27.7647 35.2662 24.8803C34.7814 21.5421 37.7597 19.5327 37.8982 19.4679C37.9675 19.4355 38.0368 19.4031 38.1407 19.4031C38.2099 19.4031 44.0974 19.8568 46.8679 19.954C49.7078 20.0837 53.6904 21.2504 53.8636 21.2828C58.2619 22.1903 61.1017 25.0099 61.2402 25.1071C61.7943 25.6581 61.7597 26.5007 61.171 27.0193C60.7554 27.3758 60.1666 27.473 59.6472 27.311C59.8549 27.7323 59.9588 28.024 59.9588 28.0888C60.1666 28.8018 59.751 29.5472 58.9545 29.7741C58.4697 29.9037 57.9502 29.8065 57.5692 29.4824C57.3614 29.9037 56.9459 30.2278 56.4264 30.2602C56.3225 30.2278 56.2878 30.2278 56.2186 30.2278ZM53.2749 25.1395C53.3788 25.1395 53.4826 25.1719 53.5519 25.2368C55.2489 27.0517 55.4913 28.9314 55.4913 28.9314C55.5259 29.0935 55.5952 29.2231 55.6991 29.3203C55.8723 29.4824 56.1147 29.5796 56.3225 29.5472C56.7381 29.5148 57.0151 29.1583 56.9805 28.7694C56.9805 28.7694 56.9459 28.5101 56.842 28.1212C56.8073 27.9592 56.8766 27.7971 57.0497 27.7323C57.2229 27.6675 57.3961 27.7323 57.4653 27.8943C57.6731 28.3157 57.777 28.6073 57.777 28.6073C57.8117 28.7046 57.8809 28.8018 57.9502 28.899C58.158 29.0935 58.435 29.1583 58.7121 29.0935C59.093 28.9963 59.3355 28.6073 59.2316 28.2184C59.2316 28.186 58.9545 27.2786 58.1233 26.1442C58.0194 26.0146 58.0541 25.8201 58.158 25.7229C58.2965 25.6257 58.4697 25.5933 58.6082 25.7229C59.1969 26.1766 59.5433 26.5007 59.5433 26.5007C59.8203 26.7924 60.3052 26.7924 60.6168 26.5331C60.9285 26.2739 60.9285 25.8201 60.6515 25.5284C60.5476 25.4312 57.8463 22.7737 53.6212 21.8662C53.5519 21.8338 49.5 20.667 46.764 20.5698C44.2013 20.4726 39.0411 20.0837 38.1407 20.0189C37.6558 20.3754 35.5086 22.1255 35.8896 24.7506C36.2705 27.3758 37.6212 28.1536 38.106 28.4453C38.1407 28.4777 38.1753 28.4777 38.1753 28.5101C38.9718 28.5101 44.6515 26.9545 48.1493 25.9498C48.2532 25.9174 48.3571 25.9498 48.4264 25.9822C48.4264 25.9822 49.9848 26.8896 51.1277 26.2739C51.2662 26.1766 51.474 26.209 51.5779 26.3387C52.4783 27.4082 52.6515 28.4129 52.6515 28.4453C52.6861 28.6073 52.7554 28.737 52.8593 28.8342C53.0324 28.9963 53.2749 29.0935 53.5173 29.0611C53.9329 29.0287 54.2099 28.6722 54.1753 28.2832C54.1753 28.2184 54.0021 26.9869 52.9285 25.6257C52.8246 25.496 52.8593 25.3016 52.9978 25.1719C53.1017 25.1395 53.2056 25.1395 53.2749 25.1395Z" fill="#FAB333"/>
<path d="M56.0107 23.2922C56.0107 23.2922 57.7077 24.6858 58.435 25.9822L56.0107 23.2922Z" fill="white"/>
<path d="M58.4004 26.2738C58.2618 26.2738 58.1579 26.209 58.0887 26.1118C57.4307 24.8802 55.7683 23.5515 55.7683 23.519C55.6298 23.3894 55.5952 23.195 55.7337 23.0653C55.8722 22.9357 56.08 22.9033 56.2185 23.0329C56.2878 23.0977 57.9848 24.4589 58.7121 25.8201C58.8159 25.9822 58.7467 26.1766 58.5735 26.2414C58.5389 26.2738 58.4696 26.2738 58.4004 26.2738Z" fill="#FAB333"/>
<path d="M55.042 24.2969C55.042 24.2969 56.739 26.047 57.1892 28.024L55.042 24.2969Z" fill="white"/>
<path d="M57.1887 28.3805C57.0156 28.3805 56.877 28.2832 56.8424 28.1212C56.4268 26.2414 54.7991 24.5562 54.7991 24.5237C54.6606 24.3941 54.6952 24.1997 54.8338 24.07C54.9723 23.9404 55.1801 23.9728 55.3186 24.1024C55.3879 24.1672 57.0848 25.9498 57.5351 27.9916C57.5697 28.1536 57.4658 28.3481 57.258 28.3805C57.2234 28.3805 57.1887 28.3805 57.1887 28.3805Z" fill="#FAB333"/>
<path d="M64.8759 17.4909C64.8759 17.4909 58.9538 17.5233 56.114 17.4585C53.3088 17.3937 49.1183 18.3012 49.1183 18.3012C44.7201 18.9169 41.7417 21.4449 41.6378 21.5421C41.1876 21.931 41.153 22.5792 41.5686 23.0005C41.9841 23.4218 42.6768 23.4542 43.127 23.0653C43.127 23.0653 43.4733 22.7737 44.0967 22.3847C43.1616 23.4867 42.7807 24.3941 42.7807 24.4589C42.5729 24.9775 42.8499 25.5933 43.4387 25.7877C43.8543 25.9174 44.2699 25.8201 44.5815 25.5933C44.7201 25.496 44.7893 25.3664 44.8586 25.2044C44.8586 25.2044 44.9625 24.9451 45.2049 24.5886C45.0664 24.9775 44.9971 25.2368 44.9971 25.2692C44.8932 25.8201 45.2742 26.3711 45.8629 26.4683C46.2092 26.5331 46.5556 26.4359 46.8326 26.209C47.0058 26.0794 47.1097 25.885 47.1789 25.6581C47.1789 25.6257 47.5945 23.8432 49.2915 22.2551C48.0447 23.6163 47.7677 24.9127 47.7677 24.9775C47.6638 25.5285 48.0447 26.0794 48.6335 26.1766C48.9798 26.2415 49.3261 26.1442 49.6032 25.9174C49.7763 25.7877 49.8802 25.5933 49.9495 25.3664C49.9495 25.3016 50.1573 24.4265 51.0924 23.4867C52.3737 24.3293 54.1746 23.4218 54.1746 23.4218C54.1746 23.4218 63.7331 26.8896 64.1486 26.6628C64.5642 26.4359 66.2958 25.8201 66.9885 22.8385C67.6811 19.6299 64.8759 17.4909 64.8759 17.4909Z" fill="white"/>
<path d="M64.1143 26.9221C63.6295 26.9221 61.8979 26.5007 54.1749 23.7135C53.7247 23.908 52.3048 24.4265 51.1273 23.8432C50.4347 24.6534 50.2615 25.3664 50.2615 25.3664C50.1923 25.6581 50.0537 25.885 49.8113 26.0794C49.465 26.3711 49.0148 26.5007 48.5646 26.4035C48.0797 26.3063 47.6987 25.9822 47.491 25.5933C47.491 25.6257 47.491 25.6257 47.491 25.6257C47.4217 25.9174 47.2832 26.1766 47.0407 26.3711C46.6944 26.6628 46.2442 26.7924 45.794 26.6952C45.2745 26.598 44.8589 26.2739 44.7204 25.8201C44.3394 26.1118 43.7853 26.1766 43.3351 26.0146C42.6078 25.7553 42.1923 24.9775 42.4693 24.2645C42.5039 24.1997 42.6078 23.9404 42.8503 23.5191C42.3308 23.6811 41.742 23.5515 41.3611 23.1302C40.807 22.5792 40.8762 21.7366 41.4304 21.218C41.5689 21.1208 44.6165 18.528 49.1187 17.8798C49.2572 17.8474 53.3438 16.94 56.1836 17.0372C58.9542 17.102 64.8762 17.0696 64.9109 17.0696C64.9801 17.0696 65.084 17.102 65.1187 17.1344C65.2226 17.2316 68.0624 19.4355 67.3005 22.7088C66.6425 25.5933 65.0494 26.3711 64.426 26.6952C64.3914 26.7276 64.3221 26.7276 64.2875 26.76C64.2875 26.8896 64.2529 26.9221 64.1143 26.9221ZM54.1403 23.0653C54.1749 23.0653 54.2096 23.0653 54.2788 23.0977C57.6728 24.3293 63.2139 26.2415 64.0104 26.3063C64.0451 26.3063 64.0797 26.2739 64.0797 26.2739C64.5992 26.0146 65.9845 25.3016 66.6078 22.7412C67.1966 20.1485 65.1879 18.2687 64.7377 17.8798C63.8373 17.8798 58.6771 17.9122 56.1143 17.8474C53.3784 17.7826 49.2572 18.6577 49.2226 18.6901C44.8936 19.3058 42.0191 21.7366 41.8806 21.8662C41.5689 22.1255 41.5689 22.5792 41.8459 22.8709C42.123 23.1626 42.6078 23.1626 42.9195 22.9033C42.9195 22.9033 43.2658 22.6116 43.9239 22.1903C44.0624 22.0931 44.2702 22.1255 44.3741 22.2227C44.478 22.3523 44.5126 22.5144 44.3741 22.644C43.4736 23.7135 43.1273 24.5886 43.0927 24.621C42.9542 24.9775 43.162 25.3988 43.5429 25.5285C43.82 25.6257 44.097 25.5609 44.3048 25.3988C44.4087 25.334 44.4433 25.2368 44.5126 25.1395C44.5126 25.1395 44.6165 24.8803 44.8936 24.4589C44.9974 24.3293 45.1706 24.2645 45.3438 24.3293C45.5169 24.3941 45.5862 24.5562 45.5169 24.7182C45.3784 25.1071 45.3438 25.3664 45.3438 25.3664C45.2745 25.7553 45.5516 26.1118 45.9325 26.1766C46.1749 26.209 46.4174 26.1442 46.5905 26.0146C46.6944 25.9174 46.7983 25.7877 46.833 25.6257C46.833 25.5933 47.2485 23.7459 49.0494 22.0606C49.1879 21.931 49.3957 21.931 49.5343 22.0606C49.6728 22.1903 49.6728 22.3847 49.5689 22.5144C48.3914 23.8108 48.149 25.0423 48.1143 25.0747C48.0451 25.4636 48.3221 25.8201 48.7031 25.885C48.9455 25.9174 49.1879 25.8525 49.3611 25.7229C49.465 25.6257 49.5689 25.496 49.6035 25.334C49.6035 25.3016 49.8459 24.2969 50.8156 23.2922C50.9195 23.1626 51.1273 23.1626 51.2659 23.2598C52.3394 23.9728 53.9671 23.1626 54.0018 23.1626C54.0364 23.0653 54.1057 23.0653 54.1403 23.0653Z" fill="#FAB333"/>
<path d="M46.7292 19.8568C46.7292 19.8568 44.9284 21.1208 44.1318 22.3847L46.7292 19.8568Z" fill="white"/>
<path d="M44.0972 22.7088C44.028 22.7088 43.9587 22.7088 43.9241 22.6764C43.7509 22.5792 43.7163 22.3848 43.8202 22.2227C44.6513 20.9263 46.4522 19.6624 46.5215 19.63C46.66 19.5327 46.9024 19.5651 47.0063 19.6948C47.1102 19.8244 47.0756 20.0513 46.937 20.1485C46.9024 20.1485 45.1708 21.3801 44.4089 22.5792C44.3396 22.644 44.2357 22.7088 44.0972 22.7088Z" fill="#FAB333"/>
<path d="M47.6293 20.9587C47.6293 20.9587 45.7938 22.6116 45.2051 24.5562L47.6293 20.9587Z" fill="white"/>
<path d="M45.2055 24.8803C45.1709 24.8803 45.1362 24.8803 45.1016 24.8803C44.9284 24.8155 44.8245 24.6535 44.8592 24.4914C45.4826 22.482 47.2834 20.8292 47.3873 20.7643C47.5258 20.6347 47.7336 20.6347 47.8722 20.7643C48.0107 20.894 48.0107 21.0884 47.8722 21.2181C47.8375 21.2181 46.1059 22.8385 45.5518 24.6535C45.4826 24.7831 45.344 24.8803 45.2055 24.8803Z" fill="#FAB333"/>
<path d="M44.8252 14.9955C45.1369 16.6483 46.4529 18.0744 48.323 18.4957C50.8165 19.0466 53.31 17.6206 53.8988 15.2872L55.0416 10.7498C55.6304 8.41636 54.1066 6.08289 51.6131 5.53193C49.1196 4.98097 46.6261 6.40698 46.0373 8.74046L44.8252 14.9955Z" fill="white"/>
<path d="M49.3962 18.9493C49.0152 18.9493 48.5997 18.9169 48.2187 18.8197C46.2793 18.3984 44.7901 16.9075 44.4438 15.0602C44.4092 14.8982 44.5477 14.7037 44.7209 14.6713C44.9287 14.6389 45.1018 14.7685 45.1365 14.9306C45.4135 16.5186 46.6949 17.815 48.3572 18.1715C50.6429 18.6901 52.9979 17.3613 53.5174 15.1898L54.6603 10.6525C55.2144 8.51352 53.7945 6.34209 51.4741 5.82354C49.1884 5.30499 46.8681 6.63377 46.3139 8.8052C46.2793 8.96725 46.0715 9.09689 45.8984 9.03207C45.7252 8.99966 45.5867 8.8052 45.6559 8.64315C46.2793 6.14763 48.9806 4.59198 51.6819 5.17535C52.9633 5.46703 54.0715 6.21245 54.7642 7.28196C55.4568 8.35147 55.6646 9.58303 55.3529 10.8146L54.21 15.3519C53.8984 16.551 53.1018 17.5881 51.959 18.2363C51.1971 18.7225 50.2966 18.9493 49.3962 18.9493Z" fill="#FAB333"/>
<path d="M48.0462 5.14295C47.492 5.30499 46.9726 5.49945 46.4877 5.75872C46.2799 6.43932 46.2453 7.18474 46.4531 7.86533C47.1804 10.296 50.4011 11.56 53.6219 10.7174C54.176 10.5553 54.6955 10.3609 55.1804 10.1016C55.3882 9.42098 55.4228 8.67557 55.215 7.99497C54.4877 5.56427 51.2669 4.3003 48.0462 5.14295Z" fill="#FAB333"/>
<path d="M47.3186 11.0738C48.0458 10.3608 48.0112 9.25889 47.2493 8.6107C46.4874 7.9301 45.3099 7.96251 44.6173 8.67552C43.89 9.38853 43.9246 10.4904 44.6865 11.1386C44.9982 11.4303 45.3792 11.56 45.7947 11.6248L47.3186 11.0738Z" fill="white"/>
<path d="M52.6866 14.2175C52.5481 14.4768 52.5827 14.7685 52.7905 14.8657C52.9983 14.9629 53.2754 14.8333 53.4139 14.5416C53.5524 14.2823 53.5178 13.9907 53.31 13.8934C53.1022 13.7962 52.8252 13.9258 52.6866 14.2175Z" fill="#FAB333"/>
<path d="M50.4357 13.4722C50.2971 13.7315 50.3318 14.0231 50.5396 14.1204C50.7473 14.2176 51.0244 14.088 51.1629 13.7963C51.3015 13.537 51.2668 13.2453 51.059 13.1481C50.8512 13.0509 50.5742 13.2129 50.4357 13.4722Z" fill="#FAB333"/>
<path d="M50.3319 16.7455C50.2627 16.7455 50.1934 16.7455 50.1588 16.7131C49.7086 16.4538 49.3969 16.0325 49.3276 15.5463C49.293 15.3843 49.4315 15.1898 49.6047 15.1898C49.7778 15.1574 49.9856 15.287 49.9856 15.4491C50.0203 15.7408 50.228 16 50.5051 16.1621C50.6783 16.2593 50.7129 16.4538 50.609 16.6158C50.5744 16.7131 50.4358 16.7455 50.3319 16.7455Z" fill="#FAB333"/>
<path d="M51.3363 15.676C51.3017 15.676 51.267 15.676 51.2324 15.6436C51.0593 15.5788 50.9554 15.4168 51.0246 15.2223L51.5787 13.6667C51.648 13.5046 51.8212 13.4074 52.029 13.4722C52.2021 13.537 52.306 13.6991 52.2367 13.8935L51.6826 15.4492C51.6134 15.5788 51.4748 15.676 51.3363 15.676Z" fill="#FAB333"/>
<path d="M54.1068 13.8934C54.0029 13.8934 53.8644 13.8286 53.7951 13.7314C53.6566 13.5369 53.4834 13.3425 53.2756 13.2128C53.1025 13.1156 53.0678 12.9211 53.1717 12.7591C53.2756 12.597 53.4834 12.5646 53.6566 12.6619C53.9336 12.8563 54.2107 13.0832 54.3838 13.3749C54.4877 13.5369 54.4185 13.7314 54.2799 13.8286C54.2107 13.8934 54.1761 13.8934 54.1068 13.8934Z" fill="#FAB333"/>
<path d="M51.6473 12.7591C51.5434 12.7591 51.4741 12.7267 51.4049 12.6619C51.2663 12.5322 50.9893 12.4998 50.8161 12.5971C50.643 12.6943 50.4352 12.6295 50.3313 12.4998C50.2274 12.3378 50.2966 12.1433 50.4352 12.0461C50.8854 11.7868 51.5088 11.8516 51.8897 12.1757C52.0282 12.3054 52.0282 12.4998 51.8897 12.6295C51.8551 12.7267 51.7512 12.7591 51.6473 12.7591Z" fill="#FAB333"/>
<path d="M27.751 21.1207C27.5779 21.1207 27.4393 20.9911 27.4047 20.829C27.3701 20.667 27.5086 20.505 27.7164 20.4725L38.0714 19.3382C38.2792 19.3058 38.4177 19.4354 38.4523 19.6299C38.487 19.7919 38.3484 19.954 38.1406 19.9864L27.7857 21.1207C27.751 21.1207 27.751 21.1207 27.751 21.1207Z" fill="#FAB333"/>
<path d="M64.8766 17.815C64.7034 17.815 64.5303 17.6854 64.5303 17.4909C64.5303 17.2964 64.6688 17.1668 64.8766 17.1668L68.4091 17.0696C68.6169 17.0696 68.7554 17.1992 68.7554 17.3937C68.7554 17.5881 68.6169 17.7178 68.4091 17.7178L64.8766 17.815Z" fill="#FAB333"/>
<path d="M9.46552 37.3579C8.53046 37.3579 7.76855 36.6449 7.76855 35.7699C7.76855 34.8948 8.53046 34.1818 9.46552 34.1818C10.4006 34.1818 11.1625 34.8948 11.1625 35.7699C11.1625 36.6449 10.4006 37.3579 9.46552 37.3579ZM9.46552 34.83C8.91141 34.83 8.4612 35.2513 8.4612 35.7699C8.4612 36.2884 8.91141 36.7098 9.46552 36.7098C10.0196 36.7098 10.4699 36.2884 10.4699 35.7699C10.4699 35.2513 10.0196 34.83 9.46552 34.83Z" fill="#FAB333"/>
<path d="M65.9846 45.7844L66.9543 46.465L68.3396 47.4372L66.989 48.4419L66.0193 49.1549V47.4696L65.9846 45.7844ZM65.7422 44.9093C65.4998 44.9093 65.292 45.0713 65.292 45.3306V47.5021V49.6735C65.292 49.9003 65.4998 50.0948 65.7422 50.0948C65.8461 50.0948 65.9154 50.0624 66.0193 49.9976L67.4045 48.9929L69.0323 47.7937C69.2747 47.6317 69.24 47.3076 69.0323 47.1455L67.4045 45.9788L66.0193 45.0065C65.9154 44.9093 65.8461 44.9093 65.7422 44.9093Z" fill="#FAB333"/>
<path d="M3.40505 15.7085V18.755H2.46998V15.7085H3.40505ZM4.09769 15.0603H1.77734V19.4032H4.09769V15.0603Z" fill="#FAB333"/>
<path d="M6.41774 15.7085V18.755H5.48268V15.7085H6.41774ZM7.11038 15.0603H4.79004V19.4032H7.11038V15.0603Z" fill="#FAB333"/>
<path d="M81.1196 9.22667H80.427V7.67101H78.7646V7.02283H81.1196V9.22667Z" fill="#FAB333"/>
<path d="M84.8592 21.283C80.3917 21.283 76.7207 17.88 76.7207 13.6668C76.7207 11.0092 78.1752 8.57854 80.5995 7.18494L80.9458 7.7359C78.7294 8.99986 77.3787 11.2361 77.3787 13.6668C77.3787 17.4911 80.7034 20.6348 84.8246 20.6348C85.5172 20.6348 86.2099 20.5376 86.8679 20.3756L87.041 20.9913C86.3484 21.1858 85.6211 21.283 84.8592 21.283Z" fill="#FAB333"/>
<path d="M89.0504 20.181L88.7041 19.6301C90.9552 18.3661 92.2712 16.1299 92.2712 13.6667C92.2712 9.84243 88.9465 6.69872 84.8253 6.69872C84.1327 6.69872 83.44 6.79595 82.782 6.958L82.5742 6.34222C83.3015 6.14777 84.0634 6.05054 84.8253 6.05054C89.2928 6.05054 92.9638 9.45352 92.9638 13.6667C92.9638 16.3567 91.5093 18.7874 89.0504 20.181Z" fill="#FAB333"/>
<path d="M90.955 20.3106H88.5654V18.1068H89.2581V19.6625H90.955V20.3106Z" fill="#FAB333"/>
<path d="M86.5567 16.2919H83.1628V15.5465C82.1238 14.9631 81.4658 13.9585 81.4658 12.7917C81.4658 11.0416 82.9896 9.6156 84.8598 9.6156C86.7299 9.6156 88.2537 11.0416 88.2537 12.7917C88.2537 13.926 87.5957 14.9631 86.5567 15.5465V16.2919ZM83.8554 15.6437H85.8641V15.1576L86.0719 15.0604C87.0069 14.6391 87.5611 13.764 87.5611 12.7917C87.5611 11.3981 86.3489 10.2638 84.8598 10.2638C83.3706 10.2638 82.1585 11.3981 82.1585 12.7917C82.1585 13.764 82.7472 14.6066 83.6476 15.0604L83.8554 15.1576V15.6437Z" fill="#017772"/>
<path d="M83.1621 16.616H86.556V17.2642H83.1621V16.616Z" fill="#017772"/>
<path d="M84.5137 13.1158H85.2068V15.6438H84.5137V13.1158Z" fill="#017772"/>
<path d="M84.2012 12.7917H85.5518V13.4399H84.2012V12.7917Z" fill="#017772"/>
<path d="M83.509 12.8241H82.8164C82.8164 11.787 83.7168 10.912 84.8597 10.912V11.5602C84.1324 11.5602 83.509 12.1111 83.509 12.8241Z" fill="#017772"/>
<path d="M89.7429 70.7073C89.7429 70.7073 92.4788 65.781 90.955 64.9384C89.0502 63.9013 87.4918 66.9478 88.2883 68.1469C89.0848 69.3461 88.5307 65.4893 86.5913 66.0079C85.0675 66.4292 84.6173 68.6979 89.7429 70.7073Z" fill="#017772"/>
<path d="M82.9551 26.1443H83.6482V28.1537H82.9551V26.1443Z" fill="#017772"/>
<path d="M82.9551 26.1443H83.6482V28.1537H82.9551V26.1443Z" fill="#FAB333"/>
<path d="M76.2695 30.1266L76.6157 29.5652L78.4755 30.5696L78.1293 31.131L76.2695 30.1266Z" fill="#017772"/>
<path d="M82.9551 38.8813H83.6482V40.8907H82.9551V38.8813Z" fill="#017772"/>
<path d="M88.0791 36.4721L88.4251 35.9106L90.2852 36.9144L89.9391 37.4759L88.0791 36.4721Z" fill="#FAB333"/>
<path d="M88.0615 30.5876L89.9504 29.5657L90.2971 30.1269L88.4082 31.1488L88.0615 30.5876Z" fill="#FAB333"/>
<path d="M88.7383 60.3038H89.4314V62.3132H88.7383V60.3038Z" fill="#017772"/>
<path d="M88.7383 60.3038H89.4314V62.3132H88.7383V60.3038Z" fill="#FAB333"/>
<path d="M82.0459 64.2877L82.3921 63.7262L84.2518 64.7306L83.9056 65.292L82.0459 64.2877Z" fill="#FAB333"/>
<path d="M82.0615 71.1022L83.9212 70.0978L84.2674 70.6592L82.4077 71.6636L82.0615 71.1022Z" fill="#FAB333"/>
<path d="M88.7383 73.0407H89.4314V75.0501H88.7383V73.0407Z" fill="#FAB333"/>
<path d="M93.8604 70.6328L94.2064 70.0713L96.0664 71.0751L95.7204 71.6367L93.8604 70.6328Z" fill="#FAB333"/>
<path d="M93.8428 64.7451L95.7316 63.7231L96.0783 64.2843L94.1894 65.3062L93.8428 64.7451Z" fill="#FAB333"/>
<path d="M13.7949 61.4706H72.6001C76.9984 61.4706 80.5309 64.8087 80.5309 68.8923C80.5309 73.0083 76.9638 76.3141 72.6001 76.3141H13.7949V61.4706Z" fill="#017772"/>
<path d="M68.7213 76.6705C68.5135 76.6705 68.375 76.5409 68.375 76.3464C68.375 76.152 68.5135 76.0223 68.7213 76.0223C72.9118 76.0223 76.3057 72.8462 76.3057 68.9247C76.3057 65.0031 72.9118 61.827 68.7213 61.827C68.5135 61.827 68.375 61.6974 68.375 61.5029C68.375 61.3085 68.5135 61.1788 68.7213 61.1788C73.2927 61.1788 76.9984 64.6466 76.9984 68.9247C77.033 73.1703 73.2927 76.6705 68.7213 76.6705Z" fill="#FAB333"/>
<path d="M57.985 76.6705C57.7772 76.6705 57.6387 76.5409 57.6387 76.3464C57.6387 76.152 57.7772 76.0223 57.985 76.0223C62.1755 76.0223 65.5694 72.8462 65.5694 68.9247C65.5694 65.0031 62.1755 61.827 57.985 61.827C57.7772 61.827 57.6387 61.6974 57.6387 61.5029C57.6387 61.3085 57.7772 61.1788 57.985 61.1788C62.5564 61.1788 66.2621 64.6466 66.2621 68.9247C66.2967 73.1703 62.5564 76.6705 57.985 76.6705Z" fill="#FAB333"/>
<path d="M13.7949 61.4706H49.8469C54.2451 61.4706 57.7776 64.8087 57.7776 68.8923C57.7776 73.0083 54.2105 76.3141 49.8469 76.3141H13.7949V61.4706Z" fill="white"/>
<path d="M49.8465 76.6706H13.7946C13.5868 76.6706 13.4482 76.5409 13.4482 76.3465V61.4706C13.4482 61.2761 13.5868 61.1465 13.7946 61.1465H49.8465C54.4179 61.1465 58.1236 64.6143 58.1236 68.8923C58.1236 73.1704 54.4179 76.6706 49.8465 76.6706ZM14.1409 76.0224H49.8465C54.037 76.0224 57.4309 72.8463 57.4309 68.9247C57.4309 65.0032 54.037 61.8271 49.8465 61.8271H14.1409V76.0224Z" fill="#FAB333"/>
<path d="M47.492 72.6518H14.2106C14.0028 72.6518 13.8643 72.5222 13.8643 72.3278C13.8643 72.1333 14.0028 72.0037 14.2106 72.0037H47.492C47.6998 72.0037 47.8383 72.1333 47.8383 72.3278C47.8383 72.4898 47.6651 72.6518 47.492 72.6518Z" fill="#FAB333"/>
<path d="M38.0369 69.8322H14.6256C14.4178 69.8322 14.2793 69.7026 14.2793 69.5081C14.2793 69.3137 14.4178 69.184 14.6256 69.184H38.0369C38.2447 69.184 38.3832 69.3137 38.3832 69.5081C38.3832 69.6702 38.21 69.8322 38.0369 69.8322Z" fill="#FAB333"/>
<path d="M65.3967 33.5986H22.4876C19.7863 33.5986 17.6045 35.6404 17.6045 38.1683V38.3628C17.6045 40.8907 19.7863 42.9325 22.4876 42.9325H65.3967V33.5986Z" fill="#017772"/>
<path d="M57.7429 42.6083C55.2493 42.6083 53.2061 40.6962 53.2061 38.3627V38.1682C53.2061 35.8348 55.2493 33.9226 57.7429 33.9226H83.8208V42.6083H57.7429Z" fill="white"/>
<path d="M83.4741 34.2468V42.2843H57.7425C55.4221 42.2843 53.552 40.5342 53.552 38.3628V38.1684C53.552 35.9969 55.4221 34.2468 57.7425 34.2468H83.4741ZM84.1667 33.5986H57.7425C55.0412 33.5986 52.8594 35.6404 52.8594 38.1684V38.3628C52.8594 40.8907 55.0412 42.9325 57.7425 42.9325H84.1667V33.5986Z" fill="#FAB333"/>
<path d="M60.0979 24.8156H17.1888C14.4875 24.8156 12.3057 26.8574 12.3057 29.3853V29.5798C12.3057 32.1077 14.4875 34.1495 17.1888 34.1495H60.0979V24.8156Z" fill="#FAB333"/>
<path d="M52.444 33.8255C49.9505 33.8255 47.9072 31.9133 47.9072 29.5799V29.3854C47.9072 27.0519 49.9505 25.1398 52.444 25.1398H78.5219V33.8255H52.444Z" fill="white"/>
<path d="M78.2104 25.4638V33.5013H52.4788C50.1585 33.5013 48.2883 31.7512 48.2883 29.5798V29.3853C48.2883 27.2139 50.1585 25.4638 52.4788 25.4638H78.2104ZM78.9031 24.8156H52.4788C49.7775 24.8156 47.5957 26.8574 47.5957 29.3853V29.5798C47.5957 32.1077 49.7775 34.1495 52.4788 34.1495H78.9031V24.8156Z" fill="#FAB333"/>
<path d="M16.7041 52.2339H81.6738C84.479 52.2339 86.7647 50.0949 86.7647 47.4697C86.7647 44.8446 84.479 42.7056 81.6738 42.7056H16.7041V52.2339Z" fill="white"/>
<path d="M81.6734 52.558H16.7037C16.496 52.558 16.3574 52.4283 16.3574 52.2339V42.7055C16.3574 42.511 16.496 42.3814 16.7037 42.3814H81.6734C84.6518 42.3814 87.1107 44.6501 87.1107 47.4697C87.1107 50.2569 84.6864 52.558 81.6734 52.558ZM17.0501 51.9098H81.6734C84.2708 51.9098 86.418 49.9328 86.418 47.4697C86.418 45.039 84.3055 43.0296 81.6734 43.0296H17.0501V51.9098Z" fill="#FAB333"/>
<path d="M16.7041 52.2339H42.8167C45.6219 52.2339 47.9076 50.0949 47.9076 47.4697C47.9076 44.8446 45.6219 42.7056 42.8167 42.7056H16.7041V52.2339Z" fill="white"/>
<path d="M42.8163 52.558H16.7037C16.4959 52.558 16.3574 52.4283 16.3574 52.2339V42.7055C16.3574 42.511 16.4959 42.3814 16.7037 42.3814H42.8163C45.7946 42.3814 48.2535 44.6501 48.2535 47.4697C48.2535 50.2569 45.7946 52.558 42.8163 52.558ZM17.0501 51.9098H42.8163C45.4137 51.9098 47.5609 49.9328 47.5609 47.4697C47.5609 45.039 45.4483 43.0296 42.8163 43.0296H17.0501V51.9098Z" fill="#FAB333"/>
<path d="M41.2928 45.6224H16.9811C16.7733 45.6224 16.6348 45.4927 16.6348 45.2983C16.6348 45.1038 16.7733 44.9742 16.9811 44.9742H41.2928C41.5006 44.9742 41.6391 45.1038 41.6391 45.2983C41.6391 45.4603 41.5006 45.6224 41.2928 45.6224Z" fill="#FAB333"/>
<path d="M34.7471 59.2668V48.6365H38.7298H42.6778V59.2668L38.7298 57.1277L34.7471 59.2668Z" fill="#017772"/>
<path d="M17.9854 61.4706H79.4226C82.02 61.4706 84.1325 59.4937 84.1325 57.063C84.1325 54.6322 82.02 52.6553 79.4226 52.6553H17.9854V61.4706Z" fill="#FAB333"/>
<path d="M79.4568 61.7947H17.985C17.7772 61.7947 17.6387 61.6651 17.6387 61.4706V52.6229C17.6387 52.4284 17.7772 52.2988 17.985 52.2988H79.4222C82.2274 52.2988 84.4785 54.4378 84.4785 57.0305C84.5131 59.6557 82.262 61.7947 79.4568 61.7947ZM18.3313 61.1465H79.4222C81.8465 61.1465 83.7858 59.2992 83.7858 57.0629C83.7858 54.7943 81.8118 52.9794 79.4222 52.9794H18.3313V61.1465Z" fill="#FAB333"/>
<path d="M17.9854 61.4706H42.1931C44.7905 61.4706 46.9031 59.4937 46.9031 57.063C46.9031 54.6322 44.7905 52.6553 42.1931 52.6553H17.9854V61.4706Z" fill="white"/>
<path d="M42.2274 61.7947H17.985C17.7772 61.7947 17.6387 61.6651 17.6387 61.4706V52.6229C17.6387 52.4284 17.7772 52.2988 17.985 52.2988H42.1928C44.998 52.2988 47.2491 54.4378 47.2491 57.0305C47.2837 59.6557 45.0326 61.7947 42.2274 61.7947ZM18.3313 61.1465H42.1928C44.617 61.1465 46.5564 59.2992 46.5564 57.0629C46.5564 54.7943 44.5824 52.9794 42.1928 52.9794H18.3313V61.1465Z" fill="#FAB333"/>
<path d="M40.8078 55.3453H18.2623C18.0545 55.3453 17.916 55.2156 17.916 55.0212C17.916 54.8267 18.0545 54.6971 18.2623 54.6971H40.8424C41.0502 54.6971 41.1887 54.8267 41.1887 55.0212C41.1541 55.2156 41.0156 55.3453 40.8078 55.3453Z" fill="#FAB333"/>
<path d="M28.7556 57.8084H18.5045C18.2967 57.8084 18.1582 57.6788 18.1582 57.4843C18.1582 57.2899 18.2967 57.1602 18.5045 57.1602H28.7556C28.9634 57.1602 29.1019 57.2899 29.1019 57.4843C29.1019 57.6788 28.9288 57.8084 28.7556 57.8084Z" fill="#FAB333"/>
<path d="M36.3401 25.3342C36.2362 25.3342 36.167 25.3342 36.0977 25.3018C32.6691 24.7184 26.9549 20.5052 21.864 16.4216C17.9852 13.3427 17.6042 10.8148 17.7427 9.55084C17.8466 8.54615 18.2969 7.73591 18.9895 7.37941C19.9938 6.82845 21.2059 7.08773 22.3488 7.31459C23.0068 7.44423 23.6302 7.57387 24.1843 7.57387C24.8077 7.54146 25.2233 7.05532 25.7081 6.47195C26.2276 5.85617 26.7817 5.14316 27.7514 5.07834C28.4787 5.01353 29.3791 5.37003 30.3142 5.72653C31.6302 6.21267 33.0847 6.76363 34.4008 6.40713C35.1627 6.21267 35.8207 5.6293 36.6518 4.88389C38.2103 3.52269 40.3228 1.67536 44.7211 1.02717C47.1453 0.638258 49.5696 1.22163 51.7168 2.71246C54.6605 4.75425 56.3228 7.80073 56.5306 9.35638C56.9116 11.9815 52.167 12.9214 51.3012 13.0835C49.812 14.7039 39.9072 25.3342 36.3401 25.3342ZM20.3748 7.73591C19.9938 7.73591 19.6129 7.80073 19.3012 7.96278C18.9202 8.15724 18.47 8.7406 18.4008 9.64807C18.3315 10.5555 18.5393 12.9538 22.2795 15.9679C27.0241 19.7274 32.8769 24.1351 36.2016 24.686C36.8943 24.8157 38.9029 24.1999 44.5826 18.8847C47.8726 15.8059 50.7817 12.6297 50.8163 12.5973C50.8856 12.5325 50.9549 12.5001 51.0241 12.5001C52.444 12.2732 56.0804 11.3009 55.8033 9.48602C55.5956 8.09242 54.0025 5.17557 51.2665 3.26342C49.2579 1.83741 47.1107 1.31886 44.825 1.67536C40.6345 2.32355 38.6951 4.00883 37.1367 5.37003C36.2709 6.11544 35.509 6.76363 34.6085 7.02291C33.0847 7.44423 31.4917 6.82845 30.0717 6.3099C29.2059 5.98581 28.3748 5.69412 27.8207 5.72653C27.1627 5.75894 26.7471 6.3099 26.2622 6.86086C25.7427 7.47664 25.1886 8.18964 24.2189 8.22205C23.5609 8.25446 22.8683 8.09242 22.2103 7.96278C21.5523 7.83314 20.9289 7.73591 20.3748 7.73591Z" fill="#017772"/>
<path d="M51.544 13.0186C51.544 13.0186 57.3276 11.8194 57.0852 9.06463C56.8427 6.30983 52.583 -0.593366 45.4834 0.865056C38.4185 2.32348 36.8601 6.40706 34.2973 7.2497C31.7345 8.09235 28.9986 5.95333 27.267 6.14778C25.5354 6.34224 25.0159 8.90258 23.3536 9.06463C21.6912 9.22668 19.5787 8.12476 18.0549 9.06463C16.4964 10.0045 15.3882 13.926 20.6869 18.2041C25.9856 22.4821 31.6306 26.6629 35.0246 27.0842C38.4531 27.538 51.544 13.0186 51.544 13.0186Z" fill="#017772"/>
<path d="M56.8425 13.602C56.7733 13.602 56.704 13.5696 56.6348 13.5371C56.4962 13.4399 56.4616 13.213 56.5655 13.0834C56.9811 12.5973 57.1889 12.0463 57.2235 11.4305C57.2928 9.87488 55.9767 8.57851 54.3144 8.51369C52.6521 8.44887 51.2668 9.68043 51.1975 11.2361C51.1975 11.4305 51.0244 11.5602 50.8512 11.5602C50.6434 11.5602 50.5049 11.3981 50.5049 11.2361C50.5741 9.32392 52.3057 7.83309 54.349 7.89791C56.3923 7.96273 57.9854 9.5832 57.9161 11.4954C57.8815 12.2408 57.6044 12.9538 57.1196 13.5371C57.0157 13.5696 56.9464 13.602 56.8425 13.602Z" fill="#017772"/>
<path d="M57.0205 11.3612C57.1938 9.77646 55.9615 8.3603 54.268 8.19812C52.5746 8.03595 51.0613 9.18917 50.888 10.7739C50.7147 12.3587 51.947 13.7748 53.6405 13.937C55.3339 14.0992 56.8472 12.946 57.0205 11.3612Z" fill="#017772"/>
<path d="M38.1062 28.8019L26.9893 31.2326C24.565 31.7836 22.0369 30.7141 20.8594 28.6075C19.6127 26.4036 20.236 23.7137 22.314 22.158L26.5391 19.0143C31.0759 15.6437 36.7209 13.8612 42.5044 13.9584L53.3096 14.1205C55.9763 14.0881 58.643 14.2501 61.3096 14.639L69.4135 15.8382C74.92 16.6484 75.578 23.8109 70.314 25.4962L63.907 26.825L55.9417 24.3294L38.1062 28.8019Z" fill="#017772"/>
<path d="M41.3958 19.5004C42.8157 20.7644 45.0668 20.6996 46.4175 19.3708L51.4391 14.4121C52.7898 13.0834 52.7205 10.9768 51.3006 9.71278C49.8807 8.44882 47.6296 8.51364 46.2789 9.84242L41.2573 14.8011C39.9066 16.1298 39.9759 18.2365 41.3958 19.5004Z" fill="white"/>
<path d="M43.8552 20.732C42.8855 20.732 41.9158 20.4079 41.1539 19.7273C39.5954 18.3337 39.5262 16.0327 41.0154 14.5418L46.037 9.5832C47.5262 8.12478 49.985 8.05996 51.5781 9.45357C52.34 10.1342 52.7556 11.0416 52.7902 12.0139C52.8249 12.9862 52.4439 13.9261 51.7167 14.6391L46.695 19.5977C45.8985 20.3431 44.8941 20.732 43.8552 20.732ZM41.6387 19.2736C42.9201 20.4079 44.9634 20.3755 46.1755 19.144L51.1972 14.1853C51.7859 13.602 52.0976 12.8241 52.063 12.0463C52.0283 11.2361 51.682 10.4907 51.0586 9.93971C49.7773 8.80538 47.734 8.83779 46.5218 10.0693L41.5002 15.028C40.2881 16.2271 40.3573 18.1069 41.6387 19.2736Z" fill="#017772"/>
<path d="M38.0716 19.6949C38.0716 19.6949 43.9937 20.1486 46.7989 20.2458C49.6041 20.3755 53.6906 21.5746 53.6906 21.5746C58.0196 22.4821 60.7902 25.2045 60.8941 25.3341C61.3097 25.7554 61.2751 26.4036 60.8595 26.7925C60.4093 27.1815 59.7166 27.149 59.301 26.7601C59.301 26.7601 58.9547 26.436 58.4006 26.0147C59.2318 27.1815 59.5435 28.1213 59.5781 28.1861C59.7512 28.7371 59.4049 29.2881 58.8162 29.4501C58.4006 29.5473 57.985 29.4501 57.708 29.1584C57.6041 29.0288 57.5002 28.8991 57.4655 28.7371C57.4655 28.7371 57.3616 28.4778 57.1885 28.0889C57.2924 28.4778 57.327 28.7371 57.327 28.7695C57.3963 29.3205 56.9461 29.839 56.3573 29.9038C56.011 29.9362 55.6647 29.8066 55.4222 29.5797C55.2837 29.4177 55.1452 29.2232 55.1452 28.9964C55.1452 28.964 54.8681 27.1815 53.2751 25.4638C54.4179 26.8898 54.5911 28.2186 54.5911 28.2834C54.6603 28.8343 54.2448 29.3529 53.6214 29.4177C53.2751 29.4501 52.9287 29.3205 52.6863 29.0936C52.5478 28.9316 52.4439 28.7371 52.4093 28.5102C52.4093 28.4454 52.2707 27.538 51.4049 26.5657C50.0543 27.3111 48.3227 26.274 48.3227 26.274C48.3227 26.274 38.4872 29.0612 38.1062 28.8343C37.7253 28.5751 36.0283 27.862 35.5781 24.8156C35.1279 21.6394 38.0716 19.6949 38.0716 19.6949Z" fill="white"/>
<path d="M56.2186 30.2279C55.8376 30.2279 55.422 30.0659 55.145 29.8066C54.9372 29.5797 54.7987 29.3205 54.764 29.0288C54.764 29.0288 54.764 29.0288 54.764 28.9964C54.5562 29.3853 54.1407 29.677 53.6558 29.7418C53.2056 29.8066 52.7554 29.6446 52.4091 29.3205C52.2013 29.126 52.0627 28.8667 52.0281 28.5751C52.0281 28.5751 51.9242 27.8296 51.2662 26.987C50.0541 27.4731 48.6688 26.8574 48.2532 26.6305C38.4177 29.4501 38.0714 29.1908 37.8982 29.0936C37.8636 29.0612 37.829 29.0612 37.7943 29.0288C37.2056 28.6723 35.6818 27.7648 35.2662 24.8804C34.7814 21.5422 37.7597 19.5328 37.8982 19.468C37.9675 19.4356 38.0368 19.4032 38.1407 19.4032C38.2099 19.4032 44.0974 19.8569 46.8679 19.9542C49.7078 20.0838 53.6904 21.2505 53.8636 21.2829C58.2619 22.1904 61.1017 25.01 61.2402 25.1072C61.7943 25.6582 61.7597 26.5009 61.171 27.0194C60.7554 27.3759 60.1666 27.4731 59.6472 27.3111C59.8549 27.7324 59.9588 28.0241 59.9588 28.0889C60.1666 28.8019 59.751 29.5473 58.9545 29.7742C58.4697 29.9038 57.9502 29.8066 57.5692 29.4825C57.3614 29.9038 56.9459 30.2279 56.4264 30.2603C56.3225 30.2279 56.2878 30.2279 56.2186 30.2279ZM53.2749 25.1397C53.3788 25.1397 53.4826 25.1721 53.5519 25.2369C55.2489 27.0518 55.4913 28.9316 55.4913 28.9316C55.5259 29.0936 55.5952 29.2232 55.6991 29.3205C55.8723 29.4825 56.1147 29.5797 56.3225 29.5473C56.7381 29.5149 57.0151 29.1584 56.9805 28.7695C56.9805 28.7695 56.9459 28.5102 56.842 28.1213C56.8073 27.9593 56.8766 27.7972 57.0497 27.7324C57.2229 27.6676 57.3961 27.7324 57.4653 27.8945C57.6731 28.3158 57.777 28.6075 57.777 28.6075C57.8117 28.7047 57.8809 28.8019 57.9502 28.8991C58.158 29.0936 58.435 29.1584 58.7121 29.0936C59.093 28.9964 59.3355 28.6075 59.2316 28.2185C59.2316 28.1861 58.9545 27.2787 58.1233 26.1443C58.0194 26.0147 58.0541 25.8203 58.158 25.723C58.2965 25.6258 58.4697 25.5934 58.6082 25.723C59.1969 26.1768 59.5433 26.5009 59.5433 26.5009C59.8203 26.7925 60.3052 26.7925 60.6168 26.5333C60.9285 26.274 60.9285 25.8203 60.6515 25.5286C60.5476 25.4313 57.8463 22.7738 53.6212 21.8663C53.5519 21.8339 49.5 20.6672 46.764 20.5699C44.2013 20.4727 39.0411 20.0838 38.1407 20.019C37.6558 20.3755 35.5086 22.1256 35.8896 24.7507C36.2705 27.3759 37.6212 28.1537 38.106 28.4454C38.1407 28.4778 38.1753 28.4778 38.1753 28.5102C38.9718 28.5102 44.6515 26.9546 48.1493 25.9499C48.2532 25.9175 48.3571 25.9499 48.4264 25.9823C48.4264 25.9823 49.9848 26.8898 51.1277 26.274C51.2662 26.1768 51.474 26.2092 51.5779 26.3388C52.4783 27.4083 52.6515 28.413 52.6515 28.4454C52.6861 28.6075 52.7554 28.7371 52.8593 28.8343C53.0324 28.9964 53.2749 29.0936 53.5173 29.0612C53.9329 29.0288 54.2099 28.6723 54.1753 28.2834C54.1753 28.2185 54.0021 26.987 52.9285 25.6258C52.8246 25.4962 52.8593 25.3017 52.9978 25.1721C53.1017 25.1397 53.2056 25.1397 53.2749 25.1397Z" fill="#017772"/>
<path d="M56.0107 23.2923C56.0107 23.2923 57.7077 24.6859 58.435 25.9823L56.0107 23.2923Z" fill="white"/>
<path d="M58.4004 26.274C58.2618 26.274 58.1579 26.2091 58.0887 26.1119C57.4307 24.8804 55.7683 23.5516 55.7683 23.5192C55.6298 23.3895 55.5952 23.1951 55.7337 23.0654C55.8722 22.9358 56.08 22.9034 56.2185 23.033C56.2878 23.0978 57.9848 24.459 58.7121 25.8202C58.8159 25.9823 58.7467 26.1767 58.5735 26.2416C58.5389 26.274 58.4696 26.274 58.4004 26.274Z" fill="#017772"/>
<path d="M55.042 24.297C55.042 24.297 56.739 26.0471 57.1892 28.0241L55.042 24.297Z" fill="white"/>
<path d="M57.1887 28.3806C57.0156 28.3806 56.877 28.2834 56.8424 28.1213C56.4268 26.2416 54.7991 24.5563 54.7991 24.5239C54.6606 24.3942 54.6952 24.1998 54.8338 24.0701C54.9723 23.9405 55.1801 23.9729 55.3186 24.1025C55.3879 24.1674 57.0848 25.9499 57.5351 27.9917C57.5697 28.1537 57.4658 28.3482 57.258 28.3806C57.2234 28.3806 57.1887 28.3806 57.1887 28.3806Z" fill="#017772"/>
<path d="M64.8759 17.491C64.8759 17.491 58.9538 17.5235 56.114 17.4586C53.3088 17.3938 49.1183 18.3013 49.1183 18.3013C44.7201 18.9171 41.7417 21.445 41.6378 21.5422C41.1876 21.9311 41.153 22.5793 41.5686 23.0006C41.9841 23.422 42.6768 23.4544 43.127 23.0655C43.127 23.0655 43.4733 22.7738 44.0967 22.3849C43.1616 23.4868 42.7807 24.3942 42.7807 24.4591C42.5729 24.9776 42.8499 25.5934 43.4387 25.7878C43.8543 25.9175 44.2699 25.8203 44.5815 25.5934C44.7201 25.4962 44.7893 25.3665 44.8586 25.2045C44.8586 25.2045 44.9625 24.9452 45.2049 24.5887C45.0664 24.9776 44.9971 25.2369 44.9971 25.2693C44.8932 25.8203 45.2742 26.3712 45.8629 26.4684C46.2092 26.5333 46.5556 26.436 46.8326 26.2092C47.0058 26.0795 47.1097 25.8851 47.1789 25.6582C47.1789 25.6258 47.5945 23.8433 49.2915 22.2552C48.0447 23.6164 47.7677 24.9128 47.7677 24.9776C47.6638 25.5286 48.0447 26.0795 48.6335 26.1768C48.9798 26.2416 49.3261 26.1444 49.6032 25.9175C49.7763 25.7878 49.8802 25.5934 49.9495 25.3665C49.9495 25.3017 50.1573 24.4267 51.0924 23.4868C52.3737 24.3294 54.1746 23.422 54.1746 23.422C54.1746 23.422 63.7331 26.8898 64.1486 26.6629C64.5642 26.436 66.2958 25.8203 66.9885 22.8386C67.6811 19.6301 64.8759 17.491 64.8759 17.491Z" fill="white"/>
<path d="M64.1143 26.9222C63.6295 26.9222 61.8979 26.5009 54.1749 23.7136C53.7247 23.9081 52.3048 24.4267 51.1273 23.8433C50.4347 24.6535 50.2615 25.3665 50.2615 25.3665C50.1923 25.6582 50.0537 25.8851 49.8113 26.0795C49.465 26.3712 49.0148 26.5009 48.5646 26.4036C48.0797 26.3064 47.6987 25.9823 47.491 25.5934C47.491 25.6258 47.491 25.6258 47.491 25.6258C47.4217 25.9175 47.2832 26.1768 47.0407 26.3712C46.6944 26.6629 46.2442 26.7925 45.794 26.6953C45.2745 26.5981 44.8589 26.274 44.7204 25.8203C44.3394 26.1119 43.7853 26.1768 43.3351 26.0147C42.6078 25.7554 42.1923 24.9776 42.4693 24.2646C42.5039 24.1998 42.6078 23.9405 42.8503 23.5192C42.3308 23.6812 41.742 23.5516 41.3611 23.1303C40.807 22.5793 40.8762 21.7367 41.4304 21.2181C41.5689 21.1209 44.6165 18.5281 49.1187 17.88C49.2572 17.8475 53.3438 16.9401 56.1836 17.0373C58.9542 17.1021 64.8762 17.0697 64.9109 17.0697C64.9801 17.0697 65.084 17.1021 65.1187 17.1345C65.2226 17.2318 68.0624 19.4356 67.3005 22.709C66.6425 25.5934 65.0494 26.3712 64.426 26.6953C64.3914 26.7277 64.3221 26.7277 64.2875 26.7601C64.2875 26.8898 64.2529 26.9222 64.1143 26.9222ZM54.1403 23.0655C54.1749 23.0655 54.2096 23.0655 54.2788 23.0979C57.6728 24.3294 63.2139 26.2416 64.0104 26.3064C64.0451 26.3064 64.0797 26.274 64.0797 26.274C64.5992 26.0147 65.9845 25.3017 66.6078 22.7414C67.1966 20.1486 65.1879 18.2689 64.7377 17.88C63.8373 17.88 58.6771 17.9124 56.1143 17.8475C53.3784 17.7827 49.2572 18.6578 49.2226 18.6902C44.8936 19.306 42.0191 21.7367 41.8806 21.8663C41.5689 22.1256 41.5689 22.5793 41.8459 22.871C42.123 23.1627 42.6078 23.1627 42.9195 22.9034C42.9195 22.9034 43.2658 22.6117 43.9239 22.1904C44.0624 22.0932 44.2702 22.1256 44.3741 22.2228C44.478 22.3525 44.5126 22.5145 44.3741 22.6441C43.4736 23.7136 43.1273 24.5887 43.0927 24.6211C42.9542 24.9776 43.162 25.3989 43.5429 25.5286C43.82 25.6258 44.097 25.561 44.3048 25.3989C44.4087 25.3341 44.4433 25.2369 44.5126 25.1397C44.5126 25.1397 44.6165 24.8804 44.8936 24.4591C44.9974 24.3294 45.1706 24.2646 45.3438 24.3294C45.5169 24.3942 45.5862 24.5563 45.5169 24.7183C45.3784 25.1073 45.3438 25.3665 45.3438 25.3665C45.2745 25.7554 45.5516 26.1119 45.9325 26.1768C46.1749 26.2092 46.4174 26.1444 46.5905 26.0147C46.6944 25.9175 46.7983 25.7878 46.833 25.6258C46.833 25.5934 47.2485 23.7461 49.0494 22.0608C49.1879 21.9311 49.3957 21.9311 49.5343 22.0608C49.6728 22.1904 49.6728 22.3849 49.5689 22.5145C48.3914 23.8109 48.149 25.0424 48.1143 25.0748C48.0451 25.4638 48.3221 25.8203 48.7031 25.8851C48.9455 25.9175 49.1879 25.8527 49.3611 25.723C49.465 25.6258 49.5689 25.4962 49.6035 25.3341C49.6035 25.3017 49.8459 24.297 50.8156 23.2923C50.9195 23.1627 51.1273 23.1627 51.2659 23.2599C52.3394 23.9729 53.9671 23.1627 54.0018 23.1627C54.0364 23.0655 54.1057 23.0655 54.1403 23.0655Z" fill="#017772"/>
<path d="M46.7292 19.8569C46.7292 19.8569 44.9284 21.1209 44.1318 22.3849L46.7292 19.8569Z" fill="white"/>
<path d="M44.0972 22.709C44.028 22.709 43.9587 22.709 43.9241 22.6766C43.7509 22.5793 43.7163 22.3849 43.8202 22.2228C44.6513 20.9265 46.4522 19.6625 46.5215 19.6301C46.66 19.5329 46.9024 19.5653 47.0063 19.6949C47.1102 19.8245 47.0756 20.0514 46.937 20.1486C46.9024 20.1486 45.1708 21.3802 44.4089 22.5793C44.3396 22.6442 44.2357 22.709 44.0972 22.709Z" fill="#017772"/>
<path d="M47.6293 20.9589C47.6293 20.9589 45.7938 22.6117 45.2051 24.5563L47.6293 20.9589Z" fill="white"/>
<path d="M45.2055 24.8805C45.1709 24.8805 45.1362 24.8805 45.1016 24.8805C44.9284 24.8156 44.8245 24.6536 44.8592 24.4915C45.4826 22.4822 47.2834 20.8293 47.3873 20.7645C47.5258 20.6348 47.7336 20.6348 47.8722 20.7645C48.0107 20.8941 48.0107 21.0886 47.8722 21.2182C47.8375 21.2182 46.1059 22.8387 45.5518 24.6536C45.4826 24.7832 45.344 24.8805 45.2055 24.8805Z" fill="#017772"/>
<path d="M44.8252 14.9956C45.1369 16.6485 46.4529 18.0745 48.323 18.4958C50.8165 19.0468 53.31 17.6207 53.8988 15.2873L55.0416 10.75C55.6304 8.41648 54.1066 6.08301 51.6131 5.53205C49.1196 4.98109 46.6261 6.4071 46.0373 8.74058L44.8252 14.9956Z" fill="white"/>
<path d="M49.3962 18.9495C49.0152 18.9495 48.5997 18.917 48.2187 18.8198C46.2793 18.3985 44.7901 16.9077 44.4438 15.0603C44.4092 14.8983 44.5477 14.7038 44.7209 14.6714C44.9287 14.639 45.1018 14.7686 45.1365 14.9307C45.4135 16.5188 46.6949 17.8151 48.3572 18.1716C50.6429 18.6902 52.9979 17.3614 53.5174 15.19L54.6603 10.6527C55.2144 8.51364 53.7945 6.34221 51.4741 5.82366C49.1884 5.30511 46.8681 6.63389 46.3139 8.80532C46.2793 8.96737 46.0715 9.09701 45.8984 9.03219C45.7252 8.99978 45.5867 8.80532 45.6559 8.64328C46.2793 6.14775 48.9806 4.5921 51.6819 5.17547C52.9633 5.46716 54.0715 6.21257 54.7642 7.28208C55.4568 8.35159 55.6646 9.58315 55.3529 10.8147L54.21 15.352C53.8984 16.5512 53.1018 17.5883 51.959 18.2365C51.1971 18.7226 50.2966 18.9495 49.3962 18.9495Z" fill="#017772"/>
<path d="M48.0462 5.14307C47.492 5.30511 46.9726 5.49957 46.4877 5.75885C46.2799 6.43944 46.2453 7.18486 46.4531 7.86546C47.1804 10.2962 50.4011 11.5601 53.6219 10.7175C54.176 10.5554 54.6955 10.361 55.1804 10.1017C55.3882 9.42111 55.4228 8.67569 55.215 7.99509C54.4877 5.56439 51.2669 4.30042 48.0462 5.14307Z" fill="#017772"/>
<path d="M47.3186 11.0739C48.0458 10.3609 48.0112 9.25901 47.2493 8.61082C46.4874 7.93023 45.3099 7.96264 44.6173 8.67564C43.89 9.38865 43.9246 10.4906 44.6865 11.1388C44.9982 11.4304 45.3792 11.5601 45.7947 11.6249L47.3186 11.0739Z" fill="white"/>
<path d="M52.6866 14.2176C52.5481 14.4769 52.5827 14.7686 52.7905 14.8658C52.9983 14.9631 53.2754 14.8334 53.4139 14.5417C53.5524 14.2825 53.5178 13.9908 53.31 13.8936C53.1022 13.7963 52.8252 13.926 52.6866 14.2176Z" fill="#017772"/>
<path d="M50.4357 13.4723C50.2971 13.7316 50.3318 14.0233 50.5396 14.1205C50.7473 14.2177 51.0244 14.0881 51.1629 13.7964C51.3015 13.5371 51.2668 13.2454 51.059 13.1482C50.8512 13.051 50.5742 13.213 50.4357 13.4723Z" fill="#017772"/>
<path d="M50.3319 16.7456C50.2627 16.7456 50.1934 16.7456 50.1588 16.7132C49.7086 16.4539 49.3969 16.0326 49.3276 15.5464C49.293 15.3844 49.4315 15.1899 49.6047 15.1899C49.7778 15.1575 49.9856 15.2872 49.9856 15.4492C50.0203 15.7409 50.228 16.0002 50.5051 16.1622C50.6783 16.2594 50.7129 16.4539 50.609 16.6159C50.5744 16.7132 50.4358 16.7456 50.3319 16.7456Z" fill="#017772"/>
<path d="M51.3363 15.6762C51.3017 15.6762 51.267 15.6762 51.2324 15.6438C51.0593 15.5789 50.9554 15.4169 51.0246 15.2224L51.5787 13.6668C51.648 13.5047 51.8212 13.4075 52.029 13.4723C52.2021 13.5371 52.306 13.6992 52.2367 13.8937L51.6826 15.4493C51.6134 15.5789 51.4748 15.6762 51.3363 15.6762Z" fill="#017772"/>
<path d="M54.1068 13.8935C54.0029 13.8935 53.8644 13.8287 53.7951 13.7315C53.6566 13.537 53.4834 13.3426 53.2756 13.213C53.1025 13.1157 53.0678 12.9213 53.1717 12.7592C53.2756 12.5972 53.4834 12.5648 53.6566 12.662C53.9336 12.8564 54.2107 13.0833 54.3838 13.375C54.4877 13.537 54.4185 13.7315 54.2799 13.8287C54.2107 13.8935 54.1761 13.8935 54.1068 13.8935Z" fill="#017772"/>
<path d="M51.6473 12.7592C51.5434 12.7592 51.4741 12.7268 51.4049 12.662C51.2663 12.5324 50.9893 12.4999 50.8161 12.5972C50.643 12.6944 50.4352 12.6296 50.3313 12.4999C50.2274 12.3379 50.2966 12.1434 50.4352 12.0462C50.8854 11.7869 51.5088 11.8518 51.8897 12.1759C52.0282 12.3055 52.0282 12.4999 51.8897 12.6296C51.8551 12.7268 51.7512 12.7592 51.6473 12.7592Z" fill="#017772"/>
<path d="M27.751 21.1209C27.5779 21.1209 27.4393 20.9912 27.4047 20.8292C27.3701 20.6671 27.5086 20.5051 27.7164 20.4727L38.0714 19.3383C38.2792 19.3059 38.4177 19.4356 38.4523 19.63C38.487 19.7921 38.3484 19.9541 38.1406 19.9865L27.7857 21.1209C27.751 21.1209 27.751 21.1209 27.751 21.1209Z" fill="#017772"/>
<path d="M64.8766 17.8151C64.7034 17.8151 64.5303 17.6855 64.5303 17.491C64.5303 17.2966 64.6688 17.1669 64.8766 17.1669L68.4091 17.0697C68.6169 17.0697 68.7554 17.1993 68.7554 17.3938C68.7554 17.5883 68.6169 17.7179 68.4091 17.7179L64.8766 17.8151Z" fill="#017772"/>
<path d="M9.46552 37.358C8.53046 37.358 7.76855 36.645 7.76855 35.7699C7.76855 34.8949 8.53046 34.1819 9.46552 34.1819C10.4006 34.1819 11.1625 34.8949 11.1625 35.7699C11.1625 36.645 10.4006 37.358 9.46552 37.358ZM9.46552 34.8301C8.91141 34.8301 8.4612 35.2514 8.4612 35.7699C8.4612 36.2885 8.91141 36.7098 9.46552 36.7098C10.0196 36.7098 10.4699 36.2885 10.4699 35.7699C10.4699 35.2514 10.0196 34.8301 9.46552 34.8301Z" fill="#FAB333"/>
<path d="M65.9846 45.7845L66.9543 46.4651L68.3396 47.4374L66.989 48.442L66.0193 49.1551V47.4698L65.9846 45.7845ZM65.7422 44.9094C65.4998 44.9094 65.292 45.0715 65.292 45.3307V47.5022V49.6736C65.292 49.9005 65.4998 50.0949 65.7422 50.0949C65.8461 50.0949 65.9154 50.0625 66.0193 49.9977L67.4045 48.993L69.0323 47.7939C69.2747 47.6318 69.24 47.3077 69.0323 47.1457L67.4045 45.9789L66.0193 45.0067C65.9154 44.9094 65.8461 44.9094 65.7422 44.9094Z" fill="#FAB333"/>
<path d="M3.40505 15.7086V18.755H2.46998V15.7086H3.40505ZM4.09769 15.0604H1.77734V19.4032H4.09769V15.0604Z" fill="#FAB333"/>
<path d="M6.41774 15.7086V18.755H5.48268V15.7086H6.41774ZM7.11038 15.0604H4.79004V19.4032H7.11038V15.0604Z" fill="#FAB333"/>
</g>
<defs>
<clipPath id="clip0_963_47030">
<path d="M0.0800781 0.665039H96.0801V60.665C96.0801 69.5016 88.9166 76.665 80.0801 76.665H16.0801C7.24352 76.665 0.0800781 69.5016 0.0800781 60.665V0.665039Z" fill="white"/>
</clipPath>
</defs>
</svg>
