<svg width="105" height="80" viewBox="0 0 105 80" fill="none" xmlns="http://www.w3.org/2000/svg">
<path d="M90.2434 58.4368L22.4548 75.7682C20.743 76.2126 18.9969 75.1871 18.5861 73.4779L6.94562 28.1837C6.50054 26.4745 7.52764 24.7311 9.23947 24.3208L77.0623 6.9894C78.7741 6.54501 80.5202 7.57053 80.931 9.27975L92.5373 54.574C92.9823 56.2832 91.9552 57.9924 90.2434 58.4368Z" fill="white"/>
<path d="M21.6341 76.2125C21.0179 76.2125 20.4016 76.0416 19.8538 75.7339C19.0321 75.2553 18.4501 74.4691 18.2447 73.5803L6.60423 28.2861C6.12492 26.406 7.25473 24.4575 9.13774 23.9789L76.9606 6.64744C77.8849 6.40815 78.8436 6.54488 79.631 7.02346C80.4527 7.50204 81.0347 8.28828 81.2401 9.17708L92.8464 54.4713C93.3257 56.3514 92.1959 58.2999 90.3129 58.7785L22.5243 76.1099C22.2504 76.1783 21.9423 76.2125 21.6341 76.2125ZM77.8507 7.22857C77.6111 7.22857 77.3714 7.26275 77.1317 7.33112L9.34316 24.6284C7.83675 25.0044 6.91236 26.5769 7.28896 28.081L18.8952 73.3752C19.1006 74.1273 19.5457 74.7426 20.1962 75.1186C20.8467 75.4946 21.6341 75.6314 22.3531 75.4263L90.1759 58.0948C91.6823 57.7188 92.6067 56.1463 92.2301 54.6422L80.6239 9.38218C80.4185 8.63013 79.9734 8.01481 79.3229 7.63878C78.8436 7.36531 78.3643 7.22857 77.8507 7.22857Z" fill="#017772"/>
<path d="M11.2949 29.1746C10.576 29.1746 9.9597 28.696 9.75428 27.9781C9.54886 27.1235 10.0624 26.2689 10.8841 26.0638C11.74 25.8587 12.5959 26.3714 12.8013 27.1919C12.9041 27.6021 12.8356 28.0123 12.6302 28.3883C12.4247 28.7643 12.0824 29.0036 11.6715 29.1062C11.5688 29.1746 11.4319 29.1746 11.2949 29.1746ZM11.2949 26.7133C11.2265 26.7133 11.158 26.7133 11.0895 26.7475C10.6102 26.8842 10.3363 27.3628 10.439 27.8414C10.5075 28.0807 10.6444 28.2516 10.8499 28.3883C11.0553 28.5251 11.2949 28.5592 11.5346 28.4909C11.7742 28.4225 11.9454 28.2858 12.0824 28.0807C12.2193 27.8755 12.2536 27.6363 12.1851 27.397C12.0824 26.9868 11.7058 26.7133 11.2949 26.7133Z" fill="#017772"/>
<path d="M15.332 28.1492C14.613 28.1492 13.9967 27.6706 13.7913 26.9527C13.6886 26.5425 13.7571 26.1323 13.9625 25.7563C14.1679 25.3802 14.5103 25.1409 14.9211 25.0384C15.7771 24.8333 16.633 25.346 16.8384 26.1665C17.0438 27.0211 16.5303 27.8757 15.7086 28.0808C15.6059 28.1492 15.4689 28.1492 15.332 28.1492ZM15.332 25.6879C15.2635 25.6879 15.195 25.6879 15.0923 25.7221C14.8527 25.7904 14.6815 25.9272 14.5445 26.1323C14.4076 26.3374 14.3734 26.5767 14.4418 26.816C14.5788 27.2946 15.0581 27.568 15.5374 27.4655C16.0167 27.3287 16.2906 26.8502 16.1879 26.3716C16.1194 26.1323 15.9825 25.9614 15.7771 25.8246C15.6401 25.7221 15.5032 25.6879 15.332 25.6879Z" fill="#017772"/>
<path d="M19.3388 27.1237C19.0649 27.1237 18.791 27.0553 18.5514 26.9186C18.1748 26.7135 17.9351 26.3716 17.8324 25.9614C17.627 25.1068 18.1405 24.2522 18.9622 24.0471C19.3731 23.9446 19.7839 24.0129 20.1605 24.218C20.5371 24.4231 20.7768 24.765 20.8795 25.1752C20.9822 25.5854 20.9137 25.9956 20.7083 26.3716C20.5029 26.7477 20.1605 26.987 19.7497 27.0895C19.6127 27.0895 19.4758 27.1237 19.3388 27.1237ZM19.3731 24.6624C19.3046 24.6624 19.2361 24.6624 19.1334 24.6966C18.8937 24.765 18.7226 24.9017 18.5856 25.1068C18.4487 25.3119 18.4144 25.5512 18.4829 25.7905C18.5514 26.0298 18.6883 26.2007 18.8937 26.3375C19.0992 26.4742 19.3388 26.5084 19.5785 26.44C19.8181 26.3716 19.9893 26.2349 20.1263 26.0298C20.2632 25.8247 20.2974 25.5854 20.229 25.3461C20.1605 25.1068 20.0236 24.9359 19.8181 24.7992C19.6812 24.6966 19.51 24.6624 19.3731 24.6624Z" fill="#017772"/>
<path d="M62.1699 23.1583L63.6763 17.4837V17.4495C61.2113 13.1765 61.8276 7.60445 65.4909 3.94673C69.8732 -0.428859 76.9944 -0.428859 81.3767 3.94673C85.759 8.32232 85.759 15.4327 81.3767 19.8083C77.7134 23.466 72.167 24.0813 67.8532 21.62H67.819L62.1699 23.1583Z" fill="#017772"/>
<path d="M91.584 36.1914L92.9997 34.0936L97.145 36.8825L95.7293 38.9803L91.584 36.1914Z" fill="#FAB333"/>
<path d="M77.9542 32.593C77.5091 30.4052 77.9884 28.1832 79.221 26.3031C80.4877 24.4571 82.3707 23.1923 84.5619 22.7821C89.0811 21.8933 93.4977 24.8674 94.3878 29.3797C94.8329 31.5675 94.3536 33.8236 93.0868 35.6696C91.8201 37.5156 89.937 38.7804 87.7459 39.1906C85.5547 39.6008 83.3294 39.1564 81.4806 37.9258C79.6318 36.6951 78.365 34.7808 77.9542 32.593ZM87.4035 37.5156C89.1496 37.1737 90.656 36.1824 91.6489 34.7124C93.7031 31.67 92.8814 27.5679 89.8686 25.5169C88.3964 24.5255 86.6503 24.1837 84.9043 24.5255C83.1582 24.8674 81.6518 25.8587 80.6589 27.3286C79.666 28.7986 79.3237 30.542 79.666 32.2854C80.0084 34.0288 81.0013 35.5329 82.4734 36.5242C83.9114 37.4814 85.6917 37.8574 87.4035 37.5156Z" fill="#FAB333"/>
<path d="M93.7949 38.8086L96.2619 35.1509L102.822 39.5617L100.355 43.2194L93.7949 38.8086Z" fill="#FAB333"/>
<path d="M95.1738 39.7422L97.6408 36.0845L102.809 39.5596L100.342 43.2174L95.1738 39.7422Z" fill="#FAB333"/>
<path d="M101.339 43.2592C102.64 43.0199 103.496 41.7209 103.256 40.4219C103.017 40.2852 102.811 40.1143 102.572 39.9775C101.921 40.9347 101.305 41.8577 100.654 42.8148C100.86 42.9516 101.099 43.0883 101.339 43.2592Z" fill="#FAB333"/>
<path d="M38.7877 23.4998C40.4653 22.8845 41.4239 23.4998 41.9717 24.1493C42.0402 24.2519 42.1087 24.3202 42.1772 24.4228C41.9375 20.9702 42.7249 18.4405 44.5395 16.9364C46.1144 15.6374 48.5109 15.0905 51.4895 15.3981C53.7149 15.6374 55.4952 16.2527 55.4952 16.2527C55.5637 16.2869 55.5979 16.3211 55.5979 16.3553C55.7349 16.7655 58.8846 26.3029 58.0287 30.9862C57.1728 35.6694 56.8989 37.1735 56.8989 37.1735C56.8989 37.2419 56.8647 37.2761 56.7962 37.3103C56.762 37.3445 54.879 38.4042 51.7634 38.1307L51.7977 42.2328C51.7977 42.3012 51.7634 42.3354 51.7292 42.3696C51.6607 42.4037 50.839 43.0532 48.237 42.7456C46.4225 42.5405 43.752 41.8226 39.8833 40.1134C39.8148 40.0792 39.7806 40.0108 39.7806 39.9425L40.4653 30.7469C39.1986 30.6785 37.8976 29.6188 37.3498 28.0121C36.6308 26.0295 37.2813 24.0468 38.7877 23.4998Z" fill="white"/>
<path d="M42.3119 12.6632C43.8868 12.8683 45.2905 13.5862 46.3176 14.6801C41.8668 15.3638 38.2035 19.0215 37.6214 23.8756C37.5872 24.0808 37.5872 24.2859 37.553 24.5251C35.7384 23.1578 34.6771 20.8674 34.951 18.4745C35.3618 14.8168 38.6828 12.253 42.3119 12.6632Z" fill="#017772"/>
<path d="M41.5578 28.3201L37.5863 27.6364L35.8745 22.919C35.0186 20.5945 35.5321 17.9965 37.2097 16.1505C39.0585 14.0995 41.2839 11.8091 41.8317 11.8775C42.4479 11.9458 49.8088 11.7749 54.3623 12.1168C56.9301 12.2877 58.8473 14.5097 58.6761 17.0735L57.3409 22.3379L55.4579 16.1847C55.4579 16.1847 50.8702 20.0475 44.1255 18.7485L41.5578 28.3201Z" fill="#017772"/>
<path d="M50.1173 26.8504C49.9803 26.8504 49.8776 26.8504 49.7407 26.8162C48.9532 26.7137 48.2343 26.3035 47.755 25.6881C47.2757 25.0728 47.036 24.2866 47.1387 23.4662C47.2414 22.6799 47.6523 21.9621 48.2685 21.4835C48.8848 21.0049 49.6722 20.7656 50.4939 20.8682C51.2813 20.9707 52.0003 21.3809 52.4796 21.9962C52.9589 22.6116 53.1986 23.3978 53.0959 24.2182C52.9932 25.0045 52.5823 25.7223 51.9661 26.2009C51.4183 26.6453 50.7678 26.8504 50.1173 26.8504ZM50.1173 21.5518C49.6037 21.5518 49.1244 21.7228 48.7136 22.0304C48.2343 22.4065 47.9261 22.9534 47.8577 23.5687C47.7892 24.184 47.9604 24.7994 48.337 25.2779C48.7136 25.7565 49.2614 26.0642 49.8776 26.1325C50.4939 26.2009 51.1102 26.03 51.5895 25.654C52.0688 25.2779 52.3769 24.731 52.4454 24.1157C52.5139 23.5004 52.3427 22.885 51.9661 22.4065C51.5895 21.9279 51.0417 21.6202 50.4254 21.5518C50.2885 21.586 50.1858 21.5518 50.1173 21.5518Z" fill="#017772"/>
<path d="M53.8159 31.431C53.7816 31.431 53.7474 31.431 53.7474 31.431L51.1112 30.8157C50.94 30.7815 50.803 30.5764 50.8715 30.4055C50.9058 30.2345 51.1112 30.0978 51.2824 30.1662L53.9186 30.7815C54.0898 30.8157 54.2267 31.0208 54.1582 31.1917C54.0898 31.3284 53.9528 31.431 53.8159 31.431Z" fill="#017772"/>
<path d="M41.1821 30.4399C39.7784 30.9185 38.1351 29.7904 37.4846 27.9103C36.8341 26.0302 37.4504 24.1158 38.8198 23.6373C40.2235 23.1587 41.8669 24.2868 42.5174 26.1669L41.1821 30.4399Z" fill="white"/>
<path d="M40.5318 30.918C39.984 30.918 39.402 30.7471 38.8884 30.3711C38.1352 29.8583 37.519 29.0379 37.1766 28.0465C36.4576 25.9955 37.1766 23.8761 38.7172 23.3633C39.5047 23.0898 40.3606 23.2266 41.148 23.7735C41.9013 24.2863 42.5175 25.1067 42.8599 26.098C42.9284 26.269 42.8256 26.4741 42.6545 26.5424C42.4833 26.6108 42.2779 26.5083 42.2094 26.3373C41.9355 25.5169 41.4219 24.799 40.7714 24.3546C40.1552 23.9444 39.5047 23.8077 38.9569 24.0128C37.7586 24.423 37.2451 26.1664 37.8271 27.8414C38.101 28.6619 38.6145 29.3797 39.265 29.8241C39.8813 30.2343 40.5318 30.3711 41.0796 30.166C41.2508 30.0976 41.4562 30.2002 41.5246 30.3711C41.5931 30.542 41.4904 30.7471 41.3192 30.8155C41.0453 30.8497 40.7714 30.918 40.5318 30.918Z" fill="#017772"/>
<path d="M52.7402 23.5371L52.796 22.8557L54.9458 23.0311L54.89 23.7126L52.7402 23.5371Z" fill="#017772"/>
<path d="M51.1115 25.2092C51.043 25.7219 50.7691 26.1321 50.4952 26.098C50.2213 26.0638 50.0501 25.6194 50.1186 25.0724C50.1871 24.5597 50.461 24.1494 50.7349 24.1836C50.9745 24.2178 51.1457 24.6964 51.1115 25.2092Z" fill="#017772"/>
<path d="M57.0334 25.2092C56.9649 25.7219 56.691 26.1321 56.4171 26.098C56.1432 26.0638 55.972 25.6194 56.0405 25.0724C56.109 24.5597 56.3829 24.1494 56.6568 24.1836C56.8964 24.2178 57.1018 24.6622 57.0334 25.2092Z" fill="#017772"/>
<path d="M41.834 24.543L47.3983 23.2302L47.5557 23.8955L41.9914 25.2083L41.834 24.543Z" fill="#017772"/>
<path d="M52.8225 38.3701C50.734 38.3701 47.9609 37.7548 44.6742 35.567C44.503 35.4645 44.4687 35.2594 44.5714 35.0884C44.6742 34.9175 44.8796 34.8833 45.0508 34.9859C51.2476 39.1222 55.6299 37.3104 56.4173 36.9002C56.52 36.3874 56.7939 34.7124 57.5129 30.8838C58.3346 26.3373 55.1506 16.5947 55.1163 16.5264C55.0479 16.3554 55.1506 16.1503 55.3218 16.082C55.4929 16.0136 55.6984 16.1161 55.7668 16.2871C55.9038 16.6973 59.0536 26.2689 58.1976 30.9863C57.3417 35.6696 57.0678 37.1737 57.0678 37.1737C57.0336 37.2762 56.9994 37.3446 56.8966 37.413C56.7597 37.4813 55.2875 38.3701 52.8225 38.3701Z" fill="#017772"/>
<path d="M39.9498 40.2849C39.7444 40.2849 39.6074 40.114 39.6074 39.9089L40.2922 30.6449C40.2922 30.4398 40.4633 30.3031 40.6688 30.3373C40.8742 30.3373 41.0111 30.5082 40.9769 30.7133L40.2922 39.9772C40.2922 40.1482 40.121 40.2849 39.9498 40.2849Z" fill="#017772"/>
<path d="M51.5895 42.5749C51.3841 42.5749 51.2471 42.4381 51.2471 42.233L51.2129 37.9942C51.2129 37.7891 51.3498 37.6523 51.5553 37.6523C51.7607 37.6523 51.8976 37.7891 51.8976 37.9942L51.9319 42.233C51.9319 42.404 51.7949 42.5749 51.5895 42.5749Z" fill="#FAB333"/>
<path d="M57.2411 26.8848C57.1042 26.8848 57.0015 26.8848 56.8645 26.8506C56.4537 26.8164 56.0771 26.6797 55.7347 26.4746L56.0771 25.8935C56.351 26.0302 56.6249 26.1328 56.933 26.1669C57.5492 26.2353 58.1655 26.0644 58.6448 25.6884C59.1241 25.3123 59.4323 24.7654 59.5007 24.1501C59.6719 22.8852 58.7475 21.723 57.4808 21.5862C56.3852 21.4495 55.3581 22.099 55.0157 23.1245L54.3652 22.9194C54.8103 21.5862 56.1455 20.7316 57.5835 20.9026C59.2268 21.1077 60.3909 22.6118 60.1855 24.2184C60.0828 25.0047 59.6719 25.7225 59.0557 26.2011C58.5763 26.6455 57.9258 26.8848 57.2411 26.8848Z" fill="#017772"/>
<path d="M54.0892 29.6189C53.9523 29.6189 53.8496 29.5506 53.7811 29.4138C53.7126 29.2429 53.7469 29.0378 53.9181 28.9694C54.8424 28.525 55.6984 27.9097 55.8011 27.6704C55.4245 26.9184 53.9865 22.0642 53.8496 21.4831C53.7811 21.3121 53.8838 21.107 54.0892 21.0729C54.2604 21.0045 54.4658 21.107 54.5001 21.3121C55.1506 23.4658 56.2119 27.0209 56.4173 27.3969C56.4858 27.4995 56.52 27.6362 56.4516 27.8413C56.2462 28.525 54.6713 29.3455 54.192 29.5847C54.192 29.5847 54.1235 29.6189 54.0892 29.6189Z" fill="#017772"/>
<path d="M38.9221 47.9423L50.8707 49.4123C51.5897 49.5148 52.2744 48.9679 52.3429 48.25L53.1303 41.7892C53.233 41.0713 52.6853 40.3876 51.9663 40.3192L40.0177 38.8493C39.2987 38.7468 38.614 39.2937 38.5455 40.0116L37.7581 46.4724C37.6896 47.1903 38.2032 47.8398 38.9221 47.9423Z" fill="#017772"/>
<path d="M78.1921 60.9664L68.0923 43.2248C64.9083 39.8747 59.225 38.3706 53.9184 39.4987L34.1296 43.7375C31.2537 44.3528 28.7202 45.686 27.0083 47.532L24.3379 64.7609L35.499 72.213L78.1921 60.9664Z" fill="#017772"/>
<path d="M44.541 39.6355L48.5809 36.0461C49.026 35.6359 49.7108 35.7043 50.1216 36.1145L50.1901 36.1828C50.6694 36.7298 50.8748 37.4477 50.7036 38.1655L50.3955 39.4645L44.541 39.6355Z" fill="white"/>
<path d="M44.5397 39.9773C44.437 39.9773 44.3343 39.9431 44.3001 39.8748C44.1631 39.738 44.1974 39.5329 44.3343 39.3962L48.3742 35.8068C48.9563 35.2941 49.8464 35.3282 50.3942 35.9094L50.4627 35.9777C51.0105 36.5931 51.2501 37.4477 51.0447 38.2681L50.7366 39.5671C50.7023 39.738 50.4969 39.8748 50.3257 39.8064C50.1545 39.7722 50.0176 39.5671 50.0861 39.3962L50.3942 38.0972C50.5311 37.516 50.36 36.8665 49.9491 36.4221L49.8806 36.3538C49.6068 36.0461 49.1274 36.0119 48.8535 36.2854L44.8136 39.8748C44.6767 39.9431 44.6082 39.9773 44.5397 39.9773Z" fill="#017772"/>
<path d="M38.5801 71.187L44.5373 39.6349L54.774 36.7976L57.2048 36.1481C58.1292 35.9088 58.9851 36.7635 58.7112 37.6864C58.6085 38.0625 58.3346 38.3359 57.958 38.4727L55.4245 39.4298L56.794 44.9677C56.9652 45.6514 56.8967 46.3692 56.6228 47.0529L56.0065 48.557C55.6299 49.4458 54.911 50.1295 53.9866 50.4372L51.1792 51.3602L53.5757 67.4268L38.5801 71.187Z" fill="white"/>
<path d="M38.5801 71.5288C38.5458 71.5288 38.5458 71.5288 38.5116 71.5288C38.3404 71.4946 38.2035 71.3237 38.2377 71.1186L44.1949 39.5664C44.2291 39.4297 44.2976 39.3271 44.4345 39.293L54.6713 36.4557L57.1021 35.8062C57.6499 35.6694 58.2319 35.8062 58.6428 36.2164C59.0536 36.6266 59.1905 37.2077 59.0194 37.7547C58.8824 38.2332 58.5058 38.6093 58.0607 38.7802L55.8011 39.6348L57.1021 44.8992C57.2733 45.6512 57.239 46.4717 56.9309 47.1895L56.3147 48.6936C55.9038 49.685 55.0821 50.437 54.0893 50.7447L51.5558 51.5993L53.9181 67.3925C53.9523 67.5634 53.8154 67.7685 53.6442 67.7685C53.473 67.8027 53.2676 67.6659 53.2676 67.495L50.871 51.4284C50.8368 51.2575 50.9395 51.1207 51.1107 51.0524L53.9181 50.1294C54.7398 49.8559 55.3903 49.2406 55.7326 48.4544L56.3489 46.9502C56.5885 46.3691 56.657 45.7196 56.4858 45.1043L55.1164 39.5664C55.0821 39.3955 55.1506 39.2246 55.3218 39.1562L57.8553 38.1991C58.095 38.0965 58.3004 37.8914 58.4031 37.6179C58.5058 37.3103 58.4031 36.9684 58.1977 36.7633C57.958 36.524 57.6499 36.4557 57.3418 36.524L54.911 37.1735L44.8796 39.9425L38.9567 71.2895C38.8882 71.4262 38.7513 71.5288 38.5801 71.5288Z" fill="#017772"/>
<path d="M52.2427 51.2914C52.1057 51.2914 51.9688 51.2231 51.9345 51.0863C51.6606 50.471 51.6606 49.8899 51.9003 49.3429C52.4138 48.1807 53.9203 47.6337 53.9887 47.5995C54.1599 47.5312 54.3653 47.6337 54.4338 47.8046C54.5023 47.9756 54.3996 48.1807 54.2284 48.249C54.2284 48.249 52.9616 48.7276 52.5508 49.6164C52.3796 49.9924 52.3796 50.4027 52.585 50.8129C52.6535 50.9838 52.585 51.1889 52.4138 51.2573C52.3454 51.2914 52.3111 51.2914 52.2427 51.2914Z" fill="#017772"/>
<path d="M53.4409 44.763C53.304 44.763 53.167 44.6947 53.1328 44.5579C53.0643 44.387 53.167 44.1819 53.3382 44.1135C53.7833 43.9426 56.1456 43.088 56.7961 44.1477C56.8988 44.3186 56.8646 44.5237 56.6934 44.6263C56.5222 44.7288 56.3168 44.6947 56.2141 44.5237C55.9402 44.1135 54.5365 44.387 53.5779 44.763C53.5094 44.763 53.4751 44.763 53.4409 44.763Z" fill="#017772"/>
<path d="M53.0972 42.4729C52.9602 42.4729 52.8233 42.4046 52.789 42.2678C52.7206 42.0969 52.8233 41.8918 52.9944 41.8234C53.4395 41.6525 55.8019 40.7979 56.4523 41.8576C56.5551 42.0285 56.5208 42.2336 56.3496 42.3362C56.1785 42.4387 55.973 42.4046 55.8703 42.2336C55.6307 41.8234 54.1927 42.0969 53.2341 42.4729C53.1999 42.4729 53.1656 42.4729 53.0972 42.4729Z" fill="#017772"/>
<path d="M52.4136 40.2844C52.2766 40.2844 52.1397 40.2161 52.1054 40.0793C52.037 39.9084 52.1397 39.7033 52.3109 39.6349C52.7559 39.464 55.1183 38.6094 55.7688 39.6691C55.8715 39.8401 55.8372 40.0452 55.666 40.1477C55.4949 40.2503 55.2894 40.2161 55.1867 40.0452C54.9471 39.6349 53.5091 39.9084 52.5505 40.2844C52.5163 40.2844 52.4478 40.2844 52.4136 40.2844Z" fill="#017772"/>
<path d="M32.1791 79.3235C30.9466 79.3235 29.7826 78.7082 29.1321 77.6485L19.9566 63.1543C19.4431 62.3339 19.2719 61.3767 19.4773 60.4538C19.6827 59.5308 20.2648 58.7104 21.0522 58.1976L35.5685 49.0362C36.1506 48.6602 36.8011 48.4893 37.4858 48.4893C38.7183 48.4893 39.8824 49.1046 40.5329 50.1643L49.7083 64.6584C50.2218 65.4789 50.393 66.436 50.1876 67.359C49.9822 68.282 49.4002 69.1024 48.6127 69.6152L34.0964 78.7766C33.5486 79.1184 32.8639 79.3235 32.1791 79.3235Z" fill="#017772"/>
<path d="M37.5195 48.797C38.6493 48.797 39.6764 49.3782 40.2927 50.3011L49.4681 64.7953C49.9474 65.5473 50.0844 66.4019 49.879 67.2566C49.6735 68.1112 49.16 68.829 48.441 69.3076L33.9247 78.469C33.4111 78.8109 32.7949 78.9818 32.1786 78.9818C31.0488 78.9818 30.0217 78.4006 29.4054 77.4777L20.23 62.9835C19.7507 62.2315 19.6138 61.3769 19.8192 60.5222C20.0246 59.6676 20.5382 58.9498 21.2571 58.4712L35.7735 49.3098C36.287 48.9679 36.9033 48.797 37.5195 48.797ZM37.5195 48.1133C36.8006 48.1133 36.0816 48.3184 35.3969 48.7287L20.8805 57.8901C19.0317 59.0523 18.484 61.4794 19.648 63.3254L28.8234 77.8195C29.5766 79.016 30.8434 79.6655 32.1786 79.6655C32.8976 79.6655 33.6166 79.4604 34.3013 79.0501L48.8176 69.8887C50.6664 68.7265 51.2142 66.2994 50.0501 64.4534L40.8747 49.9593C40.0873 48.7628 38.8205 48.1133 37.5195 48.1133Z" fill="#017772"/>
<path d="M32.0435 60.1463C33.1049 61.8214 32.6255 64.0775 30.9137 65.1373C29.2361 66.197 26.9765 65.7184 25.9152 64.0092C24.8538 62.3341 25.3331 60.078 27.045 59.0183C28.7568 57.9586 30.9822 58.4713 32.0435 60.1463Z" fill="white"/>
<path d="M28.8599 77.8198L26.7715 74.5381L27.3193 72.111C27.7301 70.3334 29.5104 69.2053 31.2907 69.6155C32.9683 69.9916 34.6802 68.9319 35.0568 67.2568L37.1794 57.7536C37.693 55.4974 39.9184 54.0959 42.178 54.6086L44.061 55.0188L50.0182 64.4537C51.1822 66.2997 50.6344 68.7268 48.7857 69.889L34.3035 79.0504C32.4548 80.2127 30.024 79.6657 28.8599 77.8198Z" fill="white"/>
<path d="M104.453 49.2071L89.7657 67.6325L67.2722 77.2041L54.7416 77.1015C53.9199 77.1015 53.6118 76.0076 54.3307 75.5974L76.9612 62.0263L83.7058 50.8138L103.7 47.9081C104.419 47.7714 104.898 48.626 104.453 49.2071Z" fill="white"/>
<path d="M87.3331 63.1544L75.3502 62.5391L53.8496 70.8459H65.4558L87.3331 63.1544Z" fill="#FAB333"/>
<path d="M53.851 71.1877C53.6798 71.1877 53.5428 71.0852 53.5086 70.9143C53.4744 70.7433 53.5771 70.6066 53.714 70.5382L75.2146 62.1973C75.2489 62.1631 75.3173 62.1631 75.3516 62.1631L87.3686 62.7784C87.5398 62.7784 87.6768 62.9151 87.6768 63.0861C87.711 63.257 87.6083 63.3937 87.4371 63.4621L65.5599 71.1536C65.5257 71.1536 65.4914 71.1877 65.4572 71.1877H53.851ZM75.3858 62.881L55.6655 70.5041L65.3887 70.4699L85.5883 63.3937L75.3858 62.881Z" fill="white"/>
<path d="M55.5614 75.8708L53.8496 70.8457H65.4558L66.928 75.529L55.5614 75.8708Z" fill="#FAB333"/>
<path d="M55.5639 76.2127C55.427 76.2127 55.29 76.1101 55.2558 75.9734L53.544 70.9825C53.5097 70.8799 53.5097 70.7774 53.5782 70.6748C53.6467 70.5723 53.7494 70.5381 53.8521 70.5381L65.4583 70.5039C65.5953 70.5039 65.7322 70.6065 65.8007 70.7432L67.2729 75.4264C67.3071 75.529 67.2729 75.6316 67.2386 75.7341C67.1702 75.8367 67.0674 75.8708 66.9647 75.8708L55.5639 76.2127ZM54.3314 71.1876L55.8036 75.4948L66.4854 75.1872L65.2187 71.1534L54.3314 71.1876Z" fill="white"/>
<path d="M88.8084 66.4018L87.3362 63.1543L65.459 70.8458L66.9312 75.529L88.8084 66.4018Z" fill="#FAB333"/>
<path d="M66.9287 75.8712C66.8945 75.8712 66.826 75.8712 66.7918 75.837C66.689 75.8028 66.6548 75.7344 66.6206 75.6319L65.1484 70.9486C65.0799 70.7777 65.1826 70.5726 65.3538 70.5384L87.231 62.847C87.4022 62.7786 87.5734 62.8811 87.6419 63.0179L89.0798 66.2654C89.1141 66.3338 89.1141 66.4363 89.0798 66.5389C89.0456 66.6414 88.9771 66.6756 88.9086 66.744L67.0314 75.837C66.9972 75.8712 66.9629 75.8712 66.9287 75.8712ZM65.8674 71.0512L67.1341 75.0508L88.3266 66.2312L87.1283 63.5648L65.8674 71.0512Z" fill="white"/>
<path d="M82.6117 50.2673L75.3535 62.5395L87.3363 63.1548L100.689 45.1055L82.6117 50.2673Z" fill="#FAB333"/>
<path d="M87.3365 63.4964L75.3194 62.8811C75.2167 62.8811 75.0797 62.8127 75.0455 62.7101C74.977 62.6076 74.977 62.4708 75.0455 62.3683L82.3379 50.0961C82.3721 50.0278 82.4406 49.9594 82.5433 49.9252L100.62 44.7634C100.757 44.7292 100.928 44.7634 100.997 44.9001C101.065 45.0368 101.065 45.1736 100.997 45.3103L87.6446 63.3596C87.5419 63.4622 87.4392 63.4964 87.3365 63.4964ZM75.9357 62.2316L87.1995 62.8127L99.8328 45.7205L82.8515 50.5747L75.9357 62.2316Z" fill="white"/>
<path d="M102.706 49.1382L100.686 45.1045L87.334 63.1538L88.8062 66.4013L102.706 49.1382Z" fill="#FAB333"/>
<path d="M88.8057 66.7432H88.7714C88.6687 66.7432 88.566 66.6406 88.4975 66.5381L87.0596 63.2906C87.0254 63.188 87.0254 63.0513 87.0938 62.9487L100.446 44.8994C100.515 44.7969 100.617 44.7627 100.754 44.7627C100.857 44.7627 100.994 44.8311 101.028 44.9678L103.048 49.0015C103.117 49.1041 103.082 49.275 103.014 49.3776L89.0796 66.6407C89.0111 66.709 88.9084 66.7432 88.8057 66.7432ZM87.7443 63.188L88.8741 65.7519L102.295 49.0699L100.617 45.7199L87.7443 63.188Z" fill="white"/>
<path d="M19.0649 46.7798L1.77539 41.9599L3.07638 37.2766L20.3659 42.0966L19.0649 46.7798ZM2.59707 41.4813L18.5856 45.9252L19.51 42.541L3.52146 38.097L2.59707 41.4813Z" fill="#017772"/>
<path d="M2.6543 40.0618L2.83823 39.4032L19.4923 44.0404L19.3084 44.6989L2.6543 40.0618Z" fill="#017772"/>
<path d="M2.08427 42.0623L1.0914 41.7888C0.338197 41.5837 -0.0726426 40.8316 0.132777 40.0796L0.680564 38.0627C0.885984 37.3106 1.63919 36.9004 2.3924 37.1055L3.38526 37.379L3.21408 38.0285L2.22121 37.755C1.84461 37.6525 1.46801 37.8576 1.3653 38.2336L0.81751 40.2505C0.7148 40.6265 0.92022 41.0025 1.29682 41.1051L2.28969 41.3786L2.08427 42.0623Z" fill="#017772"/>
<path d="M18.8967 46.7118L18.7598 46.0281L22.697 45.2761L19.7184 42.5755L20.1977 42.0969L24.1692 45.6863L18.8967 46.7118Z" fill="#017772"/>
<path d="M82.9147 31.1914H69.9732C69.7678 31.1914 69.6309 31.0547 69.6309 30.8496C69.6309 30.6445 69.7678 30.5078 69.9732 30.5078H82.9147C83.1201 30.5078 83.2571 30.6445 83.2571 30.8496C83.2571 31.0205 83.0859 31.1914 82.9147 31.1914Z" fill="#017772"/>
<path d="M82.9147 33.6534H69.9732C69.7678 33.6534 69.6309 33.5166 69.6309 33.3115C69.6309 33.1064 69.7678 32.9697 69.9732 32.9697H82.9147C83.1201 32.9697 83.2571 33.1064 83.2571 33.3115C83.2571 33.5166 83.0859 33.6534 82.9147 33.6534Z" fill="#017772"/>
<path d="M65.5245 33.4819C65.4561 33.4819 65.3876 33.4477 65.3534 33.4135L63.8812 32.4564C63.71 32.3538 63.6758 32.1487 63.7785 31.9778C63.8812 31.8069 64.0866 31.7727 64.2578 31.8752L65.4561 32.6615L67.476 30.1318C67.5787 29.9951 67.8184 29.9609 67.9553 30.0635C68.0923 30.166 68.1265 30.4053 68.0238 30.5421L65.7984 33.311C65.73 33.4477 65.6273 33.4819 65.5245 33.4819Z" fill="#017772"/>
<path d="M73.4348 18.7148C69.4975 18.7148 66.2793 15.5015 66.2793 11.5703C66.2793 7.63911 69.4975 4.42578 73.4348 4.42578C77.372 4.42578 80.5902 7.63911 80.5902 11.5703C80.5902 15.5015 77.372 18.7148 73.4348 18.7148ZM73.4348 5.14365C69.8741 5.14365 66.964 8.04932 66.964 11.6045C66.964 15.1597 69.8741 18.0653 73.4348 18.0653C76.9954 18.0653 79.9055 15.1597 79.9055 11.6045C79.9055 8.01513 76.9954 5.14365 73.4348 5.14365Z" fill="white"/>
<path d="M73.4339 18.7148C71.0373 18.7148 69.1543 15.5699 69.1543 11.5703C69.1543 7.57074 71.0373 4.42578 73.4339 4.42578C75.8304 4.42578 77.7135 7.57074 77.7135 11.5703C77.7135 15.5699 75.8304 18.7148 73.4339 18.7148ZM73.4339 5.14365C71.4482 5.14365 69.839 8.04932 69.839 11.6045C69.839 15.1597 71.4482 18.0653 73.4339 18.0653C75.4196 18.0653 77.0287 15.1597 77.0287 11.6045C77.0287 8.01513 75.4196 5.14365 73.4339 5.14365Z" fill="white"/>
<path d="M73.4342 18.7146C73.2287 18.7146 73.0918 18.5779 73.0918 18.3728V4.80162C73.0918 4.59652 73.2287 4.45978 73.4342 4.45978C77.3714 4.45978 80.5896 7.6731 80.5896 11.6043C80.5896 15.5013 77.3714 18.7146 73.4342 18.7146ZM73.7765 5.14346V18.0309C77.166 17.86 79.9049 15.0227 79.9049 11.6043C79.9049 8.15168 77.166 5.31439 73.7765 5.14346Z" fill="white"/>
<path d="M79.8028 14.3045H67.0667C66.9298 14.3045 66.7928 14.2019 66.7586 14.0993C66.4505 13.2789 66.2793 12.4243 66.2793 11.5697C66.2793 10.7151 66.4505 9.86049 66.7586 9.04007C66.7928 8.90333 66.9298 8.83496 67.0667 8.83496H79.8028C79.9397 8.83496 80.0767 8.93751 80.1109 9.04007C80.419 9.86049 80.5902 10.7151 80.5902 11.5697C80.5902 12.4243 80.419 13.2789 80.1109 14.0993C80.0767 14.2361 79.9397 14.3045 79.8028 14.3045ZM67.3064 13.6208H79.5289C79.7685 12.9371 79.8713 12.2534 79.8713 11.5697C79.8713 10.886 79.7685 10.2023 79.5289 9.51865H67.3064C67.0667 10.2023 66.964 10.886 66.964 11.5697C66.964 12.2534 67.101 12.9713 67.3064 13.6208Z" fill="white"/>
<path d="M82.4357 52.4206L81.1347 54.4033L80.6554 52.2839C80.4842 51.4634 80.5869 50.6088 80.9978 49.8568C81.3401 49.2073 81.7852 49.0363 82.8465 49.0705L88.2902 49.4807L87.8451 50.5405C87.537 51.2925 86.8522 51.8053 86.0306 51.942L82.4357 52.4206Z" fill="white"/>
<path d="M81.1358 54.7107C81.1015 54.7107 81.1015 54.7107 81.0673 54.7107C80.9304 54.6765 80.8276 54.5739 80.7934 54.4372L80.3141 52.3178C80.1087 51.429 80.2456 50.4718 80.6907 49.6514C81.17 48.7968 81.8205 48.6259 82.8476 48.6942L88.3255 49.1044C88.4282 49.1044 88.5309 49.1728 88.5994 49.2754C88.6678 49.3779 88.6678 49.4805 88.6336 49.583L88.1885 50.6427C87.8119 51.4973 87.0245 52.1127 86.1343 52.2494L82.6764 52.7622L81.4781 54.6081C81.3754 54.6765 81.2727 54.7107 81.1358 54.7107ZM82.5737 49.3779C81.7863 49.3779 81.5466 49.5488 81.307 49.9932C80.9304 50.6769 80.8276 51.429 80.9988 52.181L81.307 53.5142L82.1629 52.2152C82.2313 52.1468 82.2998 52.0785 82.4025 52.0785L86.0316 51.5315C86.7163 51.429 87.2984 50.9846 87.5723 50.3351L87.8462 49.7198L82.8818 49.3437C82.7449 49.3779 82.6422 49.3779 82.5737 49.3779Z" fill="#FAB333"/>
<path d="M80.7248 54.9846L79.4238 56.9673L78.9445 54.8479C78.7733 54.0275 78.876 53.1729 79.2868 52.4208C79.6292 51.7713 80.4166 51.4295 81.1356 51.6346L87.3667 53.207L86.5792 54.5402C86.1684 55.2239 85.381 55.6341 84.5935 55.5316L80.7248 54.9846Z" fill="white"/>
<path d="M79.4561 57.309C79.4218 57.309 79.4218 57.309 79.3876 57.309C79.2507 57.2748 79.1479 57.1722 79.1137 57.0355L78.6344 54.9161C78.429 54.0273 78.5659 53.0701 79.011 52.2497C79.4561 51.4635 80.3805 51.0533 81.2364 51.2925L87.4675 52.865C87.5702 52.8992 87.6729 52.9676 87.7071 53.0701C87.7414 53.1727 87.7413 53.2752 87.6729 53.3778L86.8854 54.711C86.4061 55.5314 85.516 55.9758 84.5573 55.8732L80.894 55.3605L79.73 57.1381C79.6615 57.2406 79.5588 57.309 79.4561 57.309ZM80.7228 51.9079C80.2435 51.9079 79.8327 52.1472 79.593 52.5915C79.2164 53.2752 79.1137 54.0273 79.2849 54.7793L79.593 56.1125L80.4489 54.8135C80.5174 54.711 80.6544 54.6426 80.7913 54.6768L84.6601 55.2237C85.3106 55.2921 85.961 54.9844 86.3034 54.4033L86.8512 53.4462L81.0652 51.9762C80.9625 51.9079 80.8255 51.9079 80.7228 51.9079Z" fill="#FAB333"/>
<path d="M79.0451 57.5823L77.7441 59.565L77.2648 57.4455C77.0936 56.6251 77.1963 55.7705 77.6071 55.0185C77.9495 54.369 78.7369 54.0271 79.4559 54.2322L85.1392 55.7021L84.3518 57.0353C83.9409 57.719 83.1535 58.1292 82.366 58.0267L79.0451 57.5823Z" fill="white"/>
<path d="M77.7451 59.9066C77.7109 59.9066 77.7109 59.9066 77.6767 59.9066C77.5397 59.8725 77.437 59.7699 77.4028 59.6332L76.9235 57.5137C76.718 56.6249 76.855 55.6678 77.3001 54.8474C77.7451 54.0611 78.6695 53.6509 79.5254 53.8902L85.2087 55.3601C85.3114 55.3943 85.4141 55.4627 85.4484 55.5652C85.4826 55.6678 85.4826 55.7703 85.4142 55.8729L84.6267 57.2061C84.1474 58.0265 83.2572 58.4709 82.2986 58.3683L79.1831 57.9581L78.019 59.7357C77.9506 59.8383 77.8478 59.9066 77.7451 59.9066ZM79.0119 54.5055C78.5668 54.5055 78.1217 54.7448 77.8821 55.1892C77.5055 55.8729 77.4028 56.6249 77.574 57.377L77.8821 58.7102L78.738 57.4112C78.8065 57.3086 78.9434 57.2403 79.0804 57.2745L82.4013 57.6847C83.0518 57.753 83.7023 57.4454 84.0447 56.8642L84.5925 55.9071L79.32 54.5397C79.2516 54.5055 79.1488 54.5055 79.0119 54.5055Z" fill="#FAB333"/>
<path d="M77.4045 60.0432L75.7269 61.3764L75.6241 59.8723C75.453 59.0519 75.5557 58.1973 75.9665 57.4452C76.3089 56.7957 77.0963 56.4539 77.8153 56.659L82.7111 57.9922L81.9237 59.3254C81.5129 60.009 80.7254 60.4193 79.938 60.3167L77.4045 60.0432Z" fill="white"/>
<path d="M75.7592 61.7181C75.7249 61.7181 75.6565 61.7181 75.6222 61.684C75.5195 61.6498 75.4168 61.513 75.4168 61.4105L75.3141 59.9406C75.1087 59.0518 75.2456 58.0946 75.6907 57.3084C76.1358 56.5221 77.0602 56.1119 77.9161 56.3512L82.8119 57.6844C82.9146 57.7186 82.9831 57.7869 83.0516 57.8895C83.0858 57.992 83.0858 58.0946 83.0173 58.1972L82.2299 59.5303C81.7506 60.3508 80.8604 60.7952 79.9018 60.6926L77.5052 60.4191L75.9646 61.6498C75.8961 61.7181 75.8276 61.7181 75.7592 61.7181ZM77.4025 56.9665C76.9574 56.9665 76.5124 57.2058 76.2727 57.6502C75.8961 58.3339 75.7934 59.0859 75.9646 59.838V59.8722L76.0331 60.7268L77.1971 59.8038C77.2656 59.7354 77.3683 59.7355 77.4368 59.7355L80.0045 60.0089C80.655 60.0773 81.3055 59.7696 81.6479 59.1885L82.1957 58.2313L77.7107 57.0349C77.6422 56.9665 77.5052 56.9665 77.4025 56.9665Z" fill="#FAB333"/>
</svg>
