<svg width="40" height="29" viewBox="0 0 40 29" fill="none" xmlns="http://www.w3.org/2000/svg">
<path d="M39.6705 14.2916C38.1443 10.3438 35.4947 6.92972 32.0493 4.47134C28.6039 2.01296 24.5136 0.618037 20.2841 0.458984C16.0545 0.618037 11.9642 2.01296 8.5188 4.47134C5.07338 6.92972 2.42383 10.3438 0.897618 14.2916C0.794544 14.5767 0.794544 14.8889 0.897618 15.174C2.42383 19.1218 5.07338 22.5359 8.5188 24.9943C11.9642 27.4526 16.0545 28.8476 20.2841 29.0066C24.5136 28.8476 28.6039 27.4526 32.0493 24.9943C35.4947 22.5359 38.1443 19.1218 39.6705 15.174C39.7736 14.8889 39.7736 14.5767 39.6705 14.2916ZM20.2841 23.1673C18.6159 23.1673 16.9851 22.6727 15.5981 21.7459C14.211 20.8191 13.13 19.5018 12.4916 17.9606C11.8532 16.4193 11.6862 14.7234 12.0116 13.0873C12.337 11.4512 13.1404 9.94828 14.3199 8.76869C15.4995 7.5891 17.0024 6.78579 18.6386 6.46034C20.2747 6.13489 21.9706 6.30193 23.5118 6.94031C25.053 7.5787 26.3703 8.65978 27.2971 10.0468C28.2239 11.4339 28.7186 13.0646 28.7186 14.7328C28.7152 16.9687 27.8254 19.1121 26.2444 20.6931C24.6633 22.2742 22.52 23.1639 20.2841 23.1673Z" fill="white"/>
</svg>
