<svg width="30" height="27" viewBox="0 0 30 27" fill="none" xmlns="http://www.w3.org/2000/svg">
<path d="M25.6239 14.3102L14.9989 24.8332L4.37388 14.3102C3.67306 13.6283 3.12104 12.8086 2.75257 11.9028C2.38411 10.997 2.20718 10.0247 2.23293 9.04721C2.25867 8.06968 2.48654 7.10808 2.90219 6.22294C3.31783 5.33781 3.91224 4.54833 4.64799 3.90421C5.38373 3.26008 6.24488 2.77528 7.1772 2.48032C8.10951 2.18535 9.09281 2.08663 10.0652 2.19035C11.0375 2.29408 11.9778 2.59801 12.827 3.083C13.6761 3.568 14.4156 4.22355 14.9989 5.00838C15.5847 4.22925 16.3251 3.57942 17.1736 3.09957C18.0221 2.61973 18.9606 2.32019 19.9302 2.2197C20.8998 2.11922 21.8797 2.21996 22.8086 2.51561C23.7375 2.81126 24.5954 3.29545 25.3286 3.9379C26.0617 4.58034 26.6544 5.3672 27.0695 6.24923C27.4846 7.13126 27.7131 8.08947 27.7408 9.06389C27.7685 10.0383 27.5948 11.008 27.2306 11.9122C26.8663 12.8164 26.3193 13.6356 25.6239 14.3187" stroke="#24A19C" stroke-width="3" stroke-linecap="round" stroke-linejoin="round"/>
</svg>
