<svg width="274" height="259" viewBox="0 0 274 259" fill="none" xmlns="http://www.w3.org/2000/svg">
<path d="M11.3974 147.06C42.2967 138.194 75.0625 141.592 106.568 139.403C110.587 139.192 114.579 138.897 118.548 138.471C126.529 137.674 134.418 136.127 142.109 133.852C135.091 135.766 127.901 136.978 120.644 137.471C117.012 137.743 113.35 137.869 109.691 137.903C75.4651 139.109 41.2104 129.613 7.22252 137.025L11.3974 147.06ZM0.620619 99.9718C3.34497 100.178 6.74925 100.107 9.49151 100.957C43.1313 113.645 75.1637 125.459 109.674 132.171C113.375 132.827 117.091 133.337 120.821 133.667C128.365 134.375 135.966 134.182 143.465 133.092C135.882 133.803 128.243 133.643 120.697 132.614C116.93 132.126 113.179 131.462 109.441 130.671C75.1435 123.175 43.5604 111.125 11.174 93.1897C8.64453 91.6537 5.24024 91.7251 1.82443 91.1316L0.620619 99.9718ZM5.53485 79.7735C37.175 100.149 70.4598 117.612 106.86 128.285C110.686 129.419 114.535 130.421 118.414 131.241C126.193 132.935 134.129 133.798 142.09 133.816C134.337 132.877 126.665 131.355 119.141 129.264C115.368 128.234 111.619 127.082 107.896 125.841C88.4172 119.033 70.1198 112.606 50.6169 102.8C34.5419 94.0569 24.2829 81.1054 9.71683 72.3192L5.53485 79.7735ZM2.81635 122.954C35.77 120.41 68.0622 133.807 101.374 135.267C104.927 135.61 108.441 135.866 111.96 136.003C122.502 136.413 133.046 135.738 143.432 133.138C135.861 134.818 128.112 135.558 120.361 135.343C116.518 135.267 112.687 134.996 108.863 134.577C80.0271 130.383 52.1788 123.248 23.4086 115.453C15.6545 113.799 8.58607 112.358 1.0453 113.105L2.81635 122.954ZM34.8122 50.6282C48.581 80.4049 75.1043 100.28 104.584 114.262C108.333 116.219 112.128 118.081 115.969 119.849C123.72 123.415 131.651 126.58 139.729 129.33C141.336 130.204 142.282 132 143.44 133.111C142.967 132.213 142.707 130.629 141.785 129.968C135.988 126.854 130.276 123.839 124.658 120.826C119.039 117.814 113.518 114.801 108.095 111.692C80.7183 96.7338 53.2966 77.3321 43.0322 46.399L34.8122 50.6282ZM55.3238 40.5543C56.7989 45.8873 58.8464 51.0452 61.4306 55.9379C68.8183 70.8997 81.0869 82.22 93.6249 92.8421C97.9279 96.3636 102.328 99.731 106.742 103.039C111.156 106.347 115.559 109.524 119.852 112.689C123.423 115.288 126.997 117.892 130.541 120.539C134.086 123.187 137.607 125.876 141.07 128.641C142.228 129.752 142.725 131.784 143.434 133.132C140.337 126.159 134.995 120.369 129.653 114.579C127.101 112.096 124.448 109.748 121.74 107.48C117.56 104.388 113.39 101.186 109.32 97.8453C105.25 94.5051 101.264 91.0406 97.4516 87.4157C89.4424 80.6894 83.131 71.9683 77.2322 63.6494C74.3978 59.3396 71.9165 54.8078 69.8125 50.0981C67.6827 45.3216 66.0061 40.3557 64.8047 35.2657L55.3238 40.5543ZM22.4426 169.341C28.148 168.007 33.7982 166.753 39.6613 164.814C62.4045 155.71 85.4077 148.19 109.262 143.376C113.167 142.513 117.056 141.63 120.907 140.653C128.616 138.7 136.185 136.373 143.461 133.117C133.33 137.303 122.816 139.396 112.177 140.861C108.632 141.351 105.069 141.775 101.467 142.18C72.8547 145.048 44.8162 150.631 17.7589 160.497L22.4426 169.341ZM17.5184 63.1317C39.2868 92.173 72.0988 108.738 105.006 122.344C109.055 124.006 113.162 125.524 117.327 126.898C125.607 129.673 134.124 131.684 142.771 132.907C134.622 130.504 126.541 127.749 118.59 124.634C114.613 123.072 110.671 121.423 106.763 119.688C75.2075 104.813 42.1826 88.9341 24.2522 57.4195L17.5184 63.1317ZM69.7421 235.869C78.0932 233.469 87.1242 231.009 89.8909 222.098C98.6403 195.127 100.96 164.658 124.525 145.946C130.236 140.852 136.598 136.539 143.445 133.12C140.07 134.707 136.741 136.459 133.482 138.364C130.223 140.289 127.066 142.382 124.023 144.633C110.504 154.456 99.2028 167.86 93.6458 184.548C88.1124 202.371 85.6753 227.167 62.0057 226.533L69.7421 235.869ZM158.119 250.278C159.254 238.354 157.647 226.583 152.66 216.018C145.026 198.244 136.918 179.572 136.326 160.202C136.189 155.537 136.681 150.874 137.789 146.34C138.951 141.657 140.864 137.194 143.452 133.122C140.748 136.619 138.616 140.522 137.137 144.687C135.735 148.689 134.881 152.862 134.597 157.092C133.112 182.149 144.694 204.153 150.65 228.546C152.398 236.228 152.8 244.619 150.362 252.869L158.119 250.278ZM139.963 255.717C144.856 244.785 145.283 232.518 142.092 221.007C135.948 198.435 128.692 177.021 132.193 154.486C132.927 150.545 134.219 146.729 136.031 143.153C137.945 139.431 140.449 136.045 143.447 133.124C139.955 136.301 137.016 140.038 134.753 144.181C132.602 148.183 131.048 152.479 130.141 156.931C126.631 177.509 130.908 197.623 136.793 218.612C140.693 231.47 139.155 244.896 132.774 257.098L139.963 255.717ZM36.017 189.092C46.4657 186.46 57.5534 184.638 66.4902 177.64C77.8858 168.775 86.5156 157.924 98.9732 151.762C102.504 149.818 106.117 148.071 109.795 146.439C120.802 141.597 132.416 137.778 143.445 133.12C138.953 135.484 133.775 137.636 129.047 139.551C125.105 141.053 121.118 142.469 117.123 143.872C113.129 145.275 109.114 146.671 105.128 148.121C100.178 149.006 95.6864 151.371 91.6437 153.498C71.1935 163.689 52.8472 176.787 29.8843 180.885L36.017 189.092ZM123.079 258.1C129.939 248.049 135.353 235.45 132.376 223.254C126.893 199.76 122.309 175.792 129.617 152.786C130.921 148.993 132.728 145.392 134.989 142.078C137.339 138.674 140.197 135.651 143.465 133.115C140.15 135.593 137.199 138.524 134.7 141.823C132.281 145.044 130.274 148.554 128.727 152.273C119.825 175.379 123.298 200.505 126.984 224.945C128.591 236.716 125.446 249.267 116.193 258.118L123.079 258.1ZM176.678 243.187C175.123 235.901 172.586 228.859 169.137 222.256C158.264 201.599 143.325 181.935 141.014 158.199C140.51 154.049 140.44 149.858 140.804 145.693C141.177 141.415 142.066 137.198 143.452 133.133C141.192 137.483 139.649 142.168 138.881 147.009C138.158 151.699 138.06 156.463 138.589 161.179C140.864 183.798 153.983 203.273 163.035 223.741C165.683 230.95 167.881 238.395 168.996 246.29L176.678 243.187ZM51.8882 212.085C65.6661 212.104 73.6407 204.368 79.9811 194.465C82.0923 191.163 84.019 187.62 85.9179 184.045C89.6301 176.93 93.3423 169.815 98.2128 163.81C101.364 159.942 104.954 156.453 108.911 153.413C112.823 150.305 116.962 147.455 121.003 144.606C124.581 142.378 128.282 140.321 132.045 138.415C135.809 136.508 139.628 134.751 143.456 133.12C133.905 137.86 124.011 142.495 114.682 147.887C111.553 149.723 108.493 151.638 105.512 153.7C87.5532 164.265 81.192 185.965 63.9568 197.904C58.59 201.876 51.7579 200.884 45.2405 201.82L51.8882 212.085ZM106.373 257.139C125.028 242.032 119.498 216.269 118.152 195.185C117.397 180.672 119.124 165.426 125.844 152.179C127.812 148.313 130.282 144.724 133.19 141.505C136.175 138.229 139.625 135.408 143.429 133.134C139.404 135.342 135.727 138.134 132.519 141.417C129.389 144.66 126.702 148.302 124.527 152.248C116.4 165.701 114.46 181.632 114.554 197.067C114.765 218.175 118.9 242.379 99.1116 255.473L106.373 257.139ZM78.9235 26.2226C85.6522 50.5693 102.861 70.1854 118.262 89.7554C120.853 93.054 123.417 96.3668 125.895 99.7245C128.374 103.082 130.772 106.483 133.04 109.951C135.342 113.506 137.389 117.22 139.164 121.065C140.957 124.953 142.393 128.995 143.457 133.142C143.4 128.807 142.84 124.492 141.789 120.285C140.754 116.179 139.334 112.18 137.549 108.34C135.619 104.597 133.599 100.9 131.515 97.2253C129.432 93.5505 127.326 89.8989 125.173 86.2665C112.489 64.5441 99.3229 42.8001 89.8795 19.0393L78.9235 26.2226ZM88.6289 251.109C103.81 246.319 108.658 228.283 108.139 214.219C106.746 190.866 110.318 166.046 125.405 147.966C127.779 145.157 130.382 142.55 133.188 140.171C135.976 137.802 138.963 135.678 142.118 133.824C138.439 135.388 134.961 137.384 131.756 139.772C128.608 142.12 125.723 144.802 123.151 147.77C107.809 166.794 103.764 190.715 101.327 215.51C100.002 228.251 94.6343 243.119 80.777 246.055L88.6289 251.109ZM168.627 1.71627C169.051 32.4608 161.271 62.3628 156.064 92.2811C155.323 96.5078 154.652 100.715 154.107 104.912C152.992 109.802 151.561 114.615 149.822 119.32C148.065 124.079 145.936 128.694 143.456 133.12C146.205 128.825 148.614 124.322 150.662 119.652C152.696 115.017 154.435 110.259 155.871 105.407C163.296 71.6369 173.039 37.8345 176.539 3.34365L168.627 1.71627ZM271.411 174.714C243.025 161.01 212.079 157.8 181.9 149.725C175.762 147.641 169.77 145.149 163.965 142.265C160.593 140.731 157.237 139.182 153.862 137.707C150.487 136.232 147.113 134.825 143.661 133.585C147.196 134.717 150.597 136.233 153.802 138.106C157.019 139.934 160.097 142.012 163.173 144.138C167.793 147.642 172.456 150.877 177.504 153.427C182.759 156.113 188.42 157.92 194.26 158.778C219.702 163.52 245.47 168.881 267.77 182.727L271.411 174.714ZM273.164 153.513C246.095 145.045 216.331 144.081 188.461 141.07C183.153 140.546 177.878 139.723 172.662 138.604C167.363 137.459 162.158 135.914 157.093 133.982C152.53 132.943 147.991 133.038 143.452 133.133C146.407 133.298 149.811 133.227 152.104 134.314C156.251 136.279 160.499 138.021 164.832 139.532C171.163 141.424 177.406 143.041 183.805 144.352C213.522 150.732 245.531 150.515 273.409 162.565L273.164 153.513ZM259.293 192.614C238.125 176.767 212.121 170.957 187.608 163.426C184.32 162.354 181.105 161.071 177.981 159.587C174.816 158.076 171.787 156.296 168.927 154.265C165.4 151.939 162.06 149.341 158.939 146.493C155.775 143.577 152.833 140.429 150.139 137.075C148.508 135.066 145.765 134.215 143.472 133.128C146.45 136.246 149.431 139.392 152.451 142.493C155.472 145.594 158.559 148.648 161.756 151.571C165.958 155.724 170.551 159.461 175.472 162.731C180.511 166.068 185.898 168.847 191.537 171.021C212.296 177.763 233.548 184.355 251.12 198.785L259.293 192.614ZM268.672 131.475C239.892 129.993 211.358 133.543 182.869 132.962C179.223 132.916 175.575 132.768 171.925 132.518C168.275 132.268 164.6 131.898 160.901 131.41C154.991 131.08 148.868 131.435 143.454 133.138C145.487 132.641 147.284 131.695 149.104 131.884C154.188 132.649 159.21 133.332 164.169 133.934C169.204 134.541 174.191 135.047 179.294 135.423C182.875 135.752 186.465 135.998 190.065 136.16C217.137 137.939 244.134 136.919 271.113 140.668L268.672 131.475ZM260.989 110.229C241.612 114.733 221.234 117.431 201.365 121.587C196.469 122.524 191.575 123.398 186.683 124.21C181.791 125.023 176.859 125.736 171.885 126.351C167.083 127.21 162.31 128.157 157.562 129.262C152.815 130.367 148.13 131.635 143.468 133.131C148.669 132.114 153.61 129.513 159.047 128.945C164.321 128.749 169.566 128.498 174.782 128.192C179.998 127.886 185.203 127.555 190.396 127.2C215.289 125.721 239.71 120.896 264.448 118.937L260.989 110.229ZM237.323 206.414C222.268 189.145 197.658 184.895 178.569 172.582C175.21 170.537 172.019 168.228 169.026 165.677C165.938 163.042 163.119 160.107 160.611 156.916C157.305 153.27 154.208 149.439 151.336 145.442C148.507 141.484 145.88 137.385 143.466 133.16C145.173 136.947 147.022 140.734 149.032 144.465C151.041 148.195 153.22 151.866 155.569 155.412C161.147 164.571 168.806 172.583 177.34 178.987C181.291 181.665 185.435 184.047 189.737 186.116C203.06 192.976 217.953 199.474 226.84 211.858L237.323 206.414ZM194.401 233.852C192.336 229.536 189.97 225.369 187.322 221.384C184.729 217.449 181.931 213.692 179.041 210.011C165.151 193.976 150.708 176.345 145.223 155.014C144.308 151.491 143.69 147.897 143.376 144.27C143.056 140.562 143.081 136.832 143.45 133.129C142.61 136.696 142.139 140.34 142.043 144.003C141.951 147.526 142.187 151.049 142.747 154.528C147.171 181.613 166.886 201.631 180.236 224.259C182.636 228.818 184.912 233.462 187.064 238.19L194.401 233.852ZM213.24 220.066C207.027 211.4 199.448 203.801 190.796 197.567C188.045 195.403 185.279 193.275 182.566 191.118C171.479 182.043 160.156 172.519 153.124 159.509C150.708 155.502 148.661 151.284 147.007 146.907C145.336 142.458 144.142 137.844 143.445 133.143C143.886 140.076 145.335 146.908 147.746 153.422C150.145 159.859 153.273 165.999 157.07 171.724C159.624 175.589 162.418 179.289 165.437 182.803C172.14 189.948 179.411 196.621 186.313 203.621C193.215 210.62 199.752 217.938 204.979 226.387L213.24 220.066ZM240.583 66.6441C219.055 78.4169 201.725 96.7146 181.308 110.26C178.222 112.309 175.112 114.301 171.994 116.28C162.611 122.125 153.127 127.811 143.447 133.124C147.978 130.835 152.481 128.519 156.953 126.176C161.426 123.833 165.891 121.483 170.348 119.125C173.351 117.522 176.339 115.913 179.31 114.299C202.084 102.845 222.392 85.8474 245.737 76.1635L240.583 66.6441ZM185.263 6.0868C179.555 34.9782 170.143 62.8713 162.521 90.9697C160.999 96.0777 159.433 101.014 157.78 105.864C156.016 110.607 153.989 115.248 151.709 119.766C149.41 124.314 146.799 128.699 143.896 132.888C147.098 128.737 150.009 124.371 152.61 119.82C155.177 115.324 157.493 110.69 159.546 105.938C171.528 74.2088 180.608 41.3284 190.442 8.37312L185.263 6.0868ZM196.682 11.9357C186.245 40.0591 175.226 67.0779 165.858 94.8679C164.045 99.5098 162.067 104.014 159.926 108.37C155.602 117.103 150.466 125.393 143.887 132.87C150.702 125.842 156.188 117.856 160.928 109.38C163.29 105.149 165.471 100.76 167.507 96.2135C177.746 68.5959 190.136 42.0024 200.704 14.8138L196.682 11.9357ZM205.986 19.4317C193.644 46.4873 180.805 73.3172 168.672 100.4C166.995 103.514 165.246 106.522 163.416 109.475C157.862 118.214 151.487 126.329 143.454 133.138C151.664 126.666 158.373 118.977 164.251 110.67C166.223 107.877 168.106 105.024 169.9 102.111C183.814 75.7648 195.069 49.1951 209.654 23.4591L205.986 19.4317ZM251.894 89.2669C236.17 93.4947 222.032 101.51 207.216 107.18C203.56 108.79 199.899 110.39 196.208 111.931C192.516 113.473 188.798 114.965 185.036 116.372C180.562 118.096 176.071 119.782 171.561 121.429C166.84 123.287 162.139 125.188 157.457 127.132C152.774 129.077 148.107 131.079 143.454 133.138C148.183 131.223 152.954 129.508 157.741 127.912C162.528 126.315 167.382 124.89 172.242 123.519C176.999 122.384 181.727 121.17 186.428 119.878C191.118 118.556 195.773 117.155 200.404 115.675C218.554 109.07 237.278 103.228 255.794 98.1907L251.894 89.2669ZM142.12 0.236161C153.905 24.3928 150.83 51.2448 149.924 77.2705C149.714 81.6994 149.516 86.0871 149.431 90.502C149.345 94.917 149.363 99.2548 149.567 103.621C149.263 108.647 148.609 113.646 147.609 118.581C146.609 123.539 145.215 128.409 143.441 133.145C145.544 128.526 147.291 123.753 148.666 118.867C150.038 114.03 151.088 109.108 151.809 104.132C152.045 99.8387 152.412 95.5337 152.847 91.2045C155.572 61.3655 162.643 30.1163 154.524 0.28461L142.12 0.236161ZM107.988 9.26102C126.245 37.2319 130.804 70.9611 141.281 102.276C142.485 107.191 143.279 112.198 143.653 117.245C144.024 122.39 143.875 127.56 143.211 132.675C144.659 127.794 145.573 122.769 145.935 117.69C146.287 112.695 146.187 107.679 145.636 102.702C142.789 90.2305 141.544 77.3282 140.07 64.5012C139.603 60.234 139.078 55.9681 138.461 51.745C137.845 47.5219 137.16 43.3115 136.305 39.1683C133.735 26.7229 129.753 14.7339 122.485 3.75824L107.988 9.26102ZM227.023 46.0593C206.952 64.142 192.908 87.5921 174.871 107.621C172.528 110.101 170.138 112.515 167.703 114.863C160.357 121.832 152.491 128.204 143.436 133.159C147.804 130.384 152.06 127.473 156.209 124.434C160.357 121.396 164.443 118.282 168.462 115.117C173.663 112.116 177.659 107.719 181.891 103.771C198.795 86.8442 213.856 68.5942 232.779 54.1836L227.023 46.0593ZM215.134 30.2839C200.357 52.7028 189.504 76.7669 175.126 99.2228C172.837 102.503 170.524 105.619 168.101 108.655C160.795 117.662 152.809 126.018 143.424 133.114C153.076 126.525 161.361 118.563 169.014 109.987C171.542 107.073 174.005 104.091 176.402 100.983C191.808 80.1192 202.425 55.606 219.642 36.2324L215.134 30.2839Z" fill="url(#paint0_linear_780_1188)"/>
<defs>
<linearGradient id="paint0_linear_780_1188" x1="244.034" y1="72.928" x2="30.7558" y2="185.189" gradientUnits="userSpaceOnUse">
<stop stop-color="#D4FFFD"/>
<stop offset="1" stop-color="#24A19C"/>
</linearGradient>
</defs>
</svg>
