<svg width="24" height="24" viewBox="0 0 24 24" fill="none" xmlns="http://www.w3.org/2000/svg">
<path d="M10.9004 2C10.3794 2 9.86615 2.03574 9.36426 2.10449L9.63574 4.08594C10.0479 4.02949 10.4703 4 10.9004 4C15.7116 4.0002 19.5 7.64165 19.5 12C19.5 16.3583 15.7116 19.9998 10.9004 20C10.4703 20 10.0479 19.9705 9.63574 19.9141L9.36426 21.8955C9.86616 21.9643 10.3794 22 10.9004 22C16.6927 21.9998 21.5 17.5825 21.5 12C21.5 6.41746 16.6927 2.0002 10.9004 2ZM2.5 12L6.20703 15.707L7.62109 14.293L6.32812 13H13.9141V11H6.32812L7.62109 9.70703L6.20703 8.29297L2.5 12Z" fill="#24A19C"/>
</svg>
