<svg width="24" height="30" viewBox="0 0 24 30" fill="none" xmlns="http://www.w3.org/2000/svg">
<g clip-path="url(#clip0_963_54982)">
<path d="M20.0441 15.8934C20.0855 20.3541 23.9572 21.8384 24 21.8573C23.9672 21.962 23.3814 23.9726 21.9603 26.0495C20.7318 27.8451 19.4567 29.634 17.4481 29.671C15.4747 29.7074 14.84 28.5007 12.5836 28.5007C10.3279 28.5007 9.62281 29.634 7.75456 29.7074C5.81581 29.7808 4.33943 27.7658 3.10081 25.9768C0.569556 22.3175 -1.36479 15.6362 1.23256 11.1263C2.52284 8.88656 4.82881 7.46841 7.33156 7.43203C9.23534 7.39575 11.0323 8.71284 12.1961 8.71284C13.3592 8.71284 15.5429 7.12894 17.8386 7.36153C18.7995 7.40156 21.4973 7.74966 23.2295 10.2852C23.0898 10.3717 20.0106 12.1643 20.0441 15.8935M16.335 4.94053C17.3644 3.69459 18.0571 1.96022 17.8681 0.234375C16.3844 0.294 14.5904 1.22306 13.5262 2.46825C12.5725 3.57103 11.7372 5.33597 11.9626 7.02759C13.6164 7.15556 15.3056 6.18722 16.335 4.94053Z" fill="black"/>
</g>
<defs>
<clipPath id="clip0_963_54982">
<rect width="24" height="29.5312" fill="white" transform="translate(0 0.234375)"/>
</clipPath>
</defs>
</svg>
