<svg width="55" height="83" viewBox="0 0 55 83" fill="none" xmlns="http://www.w3.org/2000/svg">
<path d="M49.3318 39.0866L48.6445 39.7363L49.2943 40.4237L49.9816 39.774L49.3318 39.0866Z" fill="white"/>
<path d="M45.6518 35.1872L44.2734 36.4902L47.9555 40.3853L49.3339 39.0822L45.6518 35.1872Z" fill="white"/>
<path d="M47.9965 39.0514L44.1016 42.7334L45.4046 44.1118L49.2996 40.4298L47.9965 39.0514Z" fill="white"/>
<path d="M36.0881 38.9707V44.1476C35.5796 44.3306 35.071 44.4934 34.5625 44.6561V39.6318C35.071 39.4284 35.5846 39.2097 36.0881 38.9707Z" fill="white"/>
<path d="M50.0001 16.4379L45.9776 20.2671C45.2816 15.8435 42.938 11.8469 39.4175 9.0794C38.9914 8.74027 38.5484 8.42289 38.0903 8.12845C34.5576 5.84769 30.3289 4.89778 26.1602 5.4485V0.607268C26.9305 0.527241 27.7045 0.488209 28.479 0.490315C31.0787 0.484198 33.6598 0.929841 36.1069 1.8074C36.7884 2.05149 37.4546 2.31593 38.1056 2.63631C38.5565 2.84989 38.9988 3.07875 39.4328 3.32284C40.1193 3.70541 40.7847 4.12469 41.4262 4.5789C45.5264 7.46541 48.5443 11.6395 50.0001 16.4379Z" fill="white"/>
<path d="M41.4092 35.0752V41.381C40.7677 41.8335 40.1022 42.2511 39.4157 42.632C38.9817 42.8761 38.5394 43.1049 38.0885 43.3185C37.4366 43.6282 36.7695 43.9049 36.0898 44.1474V38.9705C36.7808 38.6437 37.4486 38.2699 38.0885 37.8518C38.5461 37.5568 38.9885 37.2415 39.4157 36.9059C40.1266 36.3482 40.7932 35.7362 41.4092 35.0752Z" fill="white"/>
<path d="M24.1616 5.80469V8.05242L24.0803 8.07784L23.8311 7.92529L22.3055 6.98958L21.6953 6.61836C22.2687 6.38058 22.8543 6.17347 23.4497 5.99793C23.6887 5.94708 23.9277 5.86063 24.1616 5.80469Z" fill="white"/>
<path d="M24.078 8.07731L23.8288 7.92476L22.3032 6.98904L21.693 6.61782L21.1845 6.30763L20.2487 5.73298L17.8281 4.24805V34.3074C19.6172 35.9927 21.7824 37.227 24.1441 37.9078V8.12815L24.078 8.07731Z" fill="white"/>
<path d="M41.4092 31.5918V35.0753C40.7932 35.7362 40.1266 36.3483 39.4157 36.906C38.9885 37.245 38.5461 37.5603 38.0885 37.8518C37.4486 38.27 36.7808 38.6438 36.0898 38.9706V36.5246C37.3094 35.8452 38.4287 34.9997 39.4157 34.0124C40.1618 33.2764 40.8299 32.4652 41.4092 31.5918Z" fill="white"/>
<path d="M41.4092 24.6104V31.5925C40.8299 32.4659 40.1618 33.2771 39.4157 34.0131C38.4287 35.0004 37.3094 35.8459 36.0898 36.5253V29.6753L38.0885 27.7734L39.4157 26.5123L41.4092 24.6104Z" fill="white"/>
<path d="M36.0881 9.43056V15.4567L34.5625 14.5108V8.67285C35.0846 8.89717 35.5939 9.15012 36.0881 9.43056Z" fill="white"/>
<path d="M41.4092 18.7259V24.6096L39.4157 26.5115L38.0834 27.7727L36.0898 29.6746V15.4561L36.9392 15.9799L38.0834 16.6816L39.4157 17.5004L39.5784 17.597L41.3278 18.6751L41.4092 18.7259Z" fill="white"/>
<path d="M36.0881 29.6748V36.5247C35.595 36.8088 35.0856 37.0635 34.5625 37.2875V31.1394L36.0881 29.6748Z" fill="white"/>
<path d="M15.8462 10.5696C12.5935 13.8816 10.771 18.3382 10.771 22.9803C10.771 27.6225 12.5935 32.0791 15.8462 35.3911V41.5901C13.0075 39.6606 10.6481 37.1068 8.94885 34.1245C7.24965 31.1422 6.25571 27.8106 6.04316 24.3848C5.83061 20.959 6.40506 17.5299 7.72258 14.3605C9.04011 11.191 11.0658 8.36522 13.6442 6.09961L14.7224 6.9387L15.2868 7.37094L15.8715 7.82863L15.8462 10.5696Z" fill="white"/>
<path d="M15.8465 4.37012V7.82813L15.2616 7.37044L14.6972 6.9382L13.6445 6.09911C14.3413 5.47684 15.0767 4.89936 15.8465 4.37012Z" fill="white"/>
<path d="M32.9202 40.1251V45.0324C31.4565 45.323 29.9679 45.4695 28.4756 45.4697C27.6925 45.4697 26.9196 45.429 26.1568 45.3528C25.4804 45.2816 24.8142 45.185 24.1582 45.0527C21.1812 44.4717 18.3529 43.2937 15.8438 41.5896V35.3906C16.4663 36.0217 17.1343 36.6064 17.8422 37.14C19.7242 38.5583 21.872 39.5839 24.1582 40.1556C24.4023 40.2166 24.6667 40.2725 24.8955 40.3234C25.3125 40.4098 25.7296 40.481 26.1568 40.537C26.9259 40.635 27.7003 40.6842 28.4756 40.6844C29.9748 40.6862 31.4682 40.4983 32.9202 40.1251Z" fill="white"/>
<path d="M24.1581 0.902344V5.80457C23.9242 5.86051 23.6853 5.92662 23.4513 5.99782C22.8559 6.17335 22.2703 6.38047 21.6969 6.61824L21.1884 6.30804L20.2526 5.7334L17.832 4.24846V3.15514C18.5769 2.75351 19.3444 2.39525 20.1306 2.08214C21.433 1.56302 22.7815 1.168 24.1581 0.902344Z" fill="white"/>
<path d="M41.4092 14.3625V18.7257L41.3278 18.6748L39.5784 17.5967L39.4157 17.5001L38.0885 16.6814L36.9392 15.9796L36.0898 15.4711V9.42969C36.7895 9.82325 37.4578 10.2704 38.0885 10.7671C38.5532 11.1328 38.9963 11.525 39.4157 11.9418C40.1594 12.68 40.8273 13.491 41.4092 14.3625Z" fill="white"/>
<path d="M36.0881 36.5244V38.9705C35.5796 39.2095 35.071 39.4281 34.5625 39.6163V37.2872C35.0856 37.0632 35.595 36.8085 36.0881 36.5244Z" fill="white"/>
<path d="M36.0915 15.4566V29.6752L34.5508 31.1398V14.5107L36.0915 15.4566Z" fill="white"/>
<path d="M39.5268 22.2051H20.0195V28.5109H39.5268V22.2051Z" fill="white"/>
<path d="M1.52016 59.3225H4.18484V67.3942C4.1331 68.567 4.69363 69.218 5.86643 69.3474H7.50922V71.5723H4.5729C3.29661 71.5723 2.40407 71.0419 1.89529 69.9812C1.6797 69.5414 1.55466 69.0154 1.52016 68.4031V59.3225ZM22.6193 69.3474L22.6064 71.5723H6.79944V69.3474H9.37357C9.27871 69.2439 9.19248 69.0628 9.11486 68.8041C9.02 68.4937 8.97257 68.153 8.97257 67.7822C8.97257 67.4545 9.01138 67.1268 9.08899 66.7991C9.26146 66.0748 9.74438 65.4539 10.5377 64.9364C11.2966 64.4363 12.0943 64.1862 12.9308 64.1862C13.9052 64.1862 14.759 64.488 15.492 65.0917C16.1301 65.6177 16.5527 66.2645 16.7596 67.032C16.8459 67.3597 16.889 67.696 16.889 68.0409C16.889 68.567 16.7855 68.9938 16.5785 69.3215H18.48C18.5232 69.0714 18.5447 68.8127 18.5447 68.5454C18.5447 67.5709 18.2731 66.5577 17.7298 65.5056C16.8847 64.1862 15.7334 63.4575 14.2761 63.3195L14.2502 61.0947C15.4144 61.1809 16.5225 61.5388 17.5746 62.1683C18.7474 62.8668 19.6054 63.7636 20.1487 64.8588C20.761 66.1782 21.0671 67.4416 21.0671 68.6489C21.0671 68.9076 21.0542 69.1404 21.0283 69.3474H22.6193ZM12.9437 66.1524C12.0038 66.1351 11.495 66.6655 11.4174 67.7434C11.495 68.8386 12.0038 69.3948 12.9437 69.4121C13.9613 69.4379 14.5089 68.8817 14.5865 67.7434C14.5089 66.6482 13.9613 66.1179 12.9437 66.1524ZM24.9457 71.5464C24.7301 71.5636 24.5016 71.5723 24.2601 71.5723H21.9835V69.3474H22.8114C22.9838 69.3646 23.2253 69.3603 23.5358 69.3345C24.3895 69.2482 24.8724 68.7567 24.9845 67.8598V59.4001H27.688V68.8558C27.688 69.0197 27.6751 69.1749 27.6492 69.3215H30.0293L30.0681 71.5464H24.9457ZM37.7268 56.225C37.7268 56.8976 37.6061 57.428 37.3646 57.816C37.1318 58.2041 36.8041 58.3981 36.3816 58.3981L35.9806 58.3593L35.7607 58.2688L35.5537 58.1265C35.502 58.4197 35.3381 58.6784 35.0622 58.9026C34.7862 59.1268 34.5016 59.2389 34.2084 59.2389C33.9756 59.2389 33.7212 59.1096 33.4452 58.8509C33.2469 58.5835 33.1477 58.2472 33.1477 57.8419C33.1477 57.5573 33.1564 57.3978 33.1736 57.3633L33.29 56.9882L33.4323 56.5354L33.7298 56.4837C33.7298 56.9063 33.7686 57.2512 33.8462 57.5185C33.9239 57.7859 34.0532 57.9195 34.2343 57.9195C34.5016 57.9195 34.7215 57.7686 34.894 57.4668C35.0751 57.1563 35.2433 56.6087 35.3985 55.824L35.6313 55.7464C35.7348 56.2121 35.8426 56.5441 35.9547 56.7424C36.0754 56.9235 36.2177 57.0141 36.3816 57.0141C36.9593 57.0141 37.2482 56.3802 37.2482 55.1126L37.5457 54.9832L37.688 55.6688L37.7268 56.225ZM41.7168 69.3603V71.5723H39.4661C39.285 71.5723 39.1599 71.6068 39.0909 71.6757C38.1165 72.6502 36.8704 73.1374 35.3526 73.1374C33.9384 73.1374 32.8647 72.6502 32.1317 71.6757C32.0627 71.5895 31.9722 71.555 31.8601 71.5723H28.9108V69.3603H31.1875C31.1875 68.886 31.2737 68.3988 31.4462 67.8986C31.6359 67.3554 31.8989 66.8897 32.2352 66.5016C32.951 65.6565 34.0634 65.2124 35.5725 65.1693H35.7019C36.9695 65.1693 38.1035 65.6694 39.1039 66.6698C39.6558 67.3079 39.9619 68.2048 40.0223 69.3603H41.7168ZM35.482 66.8897C35.1974 66.8897 34.874 67.0104 34.5118 67.2519C34.2704 67.4071 34.0677 67.6356 33.9039 67.9374C33.7228 68.2824 33.6322 68.6618 33.6322 69.0757C33.6322 69.4293 33.7055 69.7872 33.8521 70.1494C34.1626 70.891 34.7576 71.2618 35.6372 71.2618C35.9132 71.2618 36.1417 71.2316 36.3228 71.1713C36.5384 71.1023 36.7712 70.9126 37.0213 70.6021C37.3662 70.1796 37.5387 69.6923 37.5387 69.1404C37.5387 68.9076 37.5042 68.6661 37.4352 68.416C37.0989 67.3812 36.5297 66.8638 35.7278 66.8638C35.6501 66.8638 35.5682 66.8724 35.482 66.8897ZM41.3374 71.5723V69.3474H50.6767C50.6422 68.7265 50.543 68.222 50.3792 67.834C50.2498 67.42 49.9566 66.9975 49.4996 66.5663C48.9391 66.0144 48.1241 65.691 47.0548 65.5961C45.7958 65.6651 44.8472 66.1825 44.2091 67.1484L42.3593 65.5832C42.687 65.1865 42.9974 64.8545 43.2906 64.5872C44.0064 63.8887 45.011 63.4403 46.3046 63.2419C47.6154 63.1212 48.8571 63.367 50.0299 63.9792C51.8926 64.9278 53.0051 66.7172 53.3673 69.3474L53.3802 71.5723H41.3374Z" fill="white"/>
<path d="M1.52016 59.3225V58.8225H1.02016V59.3225H1.52016ZM4.18484 59.3225H4.68484V58.8225H4.18484V59.3225ZM4.18484 67.3942L4.68435 67.4162L4.68484 67.4052V67.3942H4.18484ZM5.86643 69.3474L5.81161 69.8444L5.83894 69.8474H5.86643V69.3474ZM7.50922 69.3474H8.00922V68.8474H7.50922V69.3474ZM7.50922 71.5723V72.0723H8.00922V71.5723H7.50922ZM1.89529 69.9812L2.34612 69.765L2.34425 69.7611L1.89529 69.9812ZM1.52016 68.4031H1.02016V68.4172L1.02095 68.4312L1.52016 68.4031ZM1.52016 59.3225V59.8225H4.18484V59.3225V58.8225H1.52016V59.3225ZM4.18484 59.3225H3.68484V67.3942H4.18484H4.68484V59.3225H4.18484ZM4.18484 67.3942L3.68532 67.3721C3.65593 68.0384 3.79772 68.6355 4.18751 69.0883C4.57694 69.5406 5.14695 69.7711 5.81161 69.8444L5.86643 69.3474L5.92124 68.8504C5.4131 68.7944 5.11645 68.6346 4.94535 68.4358C4.77461 68.2375 4.66201 67.9227 4.68435 67.4162L4.18484 67.3942ZM5.86643 69.3474V69.8474H7.50922V69.3474V68.8474H5.86643V69.3474ZM7.50922 69.3474H7.00922V71.5723H7.50922H8.00922V69.3474H7.50922ZM7.50922 71.5723V71.0723H4.5729V71.5723V72.0723H7.50922V71.5723ZM4.5729 71.5723V71.0723C4.00412 71.0723 3.55476 70.9545 3.20169 70.7447C2.85114 70.5364 2.56371 70.2186 2.3461 69.765L1.89529 69.9812L1.44447 70.1975C1.73565 70.8045 2.14888 71.2823 2.69087 71.6043C3.23034 71.9249 3.86539 72.0723 4.5729 72.0723V71.5723ZM1.89529 69.9812L2.34425 69.7611C2.16446 69.3944 2.05102 68.9368 2.01937 68.375L1.52016 68.4031L1.02095 68.4312C1.05829 69.094 1.19493 69.6885 1.44632 70.2013L1.89529 69.9812ZM1.52016 68.4031H2.02016V59.3225H1.52016H1.02016V68.4031H1.52016ZM22.6193 69.3474L23.1193 69.3503L23.1223 68.8474H22.6193V69.3474ZM22.6064 71.5723V72.0723H23.1035L23.1064 71.5752L22.6064 71.5723ZM6.79944 71.5723H6.29944V72.0723H6.79944V71.5723ZM6.79944 69.3474V68.8474H6.29944V69.3474H6.79944ZM9.37357 69.3474V69.8474H10.5102L9.74215 69.0095L9.37357 69.3474ZM9.11486 68.8041L9.59378 68.6604L9.59304 68.658L9.11486 68.8041ZM9.08899 66.7991L8.60259 66.6833L8.60245 66.6839L9.08899 66.7991ZM10.5377 64.9364L10.8109 65.3553L10.8129 65.3539L10.5377 64.9364ZM15.492 65.0917L15.81 64.7059L15.8098 64.7057L15.492 65.0917ZM16.7596 67.032L17.2432 66.9047L17.2424 66.9018L16.7596 67.032ZM16.5785 69.3215L16.1558 69.0545L15.6714 69.8215H16.5785V69.3215ZM18.48 69.3215V69.8215H18.9012L18.9728 69.4065L18.48 69.3215ZM17.7298 65.5056L18.1741 65.2762L18.1634 65.2555L18.1508 65.2359L17.7298 65.5056ZM14.2761 63.3195L13.7761 63.3253L13.7813 63.7749L14.2289 63.8173L14.2761 63.3195ZM14.2502 61.0947L14.2871 60.596L13.7439 60.5558L13.7502 61.1005L14.2502 61.0947ZM17.5746 62.1683L17.3178 62.5973L17.3187 62.5979L17.5746 62.1683ZM20.1487 64.8588L20.6024 64.6483L20.5966 64.6366L20.1487 64.8588ZM21.0283 69.3474L20.5322 69.2854L20.4619 69.8474H21.0283V69.3474ZM12.9437 66.1524L12.9345 66.6523L12.9476 66.6525L12.9607 66.6521L12.9437 66.1524ZM11.4174 67.7434L10.9186 67.7075L10.9161 67.7431L10.9186 67.7788L11.4174 67.7434ZM12.9437 69.4121L12.9564 68.9122L12.9529 68.9122L12.9437 69.4121ZM14.5865 67.7434L15.0853 67.7774L15.0877 67.7427L15.0853 67.7081L14.5865 67.7434ZM22.6193 69.3474L22.1194 69.3445L22.1064 71.5694L22.6064 71.5723L23.1064 71.5752L23.1193 69.3503L22.6193 69.3474ZM22.6064 71.5723V71.0723H6.79944V71.5723V72.0723H22.6064V71.5723ZM6.79944 71.5723H7.29944V69.3474H6.79944H6.29944V71.5723H6.79944ZM6.79944 69.3474V69.8474H9.37357V69.3474V68.8474H6.79944V69.3474ZM9.37357 69.3474L9.74215 69.0095C9.72635 68.9923 9.66615 68.9017 9.59378 68.6604L9.11486 68.8041L8.63595 68.9478C8.7188 69.2239 8.83107 69.4955 9.00499 69.6853L9.37357 69.3474ZM9.11486 68.8041L9.59304 68.658C9.51454 68.4011 9.47258 68.1104 9.47258 67.7822H8.97258H8.47258C8.47258 68.1956 8.52547 68.5862 8.63669 68.9502L9.11486 68.8041ZM8.97258 67.7822H9.47258C9.47258 67.4944 9.50662 67.2053 9.57553 66.9144L9.08899 66.7991L8.60245 66.6839C8.51615 67.0483 8.47258 67.4147 8.47258 67.7822H8.97258ZM9.08899 66.7991L9.5754 66.9149C9.71075 66.3465 10.0944 65.8225 10.8109 65.3552L10.5377 64.9364L10.2646 64.5176C9.39438 65.0852 8.81218 65.803 8.60259 66.6833L9.08899 66.7991ZM10.5377 64.9364L10.8129 65.3539C11.4975 64.9027 12.2006 64.6862 12.9308 64.6862V64.1862V63.6862C11.988 63.6862 11.0958 63.9698 10.2626 64.519L10.5377 64.9364ZM12.9308 64.1862V64.6862C13.7926 64.6862 14.5332 64.9498 15.1741 65.4776L15.492 65.0917L15.8098 64.7057C14.9848 64.0263 14.0179 63.6862 12.9308 63.6862V64.1862ZM15.492 65.0917L15.1739 65.4775C15.7354 65.9403 16.0981 66.4991 16.2769 67.1621L16.7596 67.032L17.2424 66.9018C17.0073 66.0298 16.5248 65.2951 15.81 64.7059L15.492 65.0917ZM16.7596 67.032L16.2761 67.1592C16.3512 67.4446 16.389 67.7381 16.389 68.0409H16.889H17.389C17.389 67.6538 17.3405 67.2747 17.2432 66.9047L16.7596 67.032ZM16.889 68.0409H16.389C16.389 68.5052 16.2973 68.8305 16.1558 69.0545L16.5785 69.3215L17.0013 69.5885C17.2737 69.1572 17.389 68.6288 17.389 68.0409H16.889ZM16.5785 69.3215V69.8215H18.48V69.3215V68.8215H16.5785V69.3215ZM18.48 69.3215L18.9728 69.4065C19.021 69.1269 19.0447 68.8397 19.0447 68.5454H18.5447H18.0447C18.0447 68.7858 18.0253 69.016 17.9873 69.2366L18.48 69.3215ZM18.5447 68.5454H19.0447C19.0447 67.4757 18.7462 66.3841 18.1741 65.2762L17.7298 65.5056L17.2855 65.735C17.8 66.7312 18.0447 67.6662 18.0447 68.5454H18.5447ZM17.7298 65.5056L18.1508 65.2359C17.2295 63.7975 15.9457 62.9754 14.3232 62.8218L14.2761 63.3195L14.2289 63.8173C15.5212 63.9397 16.5398 64.5748 17.3088 65.7753L17.7298 65.5056ZM14.2761 63.3195L14.776 63.3137L14.7502 61.0888L14.2502 61.0947L13.7502 61.1005L13.7761 63.3253L14.2761 63.3195ZM14.2502 61.0947L14.2133 61.5933C15.2958 61.6735 16.3292 62.0058 17.3178 62.5973L17.5746 62.1683L17.8313 61.7392C16.7158 61.0718 15.5329 60.6883 14.2871 60.596L14.2502 61.0947ZM17.5746 62.1683L17.3187 62.5979C18.4188 63.2531 19.2051 64.0818 19.7008 65.081L20.1487 64.8588L20.5966 64.6366C20.0057 63.4455 19.0759 62.4805 17.8304 61.7387L17.5746 62.1683ZM20.1487 64.8588L19.6952 65.0693C20.283 66.336 20.5671 67.5276 20.5671 68.6489H21.0671H21.5671C21.5671 67.3555 21.2389 66.0204 20.6022 64.6484L20.1487 64.8588ZM21.0671 68.6489H20.5671C20.5671 68.8916 20.5549 69.1032 20.5322 69.2854L21.0283 69.3474L21.5244 69.4094C21.5534 69.1777 21.5671 68.9236 21.5671 68.6489H21.0671ZM21.0283 69.3474V69.8474H22.6193V69.3474V68.8474H21.0283V69.3474ZM12.9437 66.1524L12.9529 65.6524C12.3848 65.642 11.8725 65.7989 11.4963 66.191C11.1308 66.5721 10.962 67.1053 10.9186 67.7075L11.4174 67.7434L11.9161 67.7793C11.9503 67.3036 12.0748 67.0326 12.218 66.8833C12.3506 66.7451 12.5626 66.6455 12.9345 66.6523L12.9437 66.1524ZM11.4174 67.7434L10.9186 67.7788C10.9619 68.3891 11.1298 68.9276 11.4882 69.3194C11.857 69.7226 12.3636 69.9015 12.9345 69.912L12.9437 69.4121L12.9529 68.9122C12.5839 68.9054 12.3661 68.7975 12.2261 68.6445C12.0757 68.4801 11.9505 68.1929 11.9161 67.7081L11.4174 67.7434ZM12.9437 69.4121L12.931 69.9119C13.5339 69.9272 14.0758 69.7695 14.4739 69.3651C14.8629 68.97 15.0421 68.412 15.0853 67.7774L14.5865 67.7434L14.0877 67.7094C14.0533 68.2131 13.9199 68.5024 13.7613 68.6635C13.6118 68.8154 13.3712 68.9228 12.9564 68.9122L12.9437 69.4121ZM14.5865 67.7434L15.0853 67.7081C15.0415 67.0911 14.8598 66.547 14.4655 66.1651C14.0647 65.777 13.5239 65.6324 12.9268 65.6527L12.9437 66.1524L12.9607 66.6521C13.3811 66.6378 13.6229 66.7412 13.7697 66.8834C13.923 67.0318 14.0539 67.3006 14.0878 67.7788L14.5865 67.7434ZM24.9457 71.5464V71.0464H24.9257L24.9058 71.048L24.9457 71.5464ZM21.9835 71.5723H21.4835V72.0723H21.9835V71.5723ZM21.9835 69.3474V68.8474H21.4835V69.3474H21.9835ZM22.8114 69.3474L22.8611 68.8499L22.8363 68.8474H22.8114V69.3474ZM23.5358 69.3345L23.5773 69.8328L23.586 69.8319L23.5358 69.3345ZM24.9845 67.8598L25.4806 67.9218L25.4845 67.891V67.8598H24.9845ZM24.9845 59.4001V58.9001H24.4845V59.4001H24.9845ZM27.688 59.4001H28.188V58.9001H27.688V59.4001ZM27.6492 69.3215L27.1568 69.2346L27.0532 69.8215H27.6492V69.3215ZM30.0293 69.3215L30.5292 69.3128L30.5206 68.8215H30.0293V69.3215ZM30.0681 71.5464V72.0464H30.5769L30.568 71.5377L30.0681 71.5464ZM24.9457 71.5464L24.9058 71.048C24.7049 71.0641 24.4898 71.0723 24.2601 71.0723V71.5723V72.0723C24.5134 72.0723 24.7553 72.0632 24.9856 72.0448L24.9457 71.5464ZM24.2601 71.5723V71.0723H21.9835V71.5723V72.0723H24.2601V71.5723ZM21.9835 71.5723H22.4835V69.3474H21.9835H21.4835V71.5723H21.9835ZM21.9835 69.3474V69.8474H22.8114V69.3474V68.8474H21.9835V69.3474ZM22.8114 69.3474L22.7616 69.8449C22.9794 69.8667 23.2563 69.8595 23.5773 69.8327L23.5358 69.3345L23.4942 68.8362C23.1943 68.8612 22.9883 68.8626 22.8611 68.8499L22.8114 69.3474ZM23.5358 69.3345L23.586 69.8319C24.0997 69.78 24.5531 69.5995 24.8949 69.2515C25.2342 68.9062 25.4152 68.4451 25.4806 67.9218L24.9845 67.8598L24.4884 67.7978C24.4417 68.1714 24.3252 68.4045 24.1816 68.5507C24.0405 68.6943 23.8255 68.8026 23.4855 68.837L23.5358 69.3345ZM24.9845 67.8598H25.4845V59.4001H24.9845H24.4845V67.8598H24.9845ZM24.9845 59.4001V59.9001H27.688V59.4001V58.9001H24.9845V59.4001ZM27.688 59.4001H27.188V68.8558H27.688H28.188V59.4001H27.688ZM27.688 68.8558H27.188C27.188 68.9934 27.1771 69.1194 27.1568 69.2346L27.6492 69.3215L28.1416 69.4084C28.173 69.2304 28.188 69.046 28.188 68.8558H27.688ZM27.6492 69.3215V69.8215H30.0293V69.3215V68.8215H27.6492V69.3215ZM30.0293 69.3215L29.5294 69.3302L29.5682 71.5551L30.0681 71.5464L30.568 71.5377L30.5292 69.3128L30.0293 69.3215ZM30.0681 71.5464V71.0464H24.9457V71.5464V72.0464H30.0681V71.5464ZM37.7268 56.225H38.2268V56.2076L38.2256 56.1902L37.7268 56.225ZM37.3647 57.816L36.9401 57.5519L36.9359 57.5588L37.3647 57.816ZM36.3816 58.3981L36.3334 58.8958L36.3574 58.8981H36.3816V58.3981ZM35.9806 58.3593L35.7902 58.8217L35.8587 58.8499L35.9324 58.857L35.9806 58.3593ZM35.7607 58.2688L35.4774 58.6808L35.5212 58.7109L35.5703 58.7311L35.7607 58.2688ZM35.5537 58.1265L35.837 57.7145L35.1964 57.2741L35.0613 58.0396L35.5537 58.1265ZM35.0622 58.9026L34.7469 58.5146L35.0622 58.9026ZM33.4452 58.8509L33.0437 59.1488L33.0705 59.1849L33.1033 59.2156L33.4452 58.8509ZM33.1736 57.3633L33.6208 57.5869L33.6391 57.5504L33.6511 57.5115L33.1736 57.3633ZM33.29 56.9882L32.813 56.8383L32.8125 56.84L33.29 56.9882ZM33.4323 56.5354L33.3466 56.0428L33.0466 56.095L32.9553 56.3855L33.4323 56.5354ZM33.7298 56.4837H34.2298V55.8892L33.6442 55.9911L33.7298 56.4837ZM33.8462 57.5185L33.3661 57.6579V57.6579L33.8462 57.5185ZM34.894 57.4668L34.4621 57.2148L34.4599 57.2187L34.894 57.4668ZM35.3985 55.824L35.2404 55.3497L34.9644 55.4416L34.908 55.727L35.3985 55.824ZM35.6313 55.7464L36.1194 55.6379L35.9991 55.0967L35.4732 55.2721L35.6313 55.7464ZM35.9547 56.7424L35.5194 56.9884L35.5285 57.0045L35.5387 57.0198L35.9547 56.7424ZM37.2482 55.1126L37.0489 54.654L36.7482 54.7847V55.1126H37.2482ZM37.5457 54.9832L38.0353 54.8816L37.9103 54.2795L37.3464 54.5247L37.5457 54.9832ZM37.688 55.6688L38.1868 55.634L38.1845 55.6003L38.1776 55.5672L37.688 55.6688ZM37.7268 56.225H37.2268C37.2268 56.8456 37.1142 57.2721 36.9401 57.5519L37.3647 57.816L37.7892 58.0802C38.098 57.5839 38.2268 56.9497 38.2268 56.225H37.7268ZM37.3647 57.816L36.9359 57.5588C36.7856 57.8092 36.6139 57.8981 36.3816 57.8981V58.3981V58.8981C36.9944 58.8981 37.478 58.599 37.7934 58.0733L37.3647 57.816ZM36.3816 58.3981L36.4297 57.9005L36.0287 57.8617L35.9806 58.3593L35.9324 58.857L36.3334 58.8958L36.3816 58.3981ZM35.9806 58.3593L36.1709 57.897L35.951 57.8064L35.7607 58.2688L35.5703 58.7311L35.7902 58.8217L35.9806 58.3593ZM35.7607 58.2688L36.0439 57.8568L35.837 57.7145L35.5537 58.1265L35.2704 58.5385L35.4774 58.6808L35.7607 58.2688ZM35.5537 58.1265L35.0613 58.0396C35.0344 58.1923 34.9485 58.3507 34.7469 58.5146L35.0622 58.9026L35.3775 59.2907C35.7277 59.0061 35.9696 58.6471 36.0461 58.2134L35.5537 58.1265ZM35.0622 58.9026L34.7469 58.5146C34.5404 58.6823 34.3638 58.7389 34.2084 58.7389V59.2389V59.7389C34.6394 59.7389 35.032 59.5714 35.3775 59.2907L35.0622 58.9026ZM34.2084 59.2389V58.7389C34.1618 58.7389 34.0253 58.7093 33.7872 58.4861L33.4452 58.8509L33.1033 59.2156C33.4171 59.5098 33.7894 59.7389 34.2084 59.7389V59.2389ZM33.4452 58.8509L33.8468 58.5529C33.7253 58.3892 33.6477 58.1638 33.6477 57.8419H33.1477H32.6477C32.6477 58.3307 32.7685 58.7779 33.0437 59.1488L33.4452 58.8509ZM33.1477 57.8419H33.6477C33.6477 57.7029 33.6499 57.6023 33.6535 57.5358C33.6553 57.502 33.6571 57.4845 33.6579 57.4787C33.6583 57.4758 33.6576 57.482 33.6549 57.494C33.6534 57.5002 33.6449 57.5388 33.6208 57.5869L33.1736 57.3633L32.7264 57.1397C32.6802 57.2321 32.6693 57.3265 32.6667 57.3465C32.661 57.3893 32.6574 57.4359 32.6549 57.4818C32.6499 57.5749 32.6477 57.6964 32.6477 57.8419H33.1477ZM33.1736 57.3633L33.6511 57.5115L33.7676 57.1364L33.29 56.9882L32.8125 56.84L32.6961 57.2151L33.1736 57.3633ZM33.29 56.9882L33.767 57.1381L33.9093 56.6854L33.4323 56.5354L32.9553 56.3855L32.813 56.8383L33.29 56.9882ZM33.4323 56.5354L33.518 57.0281L33.8155 56.9763L33.7298 56.4837L33.6442 55.9911L33.3466 56.0428L33.4323 56.5354ZM33.7298 56.4837H33.2298C33.2298 56.9317 33.2704 57.3283 33.3661 57.6579L33.8462 57.5185L34.3264 57.3791C34.2669 57.1741 34.2298 56.8808 34.2298 56.4837H33.7298ZM33.8462 57.5185L33.3661 57.6579C33.4172 57.8341 33.4996 58.0197 33.6422 58.167C33.7982 58.3282 34.0042 58.4195 34.2343 58.4195V57.9195V57.4195C34.2521 57.4195 34.2779 57.4232 34.3059 57.4352C34.3336 57.4472 34.3518 57.4623 34.3608 57.4716C34.3687 57.4798 34.3665 57.4803 34.3585 57.4646C34.3504 57.449 34.3388 57.4218 34.3264 57.3791L33.8462 57.5185ZM34.2343 57.9195V58.4195C34.7355 58.4195 35.0974 58.1186 35.3281 57.7149L34.894 57.4668L34.4599 57.2187C34.3457 57.4186 34.2678 57.4195 34.2343 57.4195V57.9195ZM34.894 57.4668L35.3259 57.7187C35.5526 57.3301 35.7329 56.7101 35.889 55.921L35.3985 55.824L34.908 55.727C34.7536 56.5074 34.5976 56.9826 34.4621 57.2149L34.894 57.4668ZM35.3985 55.824L35.5566 56.2983L35.7894 56.2207L35.6313 55.7464L35.4732 55.2721L35.2404 55.3497L35.3985 55.824ZM35.6313 55.7464L35.1432 55.8549C35.2484 56.328 35.3686 56.7217 35.5194 56.9884L35.9547 56.7424L36.39 56.4964C36.3165 56.3664 36.2212 56.0961 36.1194 55.6379L35.6313 55.7464ZM35.9547 56.7424L35.5387 57.0198C35.7183 57.2893 35.9976 57.5141 36.3816 57.5141V57.0141V56.5141C36.3873 56.5141 36.3955 56.515 36.4045 56.5176C36.4134 56.5202 36.4189 56.5233 36.4204 56.5243C36.4224 56.5256 36.4032 56.5138 36.3707 56.4651L35.9547 56.7424ZM36.3816 57.0141V57.5141C36.6236 57.5141 36.8552 57.4455 37.0559 57.2988C37.251 57.1561 37.389 56.9599 37.4865 56.746C37.6759 56.3306 37.7482 55.7687 37.7482 55.1126H37.2482H36.7482C36.7482 55.7241 36.6761 56.1129 36.5766 56.3313C36.5296 56.4343 36.4871 56.4759 36.4656 56.4916C36.4496 56.5033 36.4284 56.5141 36.3816 56.5141V57.0141ZM37.2482 55.1126L37.4476 55.5711L37.7451 55.4417L37.5457 54.9832L37.3464 54.5247L37.0489 54.654L37.2482 55.1126ZM37.5457 54.9832L37.0562 55.0848L37.1985 55.7704L37.688 55.6688L38.1776 55.5672L38.0353 54.8816L37.5457 54.9832ZM37.688 55.6688L37.1892 55.7036L37.2281 56.2598L37.7268 56.225L38.2256 56.1902L38.1868 55.634L37.688 55.6688ZM41.7168 69.3603H42.2168V68.8603H41.7168V69.3603ZM41.7168 71.5723V72.0723H42.2168V71.5723H41.7168ZM39.0909 71.6757L38.7374 71.3222L39.0909 71.6757ZM32.1317 71.6757L32.5313 71.3752L32.5268 71.3692L32.5222 71.3634L32.1317 71.6757ZM31.8601 71.5723V72.0723H31.8983L31.9361 72.0665L31.8601 71.5723ZM28.9108 71.5723H28.4108V72.0723H28.9108V71.5723ZM28.9108 69.3603V68.8603H28.4108V69.3603H28.9108ZM31.1875 69.3603V69.8603H31.6875V69.3603H31.1875ZM31.4462 67.8986L30.9741 67.7338L30.9735 67.7356L31.4462 67.8986ZM32.2352 66.5016L32.6131 66.8291L32.6168 66.8248L32.2352 66.5016ZM35.5725 65.1693V64.6693H35.5654L35.5582 64.6695L35.5725 65.1693ZM39.1039 66.6698L39.4821 66.3427L39.4702 66.329L39.4574 66.3162L39.1039 66.6698ZM40.0223 69.3603L39.523 69.3864L39.5477 69.8603H40.0223V69.3603ZM35.482 66.8897V67.3897H35.5315L35.58 67.38L35.482 66.8897ZM34.5118 67.2519L34.7822 67.6725L34.7892 67.6679L34.5118 67.2519ZM33.9039 67.9374L33.4644 67.6989L33.4612 67.705L33.9039 67.9374ZM33.8521 70.1494L33.3886 70.337L33.3909 70.3424L33.8521 70.1494ZM36.3228 71.1713L36.1704 70.695L36.1647 70.6969L36.3228 71.1713ZM37.0213 70.6021L36.6339 70.2859L36.6319 70.2885L37.0213 70.6021ZM37.4352 68.416L37.9172 68.2831L37.9142 68.2722L37.9107 68.2615L37.4352 68.416ZM41.7168 69.3603H41.2168V71.5723H41.7168H42.2168V69.3603H41.7168ZM41.7168 71.5723V71.0723H39.4661V71.5723V72.0723H41.7168V71.5723ZM39.4661 71.5723V71.0723C39.2545 71.0723 38.9536 71.106 38.7374 71.3222L39.0909 71.6757L39.4445 72.0293C39.4009 72.0729 39.3637 72.0817 39.3694 72.0801C39.3713 72.0796 39.3798 72.0775 39.3967 72.0756C39.4135 72.0737 39.4363 72.0723 39.4661 72.0723V71.5723ZM39.0909 71.6757L38.7374 71.3222C37.8666 72.1929 36.7525 72.6374 35.3526 72.6374V73.1374V73.6374C36.9882 73.6374 38.3663 73.1075 39.4445 72.0293L39.0909 71.6757ZM35.3526 73.1374V72.6374C34.067 72.6374 33.1539 72.2029 32.5313 71.3752L32.1317 71.6757L31.7322 71.9763C32.5755 73.0975 33.8098 73.6374 35.3526 73.6374V73.1374ZM32.1317 71.6757L32.5222 71.3634C32.3377 71.1329 32.0671 71.0345 31.7841 71.0781L31.8601 71.5723L31.9361 72.0665C31.9213 72.0687 31.8826 72.0709 31.8341 72.0524C31.7849 72.0337 31.7546 72.0047 31.7413 71.9881L32.1317 71.6757ZM31.8601 71.5723V71.0723H28.9108V71.5723V72.0723H31.8601V71.5723ZM28.9108 71.5723H29.4108V69.3603H28.9108H28.4108V71.5723H28.9108ZM28.9108 69.3603V69.8603H31.1875V69.3603V68.8603H28.9108V69.3603ZM31.1875 69.3603H31.6875C31.6875 68.9475 31.7624 68.5154 31.9188 68.0616L31.4462 67.8986L30.9735 67.7356C30.785 68.2822 30.6875 68.8245 30.6875 69.3603H31.1875ZM31.4462 67.8986L31.9182 68.0635C32.0896 67.5727 32.3228 67.164 32.6131 66.8291L32.2352 66.5016L31.8574 66.1742C31.475 66.6154 31.1822 67.138 30.9741 67.7338L31.4462 67.8986ZM32.2352 66.5016L32.6168 66.8248C33.2109 66.1232 34.1659 65.7097 35.5868 65.6691L35.5725 65.1693L35.5582 64.6695C33.9609 64.7151 32.691 65.1898 31.8537 66.1785L32.2352 66.5016ZM35.5725 65.1693V65.6693H35.7019V65.1693V64.6693H35.5725V65.1693ZM35.7019 65.1693V65.6693C36.821 65.6693 37.8319 66.1049 38.7503 67.0233L39.1039 66.6698L39.4574 66.3162C38.3752 65.234 37.1181 64.6693 35.7019 64.6693V65.1693ZM39.1039 66.6698L38.7257 66.9969C39.1821 67.5246 39.4663 68.3011 39.523 69.3864L40.0223 69.3603L40.5216 69.3342C40.4576 68.1084 40.1295 67.0913 39.4821 66.3427L39.1039 66.6698ZM40.0223 69.3603V69.8603H41.7168V69.3603V68.8603H40.0223V69.3603ZM35.482 66.8897V66.3897C35.0592 66.3897 34.6383 66.5666 34.2345 66.8358L34.5118 67.2519L34.7892 67.6679C35.1097 67.4542 35.3356 67.3897 35.482 67.3897V66.8897ZM34.5118 67.2519L34.2415 66.8313C33.9165 67.0401 33.6606 67.3376 33.4644 67.6989L33.9039 67.9374L34.3433 68.176C34.4749 67.9336 34.6242 67.774 34.7822 67.6725L34.5118 67.2519ZM33.9039 67.9374L33.4612 67.705C33.2401 68.1261 33.1322 68.5861 33.1322 69.0757H33.6322H34.1322C34.1322 68.7376 34.2055 68.4386 34.3466 68.1699L33.9039 67.9374ZM33.6322 69.0757H33.1322C33.1322 69.5001 33.2205 69.9215 33.3887 70.337L33.8521 70.1494L34.3156 69.9618C34.1906 69.6529 34.1322 69.3586 34.1322 69.0757H33.6322ZM33.8521 70.1494L33.3909 70.3424C33.5801 70.7944 33.8688 71.16 34.2668 71.4081C34.6616 71.6541 35.1276 71.7618 35.6372 71.7618V71.2618V70.7618C35.2672 70.7618 34.9959 70.6842 34.7957 70.5594C34.5986 70.4366 34.4346 70.246 34.3134 69.9563L33.8521 70.1494ZM35.6372 71.2618V71.7618C35.9451 71.7618 36.2316 71.7287 36.4809 71.6456L36.3228 71.1713L36.1647 70.6969C36.0518 70.7346 35.8812 70.7618 35.6372 70.7618V71.2618ZM36.3228 71.1713L36.4752 71.6475C36.8311 71.5336 37.1401 71.2516 37.4107 70.9158L37.0213 70.6021L36.6319 70.2885C36.4023 70.5735 36.2457 70.671 36.1704 70.6951L36.3228 71.1713ZM37.0213 70.6021L37.4086 70.9183C37.8274 70.4053 38.0387 69.8061 38.0387 69.1404H37.5387H37.0387C37.0387 69.5786 36.9051 69.9538 36.634 70.2859L37.0213 70.6021ZM37.5387 69.1404H38.0387C38.0387 68.8579 37.9968 68.5716 37.9172 68.2831L37.4352 68.416L36.9532 68.549C37.0116 68.7607 37.0387 68.9573 37.0387 69.1404H37.5387ZM37.4352 68.416L37.9107 68.2615C37.7262 67.6938 37.4626 67.2184 37.0924 66.8819C36.7116 66.5357 36.2473 66.3638 35.7277 66.3638V66.8638V67.3638C36.0102 67.3638 36.2315 67.4506 36.4198 67.6218C36.6188 67.8028 36.8079 68.1034 36.9597 68.5706L37.4352 68.416ZM35.7277 66.8638V66.3638C35.6132 66.3638 35.4983 66.3765 35.3839 66.3994L35.482 66.8897L35.58 67.38C35.6382 67.3683 35.6871 67.3638 35.7277 67.3638V66.8638ZM41.3374 71.5723H40.8374V72.0723H41.3374V71.5723ZM41.3374 69.3474V68.8474H40.8374V69.3474H41.3374ZM50.6767 69.3474V69.8474H51.2053L51.1759 69.3197L50.6767 69.3474ZM50.3792 67.834L49.902 67.9831L49.9092 68.0062L49.9186 68.0284L50.3792 67.834ZM49.4996 66.5663L49.1487 66.9227L49.1565 66.93L49.4996 66.5663ZM47.0548 65.5961L47.099 65.0981L47.0633 65.0949L47.0275 65.0969L47.0548 65.5961ZM44.2091 67.1484L43.8861 67.5301L44.3159 67.8937L44.6262 67.424L44.2091 67.1484ZM42.3593 65.5832L41.9738 65.2648L41.6591 65.6457L42.0363 65.9649L42.3593 65.5832ZM43.2906 64.5872L43.6275 64.9567L43.6338 64.951L43.6399 64.945L43.2906 64.5872ZM46.3046 63.2419L46.2587 62.744L46.2437 62.7454L46.2288 62.7477L46.3046 63.2419ZM50.0299 63.9792L49.7985 64.4225L49.803 64.4248L50.0299 63.9792ZM53.3673 69.3474L53.8673 69.3445L53.8671 69.3117L53.8626 69.2792L53.3673 69.3474ZM53.3802 71.5723V72.0723H53.8831L53.8802 71.5694L53.3802 71.5723ZM41.3374 71.5723H41.8374V69.3474H41.3374H40.8374V71.5723H41.3374ZM41.3374 69.3474V69.8474H50.6767V69.3474V68.8474H41.3374V69.3474ZM50.6767 69.3474L51.1759 69.3197C51.1396 68.6661 51.034 68.0993 50.8398 67.6395L50.3792 67.834L49.9186 68.0284C50.0521 68.3447 50.1448 68.7869 50.1775 69.3751L50.6767 69.3474ZM50.3792 67.834L50.8564 67.6848C50.6926 67.1604 50.3359 66.6679 49.8427 66.2026L49.4996 66.5663L49.1565 66.93C49.5774 67.3271 49.8071 67.6796 49.902 67.9831L50.3792 67.834ZM49.4996 66.5663L49.8504 66.21C49.1815 65.5514 48.2419 65.1995 47.099 65.0981L47.0548 65.5961L47.0106 66.0942C48.0064 66.1825 48.6967 66.4774 49.1488 66.9226L49.4996 66.5663ZM47.0548 65.5961L47.0275 65.0969C45.6268 65.1736 44.5259 65.7618 43.7919 66.8728L44.2091 67.1484L44.6262 67.424C45.1685 66.6033 45.9648 66.1566 47.0822 66.0954L47.0548 65.5961ZM44.2091 67.1484L44.532 66.7667L42.6823 65.2015L42.3593 65.5832L42.0363 65.9649L43.8861 67.5301L44.2091 67.1484ZM42.3593 65.5832L42.7448 65.9017C43.0616 65.5181 43.3559 65.2043 43.6275 64.9567L43.2906 64.5872L42.9538 64.2177C42.639 64.5047 42.3124 64.855 41.9738 65.2648L42.3593 65.5832ZM43.2906 64.5872L43.6399 64.945C44.2609 64.339 45.1583 63.9235 46.3804 63.7361L46.3046 63.2419L46.2288 62.7477C44.8638 62.957 43.7519 63.4384 42.9414 64.2294L43.2906 64.5872ZM46.3046 63.2419L46.3504 63.7398C47.5649 63.6279 48.7105 63.8545 49.7986 64.4225L50.0299 63.9792L50.2613 63.536C49.0038 62.8795 47.6658 62.6144 46.2587 62.744L46.3046 63.2419ZM50.0299 63.9792L49.803 64.4248C51.4808 65.2792 52.5253 66.8986 52.8719 69.4156L53.3673 69.3474L53.8626 69.2792C53.4848 66.5359 52.3045 64.5765 50.2568 63.5337L50.0299 63.9792ZM53.3673 69.3474L52.8673 69.3503L52.8802 71.5752L53.3802 71.5723L53.8802 71.5694L53.8673 69.3445L53.3673 69.3474ZM53.3802 71.5723V71.0723H41.3374V71.5723V72.0723H53.3802V71.5723Z" fill="white"/>
</svg>
