<svg width="397" height="372" viewBox="0 0 397 372" fill="none" xmlns="http://www.w3.org/2000/svg">
<path d="M41.924 273.35C77.9816 246.142 122.671 234.079 162.891 215.323C168.055 213.02 173.143 210.62 178.134 208.06C188.2 202.991 197.767 196.985 206.707 190.122C198.468 196.171 189.648 201.387 180.378 205.692C175.752 207.88 171.013 209.892 166.23 211.781C121.947 230.62 72.2303 235.435 31.3887 262.293L41.924 273.35ZM4.04765 217.023C7.7249 215.92 12.154 214.109 16.1796 213.842C66.6991 213.523 114.669 212.867 163.318 204.272C168.503 203.266 173.634 202.061 178.693 200.614C188.945 197.739 198.817 193.653 208.103 188.443C198.516 193.199 188.415 196.84 178 199.295C172.812 200.554 167.557 201.575 162.256 202.422C113.492 209.883 65.9914 210.002 14.47 202.806C10.378 202.067 5.94887 203.877 1.16943 204.821L4.04765 217.023ZM0.309362 188.053C52.0822 198.825 104.543 204.947 157.667 200.593C163.258 200.152 168.812 199.526 174.313 198.645C185.369 196.944 196.214 194.075 206.665 190.085C196.022 192.762 185.193 194.635 174.269 195.686C168.802 196.236 163.303 196.616 157.795 196.865C128.813 197.757 101.574 198.553 71.0494 195.525C45.5569 192.162 25.571 180.347 2.03605 176.167L0.309362 188.053ZM18.5151 246.059C60.4548 226.108 109.564 227.398 153.992 212.518C158.826 211.176 163.563 209.74 168.249 208.145C182.282 203.368 195.771 197.166 208.082 188.52C199 194.54 189.21 199.418 178.935 203.044C173.856 204.882 168.693 206.458 163.468 207.835C123.531 216.874 83.4079 221.557 41.742 225.838C30.738 227.579 20.7405 229.253 11.2262 234.034L18.5151 246.059ZM24.0149 135.064C57.0874 167.177 101.896 179.872 147.613 183.349C153.517 184.025 159.433 184.554 165.361 184.936C177.327 185.705 189.324 185.857 201.305 185.391C203.855 185.728 206.001 187.607 208.08 188.48C207.007 187.54 205.868 185.594 204.325 185.191C195.151 184.031 186.139 182.956 177.251 181.837C168.363 180.719 159.603 179.551 150.922 178.206C107.472 172.391 61.7232 160.769 32.6641 125.372L24.0149 135.064ZM45.839 111.509C50.4627 117.76 55.7487 123.493 61.6051 128.607C78.8385 144.507 100.638 153.169 122.438 160.779C129.858 163.228 137.326 165.427 144.784 167.54C152.242 169.653 159.618 171.6 166.845 173.587C172.84 175.195 178.839 176.809 184.823 178.494C190.808 180.18 196.781 181.931 202.717 183.812C204.797 184.685 206.472 187.1 208.082 188.51C200.505 180.926 190.579 176.025 180.652 171.124C176.054 169.155 171.391 167.412 166.695 165.803C159.652 163.855 152.57 161.757 145.547 159.428C138.525 157.099 131.55 154.565 124.722 151.732C110.825 146.948 98.15 138.692 86.2187 130.755C80.3281 126.531 74.7886 121.838 69.6544 116.722C64.4527 111.531 59.7499 105.863 55.6077 99.7923L45.839 111.509ZM67.6451 297.005C74.4556 292.379 81.2345 287.886 87.9469 282.386C113.187 258.979 139.567 237.517 168.427 219.176C173.114 216.076 177.77 212.956 182.328 209.733C191.455 203.285 200.209 196.416 208.11 188.478C196.933 199.075 184.198 207.122 170.982 214.408C166.579 216.838 162.12 219.191 157.6 221.537C121.518 239.726 87.5571 261.185 57.043 287.767L67.6451 297.005ZM7.63635 160.183C50.8305 187.299 102.219 192.481 152.241 193.736C158.389 193.874 164.541 193.794 170.698 193.497C182.957 192.961 195.141 191.305 207.099 188.55C195.199 189.506 183.211 189.968 171.213 189.89C165.209 189.847 159.207 189.672 153.206 189.366C104.318 185.766 52.9956 181.59 13.5885 149.296L7.63635 160.183ZM163.227 360.416C172.97 353.058 183.575 345.278 182.711 332.195C180.588 292.408 168.268 251.276 189.742 214.851C194.664 205.29 200.834 196.425 208.091 188.489C204.464 192.273 200.982 196.249 197.667 200.391C194.363 204.559 191.278 208.895 188.422 213.382C175.643 233.082 167.578 256.361 168.704 281.051C170.432 307.218 179.737 340.969 148.372 352.072L163.227 360.416ZM286.407 334.756C281.884 318.544 273.842 303.915 261.974 292.573C242.999 273.11 222.951 252.707 212.408 227.6C209.876 221.55 208.17 215.186 207.337 208.68C206.501 201.953 206.759 195.134 208.101 188.488C206.318 194.438 205.49 200.633 205.649 206.841C205.829 212.797 206.812 218.7 208.572 224.392C219.258 258.006 245.544 281.027 265.654 310.018C271.82 319.212 276.577 330.015 277.54 342.066L286.407 334.756ZM265.336 351.044C266.243 334.239 260.617 317.934 250.629 304.445C231.188 277.937 210.875 253.508 204.105 222.187C203.081 216.648 202.852 210.991 203.425 205.386C204.059 199.54 205.636 193.836 208.096 188.494C205.116 194.421 203.147 200.804 202.268 207.379C201.464 213.713 201.592 220.131 202.647 226.428C208.418 255.187 224.17 279.413 242.471 303.975C254.068 318.873 258.821 337.259 256.603 356.48L265.336 351.044ZM95.4079 316.067C107.785 307.347 121.41 299.367 129.603 285.682C140.08 268.309 145.928 249.726 159.161 235.363C162.812 231.032 166.669 226.92 170.671 222.924C182.666 211.024 195.974 200.16 208.091 188.489C203.391 193.855 197.685 199.288 192.449 204.184C188.035 208.141 183.52 212.009 178.988 215.863C174.457 219.716 169.895 223.572 165.397 227.484C159.352 231.14 154.652 236.506 150.422 241.336C128.738 265.013 111.278 291.442 83.2261 308.395L95.4079 316.067ZM244.393 362.683C248.323 346.042 249.072 326.786 239.017 312.291C219.98 284.24 201.883 255.115 199.869 221.255C199.667 215.622 200.222 209.988 201.517 204.502C202.882 198.853 205.108 193.446 208.115 188.472C205.016 193.394 202.624 198.726 201.009 204.314C199.46 209.757 198.598 215.374 198.444 221.031C198.418 255.826 215.641 287.029 232.798 317.227C240.84 331.856 243.044 349.905 235.37 366.178L244.393 362.683ZM307.175 316.098C301.461 307.326 294.584 299.369 286.731 292.446C262.054 270.834 232.545 252.576 217.547 222.609C214.794 217.42 212.588 211.958 210.966 206.311C209.298 200.513 208.338 194.533 208.107 188.503C207.336 195.348 207.674 202.271 209.107 209.007C210.523 215.523 212.797 221.822 215.869 227.739C230.257 256.26 257.283 275.189 279.477 297.471C286.583 305.592 293.22 314.249 298.663 324.042L307.175 316.098ZM127.817 338.223C145.899 331.302 152.458 317.134 155.781 300.948C156.885 295.552 157.625 289.934 158.314 284.288C159.595 273.084 160.877 261.88 164.238 251.548C166.421 244.886 169.37 238.499 173.028 232.517C176.591 226.469 180.583 220.644 184.447 214.869C188.016 210.144 191.834 205.579 195.809 201.181C199.784 196.783 203.906 192.552 208.105 188.483C197.968 199.517 187.327 210.584 177.81 222.36C174.632 226.346 171.584 230.399 168.713 234.608C150.486 257.52 153.083 289.189 136.497 313.538C131.461 321.454 121.999 323.598 113.923 328.111L127.817 338.223ZM221.997 369.845C238.847 340.626 218.604 309.622 206.209 282.647C197.901 263.992 192.479 243.124 194.615 222.362C195.247 216.299 196.677 210.346 198.869 204.658C201.131 198.855 204.234 193.416 208.077 188.515C203.911 193.441 200.496 198.956 197.943 204.881C195.474 210.712 193.785 216.843 192.921 223.116C189.046 244.858 194.534 266.732 202.439 286.93C213.358 314.509 230.985 344.17 211.632 371.321L221.997 369.845ZM69.5667 80.8127C90.6676 109.353 123.129 126.405 153.196 144.309C158.257 147.329 163.291 150.381 168.235 153.536C173.179 156.69 178.038 159.941 182.761 163.347C187.573 166.849 192.13 170.688 196.398 174.835C200.709 179.031 204.632 183.609 208.117 188.513C205.857 182.854 202.948 177.477 199.447 172.49C196.02 167.626 192.142 163.097 187.864 158.96C183.445 155.023 178.931 151.193 174.346 147.424C169.76 143.655 165.158 139.927 160.502 136.248C132.913 114.152 104.681 92.2706 80.3149 65.867L69.5667 80.8127ZM195.683 370.883C213.179 356.945 210.444 330.845 202.673 312.66C189.071 282.732 181.242 248.378 191.915 217.057C193.613 212.176 195.712 207.443 198.192 202.908C200.654 198.396 203.503 194.104 206.705 190.082C202.669 193.987 199.113 198.36 196.113 203.107C193.168 207.775 190.736 212.747 188.859 217.937C178.328 250.624 185.084 284.038 194.389 317.789C199.075 335.168 199.531 357.376 182.836 368.213L195.683 370.883ZM174.867 3.44194C190.925 43.5527 195.796 86.6953 204.051 128.562C205.21 134.479 206.451 140.336 207.854 146.116C208.856 153.092 209.405 160.126 209.498 167.173C209.592 174.302 209.127 181.427 208.105 188.483C209.545 181.464 210.435 174.343 210.767 167.185C211.097 160.081 210.979 152.964 210.415 145.875C203.128 97.8385 198.864 48.5906 186.065 1.58702L174.867 3.44194ZM396.904 178.524C352.763 174.862 310.556 186.255 266.901 190.88C257.799 191.242 248.684 190.994 239.615 190.138C234.419 189.825 229.237 189.487 224.066 189.254C218.896 189.021 213.761 188.876 208.609 188.99C213.817 188.693 219.041 188.967 224.189 189.807C229.33 190.582 234.416 191.756 239.521 192.994C247.348 195.26 255.094 197.152 263.001 197.951C271.249 198.825 279.584 198.342 287.677 196.521C323.437 189.913 359.938 183.954 396.168 190.87L396.904 178.524ZM388.514 149.832C348.74 152.375 309.215 166.117 271.143 176.219C263.916 178.209 256.583 179.789 249.177 180.952C241.649 182.121 234.044 182.719 226.426 182.739C219.918 183.676 214.012 186.09 208.107 188.503C212.066 187.23 216.495 185.42 220.05 185.689C226.48 186.176 232.93 186.318 239.375 186.115C248.633 185.405 257.637 184.378 266.69 182.873C308.884 176.257 350.759 159.833 393.399 161.583L388.514 149.832ZM390.034 208.112C354.281 198 317.244 203.49 281.296 205.971C276.443 206.223 271.579 206.163 266.734 205.79C261.82 205.405 256.949 204.597 252.175 203.375C246.376 202.103 240.685 200.379 235.156 198.217C229.535 195.988 224.09 193.343 218.864 190.301C215.712 188.489 211.686 188.756 208.131 188.486C213.609 191.075 219.104 193.697 224.629 196.242C230.154 198.786 235.744 201.236 241.41 203.458C249.016 206.786 256.925 209.372 265.028 211.18C273.319 213.015 281.786 213.945 290.279 213.952C320.905 212.33 352.104 210.26 382.426 220.327L390.034 208.112ZM371.511 123.193C333.016 135.759 297.379 154.802 259.72 168.405C254.915 170.183 250.056 171.828 245.142 173.34C240.228 174.852 235.222 176.22 230.124 177.445C222.206 179.992 214.354 183.545 208.112 188.508C210.528 186.831 212.408 184.685 214.891 184.015C221.944 182.455 228.875 180.819 235.683 179.108C242.593 177.365 249.389 175.514 256.272 173.435C261.134 172.061 265.967 170.573 270.77 168.971C307.175 157.655 342.072 142.704 379.348 134.02L371.511 123.193ZM350.721 99.2004C327.578 114.877 302.209 128.691 278.244 144.159C272.295 147.856 266.317 151.471 260.311 155.003C254.304 158.535 248.194 161.958 241.981 165.271C236.115 168.819 230.331 172.468 224.662 176.311C218.992 180.154 213.487 184.179 208.126 188.492C214.435 184.535 219.605 178.633 226.45 175.146C233.269 172.231 240.022 169.257 246.709 166.226C253.395 163.194 260.055 160.136 266.688 157.051C298.592 142.562 328.19 123.919 359.649 108.878L350.721 99.2004ZM368.177 237.289C339.724 222.231 305.302 229.063 274.056 222.539C268.619 221.55 263.27 220.13 258.058 218.294C252.679 216.394 247.503 213.966 242.604 211.045C236.429 207.93 230.436 204.467 224.654 200.672C218.947 196.907 213.435 192.855 208.139 188.531C212.287 192.638 216.622 196.672 221.138 200.552C225.655 204.432 230.364 208.148 235.232 211.615C247.166 220.816 261.251 227.462 275.673 231.56C282.206 233.079 288.843 234.115 295.528 234.66C316.461 236.94 339.271 237.954 357.172 249.715L368.177 237.289ZM325.714 294.919C320.829 290.299 315.625 286.027 310.142 282.134C304.758 278.281 299.193 274.764 293.548 271.393C267.245 257.364 239.411 241.522 221.462 216.31C218.485 212.149 215.863 207.747 213.623 203.148C211.333 198.446 209.485 193.542 208.101 188.499C208.799 193.6 210.017 198.617 211.739 203.47C213.395 208.137 215.481 212.64 217.969 216.92C237.428 250.215 273.379 266.53 302.298 289.478C307.745 294.248 313.072 299.191 318.278 304.308L325.714 294.919ZM343.472 267.338C330.955 259.104 317.182 252.959 302.692 249.145C297.991 247.693 293.29 246.296 288.645 244.836C269.528 238.523 249.874 231.74 234.092 218.221C228.902 214.184 224.09 209.683 219.714 204.776C215.279 199.783 211.387 194.334 208.103 188.519C212.176 197.39 217.521 205.62 223.969 212.949C230.36 220.182 237.559 226.659 245.425 232.253C250.724 236.034 256.255 239.479 261.986 242.566C274.38 248.557 287.281 253.644 299.863 259.345C312.445 265.045 324.708 271.348 335.824 279.793L343.472 267.338ZM301.981 52.3222C279.681 78.6178 266.176 111.355 246.226 139.415C243.211 143.658 240.137 147.84 237.046 152.008C227.686 164.405 218.114 176.644 208.096 188.494C212.885 183.206 217.622 177.898 222.307 172.57C226.993 167.242 231.664 161.909 236.321 156.569C239.452 152.951 242.559 149.335 245.642 145.721C269.738 119.215 287.805 86.6809 313.541 62.2094L301.981 52.3222ZM198.89 0.786645C205.97 41.5588 207.69 82.8888 211.859 123.586C212.438 131.053 212.873 138.318 213.151 145.511C213.228 152.622 212.91 159.732 212.197 166.807C211.475 173.932 210.261 180.999 208.566 187.957C210.672 180.899 212.289 173.704 213.405 166.424C214.506 159.233 215.207 151.987 215.504 144.718C215.222 97.0613 210.554 49.3565 206.835 1.17429L198.89 0.786645ZM216.817 2.70048C217.307 44.85 216.477 85.8437 218.201 127.017C218.163 134.019 217.841 140.924 217.229 147.717C215.961 161.352 213.404 174.814 208.544 187.938C213.94 175.284 217.109 162.044 219.052 148.537C220.017 141.796 220.665 134.94 221.043 127.95C220.548 86.5643 223.39 45.437 223.543 4.44771L216.817 2.70048ZM232.799 7.84155C230.252 49.5506 226.94 91.2145 224.682 132.854C224.052 137.783 223.275 142.611 222.363 147.407C219.485 161.669 215.215 175.528 208.112 188.508C215.617 175.88 220.539 162.413 224.061 148.553C225.24 143.896 226.271 139.204 227.155 134.479C232.121 92.9076 233.487 52.3837 239.641 11.2742L232.799 7.84155ZM328.223 76.2916C309.731 89.7648 295.229 107.406 278.656 122.313C274.671 126.267 270.676 130.212 266.612 134.095C262.547 137.978 258.423 141.81 254.198 145.553C249.199 150.069 244.158 154.545 239.073 158.979C233.819 163.796 228.611 168.66 223.45 173.571C218.289 178.483 213.176 183.461 208.112 188.508C213.348 183.612 218.742 178.958 224.216 174.45C229.689 169.943 235.338 165.626 241.021 161.377C246.688 157.49 252.277 153.514 257.791 149.449C263.277 145.35 268.676 141.165 274.003 136.89C294.478 119.075 316.092 101.973 337.837 86.0299L328.223 76.2916ZM139.353 14.8654C166.991 40.6071 176.496 77.3773 188.429 111.97C190.387 117.885 192.34 123.739 194.454 129.573C196.568 135.407 198.778 141.087 201.247 146.711C203.382 153.456 205.045 160.343 206.222 167.32C207.41 174.327 208.037 181.417 208.098 188.524C208.528 181.405 208.413 174.264 207.753 167.163C207.114 160.127 206.009 153.141 204.446 146.251C202.59 140.501 200.901 134.669 199.289 128.772C187.818 88.2607 181.337 43.7087 155.648 8.67448L139.353 14.8654ZM99.1363 43.9114C137.184 71.3935 160.171 113.334 189.701 149.124C193.759 154.964 197.324 161.132 200.36 167.562C203.44 174.124 205.852 180.979 207.559 188.024C206.998 180.891 205.663 173.839 203.578 166.995C201.521 160.266 198.86 153.737 195.628 147.488C185.605 132.566 177.468 116.27 169.067 100.189C166.302 94.8283 163.464 89.4976 160.526 84.2694C157.587 79.0412 154.567 73.864 151.355 68.8612C141.71 53.8332 130.443 40.1158 115.376 29.3848L99.1363 43.9114ZM273.817 32.1598C256.609 65.9969 250.012 103.835 236.453 139.199C234.63 143.633 232.713 148.004 230.703 152.312C224.582 165.157 217.476 177.48 208.099 188.544C212.429 182.702 216.543 176.738 220.453 170.662C224.362 164.585 228.151 158.44 231.827 152.263C237.135 145.704 240.159 137.922 243.719 130.61C257.357 99.8859 267.909 68.3554 285.463 39.9135L273.817 32.1598ZM250.27 17.4629C242.192 54.3181 240.09 91.3529 232.553 128.056C231.205 133.513 229.742 138.765 228.095 143.969C223.054 159.466 216.791 174.453 208.06 188.491C217.397 174.984 224.25 160.362 229.964 145.255C231.811 140.159 233.537 135.006 235.114 129.721C244.801 94.5883 246.367 57.0836 259.181 22.9922L250.27 17.4629Z" fill="url(#paint0_linear_916_15678)"/>
<defs>
<linearGradient id="paint0_linear_916_15678" x1="309.676" y1="58.8244" x2="-40.3979" y2="400.454" gradientUnits="userSpaceOnUse">
<stop stop-color="#D4FFFD"/>
<stop offset="1" stop-color="#24A19C"/>
</linearGradient>
</defs>
</svg>
