<svg width="178" height="177" viewBox="0 0 178 177" fill="none" xmlns="http://www.w3.org/2000/svg">
<path d="M-140.564 249.722C-104.507 222.514 -59.817 210.451 -19.5975 191.696C-14.4328 189.392 -9.34524 186.992 -4.35415 184.432C5.71178 179.363 15.2784 173.357 24.2192 166.494C15.9798 172.543 7.16012 177.759 -2.10989 182.065C-6.73645 184.252 -11.4756 186.264 -16.2583 188.153C-60.5408 206.992 -110.258 211.807 -151.1 238.665L-140.564 249.722ZM-178.441 193.395C-174.763 192.292 -170.334 190.482 -166.309 190.214C-115.789 189.895 -67.8189 189.239 -19.1702 180.644C-13.9855 179.638 -8.85436 178.433 -3.79484 176.986C6.45629 174.111 16.3289 170.025 25.6144 164.815C16.0274 169.571 5.92719 173.212 -4.48843 175.667C-9.67665 176.926 -14.9311 177.947 -20.2325 178.794C-68.9965 186.255 -116.497 186.374 -168.018 179.178C-172.11 178.439 -176.539 180.249 -181.319 181.193L-178.441 193.395ZM-182.179 164.425C-130.406 175.197 -77.9448 181.319 -24.8211 176.966C-19.2301 176.524 -13.6766 175.898 -8.17535 175.017C2.88072 173.317 13.7254 170.447 24.1763 166.457C13.5334 169.134 2.70432 171.007 -8.21919 172.058C-13.6868 172.608 -19.1857 172.988 -24.6934 173.237C-53.6751 174.129 -80.9144 174.926 -111.439 171.897C-136.931 168.534 -156.917 156.719 -180.452 152.539L-182.179 164.425ZM-163.973 222.431C-122.034 202.48 -72.9238 203.77 -28.4961 188.89C-23.6621 187.548 -18.9253 186.112 -14.2394 184.517C-0.206454 179.74 13.2825 173.538 25.5942 164.892C16.5113 170.912 6.72166 175.79 -3.55343 179.416C-8.63262 181.254 -13.7949 182.83 -19.0207 184.207C-58.9573 193.246 -99.0804 197.929 -140.746 202.21C-151.75 203.951 -161.748 205.625 -171.262 210.406L-163.973 222.431ZM-158.473 111.436C-125.401 143.549 -80.5919 156.244 -34.8756 159.721C-28.9716 160.397 -23.0554 160.926 -17.1271 161.308C-5.16162 162.077 6.83576 162.23 18.8172 161.763C21.3665 162.1 23.5122 163.979 25.5915 164.852C24.5186 163.912 23.3793 161.966 21.8364 161.563C12.6625 160.403 3.65079 159.328 -5.23739 158.209C-14.1256 157.091 -22.8856 155.923 -31.5663 154.578C-75.0162 148.763 -120.765 137.141 -149.824 101.744L-158.473 111.436ZM-136.649 87.8811C-132.026 94.1323 -126.74 99.865 -120.883 104.979C-103.65 120.879 -81.8505 129.541 -60.0499 137.151C-52.6305 139.601 -45.1619 141.799 -37.7041 143.912C-30.2462 146.025 -22.8701 147.972 -15.6429 149.959C-9.64863 151.568 -3.649 153.181 2.33516 154.866C8.31931 156.552 14.2927 158.303 20.2291 160.184C22.3084 161.057 23.9842 163.473 25.5935 164.882C18.0168 157.298 8.09033 152.397 -1.83613 147.496C-6.43402 145.527 -11.0978 143.784 -15.7932 142.175C-22.8359 140.227 -29.9187 138.129 -36.941 135.8C-43.9634 133.471 -50.9386 130.937 -57.7667 128.104C-71.6631 123.32 -84.3382 115.064 -96.2696 107.127C-102.16 102.903 -107.7 98.2102 -112.834 93.0938C-118.036 87.9027 -122.738 82.2347 -126.881 76.1644L-136.649 87.8811ZM-114.843 273.378C-108.033 268.751 -101.254 264.258 -94.5414 258.758C-69.3012 235.351 -42.9216 213.889 -14.0615 195.548C-9.37402 192.448 -4.71807 189.329 -0.159988 186.105C8.96622 179.657 17.721 172.788 25.6217 164.85C14.4447 175.447 1.70939 183.494 -11.5058 190.78C-15.9091 193.21 -20.368 195.563 -24.888 197.909C-60.9703 216.098 -94.9312 237.557 -125.445 264.139L-114.843 273.378ZM-174.852 136.555C-131.658 163.671 -80.2694 168.853 -30.2473 170.108C-24.0991 170.246 -17.9469 170.167 -11.7905 169.869C0.468374 169.334 12.6528 167.678 24.6106 164.922C12.7108 165.878 0.722751 166.34 -11.2757 166.262C-17.2794 166.219 -23.2817 166.044 -29.2825 165.738C-78.1708 162.138 -129.493 157.962 -168.9 125.668L-174.852 136.555ZM-19.2616 336.788C-9.51825 329.43 1.08677 321.65 0.222472 308.567C-1.90047 268.78 -14.2204 227.648 7.25382 191.223C12.1755 181.662 18.3457 172.797 25.6022 164.861C21.9757 168.645 18.4933 172.621 15.1786 176.763C11.875 180.931 8.78922 185.267 5.93368 189.754C-6.84555 209.454 -14.9105 232.733 -13.7848 257.423C-12.0562 283.59 -2.75089 317.341 -34.1158 328.444L-19.2616 336.788ZM103.919 311.128C99.3962 294.916 91.3541 280.287 79.4859 268.945C60.5109 249.482 40.4631 229.079 29.9195 203.972C27.3876 197.922 25.6821 191.558 24.8487 185.052C24.013 178.325 24.2709 171.506 25.6123 164.861C23.8292 170.81 23.0017 177.005 23.1605 183.213C23.3405 189.169 24.3238 195.072 26.0838 200.764C36.7699 234.378 63.0556 257.399 83.1654 286.39C89.3322 295.584 94.0891 306.387 95.052 318.438L103.919 311.128ZM82.8481 327.416C83.7546 310.611 78.1288 294.306 68.1404 280.817C48.7 254.309 28.3862 229.88 21.6169 198.559C20.5927 193.02 20.3637 187.363 20.9366 181.759C21.5706 175.912 23.1481 170.208 25.6076 164.866C22.6282 170.793 20.6584 177.176 19.7795 183.751C18.9756 190.085 19.1033 196.503 20.1585 202.8C25.9297 231.559 41.6815 255.785 59.9825 280.347C71.5802 295.246 76.3326 313.631 74.115 332.852L82.8481 327.416ZM-87.0804 292.44C-74.703 283.719 -61.0787 275.739 -52.8854 262.054C-42.4088 244.681 -36.5607 226.098 -23.3278 211.735C-19.6768 207.404 -15.8193 203.292 -11.8176 199.296C0.178045 187.396 13.4853 176.532 25.6022 164.861C20.9027 170.227 15.1967 175.66 9.96064 180.556C5.54705 184.513 1.03152 188.381 -3.5001 192.235C-8.03172 196.088 -12.5935 199.944 -17.091 203.856C-23.1367 207.512 -27.8363 212.878 -32.0659 217.708C-53.7505 241.385 -71.21 267.814 -99.2622 284.767L-87.0804 292.44ZM61.9048 339.055C65.8343 322.414 66.5839 303.158 56.529 288.663C37.4921 260.612 19.3951 231.488 17.3807 197.627C17.1791 191.994 17.7333 186.36 19.0284 180.874C20.394 175.225 22.6193 169.819 25.6264 164.844C22.5273 169.766 20.1354 175.099 18.5207 180.686C16.9716 186.129 16.1099 191.746 15.9558 197.403C15.9295 232.198 33.153 263.402 50.3101 293.599C58.3521 308.228 60.5553 326.277 52.8817 342.55L61.9048 339.055ZM124.687 292.47C118.973 283.698 112.095 275.741 104.242 268.818C79.5661 247.207 50.0571 228.948 35.0583 198.981C32.3052 193.792 30.0998 188.33 28.4778 182.683C26.8099 176.885 25.8497 170.905 25.6183 164.875C24.8477 171.72 25.1856 178.643 26.619 185.379C28.0352 191.895 30.3089 198.194 33.3806 204.111C47.7685 232.632 74.7946 251.561 96.9883 273.843C104.095 281.964 110.732 290.621 116.175 300.414L124.687 292.47ZM-54.6708 314.595C-36.5897 307.674 -30.0304 293.506 -26.7077 277.32C-25.6035 271.924 -24.8628 266.306 -24.1744 260.66C-22.8929 249.456 -21.6115 238.252 -18.2507 227.92C-16.0677 221.258 -13.1178 214.871 -9.46041 208.889C-5.8976 202.841 -1.90555 197.016 1.95832 191.241C5.52772 186.516 9.34525 181.951 13.3203 177.553C17.2954 173.155 21.418 168.924 25.617 164.855C15.4797 175.889 4.8391 186.956 -4.6781 198.732C-7.85658 202.718 -10.9043 206.772 -13.7749 210.98C-32.0025 233.892 -29.4051 265.561 -45.9912 289.91C-51.0277 297.826 -60.4888 299.97 -68.5652 304.483L-54.6708 314.595ZM39.5083 346.217C56.3589 316.998 36.1162 285.994 23.7207 259.019C15.4126 240.364 9.99086 219.496 12.1268 198.734C12.7586 192.671 14.1888 186.718 16.3803 181.03C18.6429 175.227 21.7455 169.788 25.5888 164.887C21.4228 169.813 18.0079 175.328 15.455 181.253C12.9854 187.084 11.2968 193.215 10.433 199.488C6.55746 221.23 12.0457 243.104 19.9503 263.302C30.8695 290.881 48.4965 320.542 29.1439 347.693L39.5083 346.217ZM-112.922 57.1847C-91.8206 85.7256 -59.359 102.778 -29.2923 120.681C-24.2308 123.701 -19.1975 126.753 -14.2534 129.908C-9.30941 133.062 -4.44997 136.313 0.273178 139.719C5.08501 143.221 9.64204 147.06 13.9098 151.207C18.2211 155.403 22.1435 159.981 25.6291 164.885C23.3687 159.226 20.4592 153.849 16.9592 148.862C13.5314 143.999 9.65322 139.469 5.37606 135.332C0.956471 131.395 -3.55708 127.565 -8.14248 123.796C-12.7279 120.027 -17.3307 116.299 -21.986 112.62C-49.5751 90.5241 -77.8072 68.6427 -102.173 42.2391L-112.922 57.1847ZM13.1947 347.255C30.6909 333.317 27.9559 307.217 20.1843 289.032C6.58294 259.104 -1.24597 224.75 9.42623 193.429C11.1243 188.548 13.224 183.815 15.7037 179.28C18.1661 174.768 21.0144 170.476 24.2165 166.454C20.1806 170.359 16.6248 174.732 13.6244 179.479C10.68 184.147 8.24816 189.119 6.37106 194.309C-4.1604 226.996 2.59562 260.41 11.9009 294.161C16.5868 311.54 17.0431 333.748 0.347709 344.585L13.1947 347.255ZM-7.62169 -20.186C8.43648 19.9248 13.3081 63.0674 21.5626 104.934C22.7217 110.852 23.9627 116.708 25.3654 122.488C26.3679 129.464 26.917 136.498 27.0092 143.545C27.104 150.674 26.6385 157.799 25.617 164.855C27.0568 157.836 27.9467 150.715 28.2786 143.557C28.6083 136.453 28.491 129.336 27.9271 122.247C20.6398 74.2105 16.3756 24.9627 3.57687 -22.0409L-7.62169 -20.186ZM214.416 154.896C170.274 151.234 128.067 162.627 84.4126 167.252C75.3109 167.614 66.1954 167.366 57.1272 166.51C51.9312 166.197 46.7486 165.859 41.5781 165.626C36.4076 165.393 31.2732 165.248 26.1206 165.363C31.3283 165.065 36.5527 165.339 41.7006 166.179C46.8412 166.955 51.9274 168.128 57.0329 169.366C64.8597 171.632 72.6062 173.524 80.513 174.323C88.7607 175.197 97.0961 174.714 105.189 172.893C140.949 166.285 177.45 160.326 213.68 167.242L214.416 154.896ZM206.026 126.204C166.252 128.747 126.727 142.489 88.6548 152.591C81.4278 154.581 74.0942 156.161 66.6891 157.324C59.1611 158.493 51.5555 159.091 43.9376 159.111C37.4292 160.048 31.5238 162.462 25.6183 164.875C29.5775 163.602 34.0065 161.792 37.5622 162.061C43.9914 162.548 50.4421 162.69 56.8868 162.487C66.1444 161.777 75.1486 160.75 84.202 159.245C126.396 152.629 168.271 136.205 210.911 137.955L206.026 126.204ZM207.546 184.484C171.793 174.373 134.755 179.862 98.8078 182.343C93.9547 182.595 89.0905 182.535 84.2453 182.162C79.3319 181.777 74.4611 180.969 69.6867 179.747C63.8873 178.475 58.1968 176.751 52.6675 174.589C47.0471 172.36 41.6014 169.715 36.3759 166.673C33.2238 164.861 29.1981 165.128 25.6425 164.859C31.1202 167.447 36.6154 170.069 42.1408 172.614C47.6662 175.158 53.2561 177.608 58.9219 179.83C66.5272 183.158 74.4364 185.744 82.5392 187.552C90.831 189.387 99.2977 190.317 107.791 190.324C138.417 188.702 169.616 186.632 199.938 196.699L207.546 184.484ZM189.023 99.5649C150.527 112.131 114.891 131.175 77.232 144.777C72.4267 146.555 67.5673 148.2 62.6535 149.712C57.7398 151.224 52.734 152.592 47.6361 153.817C39.7179 156.364 31.8661 159.917 25.6237 164.88C28.04 163.203 29.9198 161.057 32.4026 160.387C39.4561 158.827 46.3867 157.191 53.1943 155.48C60.1043 153.737 66.9011 151.886 73.7838 149.807C78.646 148.433 83.4788 146.945 88.2821 145.343C124.687 134.027 159.583 119.076 196.859 110.392L189.023 99.5649ZM168.233 75.5725C145.09 91.2495 119.721 105.063 95.7556 120.531C89.8069 124.228 83.8291 127.843 77.8224 131.375C71.8156 134.907 65.7056 138.33 59.4924 141.643C53.6265 145.191 47.8431 148.84 42.1736 152.683C36.5042 156.526 30.9983 160.551 25.6378 164.864C31.9467 160.907 37.1163 155.005 43.9616 151.518C50.7807 148.603 57.5336 145.629 64.2204 142.598C70.9071 139.566 77.5668 136.508 84.1995 133.423C116.104 118.934 145.702 100.291 177.161 85.2502L168.233 75.5725ZM185.689 213.661C157.235 198.603 122.814 205.435 91.5682 198.911C86.1312 197.922 80.7815 196.503 75.5696 194.666C70.1912 192.767 65.0145 190.339 60.1156 187.418C53.9407 184.302 47.9478 180.839 42.1657 177.045C36.4589 173.279 30.9468 169.227 25.6505 164.903C29.7983 169.01 34.1333 173.044 38.6502 176.924C43.1671 180.804 47.8753 184.52 52.744 187.988C64.6779 197.188 78.7629 203.834 93.185 207.932C99.7182 209.451 106.354 210.487 113.04 211.032C133.973 213.312 156.783 214.326 174.683 226.087L185.689 213.661ZM143.226 271.291C138.34 266.671 133.137 262.399 127.654 258.506C122.27 254.653 116.705 251.136 111.059 247.765C84.7563 233.737 56.9231 217.894 38.9734 192.682C35.997 188.521 33.3748 184.119 31.1344 179.52C28.8451 174.818 26.9967 169.914 25.613 164.871C26.3103 169.973 27.5292 174.989 29.2503 179.842C30.9066 184.509 32.9924 189.012 35.481 193.292C54.9401 226.587 90.8909 242.902 119.81 265.85C125.257 270.62 130.583 275.563 135.79 280.68L143.226 271.291ZM160.984 243.71C148.466 235.476 134.693 229.331 120.203 225.517C115.503 224.065 110.802 222.668 106.156 221.208C87.0393 214.895 67.3858 208.112 51.6035 194.593C46.4139 190.556 41.6017 186.055 37.226 181.148C32.7907 176.155 28.8983 170.706 25.6143 164.891C29.6876 173.762 35.0326 181.992 41.4806 189.321C47.8717 196.554 55.0707 203.031 62.9367 208.625C68.2353 212.406 73.7666 215.851 79.4979 218.938C91.892 224.929 104.792 230.017 117.375 235.717C129.957 241.417 142.22 247.72 153.336 256.165L160.984 243.71ZM119.493 28.6943C97.1925 54.9898 83.6876 87.7271 63.738 115.787C60.7231 120.031 57.6485 124.212 54.5578 128.38C45.1978 140.777 35.6254 153.016 25.6076 164.866C30.3966 159.578 35.1337 154.27 39.819 148.942C44.5042 143.615 49.1756 138.281 53.8331 132.941C56.9635 129.324 60.0704 125.708 63.1539 122.093C87.2494 95.5875 105.316 63.053 131.052 38.5815L119.493 28.6943ZM16.4018 -22.8413C23.4821 17.9309 25.2016 59.2609 29.3709 99.9583C29.9501 107.425 30.3845 114.69 30.6626 121.884C30.7401 128.994 30.4218 136.104 29.7092 143.179C28.9865 150.304 27.773 157.371 26.0776 164.329C28.1836 157.271 29.8005 150.076 30.9171 142.796C32.0177 135.605 32.7184 128.359 33.016 121.091C32.7334 73.4334 28.0658 25.7286 24.3471 -22.4536L16.4018 -22.8413ZM34.3286 -20.9275C34.8185 21.2221 33.9887 62.2158 35.713 103.389C35.6752 110.391 35.353 117.296 34.7404 124.089C33.4729 137.724 30.9153 151.186 26.0561 164.311C31.4518 151.656 34.6204 138.416 36.5634 124.909C37.5282 118.168 38.1771 111.312 38.5544 104.322C38.0593 62.9363 40.9019 21.809 41.0547 -19.1802L34.3286 -20.9275ZM50.3105 -15.7864C47.7642 25.9227 44.4516 67.5866 42.1938 109.226C41.5642 114.155 40.7863 118.983 39.8751 123.779C36.9963 138.041 32.7264 151.9 25.6237 164.88C33.1287 152.252 38.0512 138.785 41.5731 124.925C42.7513 120.268 43.7824 115.576 44.6664 110.851C49.6327 69.2797 50.9989 28.7557 57.1531 -12.3537L50.3105 -15.7864ZM145.735 52.6637C127.242 66.1369 112.74 83.7778 96.1672 98.6854C92.183 102.639 88.1881 106.584 84.1234 110.467C80.0587 114.351 75.935 118.182 71.7094 121.925C66.7111 126.441 61.6697 130.917 56.5851 135.351C51.3303 140.168 46.1225 145.032 40.9616 149.943C35.8007 154.855 30.6881 159.834 25.6237 164.88C30.8597 159.984 36.2533 155.33 41.7273 150.822C47.2012 146.315 52.8495 141.998 58.5326 137.749C64.1992 133.862 69.7892 129.886 75.3024 125.821C80.7882 121.722 86.1875 117.537 91.5151 113.262C111.99 95.4471 133.603 78.3452 155.349 62.402L145.735 52.6637ZM-43.135 -8.76257C-15.497 16.9792 -5.99231 53.7493 5.94109 88.3417C7.89859 94.2566 9.8521 100.111 11.966 105.945C14.0798 111.779 16.2898 117.46 18.7587 123.083C20.8941 129.828 22.5565 136.715 23.7338 143.692C24.9218 150.699 25.549 157.789 25.6096 164.896C26.0395 157.777 25.9243 150.636 25.2649 143.535C24.6257 136.499 23.5209 129.513 21.9578 122.623C20.1022 116.873 18.413 111.041 16.8003 105.144C5.33009 64.6328 -1.15088 20.0808 -26.8403 -14.9535L-43.135 -8.76257ZM-83.3519 20.2834C-45.3039 47.7655 -22.317 89.7062 7.2129 125.496C11.2704 131.336 14.8357 137.504 17.8719 143.934C20.9516 150.496 23.3635 157.351 25.0712 164.396C24.5099 157.263 23.1747 150.212 21.0893 143.367C19.0325 136.638 16.3717 130.109 13.1393 123.86C3.11691 108.938 -5.0201 92.6423 -13.4209 76.5614C-16.1859 71.2004 -19.0246 65.8696 -21.9627 60.6415C-24.9008 55.4133 -27.9215 50.2361 -31.1328 45.2332C-40.7781 30.2053 -52.0451 16.4878 -67.1126 5.75685L-83.3519 20.2834ZM91.3286 8.53188C74.1209 42.3689 67.5232 80.2075 53.9644 115.571C52.1413 120.005 50.2248 124.376 48.2148 128.684C42.0938 141.529 34.9882 153.852 25.6109 164.916C29.9405 159.074 34.0547 153.11 37.9644 147.034C41.8741 140.957 45.663 134.812 49.3386 128.635C54.6468 122.076 57.6706 114.294 61.2308 106.982C74.8687 76.258 85.4209 44.7275 102.975 16.2855L91.3286 8.53188ZM67.7812 -6.16501C59.7034 30.6901 57.6013 67.725 50.0644 104.428C48.7166 109.885 47.2542 115.137 45.6067 120.341C40.5655 135.838 34.303 150.825 25.5721 164.863C34.9092 151.356 41.7619 136.734 47.4757 121.627C49.3224 116.531 51.0491 111.378 52.6256 106.093C62.3132 70.9604 63.8788 33.4557 76.6929 -0.63571L67.7812 -6.16501Z" fill="url(#paint0_linear_916_15678)"/>
<defs>
<linearGradient id="paint0_linear_916_15678" x1="127.187" y1="35.1964" x2="-222.886" y2="376.826" gradientUnits="userSpaceOnUse">
<stop stop-color="#D4FFFD"/>
<stop offset="1" stop-color="#24A19C"/>
</linearGradient>
</defs>
</svg>
