<svg width="66" height="27" viewBox="0 0 66 27" fill="none" xmlns="http://www.w3.org/2000/svg">
<path d="M12.3779 3.46816C11.6163 4.37669 10.3973 5.09353 9.17852 4.99103C9.02618 3.7626 9.62283 2.45713 10.3212 1.65084C11.0828 0.716716 12.416 0.0511848 13.4952 0C13.6222 1.27975 13.1269 2.53391 12.3779 3.46816ZM13.4826 5.23429C11.7178 5.13192 10.207 6.24519 9.36906 6.24519C8.51852 6.24519 7.23611 5.28547 5.83957 5.31107C4.02411 5.33666 2.33547 6.37315 1.40863 8.02412C-0.495821 11.3259 0.913539 16.2147 2.75439 18.9022C3.65584 20.2331 4.73501 21.692 6.15694 21.6408C7.50282 21.5896 8.036 20.7579 9.66117 20.7579C11.2989 20.7579 11.7687 21.6408 13.1907 21.6152C14.6634 21.5896 15.5902 20.2844 16.4917 18.9534C17.5199 17.4433 17.939 15.9715 17.9644 15.8947C17.939 15.8691 15.1205 14.7814 15.0951 11.5051C15.0697 8.76643 17.3169 7.46109 17.4185 7.38431C16.1488 5.49021 14.1683 5.28547 13.4826 5.23429ZM23.6777 1.52288V21.4746H26.7501V14.6535H31.0033C34.8882 14.6535 37.618 11.966 37.618 8.07543C37.618 4.185 34.939 1.523 31.1048 1.523L23.6777 1.52288ZM26.7501 4.13369H30.2923C32.9585 4.13369 34.482 5.56699 34.482 8.0881C34.482 10.6092 32.9585 12.0554 30.2796 12.0554H26.7501V4.13369ZM43.2295 21.628C45.1593 21.628 46.9494 20.6427 47.762 19.0813H47.8255V21.4745H50.6695V11.5435C50.6695 8.66406 48.3842 6.80835 44.8672 6.80835C41.6043 6.80835 39.1921 8.68965 39.1032 11.2747H41.871C42.0996 10.0462 43.2294 9.23989 44.7784 9.23989C46.6574 9.23989 47.7112 10.123 47.7112 11.7483V12.8488L43.8769 13.0791C40.3094 13.2967 38.3796 14.7685 38.3796 17.3281C38.3796 19.9132 40.3728 21.628 43.2295 21.628ZM44.0547 19.2605C42.417 19.2605 41.3758 18.4671 41.3758 17.2512C41.3758 15.9972 42.3788 15.2677 44.296 15.1525L47.7112 14.935V16.061C47.7112 17.9295 46.137 19.2605 44.0548 19.2605M54.4657 26.9007C57.462 26.9007 58.8712 25.749 60.1027 22.2552L65.4985 7.00029H62.3752L58.7568 18.7869H58.6934L55.075 7.00029H51.8629L57.0682 21.5257L56.7889 22.4087C56.3192 23.906 55.5574 24.482 54.1989 24.482C53.9577 24.482 53.4881 24.4564 53.2975 24.4308V26.8239C53.4752 26.8751 54.2369 26.9007 54.4655 26.9007" fill="black"/>
</svg>
