<svg width="476" height="476" viewBox="0 0 476 476" fill="none" xmlns="http://www.w3.org/2000/svg">
<mask id="mask0_314_3105" style="mask-type:alpha" maskUnits="userSpaceOnUse" x="53" y="53" width="370" height="370">
<circle cx="237.811" cy="237.811" r="184.5" transform="rotate(-20.703 237.811 237.811)" fill="#D9D9D9"/>
</mask>
<g mask="url(#mask0_314_3105)">
<path d="M242.032 441.548C234.017 390.67 245.871 339.239 248.593 288.712C249.048 282.28 249.365 275.874 249.469 269.479C249.772 256.632 248.866 243.785 246.762 231.107C248.424 242.642 248.937 254.314 248.292 265.951C248.008 271.779 247.489 277.627 246.822 283.452C242.003 338.11 220.159 390.708 225.254 446.211L242.032 441.548ZM165.038 449.414C165.902 445.123 166.458 439.696 168.35 435.503C195.147 384.511 220.238 335.903 237.705 282.35C239.476 276.595 241.019 270.786 242.278 264.919C244.889 253.064 246.078 240.939 245.821 228.802C245.459 240.999 243.7 253.114 240.579 264.909C239.061 270.804 237.267 276.638 235.274 282.426C216.603 335.485 191.225 383.332 156.331 431.298C153.391 435.018 152.834 440.445 151.218 445.76L165.038 449.414ZM133.888 437.624C172.516 391.325 206.835 341.837 230.971 286.06C233.528 280.199 235.879 274.276 237.946 268.269C242.171 256.234 245.105 243.785 246.701 231.13C243.682 243.273 239.752 255.172 234.946 266.725C232.565 272.52 229.995 278.256 227.289 283.93C212.629 313.563 198.809 341.393 179.377 370.473C162.31 394.312 139.697 408.075 122.859 429.507L133.888 437.624ZM202.013 450.447C204.455 397.548 232.115 348.838 240.994 296.158C242.239 290.575 243.337 285.039 244.248 279.469C246.975 262.788 247.977 245.89 245.888 228.864C247.068 241.232 246.72 253.698 244.852 265.981C243.975 272.077 242.789 278.116 241.37 284.113C229.025 329.139 212.199 372.015 194.139 416.227C189.984 428.231 186.301 439.187 186.003 451.324L202.013 450.447ZM93.3085 385.333C143.366 369.302 180.189 331.04 208.227 286.918C212.076 281.342 215.784 275.674 219.35 269.915C226.547 258.292 233.14 246.305 239.103 234.001C240.81 231.618 243.852 230.468 245.846 228.845C244.325 229.42 241.756 229.521 240.522 230.857C234.431 239.463 228.512 247.951 222.615 256.292C216.719 264.632 210.842 272.818 204.83 280.828C175.657 321.416 139.408 361.199 88.2019 371.43L93.3085 385.333ZM81.3281 350.735C90.0984 349.44 98.7029 347.199 106.991 344.053C132.236 335.252 152.651 317.972 172.009 300.127C178.456 293.978 184.676 287.645 190.805 281.277C196.934 274.909 202.852 268.534 208.73 262.33C213.566 257.164 218.41 251.995 223.317 246.879C228.225 241.764 233.194 236.696 238.272 231.733C240.266 230.11 243.596 229.721 245.878 228.859C234.181 232.41 223.923 239.765 213.664 247.119C209.215 250.688 204.959 254.444 200.82 258.303C195.079 264.342 189.167 270.341 183.055 276.155C176.942 281.969 170.649 287.626 164.134 292.974C151.862 304.385 136.753 312.704 122.364 320.446C114.953 324.104 107.259 327.158 99.3556 329.576C91.3414 332.022 83.1153 333.711 74.7853 334.619L81.3281 350.735ZM279.635 428.371C278.637 419.037 277.756 409.806 275.826 400.101C265.828 362.146 258.399 324.089 255.441 285.212C254.837 278.832 254.199 272.474 253.403 266.158C251.815 253.516 249.605 241.022 245.86 228.813C250.521 245.745 251.78 262.876 252.015 280.081C252.096 285.815 252.069 291.563 252.004 297.37C250.932 343.43 254.289 389.113 264.651 434.078L279.635 428.371ZM109.786 415.293C160.249 386.397 193.047 337.484 221.16 287.838C224.599 281.727 227.822 275.495 230.827 269.143C236.869 256.523 241.743 243.377 245.39 229.869C239.965 242.353 233.994 254.66 227.475 266.688C224.209 272.705 220.811 278.649 217.282 284.521C187.418 331.769 155.669 381.155 102.028 403.461L109.786 415.293ZM394.731 366.258C392.559 352.507 390.425 337.663 376.8 331.509C335.636 312.288 287.646 302.602 262.531 261.447C255.555 251.364 249.949 240.399 245.861 228.839C247.721 234.518 249.851 240.155 252.239 245.713C254.658 251.274 257.364 256.706 260.345 261.987C273.302 285.417 292.391 306.025 317.833 318.147C345.083 330.454 384.03 339.21 378.363 376.722L394.731 366.258ZM435.039 228.57C416.303 224.417 397.27 224.654 379.489 230.505C349.725 239.145 318.439 248.361 287.523 245.49C280.077 244.789 272.76 243.089 265.768 240.435C258.552 237.665 251.831 233.745 245.866 228.828C250.894 233.816 256.681 237.973 263.012 241.146C269.1 244.162 275.566 246.342 282.237 247.627C321.787 254.92 359.056 240.836 399.014 236.168C411.573 234.899 424.994 235.913 437.633 241.414L435.039 228.57ZM440.113 258.509C423.695 248.577 404.273 245.483 385.342 248.291C348.24 253.618 312.762 260.94 277.621 250.936C271.499 248.993 265.685 246.187 260.355 242.603C254.814 238.827 249.922 234.178 245.869 228.836C250.232 235.015 255.596 240.422 261.738 244.836C267.679 249.045 274.203 252.362 281.104 254.68C313.133 264.312 345.958 261.471 380.49 256.245C401.703 252.576 422.749 257.664 440.894 270.212L440.113 258.509ZM313.713 410.675C311.585 393.543 310.871 375.554 301.503 359.966C289.649 340.101 274.094 324.243 266.75 303.222C264.353 297.224 262.287 291.136 260.415 284.966C254.884 266.511 251.097 247.292 245.861 228.839C248.737 236.447 251.139 245.103 253.254 252.998C254.865 259.562 256.332 266.181 257.776 272.808C259.22 279.436 260.651 286.094 262.172 292.719C262.604 300.763 265.48 308.371 268.067 315.218C280.245 349.741 297.46 381.492 299.456 418.811L313.713 410.675ZM440.58 285.825C425.949 272.939 406.981 261.849 387.002 264.183C348.565 268.276 309.553 270.847 274.409 254.698C268.635 251.877 263.264 248.295 258.441 244.047C253.491 239.641 249.247 234.501 245.858 228.806C249.145 234.565 253.225 239.834 257.979 244.457C262.624 248.937 267.811 252.819 273.419 256.011C308.407 274.715 349.042 274.138 388.629 273.089C407.662 272.851 427.001 280.323 439.252 296.778L440.58 285.825ZM427.418 197.663C415.526 198.702 403.831 201.349 392.651 205.533C357.665 218.755 323.457 238.639 285.261 237.642C278.562 237.625 271.884 236.912 265.333 235.513C258.605 234.078 252.074 231.834 245.884 228.83C252.356 233.279 259.502 236.656 267.048 238.83C274.362 240.903 281.919 241.997 289.521 242.083C325.935 242.919 359.484 225.893 393.812 215.528C405.796 212.738 418.067 210.708 430.84 210.489L427.418 197.663ZM353.398 389.965C356.141 368.061 345.41 353.858 330.911 341.827C326.076 337.82 320.821 334.059 315.512 330.336C304.929 323.032 294.345 315.729 285.757 306.802C280.226 301.03 275.385 294.634 271.331 287.744C267.159 280.913 263.442 273.771 259.706 266.784C256.869 260.657 254.327 254.367 252.036 248.007C249.746 241.647 247.703 235.229 245.863 228.821C251.521 244.941 256.942 261.586 263.68 277.481C265.984 282.818 268.425 288.06 271.118 293.207C284.382 323.842 317.634 338.228 333.225 367.984C338.484 377.299 335.563 387.967 335.768 398.515L353.398 389.965ZM435.762 312.199C415.414 279.564 373.36 283.285 339.57 281.274C316.345 279.618 292.442 273.871 272.702 260.577C266.943 256.687 261.722 252.053 257.176 246.795C252.554 241.404 248.748 235.363 245.881 228.866C248.6 235.702 252.314 242.097 256.904 247.845C261.444 253.46 266.705 258.45 272.552 262.686C292.343 278.255 317.294 284.476 341.855 287.366C375.459 291.186 414.759 289.376 431.684 323.418L435.762 312.199ZM63.1855 310.389C103.223 304.482 137.802 280.981 171.951 260.345C177.706 256.875 183.479 253.45 189.306 250.169C195.133 246.889 201.011 243.746 206.973 240.823C213.079 237.862 219.387 235.339 225.85 233.272C232.385 231.187 239.096 229.699 245.899 228.825C238.994 228.061 232.023 228.102 225.127 228.945C218.395 229.783 211.756 231.253 205.3 233.335C198.967 235.667 192.691 238.152 186.438 240.741C180.185 243.331 173.964 245.96 167.764 248.668C130.727 264.561 93.5607 281.216 53.9203 291.554L63.1855 310.389ZM422.682 339.227C418.053 314.145 390.329 302.886 367.864 300.943C330.457 298.56 291.696 287.995 265.916 260.446C261.917 256.118 258.284 251.465 255.053 246.536C251.835 241.637 249.047 236.468 246.72 231.088C248.482 237.244 250.972 243.168 254.137 248.735C257.252 254.202 260.949 259.318 265.162 263.992C292.39 292.132 329.63 303.272 368.577 312.028C388.575 316.643 411.16 328.105 413.1 350.717L422.682 339.227ZM41.8774 162.93C90.8471 168.307 136.862 186.565 183.409 200.735C189.984 202.745 196.541 204.64 203.108 206.332C210.664 209.068 218.035 212.291 225.174 215.981C232.396 219.713 239.314 224.006 245.863 228.821C239.575 223.604 232.889 218.887 225.867 214.711C218.898 210.566 211.675 206.863 204.241 203.625C152.007 185.171 100.177 163.025 46.0227 150.669L41.8774 162.93ZM337.19 33.5512C309.811 75.9901 298.616 124.564 279.835 170.961C275.313 180.312 270.171 189.348 264.442 198.011C261.339 203.07 258.216 208.102 255.206 213.178C252.196 218.254 249.295 223.342 246.644 228.587C249.14 223.188 252.22 218.079 255.828 213.352C259.368 208.597 263.279 204.111 267.265 199.639C273.745 192.982 279.807 186.205 284.855 178.68C290.161 170.852 294.15 162.208 296.662 153.09C309.211 113.569 322.809 73.6515 349.214 40.9186L337.19 33.5512ZM303.823 26.5897C285.031 67.966 277.638 115.103 267.364 158.824C265.487 167.162 263.139 175.388 260.334 183.461C257.469 191.662 253.988 199.633 249.919 207.308C247.368 214.358 246.626 221.594 245.884 228.83C246.728 224.164 247.285 218.737 249.465 215.305C253.405 209.098 257.011 202.686 260.267 196.094C264.521 186.4 268.322 176.791 271.667 166.875C287.661 120.879 293.617 69.938 318.266 27.9828L303.823 26.5897ZM363.266 56.3444C333.903 86.8829 319.544 127.088 302.744 164.581C300.392 169.599 297.72 174.459 294.745 179.134C291.719 183.869 288.292 188.335 284.5 192.482C280.108 197.634 275.318 202.432 270.175 206.834C264.917 211.292 259.332 215.35 253.468 218.974C249.952 221.172 248.06 225.365 245.88 228.797C251.424 224.676 257.012 220.556 262.538 216.363C268.064 212.171 273.528 207.862 278.805 203.356C286.235 197.492 293.082 190.923 299.251 183.743C305.548 176.387 311.028 168.369 315.594 159.829C330.402 128.149 345.066 95.6536 371.47 70.5548L363.266 56.3444ZM267.898 29.3942C259.876 74.8646 259.903 120.936 253.372 166.121C252.581 171.909 251.627 177.68 250.511 183.435C249.394 189.19 248.083 194.96 246.579 200.745C244.89 210.078 244.25 219.884 245.892 228.827C245.502 225.497 244.352 222.454 245.011 219.596C247.228 211.663 249.303 203.814 251.235 196.047C253.192 188.16 254.978 180.329 256.581 172.289C257.809 166.661 258.906 161 259.873 155.308C268.031 112.612 271.723 69.4829 282.996 27.3227L267.898 29.3942ZM232.603 37.4296C235.95 69.1257 236.228 102.06 238.925 134.472C239.451 142.44 239.878 150.394 240.207 158.332C240.535 166.271 240.699 174.255 240.697 182.284C241.117 190.089 241.683 197.865 242.506 205.632C243.329 213.398 244.422 221.097 245.883 228.805C245.29 220.334 242.127 211.965 242.294 203.208C243.021 194.783 243.655 186.394 244.195 178.04C244.735 169.686 245.233 161.345 245.69 153.017C248.24 113.145 245.375 73.3631 247.131 33.6433L232.603 37.4296ZM380.885 93.9936C350.463 114.533 338.859 152.828 315.524 180.757C311.611 185.696 307.311 190.315 302.665 194.573C297.868 198.963 292.647 202.868 287.078 206.228C280.63 210.767 273.929 214.937 267.008 218.717C260.157 222.436 253.122 225.806 245.93 228.813C252.288 226.845 258.672 224.649 265 222.188C271.328 219.727 277.593 216.986 283.695 213.949C299.356 206.883 313.603 196.282 325.466 183.973C330.501 178.217 335.106 172.097 339.243 165.664C352.773 145.83 366.037 123.428 387.477 111.735L380.885 93.9936ZM416.065 167.644C408.794 170.079 401.704 173.02 394.845 176.447C388.078 179.795 381.553 183.504 375.132 187.374C346.9 206.304 316.023 225.798 281.025 230.322C275.242 231.083 269.406 231.357 263.577 231.142C257.619 230.921 251.693 230.148 245.877 228.833C251.383 230.87 257.084 232.337 262.89 233.211C268.474 234.05 274.123 234.368 279.765 234.163C323.703 232.46 359.413 205.053 398.021 188.279C405.744 185.361 413.576 182.656 421.518 180.164L416.065 167.644ZM397.851 134.976C382.849 143.148 369.274 153.705 357.659 166.233C353.675 170.182 349.747 174.162 345.784 178.051C329.172 193.893 311.799 210.023 289.728 218.642C282.881 221.696 275.77 224.121 268.485 225.888C261.081 227.67 253.51 228.66 245.898 228.843C257.009 229.507 268.157 228.548 278.99 225.996C289.697 223.449 300.077 219.684 309.926 214.774C316.575 211.474 323.009 207.758 329.191 203.65C341.87 194.398 353.913 184.151 366.401 174.554C378.89 164.957 391.812 156.004 406.275 149.355L397.851 134.976ZM159.282 61.2965C173.764 97.8445 199.447 129.003 216.966 164.134C219.616 169.444 222.172 174.782 224.706 180.128C232.152 196.198 239.326 212.398 245.869 228.836C243.121 221.18 240.324 213.566 237.479 205.992C234.634 198.419 231.776 190.857 228.905 183.305C226.946 178.215 224.977 173.148 222.996 168.106C209.266 129.639 186.236 94.0004 175.434 54.9751L159.282 61.2965ZM52.1018 137.338C96.9176 152.101 139.417 172.557 182.595 190.209C190.417 193.634 197.958 197.097 205.344 200.678C212.539 204.417 219.52 208.554 226.255 213.069C233.034 217.621 239.492 222.635 245.582 228.075C239.612 222.168 233.242 216.679 226.518 211.648C219.875 206.681 212.961 202.086 205.81 197.885C157.717 172.588 107.222 151.676 56.7567 129.553L52.1018 137.338ZM63.6499 120.332C106.314 142.464 147.106 165.304 189.45 185.67C196.474 189.467 203.247 193.498 209.752 197.761C222.787 206.354 234.957 216.153 245.551 228.087C235.717 215.866 224.099 205.571 211.555 196.366C205.292 191.778 198.743 187.445 191.914 183.313C150.016 161.596 110.17 136.66 69.0181 114.503L63.6499 120.332ZM77.4005 107.014C117.991 131.965 158.125 157.661 198.801 182.284C203.421 185.563 207.86 188.937 212.196 192.429C224.998 202.98 236.647 214.715 245.892 228.827C237.217 214.499 226.312 202.318 214.26 191.336C210.208 187.65 206.042 184.095 201.763 180.669C162.61 153.358 122.578 130.231 84.5266 101.973L77.4005 107.014ZM197.481 47.7644C201.108 73.5991 211.069 97.6571 217.17 122.331C219.008 128.461 220.832 134.598 222.557 140.771C224.281 146.944 225.922 153.15 227.419 159.409C229.279 166.862 231.075 174.336 232.807 181.831C234.831 189.702 236.929 197.552 239.099 205.38C241.27 213.208 243.534 221.024 245.892 228.827C243.777 220.932 241.991 213.008 240.395 205.082C238.799 197.156 237.488 189.156 236.264 181.159C235.396 173.372 234.397 165.614 233.267 157.886C232.088 150.167 230.777 142.49 229.336 134.835C222.405 104.676 216.804 73.7535 212.438 43.3202L197.481 47.7644ZM34.3058 204.787C75.0367 190.802 117.128 200.978 158.332 207.543C165.333 208.748 172.271 209.926 179.274 210.931C186.278 211.936 193.178 212.762 200.16 213.297C208.093 214.77 215.912 216.794 223.563 219.355C231.249 221.921 238.719 225.096 245.9 228.85C238.97 224.596 231.724 220.879 224.227 217.731C216.806 214.597 209.185 211.958 201.415 209.832C194.635 208.612 187.862 207.181 181.064 205.638C134.154 195.431 85.8576 178.035 36.8248 185.072L34.3058 204.787ZM41.937 260.835C90.0065 237.312 144.536 236.701 196.391 226.207C204.444 225.26 212.562 224.984 220.66 225.382C228.914 225.806 237.105 227.06 245.108 229.123C237.631 225.859 229.821 223.417 221.817 221.841C213.944 220.298 205.948 219.47 197.926 219.367C177.535 221.439 156.775 220.878 136.088 220.696C129.211 220.6 122.325 220.594 115.488 220.743C108.652 220.893 101.822 221.152 95.066 221.697C74.7711 223.333 54.9239 227.304 36.0409 236.701L41.937 260.835ZM123.882 78.8053C148.683 114.279 183.206 141.227 211.502 173.85C214.984 178.064 218.352 182.338 221.607 186.672C231.242 199.724 239.825 213.488 245.921 228.86C242.369 221.369 238.578 214.028 234.564 206.834C230.549 199.639 226.402 192.529 222.161 185.515C218.412 176.655 212.207 169.436 206.763 161.929C183.176 131.718 157.122 104.178 137.933 71.2517L123.882 78.8053ZM96.4573 94.6039C129.196 122.513 165.323 144.508 198.199 171.791C202.965 176.076 207.464 180.367 211.814 184.817C224.697 198.207 236.412 212.552 245.847 228.87C237.271 212.227 226.241 197.485 214.111 183.628C209.976 179.035 205.719 174.531 201.249 170.108C171.107 141.504 134.219 119.797 106.803 88.6072L96.4573 94.6039Z" fill="url(#paint0_linear_314_3105)"/>
</g>
<defs>
<linearGradient id="paint0_linear_314_3105" x1="169.954" y1="57.0461" x2="306.471" y2="418.273" gradientUnits="userSpaceOnUse">
<stop stop-color="#D4FFFD"/>
<stop offset="1" stop-color="#24A19C"/>
</linearGradient>
</defs>
</svg>
