<svg width="24" height="25" viewBox="0 0 24 25" fill="none" xmlns="http://www.w3.org/2000/svg">
<path fill-rule="evenodd" clip-rule="evenodd" d="M20.3646 0.520456C20.6231 0.36495 20.9318 0.315629 21.2259 0.382846C21.52 0.450062 21.7766 0.628588 21.9419 0.880956L23.0969 2.64262C23.2475 2.87276 23.3119 3.14869 23.2788 3.42171C23.2457 3.69473 23.1173 3.94728 22.9161 4.13479L22.9126 4.13946L22.8963 4.15462L22.8298 4.21646L22.5673 4.46729C21.1148 5.87623 19.7064 7.32981 18.3439 8.82596C15.7808 11.6446 12.7369 15.3336 10.6883 18.913C10.1166 19.9116 8.72009 20.1263 7.89176 19.2641L0.325923 11.4031C0.217499 11.2904 0.132839 11.1571 0.0769752 11.011C0.0211115 10.8649 -0.00481545 10.7091 0.000735129 10.5529C0.00628571 10.3966 0.0432006 10.243 0.109286 10.1013C0.175371 9.95952 0.269277 9.83251 0.385423 9.72779L2.67209 7.66512C2.87304 7.48395 3.13071 7.37825 3.401 7.36612C3.67128 7.35399 3.93739 7.43618 4.15376 7.59862L8.01426 10.4931C14.0448 4.54662 17.4643 2.26462 20.3646 0.520456ZM20.6096 3.10579C17.9379 4.77646 14.6036 7.19962 8.94526 12.8568C8.7467 13.0554 8.48319 13.1756 8.20309 13.1956C7.92299 13.2155 7.64509 13.1337 7.42042 12.9653L3.52142 10.0416L2.84359 10.653L9.04676 17.1C11.2004 13.5183 14.1649 9.95296 16.6184 7.25562C17.9105 5.83636 19.2429 4.45445 20.6143 3.11162L20.6096 3.10579Z" fill="#24A19C"/>
</svg>
