<svg width="16" height="16" viewBox="0 0 16 16" fill="none" xmlns="http://www.w3.org/2000/svg">
<path d="M7.33203 0.666992C3.65041 0.667195 0.666191 3.65138 0.666016 7.33301C0.666016 11.0148 3.65031 13.9998 7.33203 14C8.9332 14 10.4024 13.4349 11.5518 12.4941L14.1943 15.1377C14.4547 15.398 14.8764 15.398 15.1367 15.1377C15.3971 14.8773 15.3971 14.4557 15.1367 14.1953L12.4941 11.5518C13.4344 10.4026 13.999 8.9337 13.999 7.33301C13.9988 3.65126 11.0138 0.666992 7.33203 0.666992ZM7.33203 2C10.2774 2 12.6658 4.38764 12.666 7.33301C12.666 10.2785 10.2775 12.667 7.33203 12.667C4.38669 12.6668 1.99902 10.2784 1.99902 7.33301C1.9992 4.38776 4.38679 2.0002 7.33203 2Z" fill="#616161"/>
</svg>
