<svg width="61" height="38" viewBox="0 0 61 38" fill="none" xmlns="http://www.w3.org/2000/svg">
<g style="mix-blend-mode:overlay" opacity="0.32">
<path d="M2.21342 21.8809L1.49009 22.8809C1.2227 23.2222 1.0303 23.616 0.925464 24.0366C0.820629 24.4573 0.805707 24.8953 0.881689 25.3221C0.957672 25.7489 1.12285 26.1549 1.36642 26.5135C1.60998 26.8722 1.92646 27.1754 2.29519 27.4034L19.4665 37.1589C19.8516 37.3576 20.2742 37.4731 20.7069 37.4978C21.1395 37.5224 21.5725 37.4557 21.9777 37.3021C22.3829 37.1484 22.7512 36.9112 23.0587 36.6059C23.3662 36.3006 23.606 35.934 23.7625 35.5299L24.1902 34.5361C15.4599 33.4102 7.72964 28.4035 2.21342 21.8809Z" fill="#24A19C"/>
</g>
<path d="M50.357 24.9378C49.5078 22.8496 47.2624 21.2771 46.4447 21.7929C45.8157 22.1703 46.017 23.7742 46.4447 25.1203L28.0216 25.6046L31.1666 18.1951C31.3769 17.7142 31.4634 17.1883 31.4184 16.6653C31.3733 16.1424 31.1981 15.639 30.9087 15.2011C30.9119 12.0481 29.8898 8.97954 27.9965 6.45821C25.6232 3.49205 22.2563 1.48532 18.5182 0.808926C14.7801 0.132534 10.9236 0.832211 7.66133 2.77864C4.42182 4.81242 2.11959 8.04638 1.25823 11.7731C0.444765 15.1634 0.78108 18.7279 2.2143 21.9061L1.49097 22.9062C1.22357 23.2474 1.03117 23.6412 0.92634 24.0619C0.821505 24.4825 0.806583 24.9206 0.882565 25.3474C0.958548 25.7742 1.12373 26.1802 1.36729 26.5388C1.61086 26.8974 1.92734 27.2006 2.29607 27.4286L19.4674 37.1842C19.8525 37.3829 20.2751 37.4983 20.7078 37.523C21.1404 37.5477 21.5734 37.481 21.9786 37.3274C22.3838 37.1737 22.7521 36.9365 23.0596 36.6312C23.3671 36.3259 23.6069 35.9592 23.7634 35.5551L24.2163 34.5047C29.2859 32.8442 41.5386 29.02 47.3881 27.2022C48.1995 28.5357 49.3066 29.6741 50.0047 29.4288C50.8727 29.1017 51.0803 26.7305 50.357 24.9378ZM12.6177 7.61555L3.37163 20.2959C2.39641 17.6804 2.2234 14.8335 2.87474 12.1191C3.63221 8.83814 5.65564 5.9895 8.50417 4.19386C14.2217 0.633792 22.5432 2.14966 26.6756 7.50233C28.0845 9.33995 28.9556 11.5327 29.1916 13.8362L16.53 6.6532C15.8732 6.30198 15.1097 6.20597 14.3864 6.38361C13.663 6.56125 13.0309 7.00002 12.6115 7.61555H12.6177Z" fill="#24A19C"/>
<g style="mix-blend-mode:overlay" opacity="0.32">
<path d="M26.6942 26.3586C27.0527 27.7612 31.9148 27.8996 35.4182 27.4719C38.2088 27.1317 40.9282 26.3526 43.4756 25.1635L28.0151 25.5723L29.1913 22.8174C28.6173 23.213 28.1117 23.6995 27.6943 24.2577C27.1345 25.0062 26.5495 25.7925 26.6942 26.3586Z" fill="black"/>
</g>
<g style="mix-blend-mode:overlay" opacity="0.32">
<path d="M47.2191 23.328C47.2677 23.2276 47.349 23.1467 47.4496 23.0986C47.5503 23.0506 47.6643 23.0383 47.7729 23.0637C48.1882 23.1896 48.2386 24.1712 48.0183 24.2782C47.7981 24.3852 47.0618 23.7308 47.2191 23.328Z" fill="black"/>
</g>
<g style="mix-blend-mode:overlay" opacity="0.32">
<path d="M48.9854 24.9188C49.0348 24.8192 49.1162 24.739 49.2166 24.6911C49.317 24.6431 49.4306 24.6303 49.5392 24.6545C49.9545 24.7804 50.0111 25.7621 49.7846 25.8691C49.558 25.976 48.8344 25.3279 48.9854 24.9188Z" fill="black"/>
</g>
<g style="mix-blend-mode:overlay" opacity="0.32">
<path d="M47.9924 26.6805C48.0409 26.5801 48.1222 26.4992 48.2229 26.4512C48.3235 26.4031 48.4376 26.3908 48.5462 26.4162C48.9615 26.5421 49.0181 27.5238 48.7979 27.6308C48.5776 27.7377 47.8351 27.0833 47.9924 26.6805Z" fill="black"/>
</g>
<path d="M51.6018 27.8442C51.4572 27.9511 51.4949 28.2467 52.0987 30.2343C52.5705 31.7816 52.6837 32.0521 53.0045 32.2094C53.2857 32.3329 53.6 32.3598 53.8981 32.2858C54.1963 32.2118 54.4615 32.0412 54.6524 31.8005C55.1871 30.9325 53.8536 29.2846 52.9227 28.5046C52.6837 28.3096 51.8975 27.6492 51.6018 27.8442Z" fill="#24A19C"/>
<path d="M54.0177 25.8435C53.9611 26.0196 54.1687 26.2271 55.8544 27.4411C57.169 28.3908 57.4269 28.5355 57.7728 28.4663C58.0719 28.394 58.3385 28.2244 58.5309 27.9842C58.7233 27.7441 58.8305 27.4468 58.8358 27.1392C58.7352 26.1265 56.6784 25.6296 55.4644 25.5667C55.1499 25.5541 54.1247 25.5038 54.0177 25.8435Z" fill="#24A19C"/>
<path d="M57.3004 31.102C57.2563 31.2152 57.3821 31.3976 58.42 32.5298C59.2314 33.4104 59.3949 33.555 59.6339 33.5676C59.8374 33.5586 60.0304 33.4746 60.1756 33.3317C60.3208 33.1889 60.4079 32.9973 60.4201 32.7939C60.4201 32.058 59.0804 31.3787 58.2816 31.1397C58.074 31.0768 57.3947 30.8755 57.3004 31.102Z" fill="#24A19C"/>
</svg>
